<svg xmlns="http://www.w3.org/2000/svg" xmlns:xlink="http://www.w3.org/1999/xlink" version="1.1" x="0px" y="0px" viewBox="0 0 100 125" enable-background="new 0 0 100 100" xml:space="preserve"><path d="M78.189,56.132c-1.742-1.965-3.811-3.982-6.123-6.001c2.313-2.019,4.381-4.036,6.123-6  c5.274-5.943,7.046-10.722,5.124-13.818c-1.149-1.853-3.413-2.792-6.729-2.792c-3.819,0-8.903,1.253-14.589,3.491  c-1.925-10.507-5.516-18.464-10.615-18.464c-5.182,0-8.808,8.214-10.708,18.973c-1.479-0.514-2.864-0.953-4.14-1.339  c-0.795-0.241-1.63,0.209-1.869,1.001c-0.24,0.793,0.209,1.631,1.002,1.87c1.426,0.432,2.936,0.913,4.53,1.476  c-0.405,2.862-0.698,5.856-0.872,8.891c-2.231,1.561-4.342,3.154-6.311,4.76c-2.357-2.035-4.447-4.066-6.197-6.039  c-4.85-5.465-5.67-8.876-4.819-10.245c0.437-0.704,0.221-1.629-0.483-2.065c-0.704-0.439-1.629-0.222-2.065,0.483  c-1.922,3.097-0.15,7.875,5.124,13.818c1.742,1.964,3.811,3.981,6.123,6c-2.313,2.019-4.381,4.036-6.123,6.001  c-5.275,5.943-7.046,10.721-5.124,13.817c1.149,1.854,3.413,2.793,6.729,2.793c3.819,0,8.903-1.253,14.589-3.491  c1.926,10.507,5.517,18.463,10.615,18.463c5.182,0,8.807-8.213,10.707-18.972c1.424,0.493,2.783,0.927,4.074,1.318  c0.146,0.044,0.292,0.064,0.437,0.064c0.644,0,1.238-0.417,1.435-1.064c0.24-0.792-0.207-1.63-0.999-1.871  c-1.407-0.428-2.896-0.903-4.468-1.458c0.404-2.861,0.697-5.854,0.871-8.888c2.231-1.562,4.342-3.155,6.311-4.761  c2.357,2.035,4.447,4.067,6.198,6.04c4.849,5.464,5.669,8.875,4.818,10.244c-0.06,0.096-0.103,0.165-0.136,0.215  c-0.475,0.68-0.307,1.614,0.372,2.088c0.262,0.183,0.561,0.27,0.856,0.27c0.475,0,0.94-0.224,1.232-0.643  c0.055-0.078,0.125-0.188,0.224-0.348C85.236,66.853,83.465,62.075,78.189,56.132z M39.17,47.224  c-0.024,0.971-0.039,1.94-0.039,2.907s0.015,1.938,0.039,2.908c-1.318-0.963-2.604-1.933-3.814-2.908  C36.566,49.155,37.852,48.187,39.17,47.224z M26.177,69.742c-2.146,0-3.63-0.488-4.18-1.375c-0.851-1.369-0.03-4.78,4.818-10.244  c1.751-1.973,3.841-4.005,6.198-6.04c1.969,1.605,4.079,3.199,6.311,4.761c0.184,3.202,0.5,6.359,0.941,9.365  C34.697,68.457,29.736,69.742,26.177,69.742z M60.306,41.304c-0.813-0.531-1.629-1.062-2.465-1.58  c-1.142-0.709-2.257-1.365-3.351-1.979c1.754-0.905,3.486-1.739,5.176-2.492C59.93,37.15,60.145,39.17,60.306,41.304z   M51.381,15.548c2.619,0,5.938,6.056,7.805,16.631c-2.556,1.113-5.201,2.401-7.895,3.854c-2.787-1.417-5.391-2.55-7.783-3.474  C45.361,21.745,48.73,15.548,51.381,15.548z M43.047,35.594c1.611,0.636,3.303,1.364,5.078,2.214  c-1.066,0.619-2.135,1.252-3.204,1.916c-0.836,0.519-1.651,1.049-2.465,1.58C42.607,39.299,42.805,37.391,43.047,35.594z   M42.457,58.959c0.813,0.531,1.629,1.062,2.465,1.58c1.144,0.71,2.258,1.366,3.348,1.98c-1.754,0.903-3.484,1.737-5.174,2.49  C42.832,63.112,42.617,61.093,42.457,58.959z M51.381,84.714c-2.619,0-5.938-6.056-7.804-16.631c2.553-1.111,5.196-2.398,7.887-3.85  c2.782,1.417,5.376,2.547,7.788,3.476C57.398,78.519,54.031,84.714,51.381,84.714z M59.715,64.666  c-1.61-0.636-3.302-1.364-5.077-2.213c1.065-0.618,2.134-1.251,3.202-1.914c0.836-0.519,1.652-1.049,2.465-1.58  C60.154,60.963,59.957,62.87,59.715,64.666z M60.523,55.202c-1.387,0.944-2.801,1.879-4.266,2.788  c-1.609,0.999-3.225,1.943-4.832,2.838c-1.58-0.844-3.219-1.78-4.922-2.838c-1.465-0.909-2.879-1.844-4.266-2.788  c-0.068-1.635-0.107-3.322-0.107-5.071c0-1.748,0.039-3.436,0.107-5.071c1.386-0.943,2.8-1.878,4.265-2.787  c1.61-1,3.226-1.943,4.834-2.839c1.579,0.844,3.218,1.78,4.922,2.839c1.465,0.909,2.879,1.844,4.265,2.787  c0.068,1.636,0.107,3.323,0.107,5.071C60.631,51.88,60.592,53.567,60.523,55.202z M63.592,53.039  c0.024-0.971,0.039-1.941,0.039-2.908s-0.015-1.937-0.039-2.907c1.318,0.963,2.604,1.932,3.814,2.907  C66.195,51.106,64.91,52.076,63.592,53.039z M63.438,43.419c-0.184-3.203-0.5-6.36-0.941-9.366  c5.568-2.247,10.527-3.532,14.089-3.532c2.146,0,3.63,0.487,4.18,1.374c0.851,1.369,0.03,4.78-4.819,10.245  c-1.75,1.973-3.84,4.004-6.197,6.039C67.779,46.573,65.669,44.979,63.438,43.419z"/><path d="M51.381,44.88c-2.896,0-5.251,2.355-5.251,5.251s2.355,5.251,5.251,5.251s5.251-2.355,5.251-5.251  S54.276,44.88,51.381,44.88z M51.381,52.382c-1.241,0-2.251-1.01-2.251-2.251s1.01-2.251,2.251-2.251s2.251,1.01,2.251,2.251  S52.622,52.382,51.381,52.382z"/><path d="M28.25,33.683c2.48,0,4.5-2.02,4.5-4.501s-2.02-4.501-4.5-4.501c-2.482,0-4.5,2.02-4.5,4.501S25.768,33.683,28.25,33.683z   M28.25,27.681c0.826,0,1.5,0.673,1.5,1.501s-0.674,1.501-1.5,1.501c-0.828,0-1.5-0.673-1.5-1.501S27.422,27.681,28.25,27.681z"/><path d="M74.583,66.348c-2.481,0-4.5,2.02-4.5,4.501s2.019,4.501,4.5,4.501s4.5-2.02,4.5-4.501S77.064,66.348,74.583,66.348z   M74.583,72.35c-0.827,0-1.5-0.673-1.5-1.501s0.673-1.501,1.5-1.501s1.5,0.673,1.5,1.501S75.41,72.35,74.583,72.35z"/><text x="0" y="115" fill="#000000" font-size="5px" font-weight="bold" font-family="'Helvetica Neue', Helvetica, Arial-Unicode, Arial, Sans-serif">Created by Gregory Sujkowski</text><text x="0" y="120" fill="#000000" font-size="5px" font-weight="bold" font-family="'Helvetica Neue', Helvetica, Arial-Unicode, Arial, Sans-serif">from the Noun Project</text></svg>