<?xml version="1.0" encoding="UTF-8" standalone="no"?>
<!-- Created with Inkscape (http://www.inkscape.org/) -->

<svg
   xmlns:dc="http://purl.org/dc/elements/1.1/"
   xmlns:cc="http://creativecommons.org/ns#"
   xmlns:rdf="http://www.w3.org/1999/02/22-rdf-syntax-ns#"
   xmlns:svg="http://www.w3.org/2000/svg"
   xmlns="http://www.w3.org/2000/svg"
   xmlns:sodipodi="http://sodipodi.sourceforge.net/DTD/sodipodi-0.dtd"
   xmlns:inkscape="http://www.inkscape.org/namespaces/inkscape"
   width="4in"
   height="4in"
   viewBox="0 0 360.00001 360.00001"
   id="svg2"
   version="1.1"
   inkscape:version="0.91 r13725"
   sodipodi:docname="2x4end2d.svg">
  <defs
     id="defs4" />
  <sodipodi:namedview
     id="base"
     pagecolor="#ffffff"
     bordercolor="#666666"
     borderopacity="1.0"
     inkscape:pageopacity="0.0"
     inkscape:pageshadow="2"
     inkscape:zoom="1.575"
     inkscape:cx="179.36508"
     inkscape:cy="180"
     inkscape:document-units="px"
     inkscape:current-layer="layer1"
     showgrid="false"
     units="in"
     inkscape:window-width="1366"
     inkscape:window-height="719"
     inkscape:window-x="9"
     inkscape:window-y="0"
     inkscape:window-maximized="0" />
  <metadata
     id="metadata7">
    <rdf:RDF>
      <cc:Work
         rdf:about="">
        <dc:format>image/svg+xml</dc:format>
        <dc:type
           rdf:resource="http://purl.org/dc/dcmitype/StillImage" />
        <dc:title></dc:title>
      </cc:Work>
    </rdf:RDF>
  </metadata>
  <g
     inkscape:label="Layer 1"
     inkscape:groupmode="layer"
     id="layer1"
     transform="translate(0,-692.36215)">
    <path
       style="fill:#000000"
       d="m 355.90697,892.18683 c -0.52089,0.1999 -31.6039,0.36345 -69.07337,0.36345 l -68.1263,0 -1.72433,1.34715 c -0.94839,0.74094 -13.66617,11.38349 -28.26173,23.65012 -24.18232,20.32366 -29.12762,24.02393 -28.80695,21.55451 0.0534,-0.41162 0.0611,-1.42198 0.0171,-2.24526 -0.0638,-1.19123 -0.1971,-1.31347 -0.65313,-0.59872 -0.45531,0.71365 -5.19334,-3.72067 -23.06889,-21.59017 -13.53572,-13.53112 -22.42564,-21.99709 -22.31951,-21.25514 0.097,0.67819 0.37709,1.09836 0.6224,0.93373 0.64214,-0.43102 44.75863,43.82407 44.75863,44.89922 0,0.49399 -10.10369,-9.20283 -22.45263,-21.5485 l -22.45264,-22.44663 0,2.87633 c 0,1.58199 -0.20207,2.75083 -0.44905,2.59743 -0.24698,-0.15342 -0.35488,1.21031 -0.23977,3.03051 0.1151,1.82018 -0.0196,3.16735 -0.29937,2.99369 -0.27976,-0.17367 -0.41448,1.17349 -0.29937,2.99368 0.1151,1.8202 -0.0196,3.16734 -0.29937,2.99369 -0.27976,-0.17367 -0.41447,1.17349 -0.29937,2.99368 0.1151,1.82018 -0.0196,3.16734 -0.29936,2.99368 -0.27977,-0.17366 -0.41448,1.1735 -0.29937,2.9937 0.1151,1.82018 -0.0196,3.1672 -0.29937,2.99337 -0.27976,-0.17384 -0.41576,1.30722 -0.30224,3.29127 0.11353,1.98405 -0.0212,3.46606 -0.29937,3.29336 -0.27818,-0.17269 -0.41161,1.17527 -0.2965,2.99546 0.1677,2.6519 0.0487,3.21465 -0.59873,2.83234 -0.77536,-0.45782 34.79336,34.6626 43.54644,42.99762 l 4.2391,4.03654 99.04302,0.14722 99.04303,0.14695 -99.62165,0.30205 -99.62168,0.30197 -3.87182,-3.89184 c -2.12951,-2.14045 -3.7325,-3.62234 -3.5622,-3.29303 0.17029,0.3293 -6.97236,-6.67589 -15.87254,-15.56713 -8.90017,-8.89124 -15.97376,-15.76176 -15.71909,-15.26779 0.25467,0.49396 0.33725,0.76338 0.1835,0.59873 -7.16355,-7.67174 -9.51639,-9.96954 -9.89136,-9.65987 -0.25273,0.2087 -0.0935,-0.0982 0.35386,-0.68206 0.72016,-0.93982 0.68359,-1.01999 -0.31911,-0.69954 -1.10615,0.35354 -1.10637,0.3406 -0.01,-0.55625 1.37847,-1.12723 0.88002,-2.77196 -0.84006,-2.77196 -0.68838,0 -1.09236,-0.25768 -0.89772,-0.5726 0.19463,-0.31493 0.79359,-0.40384 1.33103,-0.19762 0.65317,0.25066 0.83361,0.14273 0.54422,-0.32551 -0.23811,-0.38526 -0.97178,-0.70048 -1.63039,-0.70048 -0.65861,0 -1.03824,-0.25767 -0.8436,-0.5726 0.19463,-0.31491 0.7936,-0.40384 1.33103,-0.19761 0.65318,0.25063 0.83361,0.14272 0.54423,-0.32551 -0.23812,-0.38528 -0.97179,-0.70049 -1.6304,-0.70049 -0.65861,0 -1.03096,-0.26943 -0.82744,-0.59873 0.20352,-0.32931 0.0688,-0.59874 -0.29937,-0.59874 -0.36817,0 -0.51016,-0.25769 -0.31552,-0.57259 0.19463,-0.31494 0.79359,-0.40386 1.33102,-0.19763 0.65318,0.25065 0.83362,0.14273 0.54423,-0.32551 -0.23811,-0.38528 -0.97178,-0.70049 -1.63039,-0.70049 -0.65862,0 -1.03824,-0.25767 -0.8436,-0.5726 0.19463,-0.31492 0.79359,-0.40383 1.33103,-0.19762 0.65318,0.25066 0.83361,0.14273 0.54422,-0.32549 -0.23811,-0.38529 -0.97178,-0.7005 -1.63039,-0.7005 -0.65861,0 -1.03824,-0.25767 -0.8436,-0.57257 0.19463,-0.31495 0.7936,-0.40386 1.33103,-0.19764 0.65318,0.25065 0.83361,0.14274 0.54423,-0.32552 -0.23811,-0.38526 -0.97179,-0.70046 -1.6304,-0.70046 -0.65861,0 -1.03823,-0.2577 -0.8436,-0.57261 0.19464,-0.31493 0.7936,-0.40385 1.33103,-0.19762 0.65318,0.25065 0.83362,0.14273 0.54423,-0.32551 -0.23811,-0.38528 -0.97178,-0.7005 -1.6304,-0.7005 -0.65861,0 -1.03095,-0.26942 -0.82743,-0.59873 0.20352,-0.3293 0.0688,-0.59875 -0.29937,-0.59875 -0.36818,0 -0.51017,-0.25765 -0.31553,-0.57258 0.19463,-0.31492 0.7936,-0.40384 1.33103,-0.19762 0.65318,0.25065 0.83361,0.14273 0.54423,-0.32552 -0.23812,-0.38525 -0.97179,-0.70047 -1.6304,-0.70047 -0.65861,0 -1.03823,-0.25768 -0.8436,-0.57259 0.19464,-0.31493 0.7936,-0.40385 1.33103,-0.19761 0.65318,0.25063 0.83362,0.14272 0.54423,-0.32553 -0.23811,-0.38528 -0.97179,-0.70049 -1.6304,-0.70049 -0.65861,0 -1.03823,-0.25767 -0.84359,-0.57259 0.19463,-0.31493 0.79359,-0.40385 1.33103,-0.19762 0.65318,0.25064 0.83361,0.14273 0.54422,-0.32553 -0.23811,-0.38525 -0.97178,-0.70047 -1.63039,-0.70047 -0.658614,0 -1.038236,-0.25766 -0.843599,-0.57259 0.194631,-0.31492 0.793599,-0.40383 1.331029,-0.19762 0.65318,0.25065 0.83361,0.14273 0.54423,-0.3255 -0.23812,-0.38528 -0.97179,-0.70051 -1.630399,-0.70051 -0.658611,0 -1.038234,-0.25766 -0.843598,-0.57257 0.194632,-0.31494 0.793597,-0.40385 1.331027,-0.19763 0.65318,0.25064 0.83362,0.14274 0.54423,-0.32552 -0.23811,-0.38527 -0.971787,-0.70048 -1.630396,-0.70048 -0.658612,0 -1.030959,-0.26943 -0.827437,-0.59873 0.203521,-0.3293 0.06881,-0.59874 -0.299369,-0.59874 -0.368175,0 -0.510164,-0.25768 -0.315527,-0.5726 0.19463,-0.31492 0.793595,-0.40383 1.331028,-0.19762 0.653179,0.25065 0.833611,0.14273 0.544227,-0.32551 -0.238112,-0.38527 -0.971785,-0.70049 -1.630397,-0.70049 -0.65861,0 -1.038234,-0.25766 -0.843596,-0.57259 0.194631,-0.31492 0.816755,-0.40998 1.382495,-0.21124 0.83888,0.29469 0.890562,0.21256 0.280192,-0.44525 -0.411632,-0.44365 -0.748422,-1.91129 -0.748422,-3.26144 0,-1.35015 0.33679,-2.81779 0.748422,-3.26145 0.61037,-0.65781 0.558688,-0.73992 -0.280192,-0.44524 -0.56574,0.19875 -1.187864,0.10367 -1.382495,-0.21125 -0.194638,-0.31492 0.06616,-0.57258 0.579559,-0.57258 0.700714,0 0.933443,-0.6419 0.933443,-2.57459 0,-1.41601 0.336789,-2.93753 0.748421,-3.38116 0.610374,-0.65783 0.558684,-0.73995 -0.280191,-0.44526 -0.56574,0.19872 -1.187864,0.10368 -1.382494,-0.21125 -0.194637,-0.31492 0.06616,-0.57259 0.579558,-0.57259 0.681669,0 0.933442,-0.61369 0.933442,-2.2752 0,-1.25137 0.336791,-2.63817 0.748419,-3.08181 0.61037,-0.65784 0.55869,-0.73996 -0.280188,-0.44526 -0.56574,0.19873 -1.187863,0.10367 -1.382496,-0.21124 -0.194637,-0.31493 0.06616,-0.57259 0.57956,-0.57259 0.700715,0 0.933442,-0.64193 0.933442,-2.57458 0,-1.416 0.336792,-2.93753 0.748422,-3.38119 0.61037,-0.6578 0.55869,-0.73993 -0.28019,-0.44524 -0.565742,0.19873 -1.187865,0.10367 -1.382497,-0.21125 -0.194636,-0.31492 0.06617,-0.5726 0.57956,-0.5726 1.168587,0 1.177197,-1.72293 0.01628,-3.25779 -0.483486,-0.63923 -0.879067,-0.91172 -0.879067,-0.60556 0,0.3062 -4.429539,-3.86674 -9.843425,-9.27317 -5.413888,-5.40644 -9.792151,-10.11842 -9.729476,-10.4711 0.06268,-0.35266 -0.234375,-0.57002 -0.660107,-0.48299 -0.592313,0.12108 -0.624208,-0.12177 -0.135829,-1.0343 0.537784,-1.00487 0.479247,-1.13155 -0.371955,-0.80491 -0.682009,0.2617 -0.869539,0.16007 -0.577254,-0.31285 0.238119,-0.38526 0.82118,-0.70048 1.295703,-0.70048 0.474523,0 0.862768,-0.45803 0.862768,-1.01786 0,-0.79166 -0.159665,-0.85817 -0.718484,-0.29935 -0.872252,0.87223 -2.496967,0.96296 -1.969797,0.10996 0.20684,-0.33468 0.62689,-0.45349 0.933443,-0.26403 0.306546,0.18945 0.557365,0.0593 0.557365,-0.28959 0,-0.34874 -0.554767,-0.63408 -1.232813,-0.63408 -0.678044,0 -1.073564,-0.25767 -0.878927,-0.57259 0.194632,-0.31492 0.793595,-0.40385 1.331028,-0.19762 0.65318,0.25064 0.833617,0.14273 0.544228,-0.32552 -0.238112,-0.38526 -0.971787,-0.70048 -1.630397,-0.70048 -0.65861,0 -1.038233,-0.25767 -0.843596,-0.5726 0.194631,-0.31491 0.793596,-0.40384 1.331028,-0.19762 0.653181,0.25066 0.833617,0.14272 0.544227,-0.3255 -0.238111,-0.38527 -0.971786,-0.70049 -1.630396,-0.70049 -0.658611,0 -1.030959,-0.26944 -0.827436,-0.59874 0.203523,-0.3293 0.06881,-0.59873 -0.299368,-0.59873 -0.368176,0 -0.510166,-0.25768 -0.315529,-0.5726 0.194632,-0.31492 0.793596,-0.40383 1.33103,-0.19761 0.653178,0.25063 0.833615,0.14273 0.544226,-0.32552 -0.238112,-0.38527 -0.971785,-0.70049 -1.630397,-0.70049 -0.658609,0 -1.038231,-0.25766 -0.843594,-0.57258 0.194632,-0.31494 0.793594,-0.40385 1.331027,-0.19763 0.65318,0.25064 0.833615,0.14272 0.544227,-0.32552 -0.238111,-0.38527 -0.971786,-0.70049 -1.630396,-0.70049 -0.65861,0 -1.038232,-0.25767 -0.843595,-0.57258 0.194632,-0.31492 0.793596,-0.40385 1.331027,-0.19762 0.65318,0.25064 0.833616,0.14273 0.544227,-0.32551 -0.238111,-0.38528 -0.971786,-0.70049 -1.630396,-0.70049 -0.65861,0 -1.038232,-0.25767 -0.843595,-0.57258 0.194631,-0.31495 0.793596,-0.40385 1.331027,-0.19763 0.653179,0.25065 0.833615,0.14274 0.544227,-0.32551 -0.23811,-0.38527 -0.971783,-0.70048 -1.630394,-0.70048 -0.658612,0 -1.038235,-0.25768 -0.843597,-0.5726 0.194631,-0.31493 0.793595,-0.40384 1.331028,-0.19762 0.65318,0.25065 0.833614,0.14273 0.544228,-0.32551 -0.238113,-0.38528 -0.971787,-0.70048 -1.630396,-0.70048 -0.658611,0 -1.03096,-0.26944 -0.827437,-0.59875 0.203522,-0.3293 0.06881,-0.59874 -0.299368,-0.59874 -0.368176,0 -0.510166,-0.25768 -0.31553,-0.57259 0.194634,-0.31492 0.793597,-0.40384 1.331028,-0.1976 0.65318,0.25064 0.833618,0.14271 0.544229,-0.32553 -0.238112,-0.38526 -0.971787,-0.70048 -1.630397,-0.70048 -0.658611,0 -1.038233,-0.25767 -0.843595,-0.57261 0.19463,-0.31491 0.793596,-0.40382 1.331027,-0.19761 0.65318,0.25064 0.833616,0.14273 0.544228,-0.32551 -0.238112,-0.38528 -0.971785,-0.70049 -1.630395,-0.70049 -0.658613,0 -1.038236,-0.25766 -0.843597,-0.57258 0.194631,-0.31493 0.793595,-0.40386 1.331027,-0.19762 0.65318,0.25064 0.833617,0.14271 0.544229,-0.32553 -0.238113,-0.38526 -0.971788,-0.70047 -1.630398,-0.70047 -0.658609,0 -1.038234,-0.25768 -0.843596,-0.5726 0.194632,-0.31493 0.793597,-0.40385 1.331029,-0.19762 0.65318,0.25065 0.833615,0.14273 0.544228,-0.32551 -0.238113,-0.38527 -0.971787,-0.7005 -1.630397,-0.7005 -0.658612,0 -1.030959,-0.26941 -0.827437,-0.59873 0.203523,-0.32929 0.06881,-0.59874 -0.299368,-0.59874 -0.368176,0 -0.510166,-0.25766 -0.315528,-0.57257 0.194631,-0.31494 0.704491,-0.43806 1.133019,-0.27362 0.437875,0.16803 0.779143,-0.11696 0.779143,-0.65064 0,-0.53369 -0.341268,-0.81869 -0.779143,-0.65066 -0.428528,0.16446 -0.938388,0.0413 -1.133019,-0.27359 -0.194638,-0.31493 0.06616,-0.57258 0.579558,-0.57258 0.656856,0 0.933444,-0.58547 0.933444,-1.97585 0,-1.08671 0.336788,-2.3388 0.748421,-2.78245 0.610371,-0.65782 0.558688,-0.73994 -0.280197,-0.44524 -0.565734,0.19872 -1.187858,0.10367 -1.38249,-0.21125 -0.194638,-0.31493 0.06616,-0.57259 0.579559,-0.57259 0.656856,0 0.933444,-0.58546 0.933444,-1.97584 0,-1.0867 0.336789,-2.33878 0.74842,-2.78244 0.610371,-0.65782 0.558688,-0.73995 -0.280196,-0.44525 -0.565734,0.19873 -1.187858,0.10367 -1.38249,-0.21125 -0.194638,-0.31493 0.06617,-0.57259 0.579559,-0.57259 0.656857,0 0.933444,-0.58545 0.933444,-1.97584 0,-1.08671 0.33679,-2.33879 0.748421,-2.78244 0.61037,-0.65783 0.558687,-0.73994 -0.280196,-0.44526 -0.565735,0.19874 -1.187859,0.10368 -1.38249,-0.21125 -0.194639,-0.31492 0.06616,-0.57257 0.579558,-0.57257 0.681668,0 0.933444,-0.6137 0.933444,-2.27521 0,-1.25135 0.33679,-2.63817 0.748421,-3.08181 0.610369,-0.65783 0.558687,-0.73995 -0.280198,-0.44527 -0.565733,0.19873 -1.187858,0.10368 -1.382488,-0.21123 -0.194638,-0.31493 0.06616,-0.5726 0.579559,-0.5726 0.656855,0 0.933444,-0.58545 0.933444,-1.97584 0,-1.0867 0.336788,-2.3388 0.74842,-2.78243 0.61037,-0.65782 0.558687,-0.73995 -0.280197,-0.44526 -0.565735,0.19874 -1.187857,0.10366 -1.382491,-0.21123 -0.194636,-0.31495 0.06616,-0.57261 0.579559,-0.57261 0.656858,0 0.933446,-0.58544 0.933446,-1.97584 0,-1.08669 0.336788,-2.33879 0.74842,-2.78243 0.610369,-0.65783 0.558688,-0.73996 -0.280198,-0.44526 -0.565733,0.19873 -1.187858,0.10368 -1.382489,-0.21124 -0.194638,-0.31493 0.06616,-0.5726 0.57956,-0.5726 0.590498,0 0.933442,-0.53696 0.933442,-1.46151 0,-0.80383 0.30608,-1.65067 0.680182,-1.88187 0.451946,-0.27933 0.221564,-0.76632 -0.686576,-1.45133 l -1.366767,-1.03097 1.904342,-0.27949 c 1.820065,-0.26712 2.877295,0.70325 23.887639,21.92489 12.090814,12.2124 22.280794,22.20342 22.644414,22.20222 0.36362,-0.002 1.39855,-0.87853 2.29984,-1.94964 0.90129,-1.07113 1.84074,-1.82266 2.08766,-1.67005 0.24692,0.15262 1.04426,-0.52775 1.77187,-1.51188 0.72761,-0.98414 1.53591,-1.65773 1.79622,-1.49682 0.2603,0.16085 1.0686,-0.51273 1.79621,-1.49686 0.72761,-0.98415 1.53589,-1.65772 1.7962,-1.49686 0.26031,0.1609 1.06148,-0.50303 1.78036,-1.47538 0.71889,-0.97236 1.52666,-1.70271 1.79504,-1.62302 0.26836,0.0797 1.22946,-0.73149 2.13576,-1.8026 0.90631,-1.07114 1.84985,-1.82265 2.09676,-1.67005 0.24693,0.15261 1.04427,-0.52775 1.77188,-1.51188 0.7276,-0.98416 1.5359,-1.65773 1.79621,-1.49684 0.26031,0.16087 1.0686,-0.51272 1.79621,-1.49686 0.72761,-0.98413 1.5359,-1.6577 1.79621,-1.49685 0.2603,0.16089 1.06148,-0.50303 1.78035,-1.47538 0.71889,-0.97234 1.52666,-1.70271 1.79503,-1.62301 0.26839,0.0797 1.22948,-0.7315 2.13578,-1.80261 0.9063,-1.07114 1.84984,-1.82264 2.09675,-1.67004 0.24692,0.15261 1.04427,-0.52776 1.77188,-1.51189 0.72761,-0.98414 1.53591,-1.65773 1.79622,-1.49685 0.2603,0.16088 1.06859,-0.5127 1.7962,-1.49683 0.72761,-0.98416 1.53591,-1.65772 1.79621,-1.49685 0.26031,0.16089 1.06147,-0.50305 1.78037,-1.47539 0.71889,-0.97236 1.52665,-1.70271 1.79502,-1.62301 0.26837,0.0797 1.22946,-0.7315 2.13577,-1.80262 0.90629,-1.07113 1.84984,-1.82265 2.09676,-1.67004 0.24693,0.15262 1.04427,-0.52776 1.77186,-1.51189 0.72763,-0.98413 1.56525,-1.6396 1.8614,-1.45656 0.29616,0.18304 0.83493,-0.22117 1.19728,-0.89822 0.36234,-0.67705 0.91473,-1.07285 1.22751,-0.87955 0.31279,0.19331 0.5687,0.0696 0.5687,-0.27491 0,-0.68114 178.09377,-0.9605 179.86161,-0.28212 0.86749,0.3329 0.95695,5.69965 0.95695,57.41847 0,51.47097 -0.0926,57.08682 -0.94708,57.41468 z m -139.14123,0.79307 -1.51298,1.63219 1.53543,-1.33026 1.53544,-1.33029 68.81616,-0.14714 68.81614,-0.14713 -68.83859,-0.15478 -68.83861,-0.15478 -1.51299,1.63219 z m 49.9784,-115.38712 c -58.8758,0 -88.91244,0.20227 -88.91244,0.59874 0,0.39648 30.03664,0.59874 88.91244,0.59874 58.87579,0 88.91243,-0.20226 88.91243,-0.59874 0,-0.39647 -30.03664,-0.59874 -88.91243,-0.59874 z m -5.01621,78.21625 c 13.04775,-0.28038 24.26155,-0.33891 24.91953,-0.13006 1.01715,0.32282 0.13239,-2.55977 -5.90691,-19.2446 -3.90679,-10.79338 -7.53142,-20.7694 -8.05471,-22.16894 -0.90446,-2.4189 -2.1465,-3.2428 -2.94378,-1.95275 -0.20427,0.3305 0.0179,0.44468 0.50284,0.25853 0.47775,-0.18332 1.07225,-0.007 1.32107,0.39875 0.29994,0.4853 0.20305,0.57793 -0.28744,0.27476 -0.4497,-0.27791 -1.42537,0.19944 -2.48747,1.21699 -0.96115,0.92086 -1.74756,1.5425 -1.74756,1.38145 0,-0.16107 -5.84487,5.57411 -12.9886,12.74484 -7.14376,7.17073 -13.07054,12.95575 -13.17067,12.85562 -0.10012,-0.10012 -3.58113,3.20762 -7.73557,7.35051 -4.15444,4.14292 -7.342,7.12842 -7.08348,6.63445 0.30812,-0.58869 0.0221,-0.50518 -0.83035,0.24249 -0.7152,0.62731 -1.30039,1.36826 -1.30039,1.64652 0,0.27825 14.48196,0.45919 32.18212,0.40206 l 32.1821,-0.10386 -25.14695,-0.64849 -25.14695,-0.6485 23.72317,-0.50977 z m -30.15958,1.31511 c -3.54004,0.0553 -6.43704,-0.10141 -6.43779,-0.34839 -6e-4,-0.247 1.95265,-0.37542 4.34085,-0.28545 7.85554,0.29599 8.63496,0.5316 2.09694,0.63384 z m -1.49686,-47.4886 c -22.31043,0.23886 -40.77957,0.56031 -41.04255,0.71433 -0.26297,0.15403 -0.22716,0.59286 0.0796,0.97516 0.92353,1.15113 0.11877,4.29188 -1.25954,4.91565 -0.69197,0.31315 -1.37384,0.97351 -1.51525,1.46749 -0.16409,0.5731 0.0599,0.48583 0.61885,-0.24118 0.48179,-0.62658 1.18629,-0.94746 1.56556,-0.71307 1.06019,0.65521 0.81735,2.14594 -0.35824,2.19898 -0.62593,0.0283 -0.74647,0.16885 -0.29935,0.34927 1.16719,0.47097 0.88132,1.65426 -0.55698,2.30548 -1.53263,0.69391 -2.00079,3.82399 -0.53986,3.60957 1.24145,-0.18219 1.50469,-1.38633 0.5547,-2.5373 -0.6841,-0.82882 -0.67012,-0.9313 0.0931,-0.68218 1.21388,0.39624 1.58473,4.09273 0.41061,4.09273 -1.39122,0 -2.34367,1.6193 -2.46869,4.19713 -0.0642,1.32137 0.0661,2.10698 0.28931,1.74583 0.2232,-0.36112 0.64512,-0.56623 0.9376,-0.45579 0.83657,0.31593 1.00299,-2.46312 0.20507,-3.42454 -0.46492,-0.5602 -0.49358,-0.86514 -0.0813,-0.86514 0.3502,0 0.80275,0.26862 1.00567,0.59697 0.43786,0.70847 -2.19355,31.14629 -2.66714,30.85113 -0.17901,-0.11156 -0.23257,1.42045 -0.11903,3.40451 0.11351,1.98403 -0.0212,3.4659 -0.29939,3.29304 -0.27817,-0.17286 -0.4129,1.30902 -0.29937,3.29306 0.13189,2.30483 -0.0101,3.47352 -0.39321,3.23675 -0.3576,-0.22101 -0.47216,0.11684 -0.28382,0.83704 0.47017,1.79796 1.0817,1.90957 2.3365,0.42644 l 1.12781,-1.33305 -1.49685,1.17525 -1.49684,1.17525 1.19749,-1.23032 c 1.24055,-1.27458 14.91652,-12.79504 17.80614,-14.99965 1.39962,-1.06783 2.21078,-1.20563 5.5288,-0.9393 2.57489,0.20669 4.1817,0.0689 4.75634,-0.40807 0.54468,-0.45204 2.57056,-0.67048 5.44095,-0.58668 4.34914,0.12699 4.65173,0.0489 6.17689,-1.59364 l 1.60372,-1.72715 -2.09559,1.75064 c -2.58312,2.15797 38.29314,-38.18599 41.57988,-41.03839 1.29942,-1.1277 2.13163,-1.64622 1.84934,-1.15226 -0.28228,0.49395 0.20378,0.24491 1.08015,-0.55342 0.87638,-0.79835 1.59338,-1.70203 1.59338,-2.00819 0,-0.34182 -15.65416,-0.38904 -40.56443,-0.12238 z m 39.16107,1.41013 c -0.70787,0.58663 -0.99158,0.61739 -0.99158,0.10752 0,-0.54891 -9.18234,-0.64678 -39.66633,-0.42286 l -39.66632,0.29138 31.4337,-0.54381 c 39.83365,-0.68914 50.26114,-0.56806 48.89053,0.56777 z M 187.18195,824.893 c -0.12624,0 -0.37055,-0.53922 -0.5429,-1.1983 -0.17235,-0.65907 -0.0692,-1.04731 0.22955,-0.86278 0.52144,0.32229 0.78579,2.06108 0.31335,2.06108 z m -0.60061,6.5861 c -0.12728,0 -0.34796,-0.79405 -0.49039,-1.7646 -0.14245,-0.97051 -0.0383,-1.62818 0.2314,-1.4615 0.48004,0.29668 0.71522,3.2261 0.25899,3.2261 z m 82.65053,-18.56083 c -0.1136,0 -0.71983,0.60622 -1.34715,1.34716 l -1.14058,1.34715 1.34716,-1.14059 c 1.26599,-1.07186 1.61972,-1.55372 1.14057,-1.55372 z m -1.81568,0 c -0.12434,0 -0.59583,0.47149 -1.04779,1.04779 -0.74476,0.94962 -0.7236,0.97079 0.22605,0.22605 0.99734,-0.78217 1.31452,-1.27384 0.82174,-1.27384 z m -14.14364,15.26778 c -6.91541,6.90953 -12.57347,12.6975 -12.57347,12.86216 0,0.16466 5.65806,-5.35389 12.57347,-12.26343 6.91541,-6.90952 12.57348,-12.69748 12.57348,-12.86214 0,-0.16465 -5.65807,5.35389 -12.57348,12.26341 z m -1.19746,-0.59874 c -6.91541,6.90954 -12.57348,12.6975 -12.57348,12.86217 0,0.16465 5.65807,-5.3539 12.57348,-12.26343 6.91541,-6.90952 12.57348,-12.69749 12.57348,-12.86215 0,-0.16466 -5.65807,5.35387 -12.57348,12.26341 z m -12.73337,14.07034 c -0.088,0 -3.11905,3.03109 -6.7358,6.73578 l -6.5759,6.73579 6.73579,-6.57592 c 6.25647,-6.10793 7.00767,-6.89565 6.57591,-6.89565 z m -1.19851,-0.59875 c -0.0885,0 -2.8502,2.76167 -6.13705,6.13705 l -5.97614,6.13705 6.13706,-5.97613 c 5.70012,-5.55066 6.40924,-6.29797 5.97613,-6.29797 z m -27.30639,33.25441 c -2.9239,-8.21917 -5.55134,-15.01593 -5.83875,-15.10393 -0.28742,-0.088 -1.19617,0.39585 -2.01942,1.07524 -0.82327,0.67938 -1.0927,1.03371 -0.59873,0.78737 0.49395,-0.24633 0.2632,0.2497 -0.51281,1.10226 -0.77598,0.85259 -1.7591,1.41653 -2.18468,1.25322 -0.42558,-0.16332 -0.97741,0.0326 -1.22625,0.43512 -0.31398,0.50803 -0.19508,0.5826 0.38849,0.24364 0.4625,-0.26862 0.20604,0.20915 -0.56997,1.06172 -0.77598,0.85258 -1.7591,1.41653 -2.1847,1.2532 -0.42559,-0.16331 -0.97741,0.0326 -1.22624,0.43513 -0.31348,0.50721 -0.19416,0.58327 0.38848,0.24758 0.46251,-0.26646 0.0691,0.34517 -0.87434,1.35918 -0.9434,1.01399 -2.06122,1.71088 -2.48406,1.54861 -0.42283,-0.16225 -0.9724,0.0345 -1.22124,0.43705 -0.31398,0.50802 -0.19508,0.58259 0.38848,0.24364 0.46252,-0.26864 0.20604,0.20915 -0.56996,1.0617 -0.776,0.85258 -1.73195,1.42697 -2.12431,1.27639 -0.39239,-0.15058 -1.37408,0.47512 -2.18154,1.39041 l -1.4681,1.66417 1.79621,-1.49685 1.79621,-1.49683 -1.41089,1.60328 c -0.87067,0.98939 -1.76797,1.46624 -2.34348,1.24541 -0.64801,-0.24868 -0.78922,-0.12589 -0.46275,0.40235 0.36832,0.59598 0.20336,0.61761 -0.76354,0.10013 -1.33366,-0.71375 -2.11377,-0.10189 -1.59471,1.25079 0.17489,0.45579 -0.74358,1.85095 -2.07338,3.14946 -2.10905,2.05943 -2.4363,2.20373 -2.80695,1.23782 -0.30312,-0.78991 0.10932,-1.56596 1.48604,-2.79606 1.04808,-0.93646 1.68232,-1.70266 1.40943,-1.70266 -1.16856,0 -3.86083,3.56452 -3.56029,4.71379 0.20051,0.76673 -0.19213,1.66354 -1.10297,2.51924 -1.27622,1.19894 -1.45246,1.22925 -1.80505,0.31041 -0.24611,-0.64133 0.13596,-1.61646 1.03217,-2.63432 l 1.42291,-1.61607 -1.68879,1.49123 c -1.15921,1.0236 -1.60903,1.90844 -1.43446,2.82165 0.1637,0.85638 -0.24236,1.79702 -1.1396,2.63994 -1.26042,1.18409 -1.43133,1.21198 -1.78465,0.29126 -0.24611,-0.64135 0.13595,-1.61647 1.03216,-2.63433 l 1.4229,-1.61606 -1.68878,1.49122 c -1.1592,1.02359 -1.60903,1.90843 -1.43446,2.82166 0.16371,0.85636 -0.24234,1.79702 -1.13958,2.63992 -1.26043,1.18412 -1.43133,1.212 -1.78467,0.29127 -0.2461,-0.64133 0.13596,-1.61647 1.03218,-2.63432 l 1.4229,-1.61606 -1.68879,1.49122 c -1.15605,1.02082 -1.60887,1.90931 -1.43543,2.81655 0.17062,0.89256 -0.29858,1.85412 -1.4369,2.94469 -1.49473,1.43206 -1.7359,1.50034 -2.08507,0.59043 -0.26038,-0.67851 0.19238,-1.6794 1.32947,-2.93906 l 1.72429,-1.91016 -1.98645,1.79623 c -1.40101,1.2668 -1.91201,2.18665 -1.73383,3.12101 0.16199,0.84949 -0.24748,1.79461 -1.14129,2.6343 -1.26042,1.18411 -1.43133,1.21201 -1.78467,0.29127 -0.24609,-0.64133 0.13597,-1.61646 1.03218,-2.63431 l 1.42291,-1.61608 -1.6888,1.49124 c -1.15919,1.02358 -1.60902,1.90844 -1.43445,2.82166 0.16371,0.85636 -0.24234,1.79701 -1.13958,2.63992 -1.26043,1.1841 -1.43134,1.212 -1.78467,0.29126 -0.2461,-0.64134 0.13596,-1.61646 1.03217,-2.63433 l 1.42291,-1.61604 -1.68879,1.49121 c -1.15919,1.0236 -1.60903,1.90844 -1.43446,2.82166 0.1654,0.86521 -0.25016,1.80436 -1.18845,2.68585 -1.01857,0.95687 -1.33138,1.06509 -1.06389,0.36801 0.20841,-0.54307 0.82203,-1.15746 1.36362,-1.36528 1.74649,-0.6702 -0.45287,-1.49012 -4.07098,-1.51769 l -3.29306,-0.0251 -8.79357,-8.66576 c -4.83646,-4.76619 -8.54114,-8.66578 -8.23263,-8.66578 0.30852,0 0.55681,-0.4715 0.55177,-1.04779 -0.008,-0.89439 -0.0933,-0.91631 -0.58358,-0.14967 -0.45868,0.71714 -3.02138,-1.54474 -12.71934,-11.22632 -11.11159,-11.09285 -13.63107,-13.22318 -13.63107,-11.52569 0,0.3293 0.2092,0.59872 0.4649,0.59872 0.2557,0 6.11583,5.59148 13.02253,12.42549 6.90669,6.83401 16.93589,16.71864 22.28711,21.9658 5.35119,5.24719 9.72946,9.87823 9.72946,10.2912 0,0.41296 0.29135,0.93094 0.64747,1.151 0.41077,0.25388 0.57492,-0.11384 0.44904,-1.00589 -0.10912,-0.77332 0.0711,-1.41313 0.40034,-1.42177 0.3293,-0.01 0.91039,-0.21405 1.29131,-0.45643 0.46918,-0.29856 0.59152,-0.0541 0.37923,0.75758 -0.17236,0.65907 -0.55138,1.19832 -0.84227,1.19832 -0.2909,0 -0.52891,0.42003 -0.52891,0.93342 0,0.5134 0.2443,0.78245 0.5429,0.5979 0.29859,-0.18454 0.39087,0.24584 0.20506,0.9564 -0.21649,0.82786 -0.10896,1.15047 0.29936,0.89811 0.40832,-0.25235 0.51586,0.0703 0.29936,0.89812 -0.21647,0.82784 -0.10893,1.15044 0.29939,0.8981 0.40832,-0.25236 0.51585,0.0703 0.29936,0.89811 -0.23107,0.88356 -0.11936,1.15687 0.35339,0.86469 0.51325,-0.31719 0.53263,-0.01 0.0752,1.19301 -0.54444,1.43198 -0.50785,1.53045 0.31489,0.84763 0.79446,-0.65935 0.87009,-0.61414 0.51606,0.30845 -0.2689,0.70075 -0.18806,0.94086 0.22984,0.68259 0.41717,-0.25784 0.52543,0.0574 0.30678,0.89353 -0.21648,0.82783 -0.10894,1.15045 0.29938,0.89809 0.40832,-0.25237 0.51585,0.0703 0.29937,0.89811 -0.2165,0.82785 -0.10896,1.15046 0.29936,0.8981 0.40832,-0.25236 0.51585,0.0703 0.29937,0.8981 -0.21649,0.82786 -0.10896,1.15046 0.29937,0.89811 0.40832,-0.25235 0.51585,0.0703 0.29937,0.89812 -0.23105,0.88356 -0.11935,1.15689 0.3534,0.86469 0.51323,-0.31718 0.53261,-0.01 0.0752,1.193 -0.54444,1.43199 -0.50787,1.53046 0.31487,0.84764 0.79448,-0.65935 0.8701,-0.61415 0.51607,0.30844 -0.26891,0.70077 -0.18806,0.94086 0.22983,0.6826 0.41719,-0.25784 0.52543,0.0574 0.30679,0.89352 -0.21648,0.82784 -0.10894,1.15045 0.29938,0.8981 0.40831,-0.25235 0.51585,0.0703 0.29937,0.89811 -0.2165,0.82784 -0.10895,1.15046 0.29936,0.8981 0.40832,-0.25236 0.51586,0.0703 0.29937,0.8981 -0.2165,0.82785 -0.10895,1.15046 0.29937,0.89812 0.40832,-0.25238 0.51586,0.0703 0.29937,0.89809 -0.23106,0.88358 -0.11936,1.15689 0.35339,0.86472 0.51325,-0.3172 0.53262,-0.01 0.0752,1.19298 -0.54443,1.432 -0.50785,1.53045 0.31489,0.84765 0.79447,-0.65935 0.87009,-0.61415 0.51606,0.30845 -0.26891,0.70075 -0.18807,0.94086 0.22982,0.68259 0.40425,-0.24983 0.53439,0.0232 0.34896,0.73232 -0.42575,1.62806 0.94319,2.20638 2.11135,0.89193 0.54468,-0.6129 0.59965,-0.77948 0.12217,-0.37022 -0.47751,0.40929 -1.12005,0.74415 -1.42791,0.74415 -0.30786,0 0.21064,-0.60597 1.1522,-1.3466 0.94158,-0.74064 2.03532,-1.27237 2.43056,-1.18161 0.39523,0.0907 0.91526,-0.15318 1.15563,-0.54209 0.29776,-0.48182 0.16908,-0.55152 -0.40392,-0.21872 -0.4625,0.26864 -0.20602,-0.20913 0.56997,-1.0617 0.77599,-0.85259 1.7591,-1.41652 2.1847,-1.25321 0.4256,0.16332 0.97741,-0.0326 1.22626,-0.43512 0.31345,-0.50722 0.19414,-0.58327 -0.3885,-0.24759 -0.46251,0.26646 -0.0692,-0.34516 0.87433,-1.35918 0.94341,-1.01398 2.06124,-1.71088 2.48407,-1.54862 0.42286,0.16227 0.97241,-0.0345 1.22125,-0.43704 0.31397,-0.50801 0.19508,-0.58258 -0.3885,-0.24364 -0.4625,0.26864 -0.20602,-0.20915 0.56997,-1.06171 0.77599,-0.85257 1.75911,-1.41653 2.1847,-1.25321 0.4256,0.16331 0.97741,-0.0325 1.22626,-0.43512 0.31396,-0.50802 0.19506,-0.5826 -0.3885,-0.24364 -0.46252,0.26863 -0.20604,-0.20914 0.56996,-1.06171 0.776,-0.85258 1.75911,-1.41653 2.18471,-1.2532 0.42559,0.16332 0.97741,-0.0326 1.22624,-0.43515 0.31398,-0.508 0.19508,-0.58257 -0.38849,-0.24363 -0.46252,0.26863 -0.20602,-0.20914 0.56996,-1.06172 0.776,-0.85257 1.75911,-1.41651 2.18471,-1.2532 0.42559,0.16331 0.97741,-0.0325 1.22623,-0.43511 0.31349,-0.50724 0.19417,-0.58326 -0.38847,-0.2476 -0.46253,0.26647 -0.0692,-0.34515 0.87433,-1.35916 0.9434,-1.01399 2.06123,-1.71088 2.48408,-1.54863 0.42283,0.16226 0.9724,-0.0345 1.22124,-0.43705 0.31398,-0.50801 0.19508,-0.58257 -0.3885,-0.24364 -0.46252,0.26864 -0.20603,-0.20913 0.56996,-1.0617 0.77599,-0.85259 1.75911,-1.41653 2.18471,-1.25321 0.42559,0.16332 0.9774,-0.0326 1.22624,-0.43512 0.31397,-0.50803 0.19509,-0.5826 -0.38849,-0.24365 -0.46251,0.26863 -0.20602,-0.20915 0.56997,-1.0617 0.77599,-0.85259 1.7591,-1.41653 2.1847,-1.25321 0.42559,0.1633 0.97741,-0.0326 1.22624,-0.43514 0.31398,-0.508 0.19509,-0.58258 -0.38847,-0.24363 -0.46252,0.26862 -0.20605,-0.20915 0.56995,-1.06172 0.77601,-0.85258 1.7591,-1.41651 2.1847,-1.25321 0.4256,0.16332 0.97741,-0.0325 1.22625,-0.43512 0.31347,-0.50721 0.19416,-0.58326 -0.38848,-0.24758 -0.46251,0.26647 -0.0692,-0.34516 0.87432,-1.35916 0.94341,-1.01401 2.06123,-1.71091 2.48407,-1.54865 0.42284,0.16227 0.97242,-0.0345 1.22125,-0.43703 0.31397,-0.50801 0.19507,-0.58259 -0.3885,-0.24364 -0.4625,0.26863 -0.20602,-0.20914 0.56998,-1.06172 0.776,-0.85257 1.7591,-1.41652 2.18469,-1.25321 0.4256,0.16333 0.9774,-0.0326 1.22626,-0.43511 0.31396,-0.50801 0.19506,-0.58258 -0.38849,-0.24365 -0.46251,0.26863 -0.20606,-0.20912 0.56995,-1.0617 0.776,-0.85259 1.7591,-1.41652 2.18471,-1.25321 0.42559,0.16331 0.97741,-0.0326 1.22624,-0.43512 0.31348,-0.50721 0.19415,-0.58327 -0.38848,-0.2476 -0.46253,0.26648 -0.0692,-0.34515 0.87433,-1.35916 0.9434,-1.01399 2.04531,-1.71699 2.44872,-1.56219 0.40336,0.15479 1.01603,-0.0675 1.36148,-0.49422 0.80353,-0.99239 -10.43152,-32.99201 -11.37809,-32.40699 -0.37338,0.23076 -0.43676,0.0876 -0.15969,-0.36075 0.2527,-0.4089 0.68515,-0.51775 0.96101,-0.2419 0.27583,0.27586 2.93988,7.34959 5.9201,15.71943 2.9802,8.36983 5.58661,15.3749 5.792,15.56685 0.51512,0.48135 0.3224,-0.0943 -5.68811,-16.98991 z m -59.10008,27.76948 c -0.69749,-0.0287 -0.83936,-0.1706 -0.36173,-0.36173 0.4322,-0.17295 0.94861,-0.15168 1.14757,0.0472 0.19897,0.19895 -0.15467,0.34045 -0.78584,0.31446 z m 62.49818,-44.97773 c -0.39519,0.39516 -2.48328,0.77038 -4.64022,0.83385 l -3.92174,0.11536 3.79439,0.21391 c 3.4179,0.19273 5.48603,-0.38627 5.48603,-1.53581 0,-0.1902 -0.32331,-0.0225 -0.71846,0.37269 z m -0.0752,37.84017 c -0.10725,0 -0.84818,0.74093 -1.64653,1.64653 l -1.45154,1.64652 1.64653,-1.45152 c 1.53893,-1.35668 1.92111,-1.84153 1.45154,-1.84153 z m -0.61031,-1.19748 c -0.11362,0 -0.71985,0.60622 -1.34716,1.34716 l -1.1406,1.34717 1.34718,-1.14061 c 1.26598,-1.07187 1.61973,-1.55372 1.14058,-1.55372 z m -3.59243,4.78989 c -0.11362,0 -0.71983,0.60622 -1.34715,1.34717 l -1.1406,1.34716 1.34716,-1.1406 c 1.26601,-1.07187 1.61973,-1.55373 1.14059,-1.55373 z m -0.61821,-1.19747 c -0.12435,0 -0.59584,0.47151 -1.0478,1.0478 -0.74476,0.94962 -0.72357,0.9708 0.22606,0.22605 0.99735,-0.78217 1.31451,-1.27385 0.82174,-1.27385 z m -2.9742,4.19116 c -0.11362,0 -0.71985,0.60622 -1.34716,1.34717 l -1.14059,1.34714 1.34716,-1.14059 c 1.26599,-1.07186 1.61972,-1.55372 1.14059,-1.55372 z m -0.61823,-1.19746 c -0.12433,0 -0.59583,0.47149 -1.0478,1.04778 -0.74475,0.94963 -0.72357,0.9708 0.22607,0.22605 0.99735,-0.78217 1.31452,-1.27383 0.82173,-1.27383 z m -2.96263,4.19115 c -0.10724,0 -0.84818,0.74093 -1.64652,1.64654 l -1.45154,1.64651 1.64654,-1.45152 c 1.53891,-1.35667 1.92111,-1.84153 1.45152,-1.84153 z m -0.61031,-1.1975 c -0.11362,0 -0.71983,0.60624 -1.34715,1.34718 l -1.1406,1.34717 1.34717,-1.14061 c 1.26599,-1.07187 1.61972,-1.55374 1.14058,-1.55374 z m -0.61821,-41.91157 c -0.12433,0 -0.59585,0.47152 -1.0478,1.04779 -0.74474,0.94963 -0.72357,0.97081 0.22606,0.22607 0.99735,-0.78217 1.31452,-1.27386 0.82174,-1.27386 z m 0.0195,-1.79621 c -0.11362,0 -0.71986,0.60622 -1.34718,1.34717 l -1.14062,1.34715 1.34716,-1.14058 c 1.26601,-1.07189 1.61974,-1.55374 1.1406,-1.55374 z m -2.9937,48.49769 c -0.11361,0 -0.71983,0.60623 -1.34716,1.34718 l -1.14061,1.34714 1.34716,-1.14059 c 1.26598,-1.07186 1.61973,-1.55373 1.14059,-1.55373 z m -0.61823,-1.19748 c -0.12432,0 -0.59583,0.47152 -1.04779,1.0478 -0.74474,0.94963 -0.72357,0.97081 0.22607,0.22606 0.99734,-0.78216 1.31451,-1.27386 0.82172,-1.27386 z m 0,-42.51031 c -0.12432,0 -0.59583,0.4715 -1.04779,1.0478 -0.74474,0.94963 -0.72357,0.97079 0.22607,0.22604 0.99734,-0.78215 1.31451,-1.27384 0.82172,-1.27384 z m 0.0195,-1.79622 c -0.11361,0 -0.71983,0.60623 -1.34714,1.34717 l -1.14065,1.34716 1.34715,-1.14059 c 1.266,-1.07188 1.61973,-1.55374 1.1406,-1.55374 z m -2.99367,48.4977 c -0.11362,0 -0.71985,0.60622 -1.34717,1.34717 l -1.14065,1.34715 1.34716,-1.14059 c 1.26601,-1.07188 1.61974,-1.55373 1.1406,-1.55373 z m -0.61822,-1.19747 c -0.12433,0 -0.59584,0.47151 -1.0478,1.04779 -0.74475,0.94964 -0.72357,0.97081 0.22605,0.22605 0.99736,-0.78217 1.31453,-1.27384 0.82175,-1.27384 z m 0.0195,-42.51032 c -0.11362,0 -0.71985,0.60622 -1.34717,1.34716 l -1.14068,1.34716 1.34716,-1.14059 c 1.26601,-1.07188 1.61973,-1.55373 1.14059,-1.55373 z m 0.0116,-1.79621 c -0.10725,0 -0.84818,0.74094 -1.64653,1.64652 l -1.4516,1.64652 1.64652,-1.45151 c 1.53894,-1.35668 1.9211,-1.84153 1.45153,-1.84153 z m -3.00526,48.49769 c -0.11361,0 -0.71983,0.60622 -1.34717,1.34716 l -1.14065,1.34714 1.34715,-1.1406 c 1.26599,-1.07184 1.61974,-1.5537 1.1406,-1.5537 z m -0.61822,-1.19749 c -0.12434,0 -0.59584,0.47152 -1.04779,1.0478 -0.74476,0.94962 -0.72358,0.9708 0.22606,0.22607 0.99734,-0.78217 1.31452,-1.27387 0.82173,-1.27387 z m -0.59874,-41.91157 c -0.12434,0 -0.59583,0.47151 -1.04778,1.0478 -0.74476,0.94961 -0.72359,0.97079 0.22604,0.22604 0.99735,-0.78216 1.31452,-1.27384 0.82174,-1.27384 z m 0.0196,-1.79622 c -0.11361,0 -0.71984,0.60623 -1.34716,1.34717 l -1.1407,1.34715 1.34716,-1.14058 c 1.26599,-1.0719 1.61972,-1.55374 1.1406,-1.55374 z m -1.8157,-57.47875 c -0.12433,0 -0.59582,0.47151 -1.04779,1.04779 -0.74474,0.94964 -0.72358,0.9708 0.22605,0.22608 0.99736,-0.78218 1.31452,-1.27387 0.82174,-1.27387 z m -0.56783,105.37773 c -0.10724,0 -0.84818,0.74091 -1.64652,1.6465 l -1.45164,1.64655 1.64653,-1.45155 c 1.53893,-1.35666 1.92111,-1.8415 1.45153,-1.8415 z m -8.57364,-131.72213 c -1.14089,-3.12841 -2.10444,-6.02481 -2.14123,-6.43644 -0.0369,-0.41164 -0.32025,-0.74842 -0.62991,-0.74842 -0.31097,0 -0.35861,0.46905 -0.10641,1.04778 1.66828,3.82847 11.13425,30.97157 10.62272,30.46005 -0.25005,-0.25007 -2.76418,-6.97011 -5.58696,-14.93345 -2.82277,-7.96334 -5.42629,-14.42064 -5.7856,-14.3496 -0.36945,0.0731 -0.54716,-0.44722 -0.40904,-1.19746 0.17208,-0.93463 -0.007,-0.79441 -0.60283,0.47455 -0.46589,0.99066 -1.46852,2.33783 -2.22807,2.99367 l -1.38107,1.19246 1.02429,-1.62546 c 0.56337,-0.89401 1.01534,-1.83702 1.00437,-2.09558 -0.0318,-0.75334 -2.37504,2.28193 -2.37504,3.07661 0,0.39586 -0.84319,1.51112 -1.8738,2.47831 -1.53071,1.43655 -1.74938,1.51799 -1.19425,0.44473 0.37376,-0.7226 0.94755,-1.47944 1.27508,-1.68187 0.32753,-0.20241 0.587,-0.68894 0.57658,-1.08112 -0.0251,-0.94853 -2.97475,2.42972 -2.97475,3.40708 0,0.41821 -0.72727,1.41354 -1.61615,2.21188 l -1.61615,1.45151 1.01741,-1.62545 c 0.55958,-0.89401 1.00845,-1.83701 0.9975,-2.09557 -0.032,-0.75802 -2.37504,2.28454 -2.37504,3.08428 0,0.40005 -0.72726,1.38058 -1.61615,2.17893 l -1.61616,1.45151 1.01744,-1.62545 c 0.55956,-0.89401 1.00844,-1.83703 0.99749,-2.09559 -0.032,-0.75801 -2.37504,2.28454 -2.37504,3.08426 0,0.40009 -0.72726,1.38058 -1.61615,2.17894 l -1.61615,1.45153 1.01741,-1.62546 c 0.55959,-0.89402 1.00845,-1.83702 0.9975,-2.09558 -0.0318,-0.75334 -2.37503,2.28193 -2.37503,3.07662 0,0.39586 -0.84321,1.51109 -1.87381,2.47829 -1.53072,1.43656 -1.74939,1.518 -1.19424,0.44472 0.37374,-0.7226 0.94753,-1.47941 1.27506,-1.68185 0.32754,-0.20241 0.58701,-0.68893 0.57659,-1.08114 -0.0252,-0.94852 -2.97476,2.42975 -2.97476,3.4071 0,0.4182 -0.72725,1.41354 -1.61616,2.21188 l -1.61615,1.45153 1.01743,-1.62547 c 0.55957,-0.89401 1.00846,-1.83702 0.99748,-2.09557 -0.032,-0.75803 -2.37502,2.28452 -2.37502,3.08426 0,0.40007 -0.72727,1.38059 -1.61615,2.17894 l -1.61615,1.4515 1.01741,-1.62544 c 0.55959,-0.89401 1.00845,-1.83702 0.9975,-2.09558 -0.032,-0.75803 -2.37502,2.28454 -2.37502,3.08426 0,0.40008 -0.72727,1.38059 -1.61616,2.17893 l -1.61615,1.45154 1.01741,-1.62547 c 0.55959,-0.89402 1.00846,-1.83703 0.99749,-2.09559 -0.0318,-0.75333 -2.37502,2.28194 -2.37502,3.07662 0,0.39588 -0.84322,1.51112 -1.87381,2.47831 -1.53073,1.43657 -1.74939,1.51799 -1.19426,0.44473 0.37375,-0.72261 0.94755,-1.47943 1.27508,-1.68185 0.32753,-0.20244 0.58701,-0.68895 0.5766,-1.08114 -0.0251,-0.94855 -2.97477,2.42973 -2.97477,3.40708 0,0.4182 -0.72727,1.41353 -1.61615,2.21187 l -1.61616,1.45154 1.01742,-1.62546 c 0.55958,-0.89402 1.00846,-1.83702 0.9975,-2.09558 -0.0321,-0.75802 -2.37503,2.28454 -2.37503,3.08426 0,0.40008 -0.72727,1.38061 -1.61615,2.17894 l -1.61616,1.45152 1.01742,-1.62546 c 0.55958,-0.89402 1.00845,-1.83702 0.99749,-2.09559 -0.0321,-0.75801 -2.37502,2.28454 -2.37502,3.08428 0,0.40007 -0.72727,1.38059 -1.61616,2.17893 l -1.61615,1.45153 1.01742,-1.62545 c 0.55958,-0.89402 1.01741,-1.80267 1.01741,-2.01922 0,-0.81735 -1.76698,1.11368 -2.15183,2.35158 -0.2211,0.7112 -1.30926,2.30424 -2.41813,3.54008 -1.85353,2.06576 -2.8168,4.60526 -1.41921,3.74149 0.38681,-0.23906 0.38009,0.2014 -0.0191,1.25129 -0.54444,1.43198 -0.50785,1.53045 0.31489,0.84762 0.79447,-0.65933 0.87009,-0.61415 0.51606,0.30846 -0.2689,0.70075 -0.18806,0.94085 0.22982,0.68259 0.41719,-0.25784 0.52544,0.0574 0.30681,0.89353 -0.2165,0.82785 -0.10896,1.15044 0.29937,0.8981 0.40831,-0.25235 0.51585,0.0703 0.29936,0.8981 -0.21649,0.82784 -0.10895,1.15046 0.29937,0.8981 0.40832,-0.25236 0.51586,0.0703 0.29937,0.89811 -0.23106,0.88358 -0.11936,1.15688 0.35339,0.86472 0.51325,-0.31722 0.53262,-0.0101 0.0752,1.19298 -0.54444,1.43197 -0.50785,1.53045 0.31489,0.84764 0.79447,-0.65936 0.87009,-0.61415 0.51606,0.30844 -0.2689,0.70075 -0.18806,0.94087 0.22982,0.68261 0.41719,-0.25786 0.52544,0.0575 0.30681,0.89351 -0.21649,0.82783 -0.10895,1.15046 0.29937,0.89808 0.40832,-0.25235 0.51585,0.0703 0.29937,0.89812 -0.21649,0.82786 -0.10896,1.15047 0.29937,0.89812 0.40832,-0.25237 0.51585,0.0703 0.29936,0.8981 -0.21649,0.82785 -0.10895,1.15045 0.29937,0.8981 0.40832,-0.25235 0.51586,0.0703 0.29937,0.89811 -0.23106,0.88357 -0.11936,1.15688 0.35339,0.86471 0.51325,-0.3172 0.53262,-0.01 0.0752,1.19299 -0.54444,1.43198 -0.50785,1.53046 0.31489,0.84765 0.79447,-0.65935 0.87009,-0.61418 0.51606,0.30845 -0.2689,0.70074 -0.18806,0.94083 0.22982,0.68258 0.41719,-0.25783 0.52544,0.0575 0.30681,0.8935 -0.21649,0.82786 -0.10896,1.15047 0.29937,0.89812 0.40832,-0.25237 0.51585,0.0703 0.29936,0.89811 -0.21649,0.82784 -0.10895,1.15045 0.29937,0.8981 0.40833,-0.25236 0.51586,0.0703 0.29937,0.8981 -0.25169,0.96247 -0.13752,1.16813 0.44771,0.80642 0.49259,-0.30443 0.6406,-0.25093 0.39687,0.14343 -0.21379,0.34592 0.0124,1.39791 0.50254,2.33777 0.69811,1.33856 0.89203,1.45647 0.89492,0.54414 0.002,-0.64061 0.74463,-1.98777 1.65022,-2.99369 l 1.64653,-1.82897 -1.93966,1.75256 c -1.0668,0.96391 -2.03526,1.63749 -2.15212,1.49685 -0.11686,-0.14065 0.68734,-1.02206 1.78709,-1.95871 1.72672,-1.4706 2.05143,-1.56786 2.37958,-0.71268 0.2421,0.6309 -0.24576,1.68354 -1.34427,2.90046 l -1.72428,1.91015 1.98645,-1.79621 c 1.40099,-1.26682 1.912,-2.18667 1.73383,-3.12101 -0.16199,-0.8495 0.24747,-1.79464 1.1413,-2.63433 1.26041,-1.18409 1.43131,-1.21199 1.78465,-0.29126 0.2461,0.64135 -0.13596,1.61645 -1.03217,2.63434 l -1.42291,1.61605 1.6888,-1.49122 c 1.15919,-1.02359 1.60901,-1.90843 1.43445,-2.82166 -0.16371,-0.85636 0.24234,-1.79702 1.13959,-2.63992 1.26041,-1.18412 1.43132,-1.21201 1.78466,-0.29128 0.2461,0.64134 -0.13596,1.61648 -1.03217,2.63433 l -1.42291,1.61605 1.68879,-1.4912 c 1.15919,-1.02359 1.60903,-1.90844 1.43445,-2.82165 -0.1637,-0.85638 0.24235,-1.79703 1.13959,-2.63995 1.26043,-1.18411 1.43133,-1.21199 1.78467,-0.29125 0.2461,0.64134 -0.13597,1.61644 -1.03218,2.63431 l -1.4229,1.61608 1.68879,-1.49123 c 1.15606,-1.02084 1.60886,-1.9093 1.43543,-2.81656 -0.17063,-0.89254 0.29859,-1.85412 1.43689,-2.94469 1.49473,-1.43204 1.73591,-1.50034 2.08509,-0.59043 0.26037,0.67853 -0.19239,1.67941 -1.32948,2.93907 l -1.72429,1.91014 1.98645,-1.79621 c 1.401,-1.26681 1.912,-2.18667 1.73383,-3.12101 -0.162,-0.8495 0.24748,-1.79462 1.14128,-2.63432 1.26043,-1.18412 1.43133,-1.21198 1.78467,-0.29127 0.2461,0.64135 -0.13596,1.61647 -1.03217,2.63433 l -1.42292,1.61606 1.68881,-1.49121 c 1.15919,-1.0236 1.60901,-1.90844 1.43445,-2.82166 -0.16371,-0.85637 0.24234,-1.79702 1.13958,-2.63993 1.26043,-1.18411 1.43135,-1.21201 1.78467,-0.29126 0.2461,0.64134 -0.13596,1.61645 -1.03217,2.63432 l -1.42291,1.61606 1.68879,-1.49123 c 1.15919,-1.02359 1.60902,-1.90843 1.43445,-2.82164 -0.1637,-0.85639 0.24236,-1.79703 1.13959,-2.63995 1.26044,-1.1841 1.43134,-1.21199 1.78467,-0.29126 0.2461,0.64135 -0.13596,1.61646 -1.03217,2.63433 l -1.4229,1.61606 1.68878,-1.49121 c 1.15606,-1.02083 1.60887,-1.90931 1.43542,-2.81657 -0.1706,-0.89253 0.29859,-1.85412 1.43692,-2.94468 1.49473,-1.43203 1.7359,-1.50035 2.08506,-0.59045 0.26039,0.67852 -0.19237,1.67943 -1.32946,2.93907 l -1.72431,1.91017 1.98646,-1.79622 c 1.40101,-1.26683 1.912,-2.18667 1.73383,-3.12101 -0.16198,-0.8495 0.24747,-1.79464 1.14129,-2.63434 1.26042,-1.18409 1.43133,-1.21199 1.78466,-0.29125 0.2461,0.64134 -0.13596,1.61645 -1.03217,2.63432 l -1.4229,1.61607 1.68878,-1.49122 c 1.15919,-1.02361 1.60903,-1.90843 1.43446,-2.82166 -0.16371,-0.85637 0.24235,-1.79702 1.13959,-2.63992 1.26042,-1.18413 1.43133,-1.212 1.78467,-0.29127 0.2461,0.64134 -0.13598,1.61645 -1.03219,2.63432 l -1.4229,1.61607 1.68879,-1.49123 c 1.1592,-1.02359 1.60903,-1.90843 1.43447,-2.82164 -0.1637,-0.85639 0.24234,-1.79703 1.13957,-2.63995 1.26043,-1.1841 1.43134,-1.212 1.78467,-0.29126 0.24611,0.64135 -0.13596,1.61647 -1.03216,2.63432 l -1.42291,1.61607 1.68878,-1.49123 c 1.15607,-1.02082 1.60888,-1.90929 1.43544,-2.81657 -0.17062,-0.89253 0.29859,-1.8541 1.43689,-2.94466 1.49474,-1.43205 1.73592,-1.50035 2.08508,-0.59046 0.26036,0.67852 -0.19238,1.67942 -1.32946,2.93908 l -1.72431,1.91016 1.98646,-1.79622 c 1.401,-1.26682 1.912,-2.18666 1.73383,-3.12102 -0.162,-0.8495 0.24747,-1.79461 1.14128,-2.63431 1.26043,-1.1841 1.43134,-1.212 1.78466,-0.29127 0.24611,0.64135 -0.13596,1.61646 -1.03216,2.63434 l -1.42291,1.61605 1.64653,-1.45152 c 0.90559,-0.79835 1.6551,-1.87607 1.66557,-2.39496 0.0104,-0.51887 0.39473,-1.43921 0.85391,-2.04522 0.8596,-1.13441 -0.18702,-4.54186 -7.84546,-25.54197 z m 7.96341,130.52464 c -0.11361,0 -0.71985,0.60622 -1.34716,1.34717 l -1.14069,1.34714 1.34715,-1.14057 c 1.26599,-1.07189 1.61973,-1.55374 1.14059,-1.55374 z m -1.58968,-82.34723 c -0.72218,-0.10361 -0.84119,0.41364 -0.60747,2.64035 l 0.29063,2.76918 0.26937,-2.69432 0.26938,-2.69432 0.41867,2.69432 0.41867,2.69432 -0.0806,-2.64035 c -0.0563,-1.84742 -0.35032,-2.67903 -0.9787,-2.76918 z m 0.18735,6.45033 c -0.14987,0.57246 -0.1553,1.65018 -0.0121,2.39496 0.1432,0.74478 0.26582,0.27641 0.27247,-1.04082 0.008,-1.31721 -0.11054,-1.92658 -0.2604,-1.35414 z m -0.5839,6.89246 c -0.16609,0.41162 -0.16609,1.08521 0,1.49685 0.1661,0.41164 0.302,0.0749 0.302,-0.74842 0,-0.82328 -0.1359,-1.16006 -0.302,-0.74843 z m -0.66227,-7.84757 c -0.25305,-0.15638 -0.35946,0.77074 -0.23648,2.06027 0.12297,1.2895 0.33,2.34456 0.46008,2.34456 0.44595,0 0.23682,-4.12028 -0.2236,-4.40483 z m 0.25349,-26.72948 c -0.1136,0 -0.71983,0.60621 -1.34715,1.34716 l -1.14058,1.34715 1.34715,-1.14059 c 1.26599,-1.07187 1.61973,-1.55372 1.14058,-1.55372 z m -0.85704,31.73306 c -0.25567,0 -0.36209,1.07772 -0.23648,2.39496 0.12562,1.3172 0.33481,2.39493 0.46488,2.39493 0.13007,0 0.23648,-1.07773 0.23648,-2.39493 0,-1.31724 -0.20919,-2.39496 -0.46488,-2.39496 z m -0.34042,76.63832 c -0.11362,0 -0.71985,0.60623 -1.34716,1.34717 l -1.14059,1.34714 1.34716,-1.14058 c 1.266,-1.07187 1.61973,-1.55373 1.14059,-1.55373 z m -0.18997,-68.40568 c -0.16608,0.41162 -0.16608,1.0852 0,1.49682 0.1661,0.41164 0.302,0.0749 0.302,-0.74841 0,-0.82326 -0.1359,-1.16006 -0.302,-0.74841 z m -0.42827,67.20822 c -0.12432,0 -0.59583,0.47149 -1.04779,1.04778 -0.74474,0.94963 -0.72357,0.9708 0.22606,0.22605 0.99735,-0.78217 1.31452,-1.27383 0.82173,-1.27383 z m -1.71982,-41.8551 c -0.0823,0.14084 -1.09271,1.33083 -2.24527,2.64444 l -2.09557,2.38833 2.24525,-2.06336 c 1.2349,-1.13483 2.24527,-2.32484 2.24527,-2.64441 0,-0.3196 -0.0674,-0.46584 -0.14968,-0.325 z m -0.0453,-62.32514 c -0.10725,0 -0.84819,0.74093 -1.64653,1.64653 l -1.45153,1.64652 1.64652,-1.45152 c 1.53893,-1.35667 1.9211,-1.84153 1.45154,-1.84153 z m -1.20906,108.3714 c -0.11362,0 -0.71984,0.6062 -1.34717,1.34716 l -1.14058,1.34715 1.34716,-1.1406 c 1.26599,-1.07185 1.61972,-1.55371 1.14059,-1.55371 z m -0.61822,-1.1975 c -0.12433,0 -0.59584,0.47153 -1.04779,1.0478 -0.74477,0.94964 -0.72358,0.97081 0.22605,0.22607 0.99736,-0.78217 1.31452,-1.27387 0.82174,-1.27387 z m -2.37546,-103.58148 c -0.11362,0 -0.71983,0.60623 -1.34714,1.34717 l -1.1406,1.34715 1.34715,-1.14059 c 1.26601,-1.07187 1.61974,-1.55373 1.14059,-1.55373 z m -0.59873,107.77265 c -0.11362,0 -0.71984,0.60622 -1.34716,1.34716 l -1.14059,1.34715 1.34717,-1.14059 c 1.26598,-1.07186 1.61972,-1.55372 1.14058,-1.55372 z m -0.61823,-1.19748 c -0.12432,0 -0.59583,0.47151 -1.04779,1.0478 -0.74474,0.94962 -0.72358,0.9708 0.22606,0.22606 0.99735,-0.78217 1.31451,-1.27386 0.82173,-1.27386 z m 0.0195,-42.51031 c -0.11362,0 -0.71984,0.60621 -1.34715,1.34715 l -1.14057,1.34716 1.34716,-1.14059 c 1.266,-1.07185 1.61973,-1.55372 1.14059,-1.55372 z m -2.39495,-61.07117 c -0.11362,0 -0.71984,0.6062 -1.34717,1.34715 l -1.14055,1.34716 1.34717,-1.14059 c 1.266,-1.07186 1.61972,-1.55372 1.14059,-1.55372 z m -0.58718,107.77265 c -0.10723,0 -0.84817,0.74094 -1.64651,1.64653 l -1.45149,1.64652 1.64652,-1.45153 c 1.53893,-1.35665 1.9211,-1.84152 1.45152,-1.84152 z m -0.61029,-1.19747 c -0.11362,0 -0.71985,0.6062 -1.34716,1.34715 l -1.14055,1.34715 1.34714,-1.14058 c 1.266,-1.07187 1.61973,-1.55372 1.14059,-1.55372 z m 0,-42.51033 c -0.11362,0 -0.71985,0.60621 -1.34716,1.34716 l -1.14055,1.34716 1.34714,-1.1406 c 1.266,-1.07187 1.61973,-1.55372 1.14059,-1.55372 z M 169.84168,824.893 c -0.11361,0 -0.71983,0.60623 -1.34714,1.34717 l -1.14056,1.34714 1.34715,-1.14058 c 1.26599,-1.07188 1.61973,-1.55373 1.14058,-1.55373 z m -1.19747,108.37139 c -0.11362,0 -0.71984,0.60621 -1.34716,1.34715 l -1.14056,1.34716 1.34717,-1.1406 c 1.26599,-1.07185 1.61972,-1.55371 1.14059,-1.55371 z m 0,-44.30654 c -0.11362,0 -0.71984,0.60623 -1.34716,1.34717 l -1.14056,1.34716 1.34717,-1.1406 c 1.26599,-1.07187 1.61972,-1.55373 1.14059,-1.55373 z m -0.61822,43.10906 c -0.12433,0 -0.59583,0.47152 -1.04779,1.04779 -0.74475,0.94963 -0.72357,0.97081 0.22606,0.22607 0.99734,-0.78217 1.31451,-1.27386 0.82173,-1.27386 z m -1.76515,-104.18023 c -0.10725,0 -0.84818,0.74095 -1.64652,1.64654 l -1.45149,1.64652 1.64652,-1.45152 c 1.53893,-1.35667 1.92109,-1.84154 1.45153,-1.84154 z m -1.20904,108.3714 c -0.11362,0 -0.71984,0.60621 -1.34715,1.34716 l -1.14057,1.34714 1.34716,-1.14058 c 1.26599,-1.07187 1.61973,-1.55372 1.14059,-1.55372 z m 0.0116,-44.30654 c -0.10724,0 -0.84818,0.74093 -1.64653,1.64652 l -1.45147,1.64653 1.64653,-1.45152 c 1.53892,-1.35667 1.9211,-1.84153 1.45152,-1.84153 z m -3.00525,-60.47244 c -0.11362,0 -0.71984,0.60622 -1.34716,1.34717 l -1.14054,1.34715 1.34716,-1.14059 c 1.26599,-1.07187 1.61972,-1.55373 1.14059,-1.55373 z m -1.19747,64.06486 c -0.11361,0 -0.71985,0.60623 -1.34716,1.34716 l -1.14055,1.34716 1.34717,-1.1406 c 1.26599,-1.07186 1.61972,-1.55372 1.14058,-1.55372 z m -2.39494,-61.07117 c -0.11361,0 -0.71984,0.60623 -1.34716,1.34716 l -1.14055,1.34715 1.34717,-1.14058 c 1.26599,-1.07187 1.61973,-1.55373 1.14058,-1.55373 z m -6.6144,83.63885 -4.92211,-13.886 -21.15596,-20.95578 c -11.63595,-11.52568 -21.02086,-20.55165 -20.85553,-20.05769 0.16534,0.49395 2.56083,7.29504 5.32331,15.11353 l 5.02269,14.21544 21.16327,21.11003 c 11.63981,11.61053 20.97946,20.48825 20.75477,19.72826 -0.22469,-0.76 -2.62346,-7.63051 -5.33061,-15.26779 z m 5.41696,-19.574 c -0.11362,0 -0.71983,0.60622 -1.34715,1.34717 l -1.1406,1.34716 1.34717,-1.1406 c 1.26599,-1.07187 1.61972,-1.55373 1.14058,-1.55373 z m -2.39495,-61.07116 c -0.11362,0 -0.71983,0.60622 -1.34717,1.34716 l -1.14058,1.34715 1.34716,-1.1406 c 1.266,-1.07185 1.61972,-1.55371 1.14059,-1.55371 z m -3.58085,2.99367 c -0.10724,0 -0.84818,0.74095 -1.64653,1.64653 l -1.45153,1.64653 1.64653,-1.45152 c 1.53893,-1.35667 1.9211,-1.84154 1.45153,-1.84154 z m -4.20273,3.59244 c -0.11361,0 -0.71984,0.60622 -1.34715,1.34716 l -1.14059,1.34714 1.34715,-1.14059 c 1.266,-1.07186 1.61973,-1.55371 1.14059,-1.55371 z m -3.59242,2.99368 c -0.11361,0 -0.71984,0.60622 -1.34717,1.34716 l -1.14058,1.34716 1.34717,-1.14059 c 1.26599,-1.07187 1.61972,-1.55373 1.14058,-1.55373 z m -3.59243,2.99367 c -0.11361,0 -0.71983,0.60625 -1.34714,1.34718 l -1.14059,1.34715 1.34715,-1.14059 c 1.266,-1.07188 1.61972,-1.55374 1.14058,-1.55374 z m -7.98973,9.13074 c -0.15059,0.5763 -0.15059,1.51931 0,2.09558 0.1506,0.5763 0.27382,0.10479 0.27382,-1.04779 0,-1.15256 -0.12322,-1.62406 -0.27382,-1.04779 z m -0.59738,4.18418 c -0.14987,0.57246 -0.1553,1.65018 -0.0121,2.39495 0.14321,0.74478 0.26583,0.27642 0.27247,-1.04081 0.007,-1.31721 -0.11053,-1.92657 -0.26038,-1.35414 z m -0.59874,4.7899 c -0.14986,0.57245 -0.1553,1.65017 -0.0121,2.39495 0.14322,0.74478 0.26582,0.27643 0.27247,-1.0408 0.007,-1.31722 -0.11053,-1.92658 -0.26039,-1.35415 z m -0.22771,-12.71618 c -0.37587,0 -0.48301,-0.55483 -0.26014,-1.34714 0.29534,-1.04997 0.24132,-1.14905 -0.24485,-0.44906 -0.5066,0.72938 -4.70461,-3.1795 -22.34521,-20.80611 -11.946773,-11.93731 -21.871777,-21.70422 -22.055554,-21.70422 -0.183776,0 -0.356978,1.27981 -0.384893,2.84401 -0.04299,2.40706 0.0088,2.54342 0.337174,0.88766 l 0.387927,-1.95635 21.850816,21.86433 c 12.01796,12.0254 22.189,21.86437 22.60232,21.86437 0.41333,0 0.7515,-0.26943 0.7515,-0.59874 0,-0.32931 -0.28759,-0.59875 -0.63909,-0.59875 z m -0.37103,17.50608 c -0.14986,0.57245 -0.1553,1.65016 -0.0121,2.39494 0.14321,0.74478 0.26583,0.27642 0.27247,-1.0408 0.007,-1.31722 -0.11054,-1.92658 -0.26039,-1.35414 z m -0.59874,4.78989 c -0.14985,0.57245 -0.15529,1.65017 -0.0121,2.39495 0.14321,0.74477 0.26583,0.27641 0.27247,-1.0408 0.007,-1.31723 -0.11053,-1.92659 -0.26039,-1.35415 z M 123.9456,839.3 c -2.63444,-7.38294 -4.78989,-13.76769 -4.78989,-14.18831 0,-0.80295 -42.514948,-44.12143 -42.912667,-43.72373 -0.126231,0.12623 2.094742,6.82874 4.935503,14.89446 l 5.165017,14.66495 21.195967,21.18966 c 11.65778,11.65431 21.19596,21.05395 21.19596,20.8881 0,-0.16585 -2.15545,-6.34217 -4.78989,-13.72513 z m -0.34313,-17.9631 c -0.89635,0.7439 -3.24929,4.86824 -3.24929,5.69551 0,0.53871 4.05287,-5.30557 4.1295,-5.95483 0.0339,-0.28729 -0.36218,-0.1706 -0.88021,0.25932 z m -10.69816,71.81212 c -0.63195,0 -0.89745,1.14903 -0.34447,1.49079 0.33468,0.20686 0.60851,-0.044 0.60851,-0.55736 0,-0.51338 -0.11882,-0.93343 -0.26404,-0.93343 z m -0.3347,-1.79622 c -0.32931,0 -0.59874,0.11882 -0.59874,0.26404 0,0.14521 0.26943,0.43054 0.59874,0.63406 0.3293,0.20354 0.59874,0.0847 0.59874,-0.26404 0,-0.34872 -0.26944,-0.63406 -0.59874,-0.63406 z m -0.26403,8.38232 c -0.63196,0 -0.89746,1.14904 -0.34448,1.4908 0.33468,0.20685 0.60851,-0.044 0.60851,-0.55737 0,-0.51338 -0.11881,-0.93343 -0.26403,-0.93343 z m -0.33471,-10.17853 c -0.3293,0 -0.59874,0.11881 -0.59874,0.26403 0,0.14522 0.26944,0.43055 0.59874,0.63409 0.32931,0.20351 0.59874,0.0847 0.59874,-0.26405 0,-0.34873 -0.26943,-0.63407 -0.59874,-0.63407 z m -0.23652,-2.26888 c -0.4594,0.42462 -0.69515,1.00287 -0.5239,1.28501 0.17125,0.28213 0.543,0.14741 0.8261,-0.29936 0.80054,-1.26343 0.6234,-1.84118 -0.3022,-0.98565 z m -0.0275,18.43478 c -0.63196,0 -0.89746,1.14904 -0.34448,1.49081 0.33468,0.20683 0.60851,-0.044 0.60851,-0.55737 0,-0.51339 -0.11882,-0.93344 -0.26403,-0.93344 z m -0.59874,5.98738 c -0.63196,0 -0.89746,1.14902 -0.34447,1.49079 0.33467,0.20684 0.6085,-0.044 0.6085,-0.55736 0,-0.5134 -0.11882,-0.93343 -0.26403,-0.93343 z m -0.59874,5.98735 c -0.63195,0 -0.89745,1.14906 -0.34447,1.49081 0.33468,0.20685 0.6085,-0.044 0.6085,-0.55737 0,-0.51339 -0.11881,-0.93344 -0.26403,-0.93344 z m -0.33481,-32.93052 c -0.32931,0 -0.59874,0.11881 -0.59874,0.26403 0,0.14521 0.26943,0.43054 0.59874,0.63407 0.3293,0.20352 0.59874,0.0847 0.59874,-0.26403 0,-0.34873 -0.26944,-0.63407 -0.59874,-0.63407 z m -0.26403,38.91791 c -0.63196,0 -0.89746,1.14902 -0.34447,1.49079 0.33467,0.20685 0.6085,-0.044 0.6085,-0.55738 0,-0.51339 -0.11881,-0.93341 -0.26403,-0.93341 z m -0.33471,-40.71412 c -0.3293,0 -0.59873,0.1188 -0.59873,0.26403 0,0.14522 0.26943,0.43054 0.59873,0.63407 0.32931,0.20353 0.59874,0.0847 0.59874,-0.26404 0,-0.34873 -0.26943,-0.63406 -0.59874,-0.63406 z m -0.26409,47.3002 c -0.63196,0 -0.89746,1.14907 -0.34448,1.49081 0.33468,0.20684 0.60851,-0.044 0.60851,-0.55736 0,-0.51339 -0.11882,-0.93345 -0.26403,-0.93345 z m -0.33471,-49.09641 c -0.32931,0 -0.59874,0.11881 -0.59874,0.26403 0,0.14522 0.26943,0.43055 0.59874,0.63408 0.32931,0.20351 0.59874,0.0847 0.59874,-0.26404 0,-0.34873 -0.26943,-0.63407 -0.59874,-0.63407 z m -0.59874,-1.79622 c -0.3293,0 -0.59873,0.11882 -0.59873,0.26404 0,0.14521 0.26943,0.43054 0.59873,0.63406 0.32931,0.20353 0.59874,0.0847 0.59874,-0.26403 0,-0.34873 -0.26943,-0.63407 -0.59874,-0.63407 z m -0.23654,-2.26887 c -0.45939,0.42463 -0.69514,1.00287 -0.52389,1.285 0.17125,0.28214 0.54299,0.14743 0.82609,-0.29936 0.80054,-1.26342 0.62341,-1.84117 -0.3022,-0.98564 z m -1.55968,-2.52103 c -0.32931,0 -0.59874,0.11882 -0.59874,0.26405 0,0.14521 0.26943,0.43054 0.59874,0.63406 0.3293,0.20353 0.59873,0.0847 0.59873,-0.26402 0,-0.34875 -0.26943,-0.63409 -0.59873,-0.63409 z m -0.59874,-1.7962 c -0.3293,0 -0.59874,0.11881 -0.59874,0.26403 0,0.14522 0.26944,0.43055 0.59874,0.63407 0.3293,0.20353 0.59874,0.0847 0.59874,-0.26404 0,-0.34874 -0.26944,-0.63406 -0.59874,-0.63406 z m -0.59874,-1.79621 c -0.3293,0 -0.59873,0.11881 -0.59873,0.26403 0,0.14523 0.26943,0.43054 0.59873,0.63407 0.32931,0.20353 0.59874,0.0847 0.59874,-0.26403 0,-0.34874 -0.26943,-0.63407 -0.59874,-0.63407 z m -0.23652,-2.26888 c -0.45939,0.42461 -0.69515,1.00287 -0.5239,1.28501 0.17125,0.28214 0.543,0.14742 0.8261,-0.29937 0.80054,-1.26343 0.6234,-1.84117 -0.3022,-0.98564 z m -1.55969,-2.52101 c -0.3293,0 -0.59873,0.1188 -0.59873,0.26402 0,0.14522 0.26943,0.43055 0.59873,0.63407 0.32931,0.20353 0.59874,0.0847 0.59874,-0.26404 0,-0.34871 -0.26943,-0.63405 -0.59874,-0.63405 z m -0.96301,-1.79622 c -0.72824,0 -0.87143,-0.36493 -0.58733,-1.49684 0.21664,-0.86317 0.11738,-1.49685 -0.23446,-1.49685 -0.33558,0 -0.61015,0.88528 -0.61015,1.96728 0,1.56813 0.24297,1.96728 1.19748,1.96728 0.65861,0 1.19747,-0.21169 1.19747,-0.47045 0,-0.25873 -0.43335,-0.47042 -0.96301,-0.47042 z m -1.70548,-6.37949 c -0.6926,0.26578 -0.8962,1.14629 -0.81318,3.51671 l 0.11076,3.16214 0.2199,-3.14336 c 0.16812,-2.40314 0.44753,-3.14336 1.18651,-3.14336 0.53163,0 0.79861,-0.16801 0.59327,-0.37336 -0.20533,-0.20532 -0.7891,-0.21377 -1.29726,-0.0188 z m 0.009,8.77444 c -0.10748,-0.49397 -0.22666,0.66703 -0.26486,2.57997 -0.0382,1.91294 0.14779,3.34381 0.4133,3.17971 0.43529,-0.26903 0.3532,-3.45403 -0.14844,-5.75968 z m -1.360885,-0.45978 c -0.136616,0.89969 -0.139362,2.51628 -0.0061,3.59243 0.133254,1.07613 0.245033,0.34002 0.248391,-1.63581 0.0036,-1.97582 -0.105665,-2.85631 -0.242284,-1.95662 z m -0.659905,6.07995 c -0.26894,0.16621 -4.509116,-3.72466 -9.422622,-8.64636 -4.913498,-4.9217 -9.203281,-8.94856 -9.532842,-8.94856 -0.329565,0 3.697515,4.30303 8.949062,9.56229 6.441822,6.45127 9.699347,9.32448 10.012654,8.83136 0.601323,-0.94641 0.599551,-1.17313 -0.0063,-0.79873 z m -14.292107,-54.5739 c -0.149857,0.57246 -0.155295,1.65017 -0.0121,2.39495 0.143212,0.74477 0.265827,0.27641 0.272472,-1.04081 0.0066,-1.31722 -0.110533,-1.92659 -0.260389,-1.35414 z m -0.598737,4.78989 c -0.149857,0.57245 -0.155293,1.65017 -0.01209,2.39495 0.143211,0.74478 0.265827,0.27642 0.272472,-1.0408 0.0066,-1.31722 -0.110533,-1.92659 -0.260391,-1.35415 z M 83.945986,810.751 c -0.463841,0.28667 -0.230592,4.56221 0.248895,4.56221 0.128621,0 0.23386,-1.09364 0.23386,-2.43028 0,-1.33665 -0.217239,-2.29602 -0.482755,-2.13193 z m -0.527363,16.67965 c -0.149855,0.57244 -0.155293,1.65018 -0.01209,2.39496 0.143212,0.74477 0.265827,0.27641 0.272472,-1.04083 0.0066,-1.3172 -0.110532,-1.92657 -0.26039,-1.35413 z m -0.08752,-11.28103 c -0.471935,0.29167 -0.224172,3.95349 0.267499,3.95349 0.127274,0 0.231411,-0.95891 0.231411,-2.13091 0,-1.172 -0.224507,-1.99216 -0.49891,-1.82258 z m -0.09983,-7.42252 c -0.329304,0 -0.598737,0.11882 -0.598737,0.26403 0,0.14522 0.269433,0.43056 0.598737,0.63408 0.329304,0.20352 0.598737,0.0847 0.598737,-0.26405 0,-0.34871 -0.269433,-0.63406 -0.598737,-0.63406 z m -0.41138,23.49346 c -0.149856,0.57243 -0.155294,1.65015 -0.01209,2.39493 0.143212,0.74479 0.265826,0.27641 0.272472,-1.04081 0.0066,-1.31721 -0.110533,-1.92658 -0.26039,-1.35412 z m -0.08753,-11.28104 c -0.471934,0.29166 -0.224171,3.95348 0.267499,3.95348 0.127274,0 0.231412,-0.95891 0.231412,-2.13092 0,-1.17199 -0.224509,-1.99216 -0.498911,-1.82256 z m -0.09983,-14.00863 c -0.329305,0 -0.598736,0.11882 -0.598736,0.26404 0,0.14521 0.269431,0.43053 0.598736,0.63407 0.329306,0.20353 0.598738,0.0847 0.598738,-0.26403 0,-0.34874 -0.269432,-0.63408 -0.598738,-0.63408 z m -0.41138,30.07955 c -0.149857,0.57245 -0.155295,1.65018 -0.01209,2.39494 0.143212,0.74478 0.265828,0.27643 0.272472,-1.04079 0.0066,-1.31723 -0.110533,-1.92659 -0.26039,-1.35415 z m -0.08753,-11.28102 c -0.471935,0.29167 -0.224172,3.95349 0.267499,3.95349 0.127274,0 0.231411,-0.95892 0.231411,-2.13092 0,-1.17201 -0.224508,-1.99217 -0.49891,-1.82257 z m -0.09983,-20.59473 c -0.329304,0 -0.598737,0.11881 -0.598737,0.26403 0,0.14521 0.269433,0.43055 0.598737,0.63405 0.329306,0.20355 0.598737,0.0847 0.598737,-0.26402 0,-0.34873 -0.269431,-0.63406 -0.598737,-0.63406 z m -0.41138,36.66565 c -0.149858,0.57245 -0.155294,1.65017 -0.01209,2.39495 0.143213,0.74477 0.265827,0.27641 0.272473,-1.04081 0.0066,-1.31722 -0.110532,-1.92658 -0.26039,-1.35414 z m -0.08753,-11.28103 c -0.471935,0.29166 -0.224173,3.95348 0.267498,3.95348 0.127274,0 0.231411,-0.95891 0.231411,-2.13092 0,-1.17199 -0.224508,-1.99216 -0.498909,-1.82256 z m -0.09983,-27.18083 c -0.329305,0 -0.598737,0.11881 -0.598737,0.26402 0,0.14522 0.269432,0.43054 0.598737,0.63407 0.329305,0.20354 0.598737,0.0847 0.598737,-0.26403 0,-0.34873 -0.269432,-0.63406 -0.598737,-0.63406 z m -0.236525,-2.26888 c -0.459393,0.42461 -0.695145,1.00287 -0.523894,1.28502 0.171251,0.28212 0.542994,0.1474 0.826096,-0.29939 0.800539,-1.26342 0.623405,-1.84115 -0.302202,-0.98563 z m -0.174856,45.52063 c -0.149856,0.57245 -0.155293,1.65018 -0.01209,2.39496 0.143213,0.74477 0.26583,0.27641 0.272474,-1.04083 0.0066,-1.3172 -0.110532,-1.92656 -0.260391,-1.35413 z m -0.08752,-11.28101 c -0.471935,0.29165 -0.224172,3.95347 0.267498,3.95347 0.127274,0 0.231412,-0.95891 0.231412,-2.13091 0,-1.172 -0.224506,-1.99216 -0.49891,-1.82256 z m -0.512554,16.0779 c -0.150595,0.57627 -0.150595,1.51929 0,2.09558 0.1506,0.57628 0.273822,0.10477 0.273822,-1.0478 0,-1.15257 -0.123222,-1.62407 -0.273822,-1.04778 z m -0.08618,-11.28801 c -0.471935,0.29166 -0.224171,3.95348 0.267498,3.95348 0.127275,0 0.231414,-0.95892 0.231414,-2.13092 0,-1.17199 -0.224509,-1.99217 -0.498912,-1.82256 z m -0.598736,4.78989 c -0.471936,0.29167 -0.224173,3.95348 0.267497,3.95348 0.127275,0 0.231413,-0.95891 0.231413,-2.13091 0,-1.172 -0.224508,-1.99217 -0.49891,-1.82257 z m -0.09983,-46.34041 c -0.329305,0 -0.598738,0.1188 -0.598738,0.26403 0,0.1452 0.269433,0.43055 0.598738,0.63405 0.329305,0.20354 0.598737,0.0847 0.598737,-0.26402 0,-0.34874 -0.269432,-0.63406 -0.598737,-0.63406 z m -0.598738,-1.79623 c -0.329304,0 -0.598736,0.11884 -0.598736,0.26404 0,0.14522 0.269432,0.43054 0.598736,0.63407 0.329305,0.20353 0.598738,0.0847 0.598738,-0.26404 0,-0.34872 -0.269433,-0.63407 -0.598738,-0.63407 z m -0.598736,-1.7962 c -0.329304,0 -0.598737,0.1188 -0.598737,0.26403 0,0.14522 0.269433,0.43054 0.598737,0.63407 0.329305,0.20352 0.598736,0.0847 0.598736,-0.26403 0,-0.34874 -0.269431,-0.63407 -0.598736,-0.63407 z m -0.236525,-2.26888 c -0.459393,0.42462 -0.695146,1.00287 -0.523894,1.285 0.17125,0.28213 0.542994,0.14744 0.826094,-0.29935 0.800542,-1.26344 0.623407,-1.8412 -0.3022,-0.98565 z m -1.559686,-2.52102 c -0.329305,0 -0.598737,0.11881 -0.598737,0.26403 0,0.14522 0.269432,0.43054 0.598737,0.63409 0.329305,0.2035 0.598737,0.0847 0.598737,-0.26405 0,-0.34873 -0.269432,-0.63407 -0.598737,-0.63407 z m -0.598742,-1.79622 c -0.329305,0 -0.598737,0.11881 -0.598737,0.26404 0,0.14522 0.269432,0.43056 0.598737,0.63407 0.329305,0.20354 0.598737,0.0847 0.598737,-0.26403 0,-0.34874 -0.269432,-0.63408 -0.598737,-0.63408 z m -0.598737,-1.7962 c -0.329306,0 -0.598737,0.1188 -0.598737,0.26404 0,0.14522 0.269431,0.43055 0.598737,0.63407 0.329305,0.20352 0.598737,0.0847 0.598737,-0.26405 0,-0.34873 -0.269432,-0.63406 -0.598737,-0.63406 z m -0.598737,-1.79622 c -0.329305,0 -0.598738,0.11882 -0.598738,0.26404 0,0.14523 0.269433,0.43055 0.598738,0.63407 0.329306,0.20353 0.598737,0.0847 0.598737,-0.26404 0,-0.34873 -0.269431,-0.63407 -0.598737,-0.63407 z m -0.236526,-2.26886 c -0.459389,0.42462 -0.695141,1.00286 -0.523892,1.285 0.171249,0.28214 0.542994,0.14742 0.826093,-0.29936 0.800541,-1.26343 0.623405,-1.84118 -0.302201,-0.98564 z M 107.44478,935.0606 c -0.51339,0 -0.7642,-0.27382 -0.55736,-0.6085 0.20684,-0.33469 0.62689,-0.4535 0.93344,-0.26403 0.83047,0.51324 0.67562,0.87253 -0.37608,0.87253 z"
       id="path4286"
       inkscape:connector-curvature="0"
       inkscape:export-xdpi="300"
       inkscape:export-ydpi="300" />
    <text
       xml:space="preserve"
       style="font-style:normal;font-weight:normal;font-size:17.5px;line-height:125%;font-family:sans-serif;letter-spacing:0px;word-spacing:0px;fill:#000000;fill-opacity:1;stroke:none;stroke-width:1px;stroke-linecap:butt;stroke-linejoin:miter;stroke-opacity:1"
       x="2.8779848"
       y="808.78107"
       id="text4288"
       sodipodi:linespacing="125%"
       inkscape:export-xdpi="300"
       inkscape:export-ydpi="300"><tspan
         sodipodi:role="line"
         id="tspan4290"
         x="2.8779848"
         y="808.78107"
         style="font-style:normal;font-variant:normal;font-weight:normal;font-stretch:normal;font-size:22.5px;font-family:'Comic Sans MS';-inkscape-font-specification:'Comic Sans MS'">0.75&quot;</tspan></text>
    <path
       style="fill:none;fill-rule:evenodd;stroke:#000000;stroke-width:2;stroke-linecap:butt;stroke-linejoin:miter;stroke-miterlimit:4;stroke-dasharray:none;stroke-opacity:1"
       d="m 66.974933,782.59335 c -8.410806,0.31152 -0.311511,20.24823 -8.099295,19.62521"
       id="path4292"
       inkscape:connector-curvature="0"
       sodipodi:nodetypes="cc"
       inkscape:export-xdpi="300"
       inkscape:export-ydpi="300" />
    <path
       sodipodi:nodetypes="cc"
       inkscape:connector-curvature="0"
       id="path4294"
       d="m 66.974934,821.54568 c -8.410806,-0.31152 -0.311511,-20.24823 -8.099295,-19.62521"
       style="fill:none;fill-rule:evenodd;stroke:#000000;stroke-width:2;stroke-linecap:butt;stroke-linejoin:miter;stroke-miterlimit:4;stroke-dasharray:none;stroke-opacity:1"
       inkscape:export-xdpi="300"
       inkscape:export-ydpi="300" />
    <path
       sodipodi:nodetypes="cc"
       inkscape:connector-curvature="0"
       id="path4296"
       d="m 95.653306,768.86571 c -0.31152,8.4108 -20.24823,0.31151 -19.62521,8.09929"
       style="fill:none;fill-rule:evenodd;stroke:#000000;stroke-width:2;stroke-linecap:butt;stroke-linejoin:miter;stroke-miterlimit:4;stroke-dasharray:none;stroke-opacity:1"
       inkscape:export-xdpi="300"
       inkscape:export-ydpi="300" />
    <path
       style="fill:none;fill-rule:evenodd;stroke:#000000;stroke-width:2;stroke-linecap:butt;stroke-linejoin:miter;stroke-miterlimit:4;stroke-dasharray:none;stroke-opacity:1"
       d="m 95.838253,768.93681 c 0.31152,8.4108 20.248227,0.31151 19.625207,8.09929"
       id="path4298"
       inkscape:connector-curvature="0"
       sodipodi:nodetypes="cc"
       inkscape:export-xdpi="300"
       inkscape:export-ydpi="300" />
    <text
       sodipodi:linespacing="125%"
       id="text4300"
       y="763.40509"
       x="72.924408"
       style="font-style:normal;font-weight:normal;font-size:17.5px;line-height:125%;font-family:sans-serif;letter-spacing:0px;word-spacing:0px;fill:#000000;fill-opacity:1;stroke:none;stroke-width:1px;stroke-linecap:butt;stroke-linejoin:miter;stroke-opacity:1"
       xml:space="preserve"
       inkscape:export-xdpi="300"
       inkscape:export-ydpi="300"><tspan
         style="font-style:normal;font-variant:normal;font-weight:normal;font-stretch:normal;font-size:22.5px;font-family:'Comic Sans MS';-inkscape-font-specification:'Comic Sans MS'"
         y="763.40509"
         x="72.924408"
         id="tspan4302"
         sodipodi:role="line">0.75&quot;</tspan></text>
    <path
       sodipodi:nodetypes="cc"
       inkscape:connector-curvature="0"
       id="path4304"
       d="m 64.415998,827.60527 c -7.033868,2.24614 5.642072,14.25405 -1.136622,15.69555"
       style="fill:none;fill-rule:evenodd;stroke:#000000;stroke-width:1.62912154;stroke-linecap:butt;stroke-linejoin:miter;stroke-miterlimit:4;stroke-dasharray:none;stroke-opacity:1"
       inkscape:export-xdpi="300"
       inkscape:export-ydpi="300" />
    <path
       style="fill:none;fill-rule:evenodd;stroke:#000000;stroke-width:1.62912154;stroke-linecap:butt;stroke-linejoin:miter;stroke-miterlimit:4;stroke-dasharray:none;stroke-opacity:1"
       d="m 76.407688,855.3926 c -7.215595,1.80986 -6.169832,-14.10381 -12.585087,-11.78977"
       id="path4306"
       inkscape:connector-curvature="0"
       sodipodi:nodetypes="cc"
       inkscape:export-xdpi="300"
       inkscape:export-ydpi="300" />
    <text
       sodipodi:linespacing="125%"
       id="text4308"
       y="853.86047"
       x="42.877983"
       style="font-style:normal;font-weight:normal;font-size:17.5px;line-height:125%;font-family:sans-serif;letter-spacing:0px;word-spacing:0px;fill:#000000;fill-opacity:1;stroke:none;stroke-width:1px;stroke-linecap:butt;stroke-linejoin:miter;stroke-opacity:1"
       xml:space="preserve"
       inkscape:export-xdpi="300"
       inkscape:export-ydpi="300"><tspan
         style="font-style:normal;font-variant:normal;font-weight:normal;font-stretch:normal;font-size:22.5px;font-family:'Comic Sans MS';-inkscape-font-specification:'Comic Sans MS'"
         y="853.86047"
         x="42.877983"
         id="tspan4310"
         sodipodi:role="line">1&quot;</tspan></text>
    <text
       xml:space="preserve"
       style="font-style:normal;font-weight:normal;font-size:17.5px;line-height:125%;font-family:sans-serif;letter-spacing:0px;word-spacing:0px;fill:#000000;fill-opacity:1;stroke:none;stroke-width:1px;stroke-linecap:butt;stroke-linejoin:miter;stroke-opacity:1"
       x="19.682541"
       y="846.01294"
       id="text4312"
       sodipodi:linespacing="125%"><tspan
         sodipodi:role="line"
         id="tspan4314"
         x="19.682541"
         y="846.01294"></tspan></text>
    <path
       style="fill:none;fill-rule:evenodd;stroke:#000000;stroke-width:2.33698344;stroke-linecap:butt;stroke-linejoin:miter;stroke-miterlimit:4;stroke-dasharray:none;stroke-opacity:1"
       d="m 80.603829,859.71843 c -8.992275,3.61548 7.212968,22.94389 -1.453086,25.26419"
       id="path4335"
       inkscape:connector-curvature="0"
       sodipodi:nodetypes="cc"
       inkscape:export-xdpi="300"
       inkscape:export-ydpi="300" />
    <path
       sodipodi:nodetypes="cc"
       inkscape:connector-curvature="0"
       id="path4337"
       d="m 95.93431,904.44604 c -9.2246,2.91323 -7.88767,-22.70206 -16.089094,-18.97729"
       style="fill:none;fill-rule:evenodd;stroke:#000000;stroke-width:2.33698344;stroke-linecap:butt;stroke-linejoin:miter;stroke-miterlimit:4;stroke-dasharray:none;stroke-opacity:1"
       inkscape:export-xdpi="300"
       inkscape:export-ydpi="300" />
    <text
       xml:space="preserve"
       style="font-style:normal;font-weight:normal;font-size:17.5px;line-height:125%;font-family:sans-serif;letter-spacing:0px;word-spacing:0px;fill:#000000;fill-opacity:1;stroke:none;stroke-width:1px;stroke-linecap:butt;stroke-linejoin:miter;stroke-opacity:1"
       x="41.608139"
       y="894.49536"
       id="text4339"
       sodipodi:linespacing="125%"
       inkscape:export-xdpi="300"
       inkscape:export-ydpi="300"><tspan
         sodipodi:role="line"
         id="tspan4341"
         x="41.608139"
         y="894.49536"
         style="font-style:normal;font-variant:normal;font-weight:normal;font-stretch:normal;font-size:22.5px;font-family:'Comic Sans MS';-inkscape-font-specification:'Comic Sans MS'">1.5&quot;</tspan></text>
    <path
       style="fill:none;fill-rule:evenodd;stroke:#000000;stroke-width:1.62912154;stroke-linecap:butt;stroke-linejoin:miter;stroke-miterlimit:4;stroke-dasharray:none;stroke-opacity:1"
       d="m 92.987427,909.51003 c -7.033868,2.24614 5.642072,14.25405 -1.136622,15.69555"
       id="path4343"
       inkscape:connector-curvature="0"
       sodipodi:nodetypes="cc"
       inkscape:export-xdpi="300"
       inkscape:export-ydpi="300" />
    <path
       sodipodi:nodetypes="cc"
       inkscape:connector-curvature="0"
       id="path4345"
       d="m 104.97912,937.29736 c -7.215598,1.80986 -6.169835,-14.10381 -12.58509,-11.78977"
       style="fill:none;fill-rule:evenodd;stroke:#000000;stroke-width:1.62912154;stroke-linecap:butt;stroke-linejoin:miter;stroke-miterlimit:4;stroke-dasharray:none;stroke-opacity:1"
       inkscape:export-xdpi="300"
       inkscape:export-ydpi="300" />
    <text
       xml:space="preserve"
       style="font-style:normal;font-weight:normal;font-size:17.5px;line-height:125%;font-family:sans-serif;letter-spacing:0px;word-spacing:0px;fill:#000000;fill-opacity:1;stroke:none;stroke-width:1px;stroke-linecap:butt;stroke-linejoin:miter;stroke-opacity:1"
       x="71.449409"
       y="935.76526"
       id="text4347"
       sodipodi:linespacing="125%"
       inkscape:export-xdpi="300"
       inkscape:export-ydpi="300"><tspan
         sodipodi:role="line"
         id="tspan4349"
         x="71.449409"
         y="935.76526"
         style="font-style:normal;font-variant:normal;font-weight:normal;font-stretch:normal;font-size:22.5px;font-family:'Comic Sans MS';-inkscape-font-specification:'Comic Sans MS'">1&quot;</tspan></text>
    <text
       xml:space="preserve"
       style="font-style:normal;font-weight:normal;font-size:17.5px;line-height:125%;font-family:sans-serif;letter-spacing:0px;word-spacing:0px;fill:#000000;fill-opacity:1;stroke:none;stroke-width:1px;stroke-linecap:butt;stroke-linejoin:miter;stroke-opacity:1"
       x="248.79742"
       y="937.37335"
       id="text4351"
       sodipodi:linespacing="125%"
       inkscape:export-xdpi="300"
       inkscape:export-ydpi="300"><tspan
         sodipodi:role="line"
         id="tspan4353"
         x="248.79742"
         y="937.37335"
         style="font-style:normal;font-variant:normal;font-weight:normal;font-stretch:normal;font-size:22.5px;font-family:'Comic Sans MS';-inkscape-font-specification:'Comic Sans MS'">2x4</tspan></text>
  </g>
</svg>
