<?xml version="1.0" encoding="UTF-8" standalone="no"?>
<!-- Created with Inkscape (http://www.inkscape.org/) -->

<svg
   xmlns:dc="http://purl.org/dc/elements/1.1/"
   xmlns:cc="http://creativecommons.org/ns#"
   xmlns:rdf="http://www.w3.org/1999/02/22-rdf-syntax-ns#"
   xmlns:svg="http://www.w3.org/2000/svg"
   xmlns="http://www.w3.org/2000/svg"
   xmlns:sodipodi="http://sodipodi.sourceforge.net/DTD/sodipodi-0.dtd"
   xmlns:inkscape="http://www.inkscape.org/namespaces/inkscape"
   width="4in"
   height="4in"
   viewBox="0 0 360.00001 360.00001"
   id="svg5592"
   version="1.1"
   inkscape:version="0.91 r13725"
   sodipodi:docname="banachtarski1.svg">
  <defs
     id="defs5594">
    <clipPath
       clipPathUnits="userSpaceOnUse"
       id="clipPath6220">
      <rect
         style="fill:#000000;fill-opacity:1;stroke:none;stroke-width:3.54330707;stroke-miterlimit:4;stroke-dasharray:none;stroke-opacity:1"
         id="rect6222"
         width="854.78705"
         height="705.2616"
         x="34.889267"
         y="486.65765" />
    </clipPath>
  </defs>
  <sodipodi:namedview
     id="base"
     pagecolor="#ffffff"
     bordercolor="#666666"
     borderopacity="1.0"
     inkscape:pageopacity="0.0"
     inkscape:pageshadow="2"
     inkscape:zoom="0.80253906"
     inkscape:cx="121.69154"
     inkscape:cy="158.18122"
     inkscape:document-units="px"
     inkscape:current-layer="layer1"
     showgrid="false"
     units="in"
     inkscape:window-width="1366"
     inkscape:window-height="719"
     inkscape:window-x="0"
     inkscape:window-y="1"
     inkscape:window-maximized="1" />
  <metadata
     id="metadata5597">
    <rdf:RDF>
      <cc:Work
         rdf:about="">
        <dc:format>image/svg+xml</dc:format>
        <dc:type
           rdf:resource="http://purl.org/dc/dcmitype/StillImage" />
        <dc:title></dc:title>
      </cc:Work>
    </rdf:RDF>
  </metadata>
  <g
     inkscape:label="Layer 1"
     inkscape:groupmode="layer"
     id="layer1"
     transform="translate(0,-692.36215)">
    <path
       style="fill:#000000"
       d="m 268.84062,1005.2863 c -0.40454,-0.2344 -1.13573,-0.7974 -1.62486,-1.251 -1.20892,-1.1209 -3.40042,-2.1664 -6.48698,-3.0947 -3.52762,-1.06105 -7.55077,-1.88841 -7.95813,-1.63665 -0.18495,0.11432 -0.54363,0.0752 -0.79707,-0.0874 -0.25344,-0.16232 -0.95846,-0.47584 -1.56672,-0.69656 -0.60825,-0.2208 -3.8206,-2.2128 -7.13855,-4.42672 -3.31794,-2.21384 -6.72829,-4.44 -7.57856,-4.94688 -2.44912,-1.46 -4.42835,-3.37272 -7.74053,-7.48016 -2.049,-2.54104 -2.34098,-2.8996 -4.1152,-5.0536 -0.75152,-0.9124 -1.59675,-2.20607 -1.87831,-2.87487 -0.28157,-0.66876 -0.97537,-2.2447 -1.54178,-3.50206 -0.56642,-1.25735 -1.40066,-3.28143 -1.85387,-4.49794 -0.45322,-1.21651 -1.22836,-2.98279 -1.72253,-3.92505 -0.88012,-1.67815 -1.23637,-2.88161 -0.52954,-1.78887 0.23989,0.37086 0.29236,-0.35274 0.15935,-2.19735 -0.10907,-1.51266 -0.3278,-2.92271 -0.48605,-3.13344 -0.27325,-0.36384 -1.57059,-4.75563 -2.0461,-6.92649 -0.12213,-0.55757 -0.39457,-1.01376 -0.60542,-1.01376 -0.21087,0 -0.28085,0.16589 -0.15555,0.36864 0.12532,0.20275 0.0522,0.36864 -0.16256,0.36864 -0.46012,0 -0.45123,0.0424 -0.56195,-2.67264 -0.0475,-1.16583 0.0546,-2.11968 0.22687,-2.11968 0.17233,0 0.31959,0.0414 0.32725,0.0922 0.008,0.0507 0.10793,0.75571 0.22284,1.56672 0.37188,2.62479 0.57242,1.92561 0.31719,-1.10592 -0.23038,-2.7365 0.19519,-9.91878 0.89557,-15.11424 0.19025,-1.41131 0.16245,-2.34527 -0.0768,-2.58048 -0.25188,-0.24762 -0.28957,-0.21738 -0.11481,0.0922 0.14308,0.25344 0.12595,0.4608 -0.0381,0.4608 -0.16404,0 -0.31058,0.37325 -0.32565,0.82944 -0.015,0.45619 -0.14975,1.41005 -0.29927,2.11968 -0.3592,1.70469 -1.0336,8.02928 -0.98996,9.28393 0.019,0.54424 -0.14308,1.09922 -0.36002,1.23329 -0.39018,0.24115 -0.26672,-4.07712 0.19006,-6.6465 0.48508,-2.72871 0.62758,-3.71339 0.74384,-5.14003 0.0683,-0.83892 0.37632,-2.34804 0.68436,-3.3536 0.85632,-2.79535 1.60456,-5.61625 2.25692,-8.50884 0.32568,-1.44403 1.17724,-4.01529 1.89236,-5.71392 0.71512,-1.69862 1.56879,-3.75196 1.89704,-4.56297 0.32826,-0.81101 0.6912,-1.55751 0.80654,-1.65888 0.11534,-0.10138 0.67301,-1.09671 1.23928,-2.21184 1.38928,-2.73585 1.97831,-3.74293 2.347,-4.01267 0.34582,-0.25303 3.1551,-4.33468 3.44326,-5.00278 0.10137,-0.23504 0.91991,-1.08134 1.81895,-1.88066 1.17335,-1.04322 1.56324,-1.24528 1.38167,-0.71605 -0.2053,0.59837 -0.11086,0.56364 0.50122,-0.18432 2.44257,-2.98487 6.90063,-6.9981 10.12216,-9.11217 6.01209,-3.94534 7.31057,-4.76476 8.57088,-5.40878 0.65894,-0.33672 1.19808,-0.79966 1.19808,-1.02876 0,-0.88652 -1.97205,-2.93982 -3.35492,-3.49313 -1.20035,-0.48029 -1.43057,-0.73447 -1.33198,-1.47066 0.11434,-0.85379 0.67155,-1.27151 3.7653,-2.82272 0.60825,-0.30497 3.26246,-1.17456 5.89824,-1.93241 2.63577,-0.75784 5.87059,-1.69 7.18848,-2.07144 1.31788,-0.38143 3.54548,-0.85919 4.95022,-1.06168 2.5997,-0.37473 3.2133,-0.21208 3.37576,0.89485 0.0418,0.28447 0.93826,1.86155 1.99225,3.50462 l 1.91635,2.98741 1.53199,-0.21084 c 2.05312,-0.28256 5.4216,-0.89592 6.28791,-1.14494 0.51166,-0.14708 0.64432,-0.054 0.49135,0.3446 -0.16386,0.42699 0.32469,0.63459 2.24047,0.95205 2.36411,0.39173 6.75301,2.34542 8.36378,3.72305 1.48552,1.27052 4.50516,3.2456 7.76953,5.08189 5.22389,2.93856 6.67053,3.93536 9.3414,6.43667 1.36856,1.28168 3.38688,3.16809 4.48516,4.19204 4.81583,4.4899 10.65771,11.02945 14.44057,16.16518 1.20522,1.63624 5.79506,10.53184 5.75546,11.15468 -0.008,0.12494 0.14099,0.32867 0.33097,0.45271 0.5113,0.33385 3.20742,6.21293 3.80659,8.30057 0.32021,1.11567 0.76602,1.87333 1.16408,1.97835 0.35976,0.0949 0.64499,0.51809 0.64484,0.95665 -3.4e-4,0.90692 0.88539,5.95066 1.6594,9.44949 0.6303,2.84913 0.89196,4.63817 1.07834,7.3728 0.076,1.11513 0.1723,2.11046 0.21398,2.21184 0.19004,0.46208 0.0261,11.05465 -0.19392,12.53376 -0.13574,0.91238 -0.66176,3.22067 -1.16894,5.12953 -0.50718,1.90885 -0.99612,3.89951 -1.08652,4.42368 -0.2754,1.59687 -2.05225,7.19006 -2.44001,7.6807 -0.20029,0.25344 -0.21945,0.46336 -0.0426,0.4664 0.1769,0 0.13655,0.12752 -0.0897,0.27648 -0.45379,0.29888 -1.93684,3.07408 -1.8532,3.46784 0.0513,0.24136 -1.61176,1.98512 -8.02558,8.4152 -3.58933,3.59848 -4.10218,4.03504 -6.81278,5.80008 -1.80486,1.1752 -4.92192,3.91656 -7.92865,6.97289 -1.54179,1.5673 -3.16035,2.3239 -5.87306,2.7455 -1.25018,0.1944 -2.52189,0.4531 -2.82602,0.575 -1.16956,0.4686 -2.63467,0.5689 -9.95328,0.6812 -4.15642,0.064 -8.55245,-0.028 -9.76896,-0.2045 -1.21651,-0.1762 -3.29011,-0.4191 -4.608,-0.5396 -1.31789,-0.1205 -2.54716,-0.3693 -2.73172,-0.553 -0.20059,-0.1997 0.50377,-0.2701 1.75104,-0.1751 1.14763,0.087 2.0866,0.025 2.0866,-0.1398 0,-0.399 -1.51057,-1.0658 -3.62163,-1.5983 -1.89764,-0.4788 -8.94219,-0.6422 -8.67037,-0.2011 0.0937,0.152 0.57533,0.2764 1.07024,0.2764 0.49491,0 0.89984,0.1504 0.89984,0.3342 0,0.352 -1.15521,0.1875 -2.39616,-0.3412 -0.40551,-0.1727 -1.64967,-0.5618 -2.7648,-0.8644 l -2.02752,-0.5504 2.58048,2.3666 c 2.26134,2.0739 2.4665,2.3656 1.65888,2.3586 -0.50688,-0.01 -1.25259,-0.1998 -1.65713,-0.4344 z m 32.06992,-1.163 c 2.0132,-0.31 4.40349,-0.9862 5.89824,-1.6687 0.81101,-0.3703 2.13812,-0.8836 2.94912,-1.1405 0.81101,-0.257 1.64045,-0.5939 1.8432,-0.7486 0.47325,-0.3612 2.81204,-1.68083 5.14651,-2.90387 1.00581,-0.52696 2.33292,-1.42256 2.94912,-1.99016 0.61621,-0.56752 2.03276,-1.63824 3.14789,-2.37936 1.11514,-0.74112 2.60813,-1.88872 3.31776,-2.55024 0.70964,-0.6616 1.70496,-1.55272 2.21184,-1.98024 1.0235,-0.86328 0.82952,-0.82904 -1.19808,0.21152 -0.76032,0.39024 -1.3824,0.81 -1.3824,0.93288 0,0.12288 -0.20736,0.22344 -0.4608,0.22352 -0.25344,8e-5 -1.0414,0.26264 -1.75104,0.58344 -0.70963,0.3208 -1.7879,0.6604 -2.39616,0.75464 -0.60825,0.0943 -2.51596,0.62624 -4.23936,1.18208 -7.76616,2.50488 -9.37985,2.88984 -17.09631,4.07832 -0.78601,0.12104 -1.7689,0.28552 -2.18419,0.36552 -3.66455,0.70568 -7.19664,0.94032 -10.57934,0.70264 -8.32455,-0.58488 -10.2373,-0.81168 -12.81024,-1.51904 -0.25344,-0.0696 -0.66816,-0.1728 -0.9216,-0.2292 -0.25344,-0.056 -0.6792,-0.23888 -0.94612,-0.40552 -0.26692,-0.16664 -0.57429,-0.21408 -0.68302,-0.10528 -0.10874,0.10872 -0.60691,0.0424 -1.10706,-0.14808 -0.50014,-0.19016 -2.68109,-0.50648 -4.84657,-0.70304 -2.16547,-0.19648 -4.84961,-0.44904 -5.96475,-0.56128 -4.47036,-0.44976 -8.84736,-0.4384 -8.84736,0.0232 0,0.24712 0.27258,0.55392 0.60573,0.68176 0.33314,0.12784 0.51511,0.32304 0.40436,0.43376 -0.11075,0.1108 -0.83952,-0.12416 -1.61949,-0.52208 -0.77996,-0.39792 -1.584,-0.76376 -1.78676,-0.81288 -0.20275,-0.0496 -0.70041,-0.21936 -1.10592,-0.37824 -1.11272,-0.43576 -2.18964,-0.83256 -2.39616,-0.88288 -0.10137,-0.0248 -0.57177,-0.25984 -1.04533,-0.52248 -0.47355,-0.26272 -0.92723,-0.41136 -1.00817,-0.33048 -0.13275,0.13272 1.36306,1.27992 4.44966,3.4124 1.96348,1.35664 4.23675,2.39808 5.26447,2.41184 0.55133,0.008 2.82718,0.51088 5.05745,1.11896 5.30897,1.44737 6.28544,1.62007 4.51772,0.79904 -2.13953,-0.99368 -1.63124,-1.26352 0.6998,-0.37152 l 2.08409,0.79752 0.95719,-1.14296 c 0.90712,-1.08312 2.17091,-1.72112 2.22327,-1.12232 0.0683,0.78096 -0.035,0.9432 -0.71311,1.12056 -0.66674,0.1744 -1.11527,1.08544 -0.4608,0.936 0.15207,-0.0344 1.10592,0.0744 2.11968,0.24225 1.74924,0.2897 6.21359,0.3901 7.00416,0.1575 0.80843,-0.23783 7.27188,1.6417 8.2944,2.412 1.24344,0.9368 2.5659,1.2696 5.88048,1.4798 1.91636,0.1217 3.53961,0.2764 3.60721,0.344 0.15739,0.1574 5.46106,-0.062 6.91679,-0.2861 z m -42.30144,-6.11223 c -0.76032,-0.37984 -1.3824,-0.60176 -1.3824,-0.4932 0,0.10864 -0.20736,0.04 -0.4608,-0.1528 -0.25344,-0.19264 -1.25884,-0.64528 -2.23423,-1.00576 -0.97539,-0.36056 -1.71113,-0.71784 -1.635,-0.794 0.0762,-0.076 1.00323,0.17768 2.06017,0.564 1.05694,0.38632 2.00085,0.71312 2.09755,0.72624 0.0967,0.0128 0.77591,0.27456 1.50933,0.58104 0.73342,0.3064 1.47913,0.55712 1.65712,0.55712 0.17799,0 0.32362,0.16592 0.32362,0.36864 0,0.50872 -0.33582,0.44768 -1.93536,-0.35128 z m 54.1393,3.82553 c 1.26664,-0.5648 2.21752,-1.5226 1.86326,-1.87681 -0.12536,-0.12536 -0.43932,-0.0584 -0.69765,0.14811 -0.25834,0.2068 -0.87168,0.4996 -1.36299,0.6506 -0.49132,0.151 -1.07192,0.4258 -1.29024,0.6106 -0.21832,0.1849 -0.72873,0.5818 -1.13424,0.8822 -0.69775,0.5168 -0.67798,0.534 0.36864,0.3214 0.60826,-0.1234 1.6222,-0.4547 2.25322,-0.7361 z m -18.10474,-5.10345 c 1.01376,-0.13624 2.43027,-0.40304 3.14779,-0.5928 0.71751,-0.18976 1.96167,-0.42504 2.7648,-0.52296 6.51929,-0.79448 9.4095,-1.36744 11.83408,-2.346 1.04233,-0.42064 2.02262,-0.65 2.17841,-0.50952 0.1558,0.14032 0.18632,-0.016 0.0678,-0.34816 -0.15479,-0.43352 -0.0416,-0.5588 0.40207,-0.44488 0.33964,0.0873 1.94263,-0.26328 3.56218,-0.77896 1.61956,-0.51568 3.16261,-0.9376 3.42899,-0.9376 0.47177,0 5.60829,-2.51664 5.9758,-2.92784 0.10138,-0.11344 0.93082,-0.57104 1.8432,-1.0168 1.60347,-0.78336 4.34484,-3.61024 4.13807,-4.26712 -0.0557,-0.17696 0.062,-0.22088 0.26156,-0.0975 0.19957,0.12336 0.68489,-0.4864 1.0785,-1.35504 0.94825,-2.09248 2.63195,-7.66776 2.63195,-8.71522 0,-0.73846 0.88293,-2.73204 2.71713,-6.13501 0.32785,-0.60826 0.59711,-1.31328 0.59836,-1.56672 0.002,-0.25344 0.18001,-0.4608 0.39725,-0.4608 0.895,0 1.48548,-1.2241 1.90204,-3.9431 0.62993,-4.11167 0.52573,-11.40058 -0.23347,-16.3321 -0.35896,-2.33165 -0.79224,-5.70092 -0.96284,-7.48728 -0.17061,-1.78635 -0.49288,-3.46804 -0.71615,-3.73707 -0.2233,-0.26904 -0.80096,-2.04624 -1.28372,-3.94935 -0.95609,-3.76898 -1.57052,-5.25394 -5.40086,-13.05299 -1.40103,-2.85267 -2.54734,-5.35118 -2.54734,-5.55224 0,-0.20106 -0.2903,-0.69211 -0.64512,-1.09124 -0.35481,-0.39911 -0.96168,-1.3013 -1.34857,-2.00487 -2.07358,-3.77071 -12.4494,-15.25485 -18.9747,-21.00154 -1.4964,-1.31782 -2.90645,-2.57262 -3.13344,-2.78841 -0.70077,-0.6662 -4.36797,-2.93031 -6.38728,-3.94348 -1.05572,-0.52971 -3.33464,-1.89504 -5.06426,-3.03408 -1.72963,-1.13905 -3.47694,-2.13496 -3.88291,-2.21315 -1.44521,-0.27832 -2.77285,-1.13786 -2.67312,-1.73062 0.0718,-0.42675 -0.45927,-0.76952 -1.88915,-1.21927 -1.09397,-0.34409 -2.30013,-0.55741 -2.68035,-0.47404 -0.41998,0.0921 0.21302,0.42765 1.61266,0.85492 1.2672,0.38682 2.304,0.85018 2.304,1.02969 0,0.17951 -0.2903,0.20436 -0.64512,0.0552 -3.27035,-1.3746 -6.77769,-2.18701 -9.24215,-2.14078 -1.48433,0.0278 -2.80033,0.15218 -2.92443,0.27628 -0.1241,0.1241 0.13184,0.67913 0.56874,1.23337 2.87816,3.65108 8.57411,14.8362 10.98073,21.56279 l 0.62771,1.75443 1.69965,-0.22458 c 0.93483,-0.12351 1.96157,-0.4568 2.28167,-0.74065 0.32008,-0.28386 0.87012,-0.5161 1.2223,-0.5161 0.35218,0 0.94462,-0.16285 1.31653,-0.36189 0.50214,-0.26874 0.73015,-0.22129 0.8858,0.18432 0.19591,0.51056 -0.42105,0.75436 -1.42615,0.56354 -0.20843,-0.0395 -0.18946,0.11262 0.0437,0.3502 0.30828,0.31418 0.73867,0.28382 1.70604,-0.12038 1.29585,-0.54144 2.13893,-1.35307 1.40552,-1.35307 -0.21473,0 -0.3904,0.16589 -0.3904,0.36864 0,0.20275 -0.24884,0.36864 -0.55296,0.36864 -1.4838,0 0.30644,-1.47587 2.02752,-1.67148 0.30412,-0.0346 0.88473,-0.16663 1.29024,-0.29349 1.33275,-0.41691 5.76505,-0.94138 6.28135,-0.74327 0.39646,0.15213 0.40969,0.29793 0.0613,0.67516 -0.24441,0.26463 -0.56879,0.40581 -0.72086,0.31375 -0.15206,-0.0921 -0.30174,0.0498 -0.33262,0.31517 -0.0309,0.26541 -0.0786,0.64845 -0.10621,0.8512 -0.0275,0.20275 -0.90897,1.81562 -1.95874,3.58415 -2.28205,3.84454 -3.51812,6.18313 -3.63916,6.88519 -0.049,0.28383 -0.3039,0.64889 -0.5666,0.81125 -0.2858,0.17662 -0.43236,0.82072 -0.3649,1.60362 0.062,0.71964 -0.0503,1.30843 -0.24965,1.30843 -0.1993,0 -0.26981,-0.35399 -0.15666,-0.78664 0.14662,-0.56069 0.0602,-0.73811 -0.30099,-0.61773 -0.27868,0.0929 -1.5472,2.19826 -2.81895,4.67859 -2.17883,4.24948 -3.1439,6.81262 -5.46427,14.51266 l -0.97201,3.2256 -1.7183,-0.006 c -1.84803,-0.006 -3.74416,-0.56461 -5.22038,-1.53805 -1.47467,-0.97242 -6.81271,-2.89989 -8.54714,-3.08623 -3.18904,-0.34258 -6.5671,-1.02541 -6.5671,-1.32743 0,-0.17029 -0.25544,-0.3096 -0.56765,-0.3096 -0.3122,0 -1.22458,-0.33515 -2.02752,-0.74478 -0.80292,-0.40962 -1.45987,-0.65508 -1.45987,-0.54546 0,0.10962 -0.64301,-0.12874 -1.4289,-0.52968 -0.78591,-0.40093 -1.51626,-0.64164 -1.62299,-0.53491 -0.10674,0.10675 -0.52898,-0.015 -0.93829,-0.2707 -0.59292,-0.37029 -1.32531,-0.37445 -3.60235,-0.0204 -1.57196,0.24439 -3.30162,0.66559 -3.84369,0.93601 -0.81405,0.4061 -1.10067,0.40753 -1.64679,0.008 -0.36368,-0.26592 -0.83606,-0.54176 -1.04974,-0.61299 -0.93226,-0.31075 2.50313,-4.74883 4.36379,-5.63743 0.60826,-0.29049 1.93536,-1.15361 2.94912,-1.91806 1.01376,-0.76445 2.82569,-1.88382 4.02651,-2.4875 1.20083,-0.60369 2.80277,-1.7108 3.55988,-2.46024 1.54898,-1.53328 1.56156,-0.89755 -0.14444,-7.30042 -1.85915,-6.9776 -2.10265,-7.77789 -3.05643,-10.04538 -1.64552,-3.912 -4.83422,-9.91724 -5.39928,-10.16837 -0.15206,-0.0676 -0.2827,-0.31643 -0.29032,-0.55296 -0.008,-0.23655 -0.55132,-1.05764 -1.20825,-1.82465 l -1.1944,-1.39457 -1.4644,1.10783 c -0.80541,0.6093 -1.60418,1.11245 -1.77504,1.11809 -0.30251,0.01 -4.94232,3.42675 -6.23271,4.58977 -0.35481,0.3198 -0.81101,0.58145 -1.01376,0.58145 -0.20275,0 -0.36864,0.16065 -0.36864,0.35701 0,0.72847 -5.79097,4.78173 -6.68427,4.67852 -0.61227,-0.0707 -7.04576,7.2422 -8.70588,9.89597 -0.57843,0.92465 -3.67805,6.01572 -4.2634,7.00257 -0.24054,0.4055 -0.85812,1.40083 -1.37243,2.21184 -2.36765,3.73355 -4.91917,13.68964 -5.10158,19.90656 -0.0298,1.01376 -0.21897,3.33619 -0.42052,5.16096 -0.92687,8.39211 -0.45711,16.04543 1.23136,20.06111 0.48051,1.14277 0.55521,1.18599 0.93967,0.54347 0.3504,-0.58558 0.41157,-0.43082 0.37976,0.96086 -0.0264,1.15541 0.36808,2.59843 1.29976,4.75455 1.36273,3.15367 1.87271,4.93319 2.23101,7.78494 0.34495,2.74548 1.02751,4.52041 2.66475,6.92957 0.86989,1.28 1.58161,2.40682 1.58161,2.50402 0,0.0973 0.69023,1.12352 1.53385,2.28072 4.61054,6.32416 8.5764,9.45616 15.97655,12.61728 4.42083,1.88848 4.42726,1.88992 9.95328,2.22584 10.27206,0.62448 11.05883,0.6772 11.24352,0.75296 0.27863,0.11416 0.69716,0.17 3.50208,0.46712 1.41927,0.15032 4.19699,0.68168 6.17272,1.18072 1.97574,0.49904 5.79029,1.0836 8.47679,1.29904 2.68651,0.21544 4.913,0.42024 4.94776,0.45504 0.15478,0.15512 5.6491,-0.052 7.31345,-0.2756 z m 46.09286,-23.75412 c 0.0768,-0.33318 0.38774,-1.39376 0.69091,-2.35683 0.30316,-0.96307 0.48034,-1.75104 0.39374,-1.75104 -0.48179,0 -2.76923,6.31231 -2.73855,7.55711 0.0107,0.43512 1.45066,-2.56791 1.6539,-3.44924 z m -120.85928,-7.49475 c -0.11767,-0.29407 -0.20502,-0.20672 -0.22271,0.22272 -0.016,0.38861 0.0711,0.60633 0.19361,0.48384 0.1225,-0.1225 0.1356,-0.44045 0.029,-0.70656 z m -0.56619,-2.93174 c -0.25255,-0.87757 -0.3661,-1.00557 -0.38966,-0.43921 -0.0373,0.8966 0.34113,2.08266 0.58627,1.83751 0.0879,-0.0879 -0.002,-0.71712 -0.19661,-1.3983 z m 68.65259,-38.19466 c 1.404,-4.57796 3.46694,-10.00266 3.7121,-9.76138 0.15027,0.1479 0.22595,0.0201 0.16819,-0.28406 -0.13272,-0.69866 2.6531,-6.52404 3.68501,-7.70568 0.42548,-0.48722 0.7736,-1.1093 0.7736,-1.3824 0,-0.27311 0.1407,-0.49656 0.31266,-0.49656 0.17196,0 0.60816,-0.65534 0.96935,-1.45631 0.36119,-0.80097 0.92552,-1.75483 1.25407,-2.11968 0.89742,-0.99659 2.41619,-3.40947 3.53182,-5.61106 l 0.99414,-1.96185 -1.81459,0.19507 c -0.99802,0.1073 -2.87729,0.68899 -4.17613,1.29264 -1.29886,0.60367 -3.10805,1.21924 -4.02044,1.36794 -0.91238,0.14869 -2.13004,0.51157 -2.70591,0.8064 -0.57587,0.29482 -1.24498,0.46007 -1.48691,0.36723 -0.24194,-0.0928 -1.14902,-1.97107 -2.01572,-4.17387 -0.86671,-2.20278 -1.76383,-4.33685 -1.9936,-4.74235 -0.99675,-1.75911 -4.65974,-9.26587 -4.76685,-9.76896 -0.0647,-0.30413 -0.49097,-1.08103 -0.94717,-1.72644 -0.45619,-0.64542 -0.82944,-1.2851 -0.82944,-1.42151 0,-0.13642 -0.53346,-0.92158 -1.18546,-1.7448 -0.652,-0.82322 -1.21745,-1.71468 -1.25654,-1.98101 -0.14781,-1.0072 -4.88172,-8.24048 -5.39308,-8.24048 -0.22069,0 -0.66316,-0.235 -0.98324,-0.52222 -0.49112,-0.44068 -0.89859,-0.44825 -2.60952,-0.0485 -1.11513,0.26056 -3.08324,0.67187 -4.37356,0.91399 -1.29033,0.24215 -2.61744,0.58893 -2.94912,0.77064 -0.3317,0.18171 -2.09607,0.7684 -3.92084,1.30379 -4.00525,1.17511 -5.95109,1.95633 -6.4899,2.60554 -0.43781,0.52754 -0.37196,0.62967 3.413,5.293 2.18544,2.69262 6.7633,9.39416 6.7633,9.90082 0,0.16231 0.27384,0.56893 0.60852,0.90361 0.33467,0.33468 1.05296,1.81582 1.59619,3.29143 0.54321,1.4756 1.28814,3.34647 1.6554,4.15748 0.36725,0.81101 1.20259,3.16918 1.8563,5.24041 0.92265,2.92328 1.48558,4.07165 2.516,5.13264 1.09075,1.12311 1.18548,1.32969 0.53133,1.15863 -0.53182,-0.13907 -1.01719,0.0443 -1.46215,0.55247 -0.38311,0.43751 -0.44369,0.62974 -0.14262,0.4525 0.39675,-0.23357 0.46328,-0.1514 0.2749,0.33952 -0.13669,0.35622 -0.3457,1.03483 -0.46446,1.508 -0.11877,0.47317 -0.8683,1.29204 -1.66565,1.81971 -0.79735,0.52766 -1.73627,1.19317 -2.0865,1.4789 -0.35022,0.28575 -1.37174,1.12225 -2.27004,1.85891 -0.8983,0.73666 -2.2365,1.64712 -2.97378,2.02326 -0.73728,0.37614 -1.55709,0.94484 -1.8218,1.26378 -0.2647,0.31895 -0.71959,0.57991 -1.01084,0.57991 -1.18627,0 -0.0456,0.61988 1.24898,0.67877 1.6071,0.0731 3.67052,0.58824 9.8771,2.46585 5.42357,1.64074 8.22204,2.3546 9.29808,2.37185 0.78452,0.0126 2.22892,0.60111 7.45025,3.0357 1.30425,0.60815 2.79351,1.18227 3.30946,1.27583 0.51594,0.0936 1.01094,0.24297 1.09999,0.33201 0.30043,0.30044 0.37774,0.16632 0.91612,-1.58913 z m -17.9643,-2.55664 c -0.36425,-0.36426 -2.82966,-1.21595 -4.02304,-1.38979 -1.47049,-0.21422 -0.89325,0.40685 0.64665,0.69574 0.71187,0.13355 1.29431,0.40118 1.29431,0.59475 0,0.19357 0.52532,0.35194 1.16736,0.35194 0.64205,0 1.05368,-0.11369 0.91472,-0.25264 z m -16.45904,-3.60235 c 1.80656,-0.45084 1.86513,-0.66085 0.18432,-0.66085 -1.50495,0 -1.9661,0.13768 -2.16083,0.64512 -0.1167,0.30413 -0.17592,0.54593 -0.1316,0.53734 0.0443,-0.009 0.99298,-0.24331 2.10811,-0.52161 z m 3.12331,-4.50066 c 0.39993,-0.27044 0.59905,-0.49171 0.44249,-0.49171 -0.3882,0 -2.45988,1.08485 -2.45988,1.28813 0,0.23749 1.17354,-0.2258 2.01739,-0.79642 z m 36.58997,-18.77779 c -0.12248,-0.1225 -0.44044,-0.13559 -0.70656,-0.029 -0.29407,0.11768 -0.20672,0.20502 0.22272,0.22272 0.38861,0.016 0.60634,-0.0711 0.48384,-0.19362 z m 10.42176,-2.35776 c 0,-0.20275 -0.16588,-0.36864 -0.36864,-0.36864 -0.20275,0 -0.36864,0.16589 -0.36864,0.36864 0,0.20275 0.16589,0.36864 0.36864,0.36864 0.20276,0 0.36864,-0.16589 0.36864,-0.36864 z m -64.83362,-8.38656 c 0.45855,-0.58468 0.4455,-0.59773 -0.13918,-0.13919 -0.35481,0.27827 -0.64512,0.56857 -0.64512,0.64512 0,0.30341 0.30273,0.10813 0.7843,-0.50593 z m 52.6685,-11.88864 c 0,-0.20275 -0.2903,-0.3661 -0.64512,-0.36299 -0.55132,0.005 -0.56472,0.0576 -0.0922,0.36299 0.69571,0.4496 0.73728,0.4496 0.73728,0 z m -15.11613,131.59542 c -0.39754,-0.2512 -0.12063,-0.3499 0.9939,-0.354 0.84973,0 1.63103,0.1336 1.73622,0.3038 0.26717,0.4323 -2.05809,0.4751 -2.73012,0.05 z m -1.74915,-0.2784 c -0.45619,-0.073 -0.82944,-0.298 -0.82944,-0.5004 0,-0.3229 1.38017,-0.1092 1.81248,0.2807 0.28441,0.2565 -0.14786,0.353 -0.98304,0.2197 z M 55.949264,995.39459 c -2.220616,-0.29896 -2.683512,-0.41304 -4.05504,-0.9992 -0.50688,-0.21664 -2.377592,-0.98664 -4.157152,-1.7112 -3.966313,-1.61488 -5.323473,-2.30624 -6.284593,-3.20168 -0.408168,-0.38032 -1.460584,-0.96584 -2.33868,-1.30112 -0.878096,-0.33536 -1.596536,-0.7808 -1.596536,-0.98976 0,-0.20904 -0.1098,-0.27024 -0.243992,-0.136 -0.134208,0.13424 -0.839232,-0.20152 -1.56672,-0.74608 -1.26164,-0.94432 -6.597072,-6.27728 -8.478471,-8.47456 -1.16476,-1.36032 -3.350496,-4.77436 -3.350496,-5.23339 0,-0.19801 -0.20736,-0.57923 -0.4608,-0.84715 -0.25344,-0.26792 -0.69148,-0.9848 -0.973432,-1.59305 -1.145104,-2.47047 -2.385616,-4.82387 -2.817536,-5.34528 -0.598392,-0.72237 -2.014464,-3.87803 -2.017368,-4.49562 0,-0.26457 -0.25432,-0.96428 -0.562296,-1.55491 -0.308016,-0.59065 -0.574136,-2.07663 -0.591424,-3.30218 -0.0172,-1.22556 -0.235728,-3.01622 -0.485544,-3.97924 -0.315144,-1.21489 -0.33652,-1.86863 -0.06984,-2.13527 0.266608,-0.26664 0.25588,-0.3843 -0.0352,-0.3843 -0.230688,0 -0.423608,-0.29031 -0.428728,-0.64512 -0.0048,-0.35482 -0.1398,-2.304 -0.299376,-4.33152 -0.576432,-7.32437 -0.310032,-14.63711 0.595312,-16.34146 0.179936,-0.33879 0.692096,-2.19192 1.138072,-4.11806 1.55644,-6.72207 3.32292,-11.23231 5.966176,-15.23315 1.1818,-1.78878 2.355912,-3.47268 2.609128,-3.74199 0.253216,-0.2693 1.538656,-1.70841 2.856543,-3.19803 4.83128,-5.46082 9.473624,-9.99937 12.411648,-12.13415 1.656224,-1.20342 3.118808,-2.18804 3.250192,-2.18804 0.131385,0 0.766945,-0.40054 1.412369,-0.89008 0.645408,-0.48954 3.41296,-1.99411 6.150112,-3.34351 2.737152,-1.34938 5.264696,-2.60773 5.616768,-2.79632 0.352064,-0.18859 1.02136,-0.34289 1.487328,-0.34289 0.465984,0 1.791184,-0.33178 2.94492,-0.73728 1.153728,-0.40551 2.441848,-0.73728 2.862488,-0.73728 0.42064,0 1.254224,-0.25309 1.8524,-0.56243 0.5982,-0.30933 1.087616,-0.47932 1.087616,-0.37776 0,0.10156 0.456192,0.002 1.01376,-0.22202 3.58336,-1.4375 13.304144,-2.76233 19.8144,-2.70048 5.222072,0.0496 6.81984,0.32627 6.81984,1.18086 0,0.41645 -0.208152,0.48345 -0.82944,0.26695 -1.230064,-0.42862 -11.813824,-0.51786 -15.169592,-0.12791 -2.882232,0.33492 -8.418368,1.4256 -10.911688,2.14972 -0.709632,0.20609 -2.467584,0.69669 -3.90656,1.09022 -4.979408,1.36175 -9.340176,3.04668 -14.023976,5.41861 -2.587176,1.31018 -4.974144,2.62666 -5.304376,2.92552 -0.330224,0.29885 -0.72284,0.54336 -0.872465,0.54336 -0.76008,0 -6.664064,4.95137 -10.360464,8.68879 -2.610216,2.63918 -8.383351,9.29266 -9.400319,10.83378 -0.304128,0.46088 -0.821128,1.19201 -1.148904,1.62473 -1.045072,1.37971 -2.928536,5.38763 -3.633944,7.73291 -0.903424,3.00364 -3.201192,12.44538 -3.634096,14.933 -0.37032,2.12783 -0.202304,8.93372 0.228512,9.25773 0.144464,0.10864 0.31744,1.02698 0.384368,2.04074 0.06696,1.01376 0.257152,2.50675 0.422712,3.31776 0.165512,0.81101 0.320712,2.80166 0.34484,4.42368 0.04568,3.07056 1.034032,8.66304 1.53096,8.66304 0.157288,0 0.396168,0.53913 0.5308,1.19808 0.342752,1.67757 5.952768,12.79377 7.033256,13.93633 0.489848,0.51798 0.890616,1.10342 0.890616,1.30102 0,0.1976 0.331776,0.5984 0.73728,0.89064 0.405503,0.29224 0.737279,0.68608 0.737279,0.8752 0,0.52296 6.570584,6.79592 7.391224,7.0564 0.395368,0.12552 0.718856,0.36272 0.718856,0.52728 0,0.16448 0.539136,0.51952 1.19808,0.78896 0.658944,0.26952 1.417296,0.7044 1.685216,0.96632 0.26792,0.26208 0.733904,0.4764 1.03552,0.4764 0.301608,0 0.463456,0.13744 0.359664,0.30536 -0.405112,0.65552 7.460049,3.6176 9.453361,3.56024 1.021824,-0.0296 1.326528,0.32128 0.64512,0.7424 -0.749352,0.46312 -0.31424,0.7984 1.89532,1.46024 2.354328,0.7052 3.66164,0.89008 7.68932,1.08752 2.9442,0.14432 9.167168,-0.67968 9.726848,-1.28792 0.303008,-0.32928 0.300016,-0.3844 -0.01136,-0.21016 -0.232192,0.13 -0.507648,0.0136 -0.612136,-0.25872 -0.147488,-0.3844 0.297392,-0.47968 1.988888,-0.4264 1.198384,0.0376 2.178864,-0.0392 2.178864,-0.17128 0,-0.13192 0.782432,-0.28032 1.73872,-0.32984 0.956288,-0.0496 1.910144,-0.2236 2.11968,-0.3868 0.315112,-0.2456 3.023136,-0.71896 4.8968,-0.856 0.25344,-0.0184 0.4608,-0.1668 0.4608,-0.32936 0,-0.16264 0.24788,-0.20056 0.550848,-0.0842 0.30296,0.11624 0.456552,0.40136 0.341304,0.63352 -0.115248,0.23216 0.01008,0.16304 0.2786,-0.1536 0.72716,-0.85784 2.817088,-1.5344 4.968768,-1.60864 0.436832,-0.0152 0.724736,-0.13992 0.639768,-0.27736 -0.08496,-0.13752 0.221184,-0.35496 0.68032,-0.48328 2.75412,-0.76968 9.689156,-4.42984 12.815596,-6.7636 3.53723,-2.64048 10.2731,-9.3877 11.2848,-11.30383 0.42819,-0.81101 1.46499,-2.67216 2.304,-4.13589 0.83899,-1.46374 1.52544,-2.91526 1.52544,-3.2256 0,-0.98322 1.051,-0.61408 1.1736,0.41219 0.1023,0.85647 0.32051,0.6301 1.77552,-1.84183 4.02304,-6.83478 4.47223,-7.88109 6.0382,-14.06455 0.88472,-3.49342 1.4626,-9.56507 1.36836,-14.37696 -0.0789,-4.02661 -0.89067,-9.34959 -2.2488,-14.7456 -0.20413,-0.81101 -0.70229,-3.10746 -1.10701,-5.10323 -0.40473,-1.99576 -1.16887,-4.8988 -1.69807,-6.4512 -1.07976,-3.16743 -3.37978,-7.79917 -3.87289,-7.79917 -0.17764,0 -0.32299,-0.24883 -0.32299,-0.55296 0,-0.30413 -0.17568,-0.55296 -0.39039,-0.55296 -0.21472,0 -0.28787,-0.16589 -0.16257,-0.36864 0.12532,-0.20275 0.0936,-0.36893 -0.0704,-0.3693 -0.16403,-3.7e-4 -0.79335,-0.78833 -1.3985,-1.75104 -1.13304,-1.80251 -2.22748,-3.18165 -3.93662,-4.96065 -0.54004,-0.5621 -1.04368,-1.20743 -1.11923,-1.43408 -0.24688,-0.74065 -4.99672,5.23433 -6.91561,8.69939 -0.67368,1.21651 -2.69448,4.41917 -4.49065,7.11701 -1.796178,2.69784 -3.265786,5.19186 -3.265786,5.54228 0,0.3504 0.539136,0.95181 1.19808,1.33645 3.110316,1.81556 6.911996,5.30673 6.911996,6.34742 0,0.37335 -0.32327,0.84257 -0.71838,1.0427 -0.39512,0.20015 -1.59781,0.87914 -2.67264,1.50888 -2.28633,1.33953 -5.028016,2.33547 -9.880016,3.58894 -1.926144,0.49761 -4.497408,1.23729 -5.71392,1.64374 -2.365128,0.79021 -5.178744,1.46833 -6.08256,1.46599 -1.135272,-0.003 -3.226312,0.52488 -6.318376,1.59489 -2.025856,0.70105 -3.52076,1.01787 -4.107704,0.87055 -1.073632,-0.26946 -1.39556,-1.22317 -2.422176,-7.17565 -0.367168,-2.1289 -1.18404,-6.35904 -1.81528,-9.40032 -0.63124,-3.04128 -1.322424,-6.53382 -1.535976,-7.76119 -0.213552,-1.22736 -0.958896,-3.63273 -1.65632,-5.34528 -1.593768,-3.91352 -1.47256,-4.06496 3.059464,-3.82228 3.360816,0.17997 5.06652,0.4734 9.760232,1.67904 1.589288,0.40824 3.102816,0.66044 3.363368,0.56045 0.260568,-0.1 0.580888,-0.75289 0.711832,-1.45089 0.233424,-1.24423 2.771808,-6.56264 4.348848,-9.11169 2.591456,-4.18871 7.30056,-9.22211 11.910648,-12.73088 4.985346,-3.79439 7.797696,-6.21559 11.065556,-9.52653 1.62552,-1.64694 3.91712,-3.81164 5.09246,-4.81046 1.77159,-1.50552 2.09986,-1.96388 1.91995,-2.68073 -0.33234,-1.32412 0.75643,-1.51983 1.74926,-0.31443 0.44914,0.54531 1.95868,2.09973 3.35453,3.45428 5.70114,5.53248 7.20534,7.21533 8.32195,9.31029 1.19738,2.24652 1.36129,3.8431 0.39455,3.8431 -0.29814,0 -0.74141,0.39981 -0.98504,0.88848 -0.24362,0.48867 -1.15717,1.36816 -2.0301,1.95442 -0.87293,0.58627 -3.16682,2.46513 -5.09752,4.17526 -1.93072,1.71013 -4.05515,3.56779 -4.72098,4.12813 -0.66581,0.56036 -1.30459,1.38696 -1.4195,1.83688 -0.22721,0.88966 0.7855,2.80894 2.10983,3.99852 0.4366,0.39217 1.72622,2.12308 2.86585,3.84647 1.13963,1.72339 2.28077,3.35265 2.53587,3.62057 0.2551,0.26792 0.46381,0.66958 0.46381,0.89258 0,0.22298 0.23088,0.66733 0.51307,0.98742 1.01184,1.14776 3.58453,8.90255 4.07377,12.27948 0.17248,1.19048 0.68217,3.61684 1.14364,5.44427 1.49528,5.92138 1.9617,9.32832 2.0692,15.11424 0.232,12.4866 -2.10678,20.97022 -8.45885,30.68349 -1.48144,2.26536 -2.32485,3.22153 -2.84518,3.2256 -0.53076,0.004 -1.20726,0.80902 -2.39616,2.85084 -1.95629,3.35972 -8.39797,10.05142 -11.68609,12.13966 -1.1746,0.746 -2.21858,1.46688 -2.31996,1.60192 -0.18909,0.252 -5.784252,3.86792 -7.291204,4.71208 -2.5784,1.44424 -11.113832,3.99592 -15.564472,4.65296 -0.304128,0.0448 -1.3824,0.2068 -2.39616,0.35984 -1.01376,0.15304 -2.340864,0.34664 -2.94912,0.43032 -0.608256,0.0836 -2.267136,0.4144 -3.6864,0.73504 -2.857352,0.64552 -11.037992,0.94592 -14.19264,0.52112 z M 75.72796,927.23963 c 1.629296,-0.59462 4.02496,-1.19919 5.32368,-1.34348 1.29872,-0.14429 3.688408,-0.65818 5.310424,-1.14198 5.0216,-1.4978 9.8084,-2.87584 12.657824,-3.64396 0.976392,-0.2632 5.589852,-3.12788 5.589852,-3.47095 0,-0.50759 -3.29973,-3.32416 -5.621756,-4.79858 -2.527536,-1.60492 -3.008424,-2.43 -1.93536,-3.32056 0.304128,-0.2524 0.553352,-0.64596 0.553832,-0.87458 0.0016,-0.43599 2.307008,-4.06955 3.758644,-5.92225 1.78621,-2.27974 3.61288,-5.59401 3.61308,-6.55552 1.5e-4,-0.7532 1.03276,-2.17368 4.1474,-5.70529 4.9238,-5.58295 14.45011,-15.22588 15.04174,-15.22588 0.22936,0 0.8388,-0.33178 1.35431,-0.73728 0.51551,-0.40551 1.24671,-0.73728 1.62487,-0.73728 0.37816,0 0.68756,-0.1725 0.68756,-0.38333 0,-1.3498 -3.45228,-6.17782 -6.08256,-8.50644 -0.60825,-0.53851 -2.18419,-1.98962 -3.50208,-3.22472 l -2.39616,-2.24563 -2.21689,2.29557 c -1.21929,1.26258 -2.59567,2.56484 -3.05859,2.89392 -0.46295,0.32909 -1.77932,1.49031 -2.92528,2.58048 -1.14595,1.09019 -2.93957,2.6457 -3.98582,3.45671 -3.60103,2.79138 -5.51316,4.38448 -7.495456,6.24493 -1.093024,1.02583 -1.86528,1.61632 -1.716128,1.31219 0.61592,-1.25589 -7.120912,6.99507 -8.46892,9.03168 -2.355072,3.55814 -4.939152,8.99516 -5.196232,10.93309 -0.158048,1.19145 -0.412032,1.78499 -0.763816,1.78499 -0.289872,0 -2.549464,-0.51205 -5.021304,-1.13789 -2.53192,-0.64105 -5.983168,-1.22806 -7.9042,-1.34441 -3.246744,-0.19662 -3.40992,-0.17076 -3.40992,0.54039 0,0.4108 0.415688,1.65489 0.923752,2.76466 0.50808,1.10977 1.082624,3.24489 1.276776,4.7447 0.194144,1.49983 0.508568,3.47344 0.698728,4.38583 0.190152,0.91238 0.524368,2.53336 0.742704,3.60217 0.218352,1.0688 0.633616,2.89357 0.922816,4.05504 0.2892,1.16146 0.63664,2.94119 0.772064,3.95495 0.206688,1.54707 0.902064,4.5016 1.496672,6.35904 0.239488,0.74813 2.043232,0.53312 5.203744,-0.62033 z m 10.818424,-38.91631 c 0,-0.30413 0.20736,-0.55901 0.4608,-0.56639 0.25344,-0.007 0.916992,-0.61472 1.47456,-1.3496 0.557568,-0.73489 1.01376,-1.17626 1.01376,-0.9808 0,0.52108 -2.217784,3.44975 -2.612376,3.44975 -0.185216,0 -0.336744,-0.24883 -0.336744,-0.55296 z m 6.870848,-8.84736 c 0.116704,-0.30413 0.380648,-0.55296 0.586536,-0.55296 0.21576,0 0.179936,0.23424 -0.08458,0.55296 -0.252408,0.30413 -0.516344,0.55296 -0.586528,0.55296 -0.07016,0 -0.03216,-0.24883 0.08458,-0.55296 z M 61.908744,992.87843 c -0.395888,-0.25096 -0.377936,-0.35536 0.09217,-0.53576 0.369392,-0.14176 0.583872,-0.0248 0.583872,0.31736 0,0.62656 -0.02128,0.63344 -0.67604,0.2184 z m 1.78196,-0.10712 c 0,-0.16896 0.156096,-0.3072 0.34688,-0.3072 0.190792,0 0.432328,0.13824 0.536744,0.3072 0.104416,0.16896 -0.05168,0.3072 -0.34688,0.3072 -0.295208,0 -0.536744,-0.13824 -0.536744,-0.3072 z m 3.13824,0.0536 c 0.302688,-0.48976 2.354424,-0.62024 2.530672,-0.16088 0.111472,0.2904 -0.312808,0.43672 -1.266784,0.43672 -0.788912,0 -1.357664,-0.12416 -1.263888,-0.27584 z m -7.93056,-0.36088 c 0,-0.20272 0.258616,-0.36864 0.57472,-0.36864 0.316088,0 0.472184,0.16592 0.34688,0.36864 -0.125304,0.2028 -0.383928,0.36864 -0.57472,0.36864 -0.190784,0 -0.34688,-0.16584 -0.34688,-0.36864 z m -4.68144,-0.23376 c 0.356376,-0.3564 2.10096,-0.51256 2.10096,-0.18816 0,0.14584 -0.530448,0.30552 -1.178776,0.35496 -0.64832,0.0496 -1.063296,-0.0256 -0.922184,-0.1668 z M 214.707,957.27776 c -0.13674,-0.35634 -0.0278,-0.46621 0.32707,-0.33002 0.29264,0.1123 0.4403,0.35268 0.32812,0.53419 -0.28253,0.45715 -0.41757,0.41507 -0.65519,-0.20417 z m -1.48385,-6.23116 c -0.15443,-0.78104 -0.19522,-1.50564 -0.0907,-1.61023 0.27929,-0.27928 0.68397,1.56958 0.51572,2.35601 -0.0871,0.40685 -0.25564,0.11105 -0.42507,-0.74578 z m -0.60189,-2.8193 c 0,-0.20275 0.16589,-0.36864 0.36864,-0.36864 0.20276,0 0.36864,0.16589 0.36864,0.36864 0,0.20275 -0.16588,0.36864 -0.36864,0.36864 -0.20275,0 -0.36864,-0.16589 -0.36864,-0.36864 z m -0.73164,-6.15296 c 0.003,-0.16403 0.16646,-0.54707 0.363,-0.8512 0.30796,-0.47654 0.35813,-0.46681 0.363,0.0704 0.003,0.34285 -0.16024,0.72589 -0.363,0.8512 -0.20275,0.12531 -0.3661,0.0936 -0.363,-0.0704 z m 17.8734,-72.736 c -0.36697,-0.4055 -0.80448,-0.73728 -0.97224,-0.73728 -0.16776,0 -1.3863,-0.66181 -2.70788,-1.4707 -2.49388,-1.52644 -5.61008,-2.72763 -8.06721,-3.10965 -0.78399,-0.12189 -1.57922,-0.31667 -1.76719,-0.43285 -0.18797,-0.11617 -0.58334,-0.0107 -0.87859,0.23428 -0.37805,0.31377 -0.53681,0.32315 -0.53681,0.0318 0,-0.22757 0.16068,-0.41378 0.35708,-0.41378 0.19638,0 0.26143,-0.24922 0.14454,-0.55382 -0.2083,-0.54282 1.13564,-1.97874 1.89454,-2.02421 0.20276,-0.0122 1.3514,-0.76416 2.55256,-1.67115 1.20116,-0.90698 2.34931,-1.64906 2.55145,-1.64906 0.20215,0 0.64005,-0.24661 0.97311,-0.54803 0.46148,-0.41764 1.70519,-0.55913 5.22684,-0.59467 5.10712,-0.0515 6.70708,0.38606 9.50044,2.59844 0.76571,0.60646 1.87227,1.2859 2.45902,1.50987 1.03915,0.39667 1.0477,0.42104 0.32954,0.9395 -0.4055,0.29274 -1.38352,1.06832 -2.17338,1.7235 -0.78985,0.65517 -1.68496,1.33744 -1.98912,1.51612 -0.78208,0.45945 -2.74593,2.72401 -3.35604,3.86995 -0.91542,1.71936 -2.39626,2.04634 -3.54066,0.7818 z m 2.16322,-1.56672 c 0.24842,-0.25344 1.31665,-1.60765 2.37382,-3.00937 1.05718,-1.40171 2.26902,-2.79152 2.69297,-3.08848 0.61219,-0.42879 0.66827,-0.60607 0.2725,-0.86135 -0.37879,-0.24432 -0.39232,-0.39018 -0.0565,-0.608 0.68077,-0.44144 -2.42812,-2.23773 -4.53423,-2.61984 -3.21745,-0.58373 -7.60624,-0.17977 -9.73168,0.89575 -1.5987,0.80897 -6.02305,4.22249 -5.47288,4.22249 1.18108,0 7.41946,2.27011 8.84832,3.21984 1.37658,0.91498 4.06132,2.17159 4.85314,2.27154 0.16654,0.021 0.50606,-0.16914 0.75448,-0.42258 z m -106.41767,-3.02327 c -0.59738,-0.59738 -1.05911,-4.85931 -0.84067,-7.75945 0.11185,-1.48488 0.30768,-1.93112 1.00739,-2.29548 1.07517,-0.55989 8.03477,-0.57805 8.70392,-0.0226 0.34505,0.28638 0.67083,0.21324 1.20546,-0.27059 0.40295,-0.36466 0.85603,-0.5343 1.00685,-0.37697 0.15082,0.15733 -0.28704,0.7231 -0.97303,1.25726 -2.44997,1.90775 -6.14202,5.7974 -7.10592,7.48624 -1.18269,2.07216 -2.22556,2.76013 -3.004,1.9817 z m 1.02358,-3.11466 c 0.12228,-0.38528 0.86691,-1.6978 1.65472,-2.91669 0.78781,-1.2189 1.33485,-2.31373 1.21563,-2.43294 -0.11921,-0.11922 -0.92443,-0.21676 -1.78936,-0.21676 -1.92484,0 -2.15252,0.54784 -2.02998,4.88448 0.0414,1.46677 0.5776,1.85203 0.94899,0.68191 z m 4.9017,-5.0386 c -0.21731,-0.2173 -2.86251,2.75523 -2.86251,3.21673 0,0.16173 0.68781,-0.45213 1.52846,-1.36413 0.84066,-0.912 1.44098,-1.74567 1.33405,-1.8526 z m 50.62402,6.87366 c -0.28557,-0.18079 -0.53453,-0.86062 -0.55322,-1.51073 -0.0274,-0.95174 0.24349,-1.40178 1.39035,-2.31011 1.66742,-1.32062 2.56133,-1.07162 2.74499,0.76462 0.17339,1.73356 -0.83683,3.39744 -2.05859,3.39057 -0.55237,-0.003 -1.23795,-0.15357 -1.52353,-0.33435 z m 2.69982,-2.36247 c 0.20433,-0.87179 0.13601,-1.02275 -0.41504,-0.91699 -0.48217,0.0925 -0.68112,0.51521 -0.73955,1.57113 -0.0677,1.22321 -0.004,1.36371 0.41504,0.91699 0.27222,-0.29015 0.60502,-0.99716 0.73955,-1.57113 z m 71.97036,-2.72806 c 0.37563,-0.27464 0.71597,-0.92606 0.75631,-1.44761 0.11742,-1.51806 3.3251,-4.04928 4.62363,-3.64856 0.25519,0.0787 0.92019,0.24316 1.47775,0.36533 0.85873,0.18816 1.01376,0.41003 1.01376,1.45083 0,0.67579 -0.37986,1.79237 -0.84412,2.4813 l -0.84414,1.25259 -3.43309,0.0227 c -2.97486,0.0197 -3.34193,-0.0439 -2.7501,-0.47661 z m 5.66681,-1.94228 c 0.52375,-0.82709 0.4331,-1.47456 -0.20644,-1.47456 -0.57544,0 -2.74996,1.43956 -2.74977,1.82037 2.5e-4,0.47713 2.62989,0.16952 2.95621,-0.34581 z m -58.9896,0.27894 c 0,-0.89391 0.30184,-1.53609 1.06614,-2.26835 1.89973,-1.82005 3.84202,-0.65774 2.45026,1.46632 -0.32981,0.50338 -0.75827,0.8172 -0.95212,0.6974 -0.50104,-0.30966 -0.43798,-1.64887 0.0777,-1.64887 0.23655,0 0.32051,-0.10957 0.18658,-0.2435 -0.38197,-0.38197 -1.72258,1.01652 -1.72258,1.79696 0,0.42779 0.16264,0.60138 0.41647,0.44451 0.25252,-0.15608 0.34999,-0.0558 0.24761,0.25472 -0.0929,0.28166 -0.52912,0.56513 -0.96944,0.62992 -0.68708,0.1011 -0.80056,-0.059 -0.80056,-1.12911 z m 16.33749,-2.14178 c -0.68031,-0.25936 -0.77754,-0.52205 -0.63089,-1.70446 0.25383,-2.04649 0.99216,-2.95735 2.54405,-3.13852 0.73261,-0.0855 1.40962,-0.03 1.50447,0.12349 0.0948,0.15344 -0.16407,0.90681 -0.57536,1.67416 -0.41127,0.76734 -0.74776,1.57928 -0.74776,1.8043 0,0.81756 -1.25492,1.56112 -2.09451,1.24103 z m 1.35723,-2.09815 c 0,-0.44973 -0.10324,-0.46728 -0.55296,-0.094 -0.30412,0.25241 -0.55296,0.70775 -0.55296,1.01188 0,0.44972 0.10324,0.46728 0.55296,0.094 0.30413,-0.2524 0.55296,-0.70774 0.55296,-1.01187 z m 0.36864,-1.19997 c 0,-0.20275 -0.16588,-0.36864 -0.36864,-0.36864 -0.20275,0 -0.36864,0.16589 -0.36864,0.36864 0,0.20275 0.16589,0.36864 0.36864,0.36864 0.20276,0 0.36864,-0.16589 0.36864,-0.36864 z m -98.12005,1.3018 c -0.22805,-0.50052 -0.55627,-0.8225 -0.72938,-0.71553 -0.17309,0.107 -0.31837,-0.18851 -0.32281,-0.65667 -0.0112,-1.17657 -1.11111,-3.48829 -2.73556,-5.7494 -0.75172,-1.04634 -1.26157,-2.07265 -1.13301,-2.28068 0.12857,-0.20803 0.79532,-0.37824 1.48168,-0.37824 l 1.24791,0 -0.16765,-5.25312 -0.16765,-5.25312 1.42336,-3.7252 c 0.78285,-2.04885 1.79827,-5.19503 2.25648,-6.9915 0.45822,-1.79645 1.14812,-4.25234 1.53312,-5.45751 0.38501,-1.20517 0.79012,-2.62091 0.90024,-3.14611 0.11012,-0.52518 0.23887,-1.12077 0.2861,-1.32352 0.0472,-0.20275 0.37028,-0.93325 0.71791,-1.62335 0.34762,-0.6901 0.63203,-1.44433 0.63203,-1.67606 0,-0.23175 0.25196,-0.74539 0.55992,-1.14145 1.48186,-1.90577 3.70599,-6.10967 6.13448,-11.59498 2.15802,-4.87437 6.39863,-9.83183 12.6592,-14.79917 3.06212,-2.42958 8.60921,-6.21331 9.10897,-6.21331 0.19403,0 0.28322,-0.20736 0.19818,-0.4608 -0.085,-0.25344 -0.47212,-0.46385 -0.86016,-0.46757 -0.46672,-0.005 -0.69429,-0.25404 -0.67231,-0.73728 0.0711,-1.56189 0.46563,-3.73676 0.90159,-4.96987 1.1047,-3.12461 4.56695,-10.58338 5.67952,-12.23545 1.59453,-2.36775 10.05873,-10.32005 13.5225,-12.70471 3.14245,-2.16342 12.59823,-7.71899 15.14254,-8.8967 2.56011,-1.18503 9.72816,-2.86034 13.56541,-3.1705 0.91239,-0.0738 3.15209,-0.38869 4.97713,-0.6999 2.16561,-0.36928 3.83027,-0.46193 4.79232,-0.26673 11.18532,2.26953 13.25483,2.93886 18.06287,5.84196 1.82477,1.10179 4.54252,2.73755 6.03946,3.63502 1.49694,0.89747 2.95393,1.86398 3.23776,2.1478 0.28382,0.28384 1.25708,1.04822 2.16278,1.69865 0.9057,0.65043 1.6499,1.27888 1.6538,1.39658 0.004,0.11769 0.59512,0.87753 1.31383,1.68854 0.71873,0.81101 1.56813,1.97223 1.88757,2.58048 0.31944,0.60826 0.69003,1.18887 0.82354,1.29024 0.90126,0.68435 3.5589,6.72512 3.631,8.25319 0.008,0.18009 0.18659,0.4332 0.39576,0.56248 0.20917,0.12926 0.47758,0.81136 0.59646,1.51576 0.11888,0.70441 0.36394,1.7784 0.54456,2.38665 0.18062,0.60826 0.42397,2.01831 0.54078,3.13344 0.1168,1.11514 0.3584,2.85696 0.53687,3.87072 0.17848,1.01376 0.26938,4.16563 0.202,7.00416 -0.14613,6.15613 -0.13137,5.97923 -0.7628,9.14795 -0.60173,3.01966 -0.65773,4.38933 -0.14641,3.58081 0.18862,-0.29825 0.45112,-0.43412 0.58332,-0.30191 0.40945,0.40945 -3.27943,9.46222 -4.62673,11.35434 -0.76419,1.07321 -1.00775,2.42032 -0.36587,2.02361 0.20276,-0.1253 0.36864,-0.0615 0.36864,0.14173 0,0.20326 -0.49766,0.66353 -1.10592,1.02284 -0.60825,0.3593 -1.10196,0.74193 -1.09712,0.85028 0.005,0.10834 0.18014,0.86054 0.38957,1.67155 0.20942,0.81101 0.61616,3.38227 0.90385,5.71392 0.2877,2.33165 0.59968,4.73703 0.69329,5.34528 0.0936,0.60826 0.27577,2.01249 0.40481,3.12051 0.12902,1.10803 0.28888,2.10336 0.35524,2.21184 0.32404,0.52976 0.78462,4.03728 0.88168,6.71428 0.0573,1.5804 0.83862,2.51465 2.10302,2.51465 1.41313,0 1.08702,0.96372 -1.0401,3.07367 -1.06444,1.05586 -2.30751,2.37216 -2.76236,2.92512 -0.76528,0.93033 -1.93555,1.37014 -1.93951,0.72889 -0.002,-0.15206 -0.45713,-0.77926 -1.01376,-1.39377 -1.74994,-1.93193 -2.7378,-3.522 -2.52791,-4.06896 0.1217,-0.31713 0.71146,-0.52767 1.47816,-0.52767 1.25234,0 1.28351,-0.0378 1.7045,-2.06565 0.79946,-3.85102 -0.24942,-13.64782 -2.07786,-19.40763 -0.56318,-1.77408 -1.12591,-3.2256 -1.25053,-3.2256 -0.12459,0 -0.43845,0.82679 -0.69743,1.83731 -0.42778,1.66908 -0.71261,2.0108 -3.11098,3.73239 -1.45204,1.04229 -3.32964,2.55729 -4.17241,3.36665 -2.07619,1.99389 -2.67615,1.48879 -1.00107,-0.8428 0.72314,-1.00656 1.50605,-1.95376 1.73978,-2.10488 0.5475,-0.35395 3.10662,-3.2512 4.2957,-4.86328 1.0564,-1.43218 2.23025,-2.59995 2.61352,-2.59995 0.14445,0 -0.0614,-1.45152 -0.45764,-3.2256 -0.39616,-1.77408 -0.89514,-4.17945 -1.10884,-5.34528 -0.21369,-1.16582 -0.54788,-2.11968 -0.74263,-2.11968 -0.19475,0 -0.24665,-0.33851 -0.11533,-0.75225 0.13132,-0.41376 -0.0162,-1.61644 -0.32782,-2.67264 -0.31162,-1.05621 -0.83837,-2.91572 -1.17056,-4.13223 -0.33219,-1.21651 -0.91999,-2.90775 -1.30622,-3.75833 -0.38623,-0.85056 -0.70224,-1.649 -0.70224,-1.77427 0,-0.40976 -2.33141,-5.11721 -3.42255,-6.9106 -0.58649,-0.96395 -1.20609,-1.66627 -1.37689,-1.5607 -0.6519,0.40288 -0.77219,-0.6372 -0.15284,-1.32156 0.5315,-0.58731 3.64039,-1.8163 4.59456,-1.8163 0.13516,0 0.55091,0.70503 0.92386,1.56672 0.37297,0.8617 0.86581,1.81555 1.09522,2.11968 0.55806,0.73985 3.37543,7.28442 3.70427,8.60479 0.1435,0.57621 0.30235,1.73743 0.35301,2.58048 0.0506,0.84305 0.67144,3.52347 1.37955,5.95649 0.70812,2.43303 1.38009,5.17018 1.49328,6.08256 0.59101,4.76403 0.99881,5.79204 1.57208,3.96288 0.14297,-0.45619 0.63323,-1.65888 1.08948,-2.67264 2.87933,-6.39777 2.96327,-6.66529 3.70149,-11.79648 0.32086,-2.23027 0.65775,-4.46976 0.74863,-4.97664 0.30095,-1.67845 0.1629,-10.07809 -0.22719,-13.824 -0.6945,-6.66904 -1.27588,-8.49389 -4.05192,-12.71808 -0.59959,-0.91238 -1.19836,-1.90771 -1.33058,-2.21184 -0.81834,-1.88222 -1.98338,-5.10365 -1.98338,-5.48419 0,-0.24734 -1.20268,-1.64562 -2.67264,-3.10729 -2.56431,-2.54985 -9.91193,-7.46785 -14.83776,-9.93137 -2.33914,-1.16985 -6.72704,-2.63764 -9.58464,-3.20612 -1.21651,-0.242 -2.81169,-0.59452 -3.54485,-0.78336 -2.30244,-0.59304 -6.43469,-0.40442 -8.83193,0.40315 -1.21876,0.41057 -3.44674,0.98198 -4.95108,1.26981 -1.50433,0.28783 -3.03382,0.68316 -3.39886,0.87853 -0.36504,0.19536 -2.73521,1.10677 -5.26705,2.02535 -2.53184,0.91856 -5.89817,2.2609 -7.48073,2.98296 -1.58256,0.72208 -3.04453,1.31285 -3.24882,1.31285 -0.89344,0 -5.16065,2.37475 -7.6978,4.2839 -3.61097,2.71717 -5.5213,4.54662 -8.03724,7.6969 -1.13347,1.41927 -2.15363,2.66343 -2.26702,2.7648 -0.52763,0.47173 -3.4471,4.58067 -4.38582,6.17274 -1.22732,2.08153 -2.47343,5.77858 -2.82741,8.38854 -0.1375,1.01376 -0.39918,2.12199 -0.58152,2.46272 -0.22455,0.41962 -0.159,0.79205 0.20315,1.1542 0.29407,0.29407 0.4428,0.62655 0.3305,0.73884 -0.11229,0.11231 0.81734,-0.29418 2.06585,-0.90329 2.70802,-1.32116 5.87527,-2.19996 6.93243,-1.92351 0.41976,0.10977 0.86336,0.59863 0.98576,1.08636 0.21558,0.85892 1.31444,1.27886 1.31444,0.50231 0,-0.71636 2.94212,-4.28633 3.88748,-4.71707 1.2758,-0.58129 1.37412,-0.56206 2.59855,0.50796 0.5891,0.51483 1.57121,1.25073 2.18245,1.63535 1.22349,0.76987 2.94582,2.89464 2.61476,3.2257 -0.11526,0.11526 -1.00078,0.49734 -1.96784,0.84906 -3.89144,1.41539 -7.19968,2.9763 -9.2295,4.35473 l -2.13924,1.45272 0.0315,-0.97367 c 0.0173,-0.53553 0.21841,-1.40884 0.44682,-1.9407 0.75084,-1.74832 0.72768,-2.36325 -0.0839,-2.22656 -0.97015,0.16341 -4.05385,2.06124 -5.41269,3.33117 l -1.07761,1.00713 0.9428,0.50458 c 0.51854,0.27751 0.90059,0.69973 0.84899,0.93826 -0.10246,0.47374 3.56349,5.06371 5.60906,7.02285 1.19633,1.14577 1.39898,2.26337 0.23528,1.29758 -0.42825,-0.35541 -0.57709,-0.29493 -0.76999,0.31283 -0.23235,0.73207 -0.27577,0.72477 -1.53113,-0.25706 -0.7106,-0.55577 -1.5336,-1.46668 -1.82886,-2.02425 -0.39191,-0.74004 -0.81809,-1.01376 -1.57841,-1.01376 -0.57285,0 -1.84169,-0.42544 -2.81965,-0.94541 -1.15746,-0.61544 -2.08325,-0.86884 -2.65237,-0.726 -0.84876,0.21303 -0.86834,0.3025 -0.67075,3.0651 0.11196,1.56513 0.35825,3.50007 0.54733,4.29988 0.18908,0.79982 0.26832,1.57633 0.17608,1.72557 -0.0922,0.14925 -0.0179,0.36393 0.16516,0.47709 0.18307,0.11314 0.44596,0.80857 0.58419,1.5454 0.13824,0.73684 0.40457,1.60958 0.59185,1.93944 0.9268,1.63231 3.25611,7.55364 3.08213,7.83512 -0.32925,0.53275 -1.26125,0.36189 -1.26125,-0.23123 0,-0.30413 -0.16589,-0.55296 -0.36864,-0.55296 -0.20275,0 -0.36864,-0.29486 -0.36864,-0.65525 0,-1.09826 -1.09665,-2.39184 -1.64318,-1.93825 -0.69697,0.57843 -1.19523,-0.21299 -1.81988,-2.89061 -0.29553,-1.26683 -0.79539,-2.69719 -1.11083,-3.17859 -0.78928,-1.20459 -1.27048,-3.57305 -1.34822,-6.63586 -0.0944,-3.71805 -0.31865,-4.71995 -0.94094,-4.20349 -0.27589,0.22896 -0.39488,0.58904 -0.26441,0.80015 0.13117,0.21224 0.0606,0.27473 -0.15766,0.13977 -0.44126,-0.27272 -5.85765,5.63741 -8.2898,9.04549 -0.86176,1.20755 -2.97689,4.02457 -4.70028,6.26003 -4.22174,5.47616 -4.92275,6.52407 -7.54443,11.27801 -1.97999,3.59034 -3.51477,7.93511 -3.51477,9.94987 0,1.28932 -0.84421,7.68811 -1.32531,10.04537 -0.10345,0.50688 -0.34005,1.99987 -0.52579,3.31776 -0.18573,1.31789 -0.50877,2.97568 -0.71786,3.68397 -0.75257,2.54935 -0.64285,2.70006 1.79255,2.46202 2.0288,-0.19831 2.16013,-0.16435 1.98308,0.5127 -0.14475,0.55356 -0.0482,0.67085 0.40778,0.49583 0.32856,-0.12607 0.59739,-0.0514 0.59739,0.16587 0,0.41765 -1.03741,1.0916 -1.65776,1.07695 -0.46449,-0.011 -2.06245,3.1496 -3.34945,6.62474 -1.04448,2.82032 -1.72149,3.31191 -2.4274,1.7626 z m 2.06426,-3.65109 c 0.33003,-0.98798 1.01364,-2.50209 1.51916,-3.36469 l 0.91913,-1.56836 -0.83797,-0.22451 c -0.46088,-0.12348 -1.21121,-0.22678 -1.66741,-0.22955 -0.95568,-0.006 -0.97026,-0.15006 -0.3209,-3.17468 0.26546,-1.23643 0.46116,-3.47592 0.4349,-4.97664 -0.036,-2.05509 0.092,-2.83945 0.51817,-3.17768 0.49644,-0.39393 0.49803,-0.45194 0.013,-0.47252 -0.47339,-0.0201 -0.46814,-0.0881 0.0365,-0.47252 0.56448,-0.43004 0.8173,-1.56093 1.25411,-5.61004 0.4707,-4.36311 0.63799,-5.27281 1.34086,-7.2912 1.18366,-3.39913 4.37511,-9.21469 7.02418,-12.79968 0.37455,-0.50688 1.42543,-1.99987 2.33528,-3.31776 8.39,-12.15268 12.93514,-17.33229 18.42187,-20.99349 1.62201,-1.08235 3.77856,-2.66234 4.79232,-3.51108 1.01376,-0.84876 2.77845,-2.11776 3.92155,-2.81998 1.82134,-1.1189 2.02145,-1.35462 1.61824,-1.90604 -0.56273,-0.76957 -1.31647,-0.78414 -3.66772,-0.0709 -3.15118,0.95593 -10.57947,5.38615 -14.77447,8.81149 -7.23704,5.90925 -10.38279,9.92665 -13.44638,17.17222 -0.64297,1.52064 -1.85769,3.92602 -2.69941,5.34528 -2.92366,4.92975 -3.92552,7.43943 -5.95996,14.92992 -1.44298,5.31287 -2.24121,7.82023 -3.52075,11.0592 -0.64501,1.63277 -0.78508,2.67349 -0.71943,5.34528 0.21645,8.80862 0.28783,8.09677 -0.82488,8.22515 l -0.99737,0.11507 1.45817,2.89182 c 0.80199,1.59051 1.45817,3.01343 1.45817,3.16207 0,0.43968 1.2692,1.24548 1.53065,0.9718 0.13222,-0.13842 0.51042,-1.06002 0.84044,-2.048 z m 126.25119,-13.65304 1.96924,-1.99402 -1.08178,-0.55942 c -1.05959,-0.54792 -1.09015,-0.53727 -1.48902,0.51946 -0.28908,0.76586 -0.65717,1.08034 -1.2687,1.08391 -1.18245,0.007 -2.52034,0.39175 -2.52034,0.72497 0,0.33734 1.85076,2.21911 2.18254,2.21911 0.13135,0 1.12497,-0.89731 2.20806,-1.99401 z m -1.44712,-3.62775 c 0.003,-0.35481 -0.1409,-0.64512 -0.32,-0.64512 -0.40822,0 -0.71622,1.12384 -0.49133,1.79276 0.14263,0.42425 0.21853,0.42425 0.48732,0 0.1751,-0.27638 0.3209,-0.79282 0.32401,-1.14764 z m 0.6284,-6.08256 c -0.0927,-0.35481 -0.1686,-0.0645 -0.1686,0.64512 0,0.70963 0.0758,0.99994 0.1686,0.64512 0.0927,-0.35481 0.0927,-0.93542 0,-1.29024 z m -1.73011,-12.6411 c -0.43696,-4.63365 -0.94385,-7.27283 -1.53321,-7.98296 -0.21507,-0.25915 -0.29839,-0.71263 -0.18516,-1.00771 0.11325,-0.2951 0.0392,-1.08519 -0.16444,-1.75575 -0.20368,-0.67056 -0.52944,-2.29747 -0.72392,-3.61536 -0.19448,-1.31789 -0.66441,-3.39149 -1.04431,-4.608 -1.18576,-3.79705 -1.77503,-6.1777 -2.17146,-8.77273 -0.21055,-1.37821 -0.89401,-3.56579 -1.51881,-4.86125 -0.62478,-1.29547 -1.13598,-2.55604 -1.13598,-2.80127 0,-0.33469 -1.61777,-3.06429 -2.77355,-4.6797 -0.0403,-0.0564 -0.49789,0.059 -1.01682,0.25625 -1.2248,0.46566 -1.10184,0.9953 1.37637,5.92878 3.1015,6.17428 4.60156,11.29866 7.39283,25.25486 0.48693,2.43468 1.31369,5.56469 1.83721,6.95558 0.52354,1.39091 1.12801,3.35018 1.34328,4.35395 0.62022,2.89196 0.74408,1.85391 0.31797,-2.66469 z m -85.82154,-29.0152 c -2.01413,-2.53645 -3.4051,-3.81107 -3.8638,-3.54063 -0.24514,0.14453 -0.9804,0.66409 -1.6339,1.15457 -1.01916,0.76491 -1.11469,0.96528 -0.67145,1.40852 0.2842,0.28421 1.0144,0.51674 1.62266,0.51674 0.60826,0 1.34421,0.23829 1.63544,0.52953 0.50069,0.50068 2.44302,1.20781 3.51701,1.28042 0.2884,0.0195 0.0378,-0.53842 -0.60596,-1.34915 z m 12.46361,-9.72717 c 1.52064,-0.67222 2.84775,-1.28509 2.94912,-1.36193 0.28466,-0.21577 -3.32386,-3.29562 -4.09874,-3.49826 -1.04198,-0.27248 -4.79408,4.62665 -5.63545,7.35822 -0.23495,0.76278 -0.1727,0.75476 1.88866,-0.24352 1.17239,-0.56777 3.37577,-1.58229 4.89641,-2.25451 z m -3.6864,-4.51298 c 0,-0.19352 -0.0482,-0.28273 -0.10707,-0.19825 -0.0589,0.0845 -0.56853,0.81715 -1.13252,1.62816 l -1.02545,1.47456 1.13252,-1.27631 c 0.62289,-0.70197 1.13252,-1.43464 1.13252,-1.62816 z m 78.16991,-16.78204 c -0.86059,-1.68691 -1.29904,-2.01828 -0.74607,-0.56387 0.56212,1.47849 1.13904,2.45167 1.33639,2.25431 0.0991,-0.0991 -0.16655,-0.85979 -0.59032,-1.69044 z m -56.05151,-18.09909 c 0.30413,-0.19654 0.38708,-0.35735 0.18432,-0.35735 -0.20275,0 -0.61747,0.16081 -0.9216,0.35735 -0.30412,0.19655 -0.38707,0.35736 -0.18432,0.35736 0.20276,0 0.61748,-0.16081 0.9216,-0.35736 z m -24.84536,113.971 c -0.14612,-0.23643 -0.59192,-0.42988 -0.99066,-0.42988 -0.68595,0 -0.69438,-0.0592 -0.15632,-1.09968 0.57187,-1.10589 2.47507,-2.38815 2.9056,-1.95761 0.4871,0.4871 0.19238,1.81081 -0.63277,2.84205 -0.57565,0.71941 -0.94804,0.93281 -1.12585,0.64512 z m 57.28568,-0.40321 c 0,-0.48594 -1.36823,-2.1222 -3.71532,-4.44318 -4.32759,-4.27946 -4.55559,-5.01277 -1.53396,-4.93372 1.05313,0.0275 2.33328,0.15514 2.84476,0.28351 1.01853,0.25563 1.25407,1.22405 0.37935,1.55972 -0.46147,0.17708 -0.41993,0.39482 0.25661,1.34493 0.44397,0.62351 1.42888,1.69528 2.18868,2.38172 0.82213,0.74274 1.29928,1.46218 1.17851,1.77692 -0.27339,0.71244 0.0971,0.66642 0.93617,-0.11625 4.83267,-4.50794 5.22812,-5.11684 3.4556,-5.32079 -0.80476,-0.0926 -1.03843,-0.33211 -1.13343,-1.1618 -0.0716,-0.625 0.10731,-1.2178 0.44496,-1.47456 0.97069,-0.7382 1.30119,-6.08012 1.16695,-18.86141 -0.11171,-10.6338 -0.22596,-12.63811 -0.90768,-15.92267 -1.13108,-5.44967 -2.16531,-8.59189 -2.82791,-8.59189 -0.43246,0 -0.50245,-0.27931 -0.31731,-1.26621 0.13632,-0.7267 0.0323,-1.86547 -0.24406,-2.67264 -0.26488,-0.77354 -0.493,-1.48938 -0.50694,-1.59075 -0.13838,-1.00629 -0.87454,-1.46675 -1.98868,-1.24394 -1.37616,0.27524 -1.39614,0.004 0.33548,4.5617 2.96136,7.79508 3.03909,8.22851 3.10734,17.32608 0.0342,4.56192 -0.0321,9.28973 -0.14736,10.50624 -0.11529,1.21651 -0.11507,3.03027 3.6e-4,4.03059 0.17218,1.49043 0.0806,1.94826 -0.5074,2.53624 -0.66314,0.66314 -0.69917,1.06991 -0.47555,5.36974 0.26812,5.15523 0.28427,6.37226 0.0872,6.56928 -0.0733,0.0733 -0.66209,0.2849 -1.30851,0.47029 -0.88811,0.25471 -1.22201,0.21538 -1.36642,-0.16097 -0.26921,-0.70154 0.95629,-2.02304 1.63468,-1.76271 0.36632,0.14056 0.46685,0.0651 0.29144,-0.21867 -0.14727,-0.23829 -0.32478,-3.70865 -0.39448,-7.71192 -0.10485,-6.02274 -0.002,-7.97837 0.59912,-11.33371 0.57228,-3.19716 0.68406,-5.02989 0.52834,-8.66304 -0.25183,-5.87529 -0.59452,-8.9986 -1.00454,-9.15532 -0.17792,-0.068 -0.23055,-0.27403 -0.11696,-0.45782 0.1136,-0.18379 -0.0767,-1.34353 -0.42284,-2.57721 -0.53812,-1.91788 -0.73485,-2.21547 -1.35706,-2.05276 -0.40023,0.10468 -1.09846,-0.0526 -1.55162,-0.34954 -0.45315,-0.29692 -1.93996,-0.64406 -3.30405,-0.77145 -1.36408,-0.12737 -2.55451,-0.42538 -2.64541,-0.66224 -0.0909,-0.23686 0.36533,-1.58005 1.0138,-2.98487 1.01618,-2.2014 1.19186,-3.02284 1.27188,-5.94674 0.051,-1.86589 0.19094,-3.55127 0.31086,-3.7453 0.44009,-0.71209 -0.2405,-1.52523 -1.27661,-1.52523 -1.6562,0 -1.59711,-0.62139 0.0805,-0.8464 0.97879,-0.1313 1.79852,-0.0245 2.29639,0.29904 0.42583,0.27676 2.0184,0.94992 3.53904,1.49589 1.52064,0.54598 3.74804,1.4683 4.9498,2.0496 1.20176,0.5813 2.39651,1.05691 2.655,1.05691 0.3805,0 0.38,0.29908 -0.002,1.57046 -0.25995,0.86376 -0.40527,1.77255 -0.32294,2.01955 0.0823,0.24701 -0.17838,1.07476 -0.57937,1.83946 -1.49109,2.84358 -1.60264,3.47663 -1.03865,5.89427 0.28986,1.2425 0.6284,2.42314 0.75232,2.62363 0.38288,0.61951 1.62156,7.10079 1.91389,10.01423 0.37088,3.69623 0.24475,25.31584 -0.16668,28.5696 -0.17946,1.41926 -0.24545,2.71952 -0.14664,2.88947 0.0988,0.16993 0.87995,0.23907 1.73585,0.15366 0.85591,-0.0854 1.91536,-0.0224 2.35433,0.13995 1.10921,0.41033 1.04609,1.71727 -0.0968,2.00413 -0.49222,0.12353 -0.98467,0.45847 -1.09435,0.74431 -0.10969,0.28582 -0.36926,0.51968 -0.57684,0.51968 -0.49882,0 -1.89922,1.16097 -4.75572,3.94264 -2.56029,2.49329 -4.47458,3.3413 -4.47458,1.98227 z m -4.31395,-7.64523 c -0.10373,-0.27034 -0.52295,-0.49152 -0.93158,-0.49152 -0.57736,0 -0.65205,0.10957 -0.33506,0.49152 0.22436,0.27033 0.64358,0.49152 0.93159,0.49152 0.28802,0 0.4388,-0.22119 0.33505,-0.49152 z m 3.94531,-46.18091 c 0,-0.53769 -1.88528,-5.69772 -2.20805,-6.04345 -0.64059,-0.68616 0.0818,-1.63746 1.41033,-1.85713 2.99959,-0.49602 3.16931,-0.41618 3.98765,1.87589 l 0.7524,2.10734 0.80655,-2.15568 c 1.28469,-3.43366 1.27143,-3.48037 -1.43112,-5.03851 -2.37322,-1.36826 -6.90921,-3.13658 -7.22802,-2.81776 -0.16534,0.16534 -0.22925,0.61716 -0.70714,4.99973 -0.14009,1.28475 -0.65196,3.34957 -1.1375,4.58849 -0.49353,1.25934 -0.74282,2.39252 -0.56537,2.56999 0.17459,0.17457 1.4607,0.55661 2.85804,0.84897 1.39735,0.29236 2.59593,0.69744 2.66351,0.90018 0.15568,0.46701 0.79872,0.48467 0.79872,0.0219 z m -28.66367,53.70731 c -0.94126,-1.17653 -0.86308,-2.05354 0.30133,-3.37971 2.2375,-2.54839 3.37666,-1.13314 1.83019,2.27379 -0.71585,1.57706 -1.44988,1.95791 -2.13152,1.10592 z m 1.01567,-1.01376 c 0,-0.20275 -0.17568,-0.36864 -0.39039,-0.36864 -0.21472,0 -0.28787,0.16589 -0.16257,0.36864 0.12532,0.20275 0.30099,0.36864 0.3904,0.36864 0.0894,0 0.16256,-0.16589 0.16256,-0.36864 z m 53.32562,-4.72919 c -0.33556,-0.37078 -0.6101,-1.02051 -0.6101,-1.44384 0,-0.42332 -0.20736,-0.85456 -0.4608,-0.9583 -0.30082,-0.12314 -0.0286,-0.59446 0.78417,-1.35766 1.03033,-0.96749 1.44147,-1.12976 2.38464,-0.94112 1.51066,0.30213 1.85692,0.70707 1.57276,1.83924 -0.23783,0.94764 -2.27809,3.53583 -2.78725,3.53583 -0.15034,0 -0.54788,-0.30336 -0.88342,-0.67415 z m 1.67289,-1.44553 c 0.30474,-0.35482 0.66602,-0.95888 0.80285,-1.34238 0.2201,-0.61685 0.17343,-0.64019 -0.40476,-0.20242 -0.84872,0.64262 -1.57516,1.51507 -1.57516,1.89174 0,0.50594 0.59527,0.33048 1.17707,-0.34694 z m -24.69937,0.61747 c 0.0726,-0.21795 0.28969,-0.39629 0.4823,-0.39629 0.19262,0 0.40965,0.17834 0.48231,0.39629 0.0726,0.21796 -0.14439,0.39629 -0.48231,0.39629 -0.33792,0 -0.55496,-0.17833 -0.4823,-0.39629 z m -82.45526,-1.13654 c 0.41116,-1.35508 1.65172,-3.23316 2.4003,-3.63379 1.02037,-0.54609 1.3155,0.27146 0.44439,1.23103 -0.40051,0.44119 -0.95829,1.29779 -1.23951,1.90356 -0.64514,1.38972 -2.00357,1.81216 -1.60518,0.4992 z m -10.51268,-2.632 c -0.45912,-0.36797 -0.55402,-1.74112 -0.55922,-8.09245 -0.005,-5.45257 0.1136,-7.64928 0.41109,-7.64928 0.22954,0 0.81297,0.30759 1.2965,0.68353 0.48354,0.37595 1.36419,0.93482 1.957,1.24196 1.07494,0.55692 1.0814,0.5537 2.39616,-1.19588 1.19996,-1.59681 3.13158,-3.41667 7.42623,-6.99649 0.85132,-0.70963 1.81403,-1.44503 2.13933,-1.63419 0.32531,-0.18918 0.915,-0.64537 1.31043,-1.01376 0.39542,-0.3684 0.89503,-0.67429 1.11024,-0.67978 0.2152,-0.006 1.22072,-0.75046 2.23448,-1.65548 1.01376,-0.90503 1.96539,-1.64704 2.11472,-1.64891 0.2628,-0.003 5.06996,-3.93884 5.4424,-4.45562 0.10138,-0.14066 1.06683,-0.77492 2.14544,-1.40946 1.0786,-0.63455 3.46235,-2.23169 5.2972,-3.5492 1.83486,-1.31752 4.85072,-3.33074 6.70193,-4.47383 1.85122,-1.14307 3.94638,-2.50942 4.65593,-3.03632 2.4229,-1.7992 4.97654,-3.91747 5.1611,-4.28118 0.10138,-0.19978 0.30874,-0.32176 0.4608,-0.27107 0.15207,0.0507 0.27648,-0.0738 0.27648,-0.27648 0,-0.20275 0.33178,-0.36864 0.73728,-0.36864 0.40551,0 0.73728,-0.16362 0.73728,-0.36359 0,-0.19997 1.18723,-0.95032 2.63828,-1.66745 1.45104,-0.71712 2.83711,-1.57579 3.08013,-1.90815 0.61816,-0.84539 1.50835,-0.38526 1.76819,0.91396 0.12025,0.60124 0.47562,1.35014 0.7897,1.66423 0.31408,0.31409 0.57106,0.93267 0.57106,1.37464 0,0.68361 -0.1447,0.76725 -0.96928,0.56029 -0.80129,-0.20111 -1.67989,0.23756 -5.0688,2.53078 -2.25474,1.52574 -4.59718,3.20914 -5.20544,3.74089 -0.60825,0.53175 -1.73608,1.29013 -2.50628,1.68526 -0.7702,0.39515 -1.49297,0.95979 -1.60616,1.25476 -0.11319,0.29496 -0.42306,0.5363 -0.6886,0.5363 -0.26554,0 -0.53809,0.13914 -0.60568,0.30921 -0.20687,0.52056 -6.64561,5.23776 -8.56272,6.27329 -0.99237,0.53604 -2.58476,1.39133 -3.53864,1.90066 -0.95387,0.50932 -2.63025,1.59737 -3.72528,2.41789 -1.09503,0.82053 -2.98628,2.21597 -4.2028,3.10096 -2.11735,1.54036 -7.131,6.22222 -13.79345,12.88064 l -3.10725,3.10536 1.16971,0.97652 c 1.28952,1.07655 1.54867,2.21307 0.5046,2.21307 -1.66358,0 -7.91728,5.00848 -6.98019,5.59033 0.34048,0.2114 0.26349,0.47747 -0.30237,1.04473 -0.93025,0.93258 -2.3691,1.22295 -3.11153,0.62795 z m 6.39142,-6.15709 c 1.55267,-1.11514 2.82234,-2.11047 2.82149,-2.21184 -0.002,-0.10138 -0.49635,-0.46586 -1.10107,-0.80995 -1.21596,-0.69188 -1.19937,-1.82189 0.022,-1.50248 0.56741,0.14839 0.71348,-0.005 0.71348,-0.7509 0,-0.73577 1.051,-1.88382 4.88448,-5.33554 2.68646,-2.41892 5.55572,-5.1268 6.3761,-6.01751 2.76057,-2.99713 9.08073,-7.85793 12.88733,-9.91156 4.0634,-2.19216 5.5117,-3.09117 7.92377,-4.91862 1.31788,-0.99847 2.4791,-1.91815 2.58048,-2.04377 0.40802,-0.50557 3.62315,-2.95006 5.5296,-4.20419 1.11513,-0.73358 3.06551,-2.08478 4.33418,-3.00266 1.26866,-0.91786 3.38374,-2.28833 4.70016,-3.04548 1.53908,-0.8852 2.3935,-1.61177 2.3935,-2.03538 0,-1.07235 -1.44324,-0.79161 -4.19393,0.8158 -1.38785,0.81101 -2.60546,1.47456 -2.70581,1.47456 -0.10035,0 -2.03114,1.37677 -4.29064,3.05949 -4.01066,2.98686 -7.63719,5.41923 -8.07978,5.41923 -0.18264,0 -6.59515,4.44617 -7.82488,5.42546 -0.20275,0.16146 -1.52985,1.03886 -2.94912,1.94977 -3.01414,1.93454 -5.71392,4.30317 -5.71392,5.01306 0,0.76201 -4.64638,4.42562 -7.70723,6.07703 -1.50182,0.81027 -3.21489,1.88074 -3.80685,2.37884 -0.59193,0.49807 -1.26198,0.9056 -1.489,0.9056 -0.227,0 -1.49991,1.1604 -2.82867,2.57865 -3.37282,3.6 -3.33753,3.55143 -3.33753,4.59427 0,1.22943 -0.644,1.18729 -2.42265,-0.1585 -0.79644,-0.60262 -1.63697,-1.10029 -1.86784,-1.10592 -0.62983,-0.0154 -0.8763,2.09531 -0.55101,4.71859 0.1591,1.28297 0.21648,3.16929 0.1275,4.19182 -0.20473,2.3531 0.39053,2.84495 1.77064,1.46304 0.54018,-0.54086 2.2525,-1.89578 3.80517,-3.01091 z m -11.70481,4.10665 c -0.30589,-0.49496 0.59179,-2.66406 1.36942,-3.30895 1.09224,-0.90579 1.44188,-0.0933 0.5814,1.35116 -1.12989,1.89665 -1.65988,2.42853 -1.95082,1.95779 z m 74.61499,-6.80303 c -0.10287,-0.10821 -2.59119,-0.37419 -5.5296,-0.59107 -3.35152,-0.24737 -6.12061,-0.659 -7.43033,-1.10451 -1.14827,-0.3906 -3.33043,-0.91899 -4.84924,-1.1742 -2.12183,-0.35653 -3.04715,-0.7141 -3.99479,-1.5437 -1.36048,-1.191 -5.20499,-3.21617 -7.5002,-3.95088 -0.811,-0.2596 -1.80177,-0.69724 -2.2017,-0.97251 -0.39993,-0.27528 -1.16758,-0.50051 -1.7059,-0.50051 -0.53832,0 -1.19534,-0.26095 -1.46004,-0.57991 -0.2647,-0.31894 -1.08643,-0.88862 -1.82607,-1.26596 -0.73963,-0.37733 -1.78753,-1.26652 -2.32865,-1.97598 -1.09222,-1.43197 -1.3198,-2.65281 -0.43092,-2.31172 0.74361,0.28534 0.69672,-0.002 -0.20763,-1.27197 -0.85748,-1.20421 -0.68541,-1.81603 0.50587,-1.79874 1.15027,0.0167 2.011,0.7834 2.2886,2.03858 0.13175,0.59571 0.33578,1.33197 0.4534,1.6361 0.11761,0.30413 0.22817,0.80533 0.24568,1.11377 0.0639,1.12664 1.48312,2.56888 2.61232,2.65484 0.60826,0.0462 2.00865,0.71331 3.11198,1.48225 1.10333,0.76895 2.81658,1.63879 3.80723,1.93298 0.99065,0.29419 2.82507,1.21937 4.07651,2.05597 2.27776,1.52271 4.076,2.08828 12.04428,3.78812 3.14699,0.67134 9.73139,1.19978 13.24872,1.0633 3.96012,-0.15366 5.39644,-0.64926 13.39356,-4.62146 2.79228,-1.38692 5.27053,-2.45712 5.50727,-2.37822 0.23672,0.0789 -0.67928,0.86112 -2.03557,1.73826 -1.35629,0.87712 -2.46598,1.73533 -2.46598,1.90713 0,0.88343 -10.54066,4.29015 -14.19264,4.58704 -1.62201,0.13187 -3.03328,0.15122 -3.13616,0.043 z m -37.74528,-14.68788 c -0.3248,-0.46373 -0.59056,-0.72104 -0.59056,-0.57181 0,0.41102 0.87316,1.72291 1.03741,1.55866 0.079,-0.079 -0.12204,-0.52312 -0.44685,-0.98685 z m 3.09049,1.3429 c -0.68486,-0.70659 -1.12412,-1.28472 -0.97613,-1.28472 0.35764,0 2.54404,2.24673 2.36277,2.42799 -0.0778,0.0778 -0.70178,-0.43667 -1.38664,-1.14327 z m 31.33975,-6.10277 c 0,-0.21691 0.47494,-1.08782 1.05542,-1.93536 0.58048,-0.84754 1.17973,-1.95571 1.33167,-2.46259 0.35633,-1.18871 -0.048,-0.75149 -1.78972,1.93536 -1.40283,2.16406 -2.32133,2.7956 -1.87653,1.29024 0.36988,-1.25179 2.9979,-5.53927 4.36395,-7.11955 0.84005,-0.97178 1.39533,-1.32423 1.82597,-1.15898 0.9264,0.3555 0.7793,0.92167 -1.07572,4.14026 -0.93202,1.6171 -2.02704,3.56227 -2.43339,4.32259 -0.70938,1.32736 -1.40165,1.81533 -1.40165,0.98803 z m 31.65492,-13.57878 c -0.82886,-0.67118 -0.83878,-0.73338 -0.22515,-1.41143 0.35305,-0.39012 0.64191,-0.90361 0.64191,-1.14109 0,-0.23747 0.33588,-0.43177 0.74641,-0.43177 0.89847,0 1.56575,1.49949 1.24175,2.79038 -0.27251,1.08576 -1.21016,1.16136 -2.40492,0.19391 z m 1.40586,-1.57885 c -0.11767,-0.29407 -0.20502,-0.20672 -0.22271,0.22272 -0.016,0.38861 0.0711,0.60633 0.19361,0.48384 0.1225,-0.1225 0.1356,-0.44045 0.029,-0.70656 z m -54.51102,-2.76318 c 0.26612,-0.10649 0.58408,-0.0934 0.70656,0.029 0.1225,0.1225 -0.0952,0.20963 -0.48384,0.19362 -0.42944,-0.0178 -0.51679,-0.10504 -0.22272,-0.22272 z m 0.99444,-0.86011 c 0.12736,-0.20606 0.38597,-0.27921 0.57472,-0.16257 0.51132,0.31602 0.41597,0.53722 -0.23155,0.53722 -0.31609,0 -0.47053,-0.16859 -0.34317,-0.37465 z m 3.21311,-1.68189 c 0.34999,-0.36541 0.71569,-0.58502 0.81267,-0.48804 0.097,0.097 -0.18937,0.39595 -0.63634,0.66438 -0.77648,0.46629 -0.78433,0.45844 -0.17633,-0.17634 z m 14.08755,-9.19869 c 0.79886,-0.60424 1.68058,-0.71549 1.68058,-0.21205 0,0.38906 -0.91381,0.78153 -1.78119,0.76501 -0.53049,-0.0101 -0.51666,-0.0861 0.10061,-0.55296 z m 35.00106,-1.84299 c -0.33626,-0.51321 -0.5182,-1.02629 -0.40431,-1.14018 0.11389,-0.11389 0.47239,0.30601 0.79667,0.9331 0.71081,1.37455 0.4595,1.50718 -0.39236,0.20708 z m -1.61744,-9.02018 c 0,-0.20275 0.23904,-0.36864 0.53121,-0.36864 0.29216,0 0.63373,0.16589 0.75903,0.36864 0.12532,0.20275 -0.11373,0.36864 -0.5312,0.36864 -0.41748,0 -0.75904,-0.16589 -0.75904,-0.36864 z"
       id="path6288"
       inkscape:connector-curvature="0"
       inkscape:export-xdpi="100"
       inkscape:export-ydpi="100" />
  </g>
</svg>
