<?xml version="1.0" encoding="UTF-8" standalone="no"?>
<!-- Created with Inkscape (http://www.inkscape.org/) -->

<svg
   xmlns:dc="http://purl.org/dc/elements/1.1/"
   xmlns:cc="http://creativecommons.org/ns#"
   xmlns:rdf="http://www.w3.org/1999/02/22-rdf-syntax-ns#"
   xmlns:svg="http://www.w3.org/2000/svg"
   xmlns="http://www.w3.org/2000/svg"
   xmlns:sodipodi="http://sodipodi.sourceforge.net/DTD/sodipodi-0.dtd"
   xmlns:inkscape="http://www.inkscape.org/namespaces/inkscape"
   width="4in"
   height="4in"
   viewBox="0 0 360.00001 360.00001"
   id="svg2"
   version="1.1"
   inkscape:version="0.91 r13725"
   inkscape:export-filename="/Users/lafespietz/Desktop/image bin/one.png"
   inkscape:export-xdpi="100"
   inkscape:export-ydpi="100"
   sodipodi:docname="bigOne.svg">
  <defs
     id="defs4">
    <clipPath
       clipPathUnits="userSpaceOnUse"
       id="clipPath4321">
      <rect
         style="fill:#000000;fill-opacity:1;stroke:none;stroke-width:3.54330707;stroke-miterlimit:4;stroke-dasharray:none;stroke-opacity:1"
         id="rect4323"
         width="399.98053"
         height="533.30737"
         x="250.45509"
         y="902.83673" />
    </clipPath>
  </defs>
  <sodipodi:namedview
     id="base"
     pagecolor="#ffffff"
     bordercolor="#666666"
     borderopacity="1.0"
     inkscape:pageopacity="0.0"
     inkscape:pageshadow="2"
     inkscape:zoom="0.80253906"
     inkscape:cx="161.88275"
     inkscape:cy="320.63276"
     inkscape:document-units="px"
     inkscape:current-layer="layer1"
     showgrid="false"
     units="in"
     inkscape:window-width="1366"
     inkscape:window-height="719"
     inkscape:window-x="4"
     inkscape:window-y="0"
     inkscape:window-maximized="0" />
  <metadata
     id="metadata7">
    <rdf:RDF>
      <cc:Work
         rdf:about="">
        <dc:format>image/svg+xml</dc:format>
        <dc:type
           rdf:resource="http://purl.org/dc/dcmitype/StillImage" />
        <dc:title></dc:title>
      </cc:Work>
    </rdf:RDF>
  </metadata>
  <g
     inkscape:label="Layer 1"
     inkscape:groupmode="layer"
     id="layer1"
     transform="translate(0,-692.36215)">
    <path
       style="fill:#000000"
       d="m 145.9093,1045.3792 c 0,-0.4811 0.51972,-1.1528 1.15493,-1.4927 1.63739,-0.8764 2.09959,-0.7662 1.22205,0.2912 -0.6261,0.7543 -0.59772,0.849 0.16659,0.5557 0.50669,-0.1944 1.05691,-0.8722 1.22272,-1.5062 0.40148,-1.5353 2.20451,-1.5016 2.20451,0.042 0,0.732 -0.40438,1.2013 -1.04489,1.2129 -0.57469,0.01 -1.56645,0.4136 -2.20388,0.8957 -1.48279,1.1214 -2.72203,1.1224 -2.72203,0 z m 9.55327,-7.186 c 0,-0.4924 0.22391,-0.8955 0.49755,-0.8955 0.27368,0 0.49759,0.4031 0.49759,0.8955 0,0.4927 -0.22391,0.8956 -0.49759,0.8956 -0.27364,0 -0.49755,-0.4029 -0.49755,-0.8956 z m 1.79125,-1.8 c 0,-1.003 3.51322,-3.3884 4.28662,-2.9103 0.99137,0.6127 0.43453,1.7522 -1.3534,2.7699 -2.25192,1.2817 -2.93322,1.3143 -2.93322,0.1404 z m 5.33255,-3.4244 c -0.64309,-2.3333 -0.33102,-3.5196 1.12618,-4.281 0.88099,-0.4601 2.38181,-1.6573 3.33514,-2.6602 1.67718,-1.7642 2.7533,-1.9557 2.73676,-0.4869 -0.01,0.6648 -0.48304,1.3454 -4.07536,5.833 -1.12583,1.4063 -2.92191,2.3239 -3.12272,1.5951 z m 4.8115,-5.4536 c 0.98509,-1.2331 1.1035,-1.5584 0.35103,-0.9651 -0.62445,0.4927 -1.62818,1.7019 -2.23052,2.6869 -0.60235,0.9854 -1.09618,1.4395 -1.09739,1.0097 -0.002,-0.4299 -0.29962,-0.5978 -0.66307,-0.3732 -0.4608,0.2848 -0.41562,0.5658 0.14927,0.9284 0.53408,0.3426 1.01352,0.1882 1.40718,-0.4532 0.32839,-0.5353 1.26596,-1.8102 2.0835,-2.8335 z m 1.20043,-5.6979 c 0,-0.8544 0.38346,-1.2378 1.23792,-1.2378 1.53011,0 1.35653,1.9763 -0.1999,2.2759 -0.71649,0.1379 -1.03802,-0.1835 -1.03802,-1.0381 z m 1.19416,-5.7159 c 0,-0.9288 0.33834,-1.4928 0.89562,-1.4928 0.55725,0 0.89561,0.564 0.89561,1.4928 0,0.9288 -0.33836,1.4926 -0.89561,1.4926 -0.55728,0 -0.89562,-0.5638 -0.89562,-1.4926 z m -3.9735,-3.6082 c -0.19449,-0.5068 -0.19764,-1.0773 -0.01,-1.268 0.60247,-0.6025 2.18927,0.3216 2.18927,1.2749 0,1.1919 -1.72437,1.1863 -2.18227,-0.01 z m -5.72902,-7.2522 c -1.10579,-0.289 -1.41632,-1.6768 -0.5017,-2.242 0.94586,-0.5846 2.4422,0.3485 2.4422,1.5231 0,1.1531 -0.11516,1.1959 -1.9405,0.7189 z m -5.22444,-2.8725 c 0,-0.4976 0.53073,-0.8955 1.19415,-0.8955 0.66342,0 1.19417,0.3979 1.19417,0.8955 0,0.4977 -0.53075,0.8956 -1.19417,0.8956 -0.66342,0 -1.19415,-0.3979 -1.19415,-0.8956 z m -2.8667,-3.61263 c -0.86555,-0.981 -0.47364,-2.0596 0.74826,-2.0596 0.75266,0 1.52135,1.2315 1.52135,2.4373 0,0.8411 -1.39955,0.6082 -2.26961,-0.3777 z m 30.61997,0.3111 c -0.19699,-0.3187 -0.0579,-0.5795 0.30942,-0.5795 0.36714,0 0.53706,-0.2112 0.37761,-0.4692 -0.15948,-0.2579 0.16053,-0.5003 0.71111,-0.5388 0.55058,-0.038 3.82223,-0.3556 7.27037,-0.7049 3.44813,-0.3493 7.07538,-0.6173 8.06057,-0.5958 1.75251,0.038 1.75897,0.049 0.29853,0.5175 -1.38638,0.4439 -1.34384,0.4862 0.59708,0.5937 1.69495,0.094 1.35655,0.2586 -1.79123,0.8723 -5.39799,1.0524 -15.38929,1.6234 -15.83346,0.9047 z m 4.92432,-0.9403 c -0.19841,-0.1983 -0.71339,-0.2194 -1.14441,-0.047 -0.4763,0.1906 -0.33482,0.332 0.36076,0.3607 0.6294,0.026 0.98205,-0.1153 0.78365,-0.3136 z m 5.37372,-0.5971 c -0.19841,-0.1982 -0.71341,-0.2194 -1.14441,-0.047 -0.47631,0.1907 -0.33484,0.3321 0.36074,0.3607 0.62941,0.026 0.98206,-0.1151 0.78367,-0.3135 z m 2.98538,0 c -0.1984,-0.1982 -0.71338,-0.2194 -1.1444,-0.047 -0.47632,0.1907 -0.33483,0.3321 0.36075,0.3607 0.6294,0.026 0.98206,-0.1151 0.78365,-0.3135 z m -45.49531,-1.3987 c -0.52498,-0.8495 0.14449,-1.8228 1.2537,-1.8228 0.52313,0 0.82281,0.4193 0.71111,0.9953 -0.23259,1.1992 -1.42473,1.7013 -1.96481,0.8275 z m -0.17706,-4.06196 c 0.12567,-0.57465 0.52084,-0.98695 0.87816,-0.91599 0.3573,0.0703 0.52418,-0.35102 0.37083,-0.93736 -0.15335,-0.58634 0.13971,-1.41351 0.65125,-1.83806 0.77471,-0.64298 0.99434,-0.60435 1.31495,0.23113 0.21169,0.55157 0.0806,1.3073 -0.29148,1.67932 -0.37198,0.37202 -0.67635,1.16004 -0.67635,1.75113 0,0.68942 -0.44391,1.07474 -1.23793,1.07474 -0.868,0 -1.16966,-0.31227 -1.00943,-1.04491 z m 3.92127,-2.87033 c -0.26724,-2.28912 0.0164,-3.38251 0.75856,-2.92386 0.29659,0.1833 0.37791,-0.0876 0.18075,-0.60097 -0.19718,-0.5138 -0.0751,-1.27577 0.27121,-1.69291 0.43591,-0.52535 0.43913,-1.02831 0.0105,-1.63442 -0.5095,-0.72051 -0.55969,-0.69055 -0.28312,0.16939 0.18487,0.57453 0.10721,1.04473 -0.17257,1.04473 -0.27979,0 -0.65124,0.54511 -0.82547,1.21125 -0.17421,0.66623 -0.67575,1.13643 -1.11453,1.04492 -0.43877,-0.0914 -0.72115,0.19783 -0.62754,0.64284 0.21638,1.02859 -1.0308,2.5668 -1.73057,2.13436 -1.00157,-0.61902 -0.56751,-3.0929 0.59606,-3.39722 0.848,-0.22175 1.05216,-0.67778 0.8281,-1.84986 -0.23825,-1.24639 -0.005,-1.6675 1.1814,-2.11802 1.26284,-0.48004 2.61622,-2.26781 2.1035,-2.77853 -0.27733,-0.27626 -20.35467,-1.33417 -22.25521,-1.1727 -3.73277,0.31732 -7.81153,1.11557 -9.67344,1.89362 -2.3861,0.9969 -2.14846,1.01269 -3.57931,-0.23808 -0.96053,-0.8395 -1.27223,-2.10048 -1.58665,-6.41867 -0.7005,-9.62002 -2.63305,-27.95575 -3.20952,-30.4508 -0.73582,-3.1852 -0.52509,-3.46578 7.00297,-9.32589 4.10491,-3.19531 8.8069,-6.61948 10.44886,-7.60944 1.64198,-0.98976 4.58772,-3.42814 6.5461,-5.41861 3.5212,-3.57895 3.59815,-3.61911 6.92909,-3.61911 l 3.36834,0 -0.17444,-10.59804 c -0.31216,-18.9652 -0.88666,-30.10588 -2.11685,-41.04918 -0.81978,-7.29271 -1.1698,-13.91421 -1.08883,-20.5992 0.0657,-5.41848 0.0859,-10.15303 0.045,-10.52122 -0.13435,-1.21217 -5.62603,-1.43537 -13.20992,-0.53694 -10.66053,1.26293 -11.25179,1.22939 -11.97761,-0.67964 -0.33195,-0.87313 -0.72982,-6.71703 -0.88414,-12.98648 -0.15433,-6.26944 -0.43707,-12.40653 -0.6283,-13.638 -0.35041,-2.25647 0.26489,-2.90937 1.40676,-1.4927 0.33087,0.41048 0.87955,6.61346 1.21932,13.78436 0.33976,7.17092 0.77634,13.19663 0.97019,13.39046 0.19383,0.19385 2.93915,-0.005 6.10071,-0.43677 3.16154,-0.43407 8.42038,-0.81671 11.6863,-0.85032 8.05662,-0.0829 7.86586,-0.37625 7.37293,11.33939 -0.31455,7.47563 -0.12381,11.29932 1.11686,22.39044 1.45611,13.01697 3.00593,48.09922 3.01757,68.30647 l 0.006,7.76195 -1.4927,0.13339 c -0.82099,0.074 -4.58257,0.26209 -8.35909,0.4193 -3.77653,0.15722 -10.3171,0.56641 -14.5346,0.90909 -4.2175,0.34268 -8.31495,0.46073 -9.10544,0.26236 -1.69913,-0.42643 -1.66567,-0.83653 -0.60081,7.36079 1.08275,8.33522 2.20446,20.36157 2.34042,25.09238 0.0588,2.0495 0.16879,3.72887 0.24424,3.73184 0.0754,0 1.1502,-0.36776 2.38832,-0.82398 5.83188,-2.14885 8.77554,-2.38792 20.34493,-1.65293 14.19899,0.90187 13.69683,0.91974 14.14844,-0.50305 0.54651,-1.72206 3.66535,-1.60131 5.34087,0.20667 1.23351,1.33092 1.79508,1.41801 11.25231,1.74408 6.02092,0.20767 13.55632,0.0451 19.07087,-0.4119 5.01426,-0.41524 10.05722,-0.72985 11.2066,-0.69916 l 2.08978,0.0559 -0.0332,-11.04588 c -0.0181,-6.07545 -0.39449,-14.5742 -0.83627,-18.88635 l -0.80325,-7.84028 -6.32867,-0.36696 c -3.48047,-0.2018 -9.01522,-0.26091 -12.29914,-0.13168 l -5.97079,0.23529 -0.0736,-7.55212 c -0.0406,-4.15358 -0.49542,-10.77621 -1.01098,-14.71698 -1.31739,-10.06954 -1.91918,-19.39413 -1.65697,-25.67435 0.1234,-2.95554 0.23041,-8.06057 0.23781,-11.34451 0.0314,-13.85044 -0.78772,-88.87887 -1.03232,-94.57744 -0.28661,-6.67702 -0.70027,-7.52823 -3.33035,-6.85318 -0.82098,0.21071 -4.9856,0.46027 -9.2547,0.55455 -4.26913,0.0943 -9.77718,0.45363 -12.24014,0.79855 -2.46295,0.3449 -5.90635,0.63539 -7.65199,0.64554 -3.51831,0.0204 -5.48373,0.79069 -5.48373,2.14907 0,1.98516 -6.28368,12.68244 -7.01827,11.94785 -0.44254,-0.44253 -1.9379,0.81741 -1.9379,1.63277 0,0.35096 0.39447,0.11656 0.87663,-0.5209 0.48215,-0.63746 0.88516,-0.929 0.89562,-0.64785 0.0603,1.62275 -8.6844,10.63021 -10.08186,10.38483 -1.444,-0.25357 -1.41131,-1.60708 0.0523,-2.16354 0.76615,-0.29128 2.66221,-1.88651 4.21348,-3.54496 4.22876,-4.52087 11.08579,-15.56035 10.20944,-16.43671 -0.76628,-0.76627 1.74643,-4.41301 4.72183,-6.85285 3.94329,-3.23346 12.9487,-9.065 13.99879,-9.065 2.18221,0 0.18412,2.09208 -5.19662,5.44115 -8.09402,5.03785 -8.26133,5.30626 -3.30811,5.30626 2.19397,0 5.78695,-0.25534 7.9844,-0.56743 2.19747,-0.31211 8.07415,-0.69566 13.05929,-0.85238 5.22326,-0.16422 9.61805,-0.58153 10.37167,-0.98484 1.03956,-0.55636 1.21165,-0.54441 0.83919,0.0581 -0.34179,0.55304 -0.16844,0.64294 0.64083,0.33242 1.04029,-0.3992 1.04769,-0.35756 0.1188,0.66883 -0.73482,0.81198 -1.06146,2.62982 -1.26523,7.04138 -0.18591,4.02474 -0.12647,4.98189 0.18388,2.96142 l 0.45855,-2.98538 0.0774,2.68684 c 0.59731,20.70867 0.77931,33.89081 0.72955,52.84145 -0.0328,12.47894 0.2538,27.25663 0.63683,32.83931 0.53231,7.75808 0.53113,11.38419 -0.007,15.38561 -0.7344,5.48105 -0.4324,11.37447 1.46055,28.49963 0.49004,4.43336 0.89053,10.07569 0.88999,12.53871 -5.4e-4,2.46283 0.22469,4.83405 0.50053,5.26915 0.3644,0.57472 3.29355,-1.98315 10.71395,-9.35603 l 10.21244,-10.14699 -0.86656,-11.84028 c -0.47661,-6.51221 -0.8687,-17.23089 -0.87132,-23.81932 -0.007,-11.55573 -0.91945,-24.41291 -2.71646,-38.17564 -0.47168,-3.61232 -1.1445,-10.86683 -1.49517,-16.12112 -0.35069,-5.25428 -1.03304,-14.38958 -1.51636,-20.30065 -3.27376,-40.03946 -3.24804,-39.6011 -2.3373,-39.84461 0.3284,-0.0878 0.80764,1.18377 1.06495,2.82573 0.25735,1.64197 0.72755,4.47936 1.04491,6.30527 0.31734,1.82592 0.57701,5.60536 0.57701,8.39872 0,2.79335 0.25642,6.53876 0.56986,8.32314 0.31341,1.78438 0.99891,10.09581 1.52329,18.46982 1.22973,19.63787 2.47805,32.91251 4.48007,47.6414 0.32543,2.39427 0.59278,9.24574 0.59411,15.22549 0.004,10.35088 1.35573,35.94897 2.17998,41.23033 0.21297,1.36467 0.63035,2.6409 0.92749,2.83602 0.29714,0.19512 4.89116,0.26867 10.20895,0.16362 5.31778,-0.10506 10.35802,-0.0524 11.20055,0.11642 l 1.53179,0.3073 0.69791,10.2765 c 0.38384,5.65191 0.76926,14.31519 0.85648,19.25168 l 0.1586,8.97518 -3.28393,3.84429 c -1.80617,2.11438 -6.69062,7.35672 -10.85436,11.64992 -4.31243,4.44635 -7.74498,8.50092 -7.97601,9.42147 -0.40142,1.5995 -1.76939,2.21157 -2.18121,0.97596 -0.26654,-0.79953 -9.59563,-0.78202 -16.59623,0.0316 -2.85988,0.3322 -10.33723,0.42724 -17.16601,0.21813 l -12.09926,-0.37039 0,1.8106 c 0,1.15222 -0.53898,2.32154 -1.48237,3.21656 -0.81531,0.77326 -1.48704,1.97918 -1.4927,2.67978 -0.009,0.76632 -0.48615,1.39834 -1.20447,1.58598 -0.78036,0.20416 -1.19417,0.81453 -1.19417,1.7614 0,2.2115 -1.64265,1.80177 -1.90856,-0.47576 z m 3.58448,-7.1466 c -0.18383,-0.18375 -0.51771,0.14765 -0.74192,0.73638 -0.32404,0.85098 -0.25545,0.91965 0.33425,0.33429 0.40805,-0.40495 0.59149,-0.88674 0.40767,-1.07067 z m 14.59448,-4.2607 c -0.41051,-0.16552 -1.08221,-0.16552 -1.4927,0 -0.41049,0.1657 -0.0748,0.30125 0.74634,0.30125 0.82098,0 1.15684,-0.13555 0.74636,-0.30125 z m 7.46347,-0.0163 c -0.5747,-0.15027 -1.5151,-0.15027 -2.08977,0 -0.57469,0.15018 -0.1045,0.27292 1.04489,0.27292 1.14936,0 1.61957,-0.12274 1.04488,-0.27292 z m 4.47809,0.0163 c -0.41051,-0.16552 -1.08222,-0.16552 -1.4927,0 -0.4105,0.1657 -0.0747,0.30125 0.74637,0.30125 0.82096,0 1.15682,-0.13555 0.74633,-0.30125 z m 2.67441,0.0352 c -0.19841,-0.19855 -0.7134,-0.21966 -1.14441,-0.0469 -0.4763,0.19061 -0.33483,0.33221 0.36074,0.36064 0.62942,0.0244 0.98208,-0.11498 0.78367,-0.31344 z m -37.6035,-1.24508 c -0.57469,-0.15018 -1.5151,-0.15018 -2.08979,0 -0.57468,0.15017 -0.10448,0.27309 1.0449,0.27309 1.14937,0 1.61956,-0.12292 1.04489,-0.27309 z m 53.44672,-0.01 c -0.73437,-0.1417 -2.07781,-0.1454 -2.98539,-0.01 -0.90758,0.13736 -0.30675,0.25306 1.33522,0.25765 1.64196,0.009 2.38453,-0.10784 1.65017,-0.24953 z m -69.26929,-0.59818 c -0.7389,-0.14233 -1.94798,-0.14233 -2.68687,0 -0.73887,0.14241 -0.13435,0.25884 1.34343,0.25884 1.47777,0 2.08232,-0.11643 1.34344,-0.25884 z m 8.35908,-0.01 c -1.06727,-0.13249 -2.81373,-0.13249 -3.881,0 -1.06727,0.13249 -0.19407,0.24087 1.9405,0.24087 2.13456,0 3.00778,-0.10838 1.9405,-0.24087 z m -22.42447,-5.37827 c -0.15138,-0.58094 -0.2852,-0.25026 -0.29737,0.73499 -0.0122,0.98517 0.11169,1.46061 0.27525,1.05629 0.16355,-0.40423 0.1735,-1.21026 0.0221,-1.79128 z m 96.90634,-5.23585 c 2.21512,-2.62718 6.01328,-6.72084 8.44034,-9.09702 l 4.41286,-4.32037 -0.12727,-10.60662 c -0.0699,-5.83376 -0.40643,-13.0247 -0.74762,-15.9803 -0.34119,-2.95551 -0.62256,-5.72735 -0.62525,-6.15965 -0.009,-0.98238 -8.12402,6.2083 -15.04284,13.32459 -5.85659,6.02393 -5.72566,5.62466 -4.70614,14.3456 0.48194,4.12272 1.17944,17.90181 1.22099,24.12076 l 0.0137,2.04462 1.56689,-1.44753 c 0.86178,-0.79609 3.37925,-3.597 5.59437,-6.22408 z m -3.57881,-3.80504 c 0,-1.17315 4.18453,-5.37826 6.63098,-6.6636 l 1.42959,-0.75116 -1.19417,1.36783 -1.19414,1.36811 1.49269,-0.76659 c 0.82283,-0.42237 -0.18046,0.8784 -2.23572,2.89865 -3.92773,3.8609 -4.92923,4.37829 -4.92923,2.54676 z m 2.68686,-1.86718 c 0.59439,-0.65684 0.94635,-1.19418 0.78216,-1.19418 -0.16419,0 -0.78485,0.53734 -1.37924,1.19418 -0.59438,0.65675 -0.94636,1.1941 -0.78216,1.1941 0.1642,0 0.78485,-0.53735 1.37924,-1.1941 z m -4.65681,-16.09843 c 0.41294,-1.57911 5.83712,-6.58979 7.13367,-6.58979 0.92748,0 0.9146,0.0935 -0.1237,0.89709 -1.14114,0.88336 -1.1406,0.89086 0.0352,0.48789 0.65678,-0.22527 -0.41127,1.11747 -2.37348,2.98394 -3.71324,3.53166 -5.19915,4.23804 -4.67164,2.22087 z m 4.05973,-3.00723 c 0.59439,-0.65683 0.94636,-1.19409 0.78217,-1.19409 -0.1642,0 -0.78486,0.53726 -1.37925,1.19409 -0.59438,0.65676 -0.94636,1.19419 -0.78216,1.19419 0.16421,0 0.78486,-0.53743 1.37924,-1.19419 z m -6.8664,-1.41683 c 0,-0.90701 7.46328,-8.20219 10.74741,-10.50528 1.14938,-0.80602 1.75624,-1.04825 1.3486,-0.53825 -0.40762,0.50992 -0.57262,1.09582 -0.36662,1.30177 0.47555,0.47562 -9.97967,10.50753 -10.98304,10.53849 -0.41049,0.0117 -0.74635,-0.34575 -0.74635,-0.79673 z m 10.74741,-9.24972 c 0.49259,-0.48554 -0.17912,-0.0514 -1.49269,0.96396 -1.31357,1.01559 -3.86609,3.40667 -5.67225,5.3132 -2.7799,2.93438 -2.55078,2.78637 1.49269,-0.96405 2.62714,-2.43675 5.17967,-4.82766 5.67225,-5.31311 z m -10.9222,33.81018 c -0.14281,-0.74258 -0.26509,-0.27544 -0.27171,1.03805 -0.009,1.31359 0.11021,1.92125 0.25966,1.35041 0.14944,-0.57092 0.15486,-1.6457 0.0121,-2.38846 z m 10.40129,2.08305 c 0.74268,-0.94708 0.72155,-0.96828 -0.22543,-0.22562 -0.99459,0.78004 -1.31088,1.27027 -0.81946,1.27027 0.12398,0 0.59418,-0.47011 1.04489,-1.04465 z m -99.38038,-1.45555 c -0.1906,-0.47616 -0.3321,-0.33482 -0.36074,0.36082 -0.0259,0.62932 0.11519,0.98192 0.31361,0.78365 0.19839,-0.19837 0.2196,-0.71334 0.0471,-1.14447 z m 103.7981,-3.35513 c -0.18385,-0.18384 -0.66562,-5.4e-4 -1.07064,0.40766 -0.5853,0.5897 -0.51673,0.65829 0.33424,0.33419 0.58886,-0.22418 0.92022,-0.55801 0.7364,-0.74185 z M 118.2545,959.56578 c -0.1906,-0.47624 -0.33208,-0.33491 -0.36072,0.36074 -0.0259,0.62948 0.11518,0.982 0.31359,0.78363 0.1984,-0.19837 0.21961,-0.71333 0.0471,-1.14437 z m 89.54932,-1.23155 c -0.16563,-0.41036 -0.30115,-0.074 -0.30115,0.74637 0,0.82101 0.13552,1.15692 0.30115,0.74646 0.16564,-0.41064 0.16564,-1.08228 0,-1.49283 z m -90.15884,-7.16477 c -0.16563,-0.41063 -0.30115,-0.0749 -0.30115,0.74619 0,0.82109 0.13552,1.15682 0.30115,0.74646 0.16564,-0.41055 0.16564,-1.08219 0,-1.49265 z M 230.52503,938.3314 c -0.1368,-0.90313 -0.24874,-0.16416 -0.24874,1.64201 0,1.80626 0.11194,2.54496 0.24874,1.64201 0.13681,-0.90313 0.13681,-2.38098 0,-3.28402 z m -111.04887,1.87828 c -0.1984,-0.19837 -0.71338,-0.21957 -1.14441,-0.0469 -0.4763,0.19043 -0.33482,0.33212 0.36075,0.36056 0.62941,0.0253 0.98206,-0.11516 0.78366,-0.31363 z m 5.38614,-0.0505 c -0.57469,-0.15026 -1.51509,-0.15026 -2.08977,0 -0.57468,0.15009 -0.10449,0.27283 1.04489,0.27283 1.14936,0 1.61957,-0.12274 1.04488,-0.27283 z m 8.06056,-0.58111 c -0.41048,-0.16552 -1.08221,-0.16552 -1.4927,0 -0.41049,0.1657 -0.0748,0.30116 0.74635,0.30116 0.82098,0 1.15684,-0.13546 0.74635,-0.30116 z m 5.55269,-1.3598 c 11.6861,-0.61577 11.61461,-0.57155 11.60907,-7.19527 -0.004,-2.79441 -0.17525,-6.89149 -0.38426,-9.10442 l -0.38,-4.02362 -2.45189,0.38375 c -2.64477,0.41388 -4.35467,1.51502 -8.28875,5.33756 -1.38721,1.34788 -3.61491,3.00749 -4.95046,3.68816 -1.33554,0.68048 -2.77355,1.65346 -3.1956,2.16193 -0.42204,0.50847 -3.15809,2.70462 -6.0801,4.88028 -2.92203,2.17574 -5.31277,4.23425 -5.31277,4.57495 0,0.41271 1.7425,0.47769 5.22443,0.19466 2.87344,-0.23347 9.26808,-0.63752 14.21033,-0.89798 z m 1.32068,0.74799 c -0.57086,-0.14946 -1.64561,-0.15487 -2.38831,-0.0108 -0.74272,0.14269 -0.27566,0.26507 1.03791,0.27165 1.31358,0.01 1.92125,-0.11019 1.3504,-0.25974 z m 5.95138,0.0496 c -0.19841,-0.19828 -0.7134,-0.21967 -1.14441,-0.0469 -0.4763,0.19052 -0.33483,0.33194 0.36075,0.36055 0.62941,0.0253 0.98206,-0.11498 0.78366,-0.31362 z m 45.98747,-3.05226 c -0.90308,-0.13682 -2.38085,-0.13682 -3.28393,0 -0.90307,0.13682 -0.16419,0.24873 1.64198,0.24873 1.80615,0 2.54504,-0.11191 1.64195,-0.24873 z m 6.87777,0.0361 c -0.40425,-0.16353 -1.2103,-0.17354 -1.79124,-0.0225 -0.58094,0.15153 -0.25019,0.28519 0.735,0.29756 0.98517,0.0108 1.46046,-0.11173 1.05624,-0.27526 z m 3.8572,0.0315 c -0.19839,-0.19837 -0.71338,-0.21948 -1.1444,-0.0469 -0.47632,0.19061 -0.33482,0.33212 0.36075,0.36092 0.6294,0.0244 0.98205,-0.11534 0.78365,-0.31371 z m 10.61058,-7.36268 c 3.61233,-3.50306 7.93448,-7.60131 9.60477,-9.10712 l 3.0369,-2.73792 -3.93251,-0.34945 c -2.16289,-0.19223 -5.00726,-0.22968 -6.32084,-0.083 -1.31355,0.14656 -4.77618,0.3888 -7.69468,0.53825 l -5.30636,0.27175 -6.6352,6.58256 c -3.64938,3.62038 -7.6157,7.52207 -8.81408,8.67041 -1.21854,1.16756 -1.87643,2.19605 -1.49269,2.33305 0.37739,0.13519 5.25382,0.24692 10.83651,0.24846 l 10.15032,0 6.56786,-6.3693 z m -31.51604,-1.68045 c -0.1368,-0.90314 -0.24873,-0.16408 -0.24873,1.64201 0,1.80617 0.11193,2.54495 0.24873,1.64191 0.13681,-0.90304 0.13681,-2.38088 0,-3.28392 z m -53.26908,2.8361 c 0.59438,-0.65674 0.94635,-1.19409 0.78215,-1.19409 -0.1642,0 -0.78485,0.53735 -1.37924,1.19409 -0.59437,0.65675 -0.94635,1.19419 -0.78215,1.19419 0.16419,0 0.78485,-0.53744 1.37924,-1.19419 z m 85.75691,-0.44782 c 0.74269,-0.94699 0.72156,-0.96811 -0.22542,-0.22535 -0.99461,0.77985 -1.31089,1.27018 -0.81946,1.27018 0.12398,0 0.59417,-0.47012 1.04488,-1.04483 z m 15.84332,-1.49264 c -0.16566,-0.41055 -0.30118,-0.0749 -0.30118,0.74637 0,0.821 0.13552,1.15673 0.30118,0.74627 0.16563,-0.41046 0.16563,-1.0821 0,-1.49264 z m -39.12937,-0.29855 c 0.74267,-0.947 0.72156,-0.96811 -0.22543,-0.22536 -0.9946,0.77994 -1.31089,1.27028 -0.81946,1.27028 0.12399,0 0.59417,-0.4703 1.04489,-1.04492 z m 25.89673,-0.74637 c 0.59439,-0.65675 0.94636,-1.19418 0.78216,-1.19418 -0.16419,0 -0.78484,0.53743 -1.37923,1.19418 -0.59439,0.65675 -0.94637,1.1941 -0.78216,1.1941 0.16419,0 0.78484,-0.53735 1.37923,-1.1941 z m -35.72781,-7.91122 c -0.16563,-0.41055 -0.30116,-0.0749 -0.30116,0.74628 0,0.821 0.13553,1.15682 0.30116,0.74645 0.16565,-0.41054 0.16565,-1.08228 0,-1.49273 z m 45.28107,-0.44791 c 0.59438,-0.65684 0.94636,-1.1941 0.78217,-1.1941 -0.16421,0 -0.78484,0.53726 -1.37925,1.1941 -0.59438,0.65684 -0.94635,1.19419 -0.78216,1.19419 0.1642,0 0.78485,-0.53735 1.37924,-1.19419 z m -83.21627,-0.44774 c 0.74268,-0.94698 0.72156,-0.9681 -0.22543,-0.22544 -0.5747,0.45062 -1.04489,0.92101 -1.04489,1.04483 0,0.49141 0.4903,0.17508 1.27032,-0.81939 z m 5.74535,-1.1579 c -0.57469,-0.15026 -1.51509,-0.15026 -2.08978,0 -0.57469,0.14991 -0.10449,0.27301 1.04489,0.27301 1.14938,0 1.61958,-0.1231 1.04489,-0.27301 z m 68.07763,-1.80645 c -0.8972,-0.13609 -2.50932,-0.1388 -3.58247,-0.01 -1.07317,0.13303 -0.33908,0.2444 1.63127,0.24783 1.97037,0.01 2.8484,-0.10541 1.9512,-0.2416 z m 5.35056,0.0658 c -0.1984,-0.19846 -0.71338,-0.21958 -1.14441,-0.0469 -0.47629,0.19052 -0.33479,0.33212 0.36077,0.36064 0.62941,0.0253 0.98205,-0.11507 0.78364,-0.31353 z m -71.6769,-3.93084 c -0.1906,-0.47625 -0.33209,-0.33492 -0.36072,0.36082 -0.0258,0.62949 0.11518,0.9821 0.31359,0.78355 0.19841,-0.19828 0.21962,-0.71333 0.0471,-1.14437 z m 54.33414,-1.79119 c -0.19061,-0.47622 -0.33208,-0.33483 -0.36073,0.36073 -0.0258,0.6294 0.11518,0.9821 0.31359,0.78364 0.19841,-0.19828 0.21961,-0.71342 0.047,-1.14437 z m -54.31434,-9.8891 c -0.13681,-0.90308 -0.24874,-0.16421 -0.24874,1.64198 0,1.80614 0.11193,2.54502 0.24874,1.64196 0.1368,-0.90309 0.1368,-2.38085 0,-3.28394 z m 53.72098,1.79124 c -0.1502,-0.57471 -0.27306,-0.10448 -0.27306,1.04492 0,1.14934 0.12286,1.6195 0.27306,1.04489 0.15017,-0.57477 0.15017,-1.51515 0,-2.08981 z m -25.08102,-2.05247 c -0.1906,-0.47631 -0.33209,-0.33484 -0.36073,0.36074 -0.0258,0.62941 0.1152,0.98208 0.31359,0.78366 0.19841,-0.19839 0.21963,-0.71339 0.0471,-1.1444 z m 24.48612,-6.29527 c -0.15138,-0.58095 -0.2852,-0.2502 -0.29737,0.73498 -0.0122,0.98517 0.11169,1.46048 0.27525,1.05624 0.16356,-0.40423 0.1735,-1.21029 0.0221,-1.79122 z m -53.72238,-7.76518 c -0.13723,-0.9076 -0.25318,-0.30674 -0.25767,1.33522 -0.006,1.64197 0.10779,2.38454 0.24952,1.65017 0.14173,-0.73439 0.14541,-2.0778 0.009,-2.98539 z m 53.14782,-8.08679 c -0.12521,-1.38577 -0.22617,-0.1014 -0.22435,2.85414 0.003,2.95556 0.10428,4.08933 0.22767,2.51956 0.12341,-1.56977 0.12192,-3.98795 -0.005,-5.3737 z m -53.7779,-4.16153 c -0.16564,-0.4105 -0.30117,-0.0748 -0.30117,0.74635 0,0.82098 0.13553,1.15683 0.30117,0.74635 0.16563,-0.4105 0.16563,-1.08221 0,-1.4927 z m 29.85391,0 c -0.16564,-0.4105 -0.30116,-0.0748 -0.30116,0.74635 0,0.82098 0.13552,1.15683 0.30116,0.74635 0.16565,-0.4105 0.16565,-1.08221 0,-1.4927 z m 23.92659,-6.86639 c -0.12302,-1.55988 -0.22364,-0.28364 -0.22364,2.8361 0,3.11975 0.10062,4.39599 0.22364,2.83614 0.123,-1.55987 0.123,-4.11239 0,-5.67224 z m -54.37758,1.49268 c -0.16565,-0.41049 -0.30118,-0.0748 -0.30118,0.74633 0,0.821 0.13553,1.15687 0.30118,0.74638 0.16563,-0.41049 0.16563,-1.08221 0,-1.49271 z m 29.86635,-1.75391 c -0.19061,-0.47632 -0.33208,-0.33484 -0.36074,0.36074 -0.0258,0.62941 0.1152,0.98206 0.3136,0.78365 0.19841,-0.19839 0.21963,-0.71338 0.0471,-1.14439 z m -30.451,-3.58248 c -0.19059,-0.4763 -0.33209,-0.33482 -0.36074,0.36076 -0.0258,0.62939 0.1152,0.98205 0.31361,0.78364 0.19841,-0.19838 0.21961,-0.71338 0.0471,-1.1444 z m 30.45691,-3.90695 c -0.1514,-0.58095 -0.28521,-0.2502 -0.29739,0.73498 -0.0123,0.98517 0.1117,1.46049 0.27526,1.05624 0.16355,-0.40422 0.17349,-1.21028 0.0221,-1.79122 z m -31.04808,-1.79124 c -0.15139,-0.58094 -0.28522,-0.25018 -0.29738,0.735 -0.0123,0.98516 0.1117,1.46045 0.27525,1.05624 0.16355,-0.40425 0.17349,-1.2103 0.0221,-1.79124 z m 54.91287,-0.90699 c -0.16565,-0.4105 -0.30115,-0.0747 -0.30115,0.74636 0,0.82097 0.1355,1.15683 0.30115,0.74634 0.16564,-0.41049 0.16564,-1.08221 0,-1.4927 z m -23.85628,-2.38164 c -0.14281,-0.7427 -0.2651,-0.27564 -0.27171,1.03793 -0.009,1.31356 0.11022,1.92125 0.25967,1.35039 0.14943,-0.57087 0.15486,-1.64561 0.0121,-2.38832 z m 23.28606,-2.9854 c -0.14282,-0.7427 -0.2651,-0.27563 -0.27172,1.03793 -0.01,1.31358 0.11023,1.92125 0.25967,1.35039 0.14945,-0.57086 0.15486,-1.6456 0.0121,-2.38832 z m -54.91632,-4.78358 c -0.1257,-1.39568 -0.22857,-0.25376 -0.22857,2.53758 0,2.79134 0.10287,3.93325 0.22857,2.53759 0.1257,-1.39568 0.1257,-3.67951 0,-5.07517 z m 31.64885,-2.36831 c -0.12099,-1.73506 -0.22127,-0.46782 -0.22282,2.81612 -0.003,3.28392 0.0975,4.70352 0.21999,3.15467 0.12256,-1.54885 0.12383,-4.2357 0.005,-5.97079 z m 22.64353,1.17414 c -0.16565,-0.41048 -0.30115,-0.0747 -0.30115,0.74637 0,0.82097 0.1355,1.15682 0.30115,0.74635 0.16565,-0.41051 0.16565,-1.08221 0,-1.49272 z m -0.59708,-5.37369 c -0.16564,-0.4105 -0.30116,-0.0747 -0.30116,0.74634 0,0.82098 0.13552,1.15685 0.30116,0.74635 0.16565,-0.41049 0.16565,-1.08221 0,-1.49269 z m -53.13997,-4.77712 c -0.16564,-0.4105 -0.30116,-0.0747 -0.30116,0.74635 0,0.82097 0.13552,1.15684 0.30116,0.74635 0.16563,-0.41049 0.16563,-1.08221 0,-1.4927 z m 52.55533,0.6344 c -0.1906,-0.47631 -0.33208,-0.33484 -0.36073,0.36073 -0.0258,0.62942 0.1152,0.98208 0.3136,0.78367 0.1984,-0.1984 0.21961,-0.71339 0.047,-1.1444 z m -72.19959,-2.68781 c -0.57086,-0.14943 -1.6456,-0.15485 -2.38831,-0.0121 -0.74272,0.14283 -0.27564,0.26509 1.03792,0.27171 1.31358,0.01 1.92125,-0.11022 1.35039,-0.25967 z m 4.47113,-0.58226 c -0.41049,-0.16563 -1.0822,-0.16563 -1.4927,0 -0.41049,0.16563 -0.0747,0.30116 0.74635,0.30116 0.82098,0 1.15684,-0.13553 0.74635,-0.30116 z m 67.1351,-2.4407 c -0.15018,-0.57469 -0.27306,-0.10448 -0.27306,1.0449 0,1.14937 0.12288,1.61958 0.27306,1.04488 0.15019,-0.57468 0.15019,-1.51508 0,-2.08978 z m -59.97016,1.81768 c -0.73889,-0.14232 -1.94797,-0.14232 -2.68683,0 -0.73891,0.14231 -0.13438,0.25876 1.34341,0.25876 1.47775,0 2.08231,-0.11645 1.34342,-0.25876 z m 5.07516,0.01 c -0.57468,-0.15019 -1.51508,-0.15019 -2.08977,0 -0.57468,0.15016 -0.10449,0.27303 1.04489,0.27303 1.14937,0 1.61956,-0.12287 1.04488,-0.27303 z m -23.33842,-5.1114 c -0.16564,-0.4105 -0.30116,-0.0747 -0.30116,0.74634 0,0.82099 0.13552,1.15684 0.30116,0.74635 0.16563,-0.41048 0.16563,-1.08221 0,-1.49269 z m 57.33196,0.0373 c -0.19061,-0.47631 -0.33208,-0.33483 -0.36074,0.36074 -0.0258,0.62941 0.1152,0.98206 0.3136,0.78366 0.19841,-0.19841 0.21963,-0.71338 0.0471,-1.1444 z m 20.31507,-4.80699 c -0.1428,-0.74271 -0.26508,-0.27564 -0.2717,1.03793 -0.01,1.31359 0.11024,1.92125 0.25967,1.35039 0.14944,-0.57086 0.15487,-1.6456 0.0121,-2.38832 z m -77.6287,-2.68254 c -0.15138,-0.58092 -0.2852,-0.2502 -0.29736,0.73498 -0.0122,0.98519 0.11169,1.46051 0.27525,1.05626 0.16355,-0.40424 0.17351,-1.2103 0.0221,-1.79124 z m 57.32805,-6.27371 c -0.14281,-0.74273 -0.2651,-0.27567 -0.27171,1.03791 -0.009,1.31358 0.11022,1.92127 0.25967,1.3504 0.14943,-0.57086 0.15486,-1.6456 0.0121,-2.38831 z m -57.90093,-4.17074 c -0.12614,-1.40436 -0.23111,-0.40389 -0.23328,2.22326 -0.003,2.62714 0.10104,3.77616 0.22932,2.55336 0.12831,-1.22278 0.13008,-3.37225 0.005,-4.77662 z m 77.61067,2.67928 c -0.13724,-0.90758 -0.25318,-0.30674 -0.25766,1.33522 -0.006,1.64196 0.10779,2.38453 0.24952,1.65018 0.14172,-0.73438 0.1454,-2.0778 0.01,-2.9854 z m -20.28787,-12.54685 c -0.1185,-1.88827 -0.21545,-0.34333 -0.21545,3.4332 0,3.77652 0.0969,5.32146 0.21545,3.4332 0.11848,-1.88827 0.11848,-4.97813 0,-6.8664 z m 19.6908,5.38191 c -0.13724,-0.90759 -0.2532,-0.30673 -0.25767,1.33521 -0.006,1.64198 0.10779,2.38455 0.24952,1.65019 0.14173,-0.73439 0.1454,-2.07781 0.01,-2.9854 z m -71.76084,-3.8402 c 0.99534,-1.09424 2.20441,-2.54167 2.68685,-3.21651 0.48242,-0.67486 0.1333,-0.40616 -0.77585,0.59707 -0.90914,1.00325 -2.65561,2.71144 -3.88102,3.796 -1.2254,1.08456 -1.69063,1.71116 -1.03386,1.39244 0.65679,-0.31872 2.00853,-1.47477 3.00388,-2.569 z m 71.13075,-4.22807 c -0.16564,-0.41049 -0.30117,-0.0747 -0.30117,0.74635 0,0.821 0.13553,1.15683 0.30117,0.74635 0.16563,-0.4105 0.16563,-1.08221 0,-1.4927 z m -19.0743,-5.67229 c -0.1368,-0.90308 -0.24873,-0.16418 -0.24873,1.64197 0,1.80617 0.11193,2.54506 0.24873,1.64197 0.13681,-0.90308 0.13681,-2.38085 0,-3.28394 z m 17.91663,-8.06055 c -0.13244,-1.06728 -0.24081,-0.19405 -0.24081,1.94051 0,2.13455 0.10837,3.00777 0.24081,1.9405 0.13244,-1.06728 0.13244,-2.81375 0,-3.88101 z m -18.52759,-3.86965 c -0.15138,-0.58094 -0.28521,-0.25021 -0.29737,0.73498 -0.0123,0.98519 0.11169,1.4605 0.27525,1.05626 0.16354,-0.40424 0.17349,-1.21031 0.0221,-1.79124 z m -25.93066,-0.58093 c -0.73438,-0.14172 -2.0778,-0.14539 -2.9854,-0.01 -0.90758,0.13724 -0.30674,0.25318 1.33522,0.25768 1.64196,0.007 2.38456,-0.10781 1.65018,-0.24953 z m -9.91522,-0.5803 c -0.22194,-0.22192 0.20347,-1.09516 0.94537,-1.9405 l 1.34889,-1.537 -1.62357,1.43022 c -1.41946,1.25042 -1.72802,2.4508 -0.62999,2.4508 0.19955,0 0.18123,-0.18158 -0.0407,-0.40352 z m 14.38511,-0.01 c -0.57469,-0.15017 -1.51511,-0.15017 -2.0898,0 -0.57467,0.15019 -0.10447,0.27308 1.04491,0.27308 1.14936,0 1.61957,-0.12289 1.04489,-0.27308 z m 10.46687,-0.62179 c -1.38575,-0.12521 -3.80392,-0.12671 -5.3737,-0.005 -1.56978,0.1234 -0.43596,0.22585 2.51957,0.22768 2.95554,0.003 4.2399,-0.0991 2.85413,-0.22436 z m 6.83596,0.0756 c -0.19842,-0.1984 -0.71341,-0.2196 -1.14441,-0.0471 -0.4763,0.1906 -0.33483,0.33209 0.36075,0.36073 0.62941,0.0258 0.98205,-0.11519 0.78366,-0.31359 z m 2.38831,-0.59707 c -0.19841,-0.1984 -0.71339,-0.21962 -1.1444,-0.0471 -0.4763,0.19061 -0.33484,0.33208 0.36074,0.36073 0.62941,0.0258 0.98205,-0.1152 0.78366,-0.31359 z m 19.67609,-2.73661 c -0.1906,-0.47632 -0.3321,-0.33483 -0.36075,0.36074 -0.0258,0.6294 0.11521,0.98206 0.31361,0.78366 0.19841,-0.19841 0.21961,-0.71339 0.0472,-1.1444 z m -45.13781,-3.05002 c 1.06886,-0.79493 0.82405,-0.74863 -0.94656,0.17898 -1.31359,0.68816 -3.06002,1.79774 -3.88101,2.46574 -1.23239,1.00273 -1.06734,0.97152 0.94656,-0.17899 1.34158,-0.76645 3.08804,-1.87602 3.88101,-2.46573 z m 44.55514,-1.75696 c -0.14281,-0.74273 -0.26509,-0.27565 -0.27171,1.03792 -0.01,1.31358 0.11023,1.92125 0.25966,1.35039 0.14945,-0.57086 0.15487,-1.64561 0.0121,-2.38831 z m -40.76645,-0.99371 c -0.15709,-0.15707 -0.74942,0.19862 -1.31626,0.79047 -0.98476,1.02813 -0.97204,1.04087 0.2856,0.28559 0.72394,-0.43475 1.18775,-0.91897 1.03066,-1.07606 z m -51.88072,214.25528 c 0.18991,-0.30721 0.7166,-0.55865 1.17043,-0.55865 0.45383,0 0.9893,-0.26561 1.18994,-0.59023 0.20918,-0.33853 -0.0305,-0.43853 -0.56185,-0.23465 -0.50964,0.19566 -0.92662,0.22336 -0.92662,0.0614 0,-0.43618 2.50347,-1.99228 3.93076,-2.44353 1.72421,-0.54501 1.66724,1.24086 -0.076,2.38315 -1.7018,1.11494 -5.19241,2.13567 -4.72665,1.382 z m -1.18347,-12.55594 c 0.18403,-0.29764 0.0342,-0.54132 -0.33295,-0.54132 -0.36716,0 -0.5015,-0.26868 -0.29854,-0.59709 0.20296,-0.32833 0.9577,-0.56605 1.67721,-0.52779 1.21805,0.0641 1.22591,0.0905 0.11402,0.37914 -1.17182,0.30378 -1.17242,0.31732 -0.032,0.72579 1.10437,0.39575 1.09691,0.43348 -0.15009,0.75954 -0.72175,0.18872 -1.16171,0.0995 -0.97767,-0.19827 z m 5.48856,-0.93689 c 0.41049,-0.1656 1.08221,-0.1656 1.4927,0 0.41049,0.16579 0.0747,0.30125 -0.74635,0.30125 -0.82098,0 -1.15683,-0.13546 -0.74635,-0.30125 z m 2.43586,-0.62254 c -0.45791,-0.55188 -0.37887,-0.85539 0.2896,-1.11179 1.57218,-0.60333 3.67146,-0.01 3.8826,1.09798 0.16252,0.85259 -0.16157,1.0303 -1.67035,0.91532 -1.0296,-0.0785 -2.15542,-0.4842 -2.50185,-0.90151 z m 3.38566,-0.17617 c -0.20296,-0.32824 -0.9577,-0.57814 -1.67721,-0.55504 -1.26124,0.0406 -1.26533,0.0596 -0.11403,0.55504 1.64345,0.70629 2.2277,0.70629 1.79124,0 z M 262.77746,956.0187 c 0.40502,-0.40793 0.8868,-0.5916 1.07064,-0.40767 0.18382,0.18393 -0.14754,0.51768 -0.73639,0.74186 -0.85097,0.32399 -0.91954,0.2555 -0.33425,-0.33419 z m -17.33885,-0.90467 c -0.44602,-0.4462 0.0431,-1.40952 0.7156,-1.40952 0.25427,0 0.46233,0.40305 0.46233,0.89554 0,0.93599 -0.52629,1.16558 -1.17793,0.51398 z M 79.036541,950.48659 c 0,-0.12906 0.416984,-0.39457 0.926629,-0.59024 0.531356,-0.20387 0.771021,-0.10378 0.561842,0.23465 -0.350641,0.56741 -1.488471,0.83924 -1.488471,0.35559 z m 4.540799,-1.06098 c 0.298422,-0.48274 0.07886,-0.57462 -0.71111,-0.2971 -1.107973,0.38915 -1.107481,0.37417 0.01617,-0.49566 1.317207,-1.01946 2.378856,-1.194 1.826386,-0.29999 -0.202957,0.32843 -0.0173,0.60125 0.41257,0.60622 0.567937,0.01 0.536764,0.16732 -0.114031,0.58797 -1.228347,0.79375 -1.951586,0.74258 -1.429987,-0.10144 z m 196.97317,-15.11913 c -2.62715,-0.36958 -6.65743,-1.26223 -8.9562,-1.98379 -2.29874,-0.72146 -5.52296,-1.69462 -7.16494,-2.16247 -2.58364,-0.73618 -2.74433,-0.86433 -1.19414,-0.95178 1.76699,-0.0997 1.77102,-0.10749 0.29852,-0.57914 l -1.49268,-0.47796 1.56497,-0.0596 c 0.86074,-0.0333 4.62232,0.88238 8.35909,2.03352 3.73678,1.15114 8.60775,2.26446 10.82441,2.47402 2.62183,0.24801 4.03028,0.64186 4.03028,1.12705 0,1.18787 -1.1763,1.29653 -6.26931,0.58021 z m 5.62248,-0.52426 c -0.13683,-0.12148 -2.26393,-0.36596 -4.72686,-0.54367 -2.76677,-0.19945 -3.67949,-0.14503 -2.38832,0.14223 2.17447,0.48384 7.54976,0.78708 7.11518,0.40144 z m -11.45644,-1.93126 c -0.1984,-0.19828 -0.7134,-0.21958 -1.14441,-0.0469 -0.47631,0.19061 -0.33483,0.33212 0.36074,0.36073 0.62941,0.0253 0.98207,-0.11498 0.78367,-0.31362 z m -3.71931,-1.15339 c -0.98518,-0.45107 -2.19426,-0.81189 -2.68685,-0.8017 -0.49258,0.01 0.0448,0.38059 1.19416,0.82308 2.72606,1.04997 3.79864,1.03445 1.49269,-0.0225 z m -4.04272,-1.2349 c -0.1984,-0.19827 -0.71339,-0.21957 -1.1444,-0.0469 -0.47631,0.19052 -0.33482,0.33212 0.36074,0.36064 0.62942,0.0262 0.98206,-0.11506 0.78366,-0.31353 z m 21.50727,5.33901 c 0.41049,-0.1656 1.08219,-0.1656 1.4927,0 0.41048,0.1657 0.0747,0.30125 -0.74637,0.30125 -0.82098,0 -1.15682,-0.13555 -0.74633,-0.30125 z m 5.08653,-0.0199 c 0.58093,-0.15134 1.38699,-0.14141 1.79123,0.0225 0.40422,0.16345 -0.0711,0.28736 -1.05625,0.27518 -0.98517,-0.0108 -1.31593,-0.14594 -0.73498,-0.29738 z m -34.30607,-5.9648 c 0.43102,-0.17246 0.946,-0.15126 1.1444,0.0469 0.19841,0.19829 -0.15423,0.33952 -0.78365,0.31363 -0.69556,-0.0279 -0.83705,-0.17022 -0.36075,-0.36074 z m 12.3652,-0.16786 c -0.49744,-0.80503 4.86667,-3.4119 11.89648,-5.7816 6.14021,-2.0697 8.52994,-2.53665 5.40565,-1.05601 l -1.79122,0.84889 2.38831,-0.30107 2.38832,-0.30117 -2.68687,0.95097 c -1.47777,0.52299 -5.78583,2.13549 -9.57348,3.58328 -7.56838,2.89296 -7.5182,2.88006 -8.02719,2.05671 z m 3.27081,-0.91703 c 0.95677,-0.54701 1.15851,-0.86098 0.56192,-0.87452 -0.51193,-0.0108 -1.45233,0.37336 -2.08978,0.85539 -1.48426,1.12289 -0.42581,1.13597 1.52786,0.0199 z m 3.29973,-1.9744 c -0.18384,-0.18384 -0.66563,-4.5e-4 -1.07065,0.40757 -0.58529,0.58969 -0.51671,0.65819 0.33425,0.33438 0.58885,-0.22436 0.92022,-0.5582 0.7364,-0.74195 z m 7.14913,-2.23026 c 0.98518,-0.42526 1.38821,-0.77507 0.89563,-0.7775 -0.4926,0 -1.97037,0.51234 -3.28393,1.14409 -2.5491,1.22588 -0.61267,0.9285 2.3883,-0.36659 z m -31.45857,4.69237 c 0.43101,-0.17247 0.946,-0.15126 1.14441,0.0469 0.1984,0.19855 -0.15424,0.3397 -0.78366,0.31371 -0.69558,-0.0279 -0.83705,-0.17012 -0.36075,-0.36073 z m -3.7339,-1.10385 c -0.63746,-0.48202 -0.82311,-0.87641 -0.41258,-0.87641 0.41055,0 0.58039,-0.26886 0.37742,-0.59719 -0.63044,-1.02001 1.29987,-0.6544 2.16594,0.41037 0.72695,0.89365 0.68465,0.9608 -0.3747,0.59547 -1.17572,-0.4054 -1.17628,-0.398 -0.0351,0.48536 0.82145,0.6359 0.9084,0.89158 0.29853,0.87804 -0.47326,-0.01 -1.38204,-0.41343 -2.01949,-0.89564 z m 9.07031,0.5193 c 0.41047,-0.16579 1.08218,-0.16579 1.49268,0 0.4105,0.16552 0.0747,0.30107 -0.74634,0.30107 -0.82099,0 -1.15685,-0.13555 -0.74634,-0.30107 z m -5.37372,-0.5971 c 0.41049,-0.16569 1.0822,-0.16569 1.4927,0 0.41049,0.16562 0.0747,0.30117 -0.74636,0.30117 -0.82099,0 -1.15683,-0.13555 -0.74634,-0.30117 z M 61.422729,925.09683 c 2.31632,-0.36543 2.272111,-0.38988 -1.466558,-0.8146 -2.120179,-0.2407 -4.065631,-0.64853 -4.323225,-0.90602 -0.257595,-0.25766 2.283151,-0.0604 5.646106,0.43681 4.747514,0.70278 5.714013,0.99285 4.323226,1.29689 -0.98518,0.21561 -2.865977,0.38565 -4.179549,0.37788 l -2.388315,-0.0135 2.388315,-0.37679 z m 123.572471,-0.0135 c 0.40028,-0.64773 0.25885,-0.73888 -0.62566,-0.40306 -0.66337,0.25189 -0.0156,-0.76333 1.54404,-2.42005 3.18983,-3.38807 3.68595,-3.78816 4.25904,-3.43392 0.23929,0.14801 0.62949,-0.0461 0.86711,-0.43023 0.26983,-0.43653 0.17323,-0.53915 -0.25728,-0.273 -0.37914,0.23438 -0.68932,0.1703 -0.68932,-0.14233 0,-0.31262 0.41696,-0.72858 0.92661,-0.92406 0.60542,-0.23231 0.77844,-0.1158 0.49914,0.33609 -0.28922,0.46794 -0.0916,0.56288 0.61108,0.29322 1.23685,-0.47462 -3.36828,4.88721 -5.88929,6.85683 -0.96945,0.75765 -1.52993,1.00069 -1.24547,0.54051 z m 3.38285,-3.47003 c 0.74269,-0.94708 0.72156,-0.9682 -0.22543,-0.22553 -0.57469,0.4508 -1.04489,0.921 -1.04489,1.04492 0,0.49132 0.49031,0.17517 1.27032,-0.81939 z m -133.821724,2.82767 c -0.63011,-0.41298 -0.276103,-0.47336 1.194158,-0.2036 2.575071,0.47254 3.060799,0.81207 1.1444,0.79989 -0.793616,-0.01 -1.845966,-0.27338 -2.338558,-0.59629 z m 14.777691,-0.38699 c 0.410491,-0.16588 1.082205,-0.16588 1.492697,0 0.41049,0.16561 0.07463,0.30117 -0.746349,0.30117 -0.820983,0 -1.156838,-0.13556 -0.746348,-0.30117 z m 7.799337,-0.60955 c 0.431017,-0.17256 0.945996,-0.15126 1.1444,0.0469 0.198404,0.19846 -0.154247,0.33961 -0.783664,0.31371 -0.695563,-0.0279 -0.837045,-0.17003 -0.360736,-0.36073 z m -8.247146,-0.41812 c 0,-0.12599 0.663583,-0.35586 1.474628,-0.51091 0.811045,-0.15514 1.332558,-0.0523 1.158918,0.22896 -0.305751,0.49484 -2.633546,0.74393 -2.633546,0.28195 z m 5.858832,-0.77607 c 0.431016,-0.17246 0.945996,-0.15126 1.144402,0.0469 0.198403,0.19837 -0.154247,0.33962 -0.783666,0.31362 -0.695562,-0.0279 -0.837044,-0.17012 -0.360736,-0.36073 z m 108.18315,-1.31494 c 0,-0.67552 7.34896,-7.56737 9.02679,-8.46536 0.88985,-0.47625 1.1467,-0.48275 0.86181,-0.0225 -0.22321,0.36118 -0.0541,0.6645 0.37574,0.67417 0.42988,0.01 -0.15881,0.85385 -1.30817,1.8762 -1.14938,1.02199 -3.21593,2.89504 -4.5923,4.16188 -2.34384,2.15742 -4.36387,2.97906 -4.36387,1.77486 z m 5.3737,-3.94943 c 1.11401,-1.14934 1.89112,-2.08974 1.72693,-2.08974 -0.16419,0 -1.20999,0.9404 -2.32401,2.08974 -1.11403,1.14933 -1.89114,2.08992 -1.72696,2.08992 0.1642,0 1.21002,-0.94059 2.32404,-2.08992 z m 3.65863,-3.13465 c 0.74268,-0.94699 0.72156,-0.96811 -0.22544,-0.22535 -0.99459,0.77984 -1.31088,1.27026 -0.81945,1.27026 0.12398,0 0.59418,-0.47029 1.04489,-1.04491 z m 106.20379,6.41858 1.49269,-0.47805 -1.49269,-0.10154 c -1.37869,-0.0938 -1.40148,-0.14061 -0.29854,-0.61442 1.64343,-0.70638 2.2277,-0.70638 1.79123,0 -0.20296,0.32824 0.11705,0.61578 0.71111,0.63879 0.96415,0.0379 0.9519,0.0971 -0.11402,0.55522 -0.6568,0.28221 -1.73153,0.50531 -2.38832,0.49547 -0.95996,-0.0136 -0.90144,-0.11119 0.29854,-0.49547 z m 5.37371,-1.15962 c 1.4829,-0.50919 1.48093,-0.51326 -0.29855,-0.61145 -1.47406,-0.0812 -1.21997,-0.25224 1.43497,-0.96622 3.14593,-0.846 5.43145,-0.69699 5.43145,0.35396 0,0.92994 -1.28156,1.35078 -4.70425,1.54544 -2.44118,0.13872 -2.94933,0.0515 -1.86362,-0.32173 z m -118.8186,-22.19621 c 0,-0.79731 4.53656,-5.30385 5.33914,-5.30385 1.50926,0 1.01246,1.35541 -1.29497,3.533 -2.53212,2.38965 -4.04417,3.05173 -4.04417,1.77085 z m 2.08978,-1.12431 c 0.59439,-0.6568 0.94634,-1.19417 0.78215,-1.19417 -0.1642,0 -0.78485,0.53737 -1.37924,1.19417 -0.59438,0.65679 -0.94637,1.19415 -0.78218,1.19415 0.16421,0 0.78486,-0.53736 1.37927,-1.19415 z m -1.4927,-21.10144 c 0,-1.28393 6.87756,-10.84225 7.80138,-10.84225 1.28868,0 1.40172,2.10293 0.1598,2.97279 -0.60706,0.42519 -2.30866,2.54995 -3.78137,4.72166 -2.51857,3.71401 -4.17981,4.96508 -4.17981,3.1478 z m -91.054456,-48.71144 1.79123,-0.50108 -1.79123,-0.15196 c -1.666598,-0.14137 -1.687371,-0.17085 -0.29854,-0.42363 0.82098,-0.1494 1.97556,-0.70329 2.56573,-1.23085 1.00344,-0.89697 0.77106,-1.02501 -3.582469,-1.97357 -2.56053,-0.5579 -5.595907,-1.33665 -6.745282,-1.73057 -1.149377,-0.39393 -4.054332,-0.90046 -6.455454,-1.12561 -3.68548,-0.3456 -4.198561,-0.28719 -3.293073,0.37493 0.589936,0.43136 2.666322,1.36539 4.614194,2.07562 1.947871,0.71024 3.226565,1.39634 2.841543,1.52469 -0.385026,0.12833 -0.54817,0.47907 -0.362546,0.77943 0.532756,0.86201 -1.262801,0.64075 -4.353931,-0.53652 -3.517232,-1.33954 -10.277286,-6.60823 -10.293805,-8.02285 -0.0154,-1.31948 -0.03771,-1.32119 4.692188,0.36148 2.174285,0.77351 5.106608,1.44374 6.516273,1.4894 1.409662,0.0457 5.036441,0.79461 8.059505,1.66432 3.023064,0.8697 6.907557,1.58127 8.632197,1.58127 l 3.13571,0 -0.01,2.15377 c -0.0135,3.17738 -0.66057,3.7857 -4.25604,4.00115 -2.529114,0.15155 -2.823516,0.0868 -1.40706,-0.30942 z m 2.83612,-4.62026 c -0.41049,-0.16565 -1.08221,-0.16565 -1.4927,0 -0.41049,0.16563 -0.0746,0.30115 0.74635,0.30115 0.82098,0 1.15684,-0.13552 0.74635,-0.30115 z m -3.731741,-0.75195 c -2.509147,-0.75245 -5.607017,-1.27523 -5.211199,-0.87941 0.475362,0.47536 3.943036,1.30441 5.509738,1.31727 0.918982,0.01 0.850192,-0.0934 -0.298539,-0.43786 z m -6.132493,-1.60168 c -0.198404,-0.1984 -0.713383,-0.21961 -1.144399,-0.0472 -0.47631,0.1906 -0.334828,0.33208 0.360735,0.36072 0.62942,0.0258 0.982069,-0.11519 0.783664,-0.31359 z m -8.057252,-1.43416 c -2.385871,-0.25993 -4.728264,-0.62237 -5.205314,-0.80543 -0.809657,-0.3107 -1.755643,0.35904 -1.236152,0.87515 0.128737,0.1279 2.606772,0.27088 5.506744,0.31772 l 5.272673,0.0852 -4.337951,-0.47263 z M 242.09465,795.03302 c -0.40171,-1.23147 -0.86965,-2.57486 -1.03985,-2.98528 -0.19042,-0.45919 0.76232,-1.20569 2.47662,-1.94052 3.52274,-1.51003 4.8481,-1.51008 2.09,-9e-5 -2.52226,1.38087 -2.13301,1.52549 0.80352,0.29852 1.17892,-0.49258 2.48799,-0.88159 2.90902,-0.86449 0.42105,0.0171 -0.62744,0.56669 -2.32997,1.22127 -2.36669,0.90997 -3.07456,1.46842 -3.0065,2.37192 0.0489,0.64994 0.40164,1.06176 0.78371,0.91515 0.38208,-0.14662 0.94741,-0.014 1.25629,0.295 0.35071,0.35073 2.23177,-0.21008 5.00988,-1.49366 5.66649,-2.61809 11.17093,-4.77983 10.39662,-4.08306 -0.32839,0.29552 -2.74657,1.4507 -5.37371,2.56709 -5.3436,2.27074 -9.66789,4.55948 -10.17994,5.38801 -0.18666,0.30207 -0.95274,0.54918 -1.70235,0.54918 -1.04706,0 -1.53224,-0.51893 -2.09334,-2.23904 z m 5.73759,-1.862 c 2.18786,-1.39671 10.40146,-4.9805 10.70927,-4.67269 0.18107,0.18105 -10.33203,5.17736 -11.97624,5.69166 -0.35493,0.11101 0.21521,-0.34751 1.26697,-1.01897 z m 3.648,-4.06885 c 0.43101,-0.17247 0.946,-0.15126 1.14441,0.0472 0.19839,0.1984 -0.15425,0.33952 -0.78367,0.3136 -0.69556,-0.0285 -0.83705,-0.17011 -0.36074,-0.36074 z m -71.96708,-1.23738 c 0.20739,-1.35896 2.93628,-4.60323 4.65893,-5.53881 2.00478,-1.08883 0.8774,1.22262 -1.95887,4.01625 -2.39392,2.35791 -2.86838,2.62545 -2.70006,1.52256 z m 4.91535,-4.81545 c -0.1903,-0.19029 -1.34459,0.69195 -2.56512,1.96052 l -2.21914,2.3065 2.56511,-1.96053 c 1.41081,-1.07829 2.40943,-2.11622 2.21915,-2.30649 z m 64.06634,5.45575 c 0.431,-0.17247 0.94599,-0.15125 1.14439,0.0471 0.1984,0.19841 -0.15424,0.33952 -0.78364,0.3136 -0.69558,-0.0285 -0.83707,-0.17012 -0.36075,-0.36073 z m 5.48566,-0.18919 c 0.49259,-0.31835 1.29865,-0.56403 1.79123,-0.54598 0.59055,0.0216 0.48884,0.20763 -0.29854,0.54598 -1.64142,0.70533 -2.58414,0.70533 -1.49269,0 z m -3.09735,-0.40788 c 0.43102,-0.17249 0.946,-0.15126 1.1444,0.0472 0.19839,0.19841 -0.15424,0.33953 -0.78366,0.31361 -0.69556,-0.0286 -0.83705,-0.17013 -0.36074,-0.36074 z m 12.65059,-0.18921 c 0.49259,-0.31834 1.16432,-0.57878 1.4927,-0.57878 0.3284,0 0.19405,0.26044 -0.29853,0.57878 -0.49259,0.31834 -1.1643,0.57879 -1.49269,0.57879 -0.32839,0 -0.19406,-0.26045 0.29852,-0.57879 z m -10.15032,-0.5607 c 0.4926,-0.28842 1.97037,-0.68673 3.28393,-0.88519 l 2.38832,-0.36078 -2.68685,0.89428 c -2.98409,0.99319 -4.35734,1.15498 -2.9854,0.35169 z m 6.56787,-0.93199 c 0,-0.49259 0.35031,-0.89562 0.77846,-0.89562 0.42817,0 4.07502,-1.07474 8.10412,-2.38832 8.1792,-2.66658 10.42277,-2.96618 10.11158,-1.35028 -0.10995,0.57091 -0.7342,1.11904 -1.38723,1.21803 -1.18109,0.17905 -1.18105,0.17485 0.009,-0.80625 1.14817,-0.94826 1.11367,-0.97175 -0.8956,-0.60961 -3.66363,0.66032 -16.17057,4.88211 -15.73966,5.31303 0.22805,0.22805 0.10117,0.41463 -0.28196,0.41463 -0.38312,0 -0.69659,-0.40302 -0.69659,-0.89561 z m 5.97078,0.69344 c 0,-0.15546 1.20908,-0.69463 2.68685,-1.19816 2.7,-0.91998 3.85547,-0.79853 1.34343,0.14124 -2.52737,0.94547 -4.03028,1.33959 -4.03028,1.05692 z m 6.56787,-2.42079 c 0,-0.12907 0.41695,-0.39467 0.92663,-0.59025 0.53133,-0.20388 0.77101,-0.10381 0.56182,0.23467 -0.35065,0.56734 -1.48845,0.83916 -1.48845,0.35558 z m -167.01742,-5.39516 c -1.19361,-1.97612 -2.5165,-3.1727 -4.7657,-4.31069 -3.430226,-1.73553 -11.187234,-9.18616 -12.780639,-12.27582 -0.557465,-1.08095 -1.710947,-2.61674 -2.563297,-3.41287 -0.85235,-0.79611 -1.549726,-1.80369 -1.549726,-2.23903 0,-1.22485 2.073737,-0.93486 3.340661,0.46717 0.625586,0.69227 2.972935,2.1663 5.216335,3.27559 2.2434,1.1093 5.84405,3.63432 8.001456,5.6112 2.15739,1.97686 5.48058,4.3316 7.38487,5.23276 1.90428,0.90117 3.47582,2.02418 3.4923,2.49561 0.0165,0.47142 -0.57457,1.50063 -1.31345,2.28714 -0.79406,0.84524 -1.34342,2.18353 -1.34342,3.27267 0,2.80323 -1.28258,2.63722 -3.11939,-0.40373 z m 2.22378,-4.46379 c 0,-0.2972 -1.14192,-1.22283 -2.5376,-2.057 -1.39566,-0.83415 -4.41837,-3.17524 -6.717116,-5.20236 -2.29876,-2.02714 -5.052781,-4.06063 -6.120058,-4.51888 -2.218777,-0.95264 -2.601561,-1.67542 -0.597078,-1.1274 1.212637,0.33153 1.236098,0.30036 0.240996,-0.32017 -0.724105,-0.45154 -1.304353,-0.48554 -1.690824,-0.0991 -0.386472,0.38647 0.350434,1.37316 2.147318,2.87516 1.504646,1.25772 2.735716,2.57917 2.735716,2.93652 0,0.35736 0.33585,0.98563 0.74634,1.39612 0.41049,0.4105 0.74635,1.06877 0.74635,1.46284 0,0.39408 0.26869,0.71846 0.59708,0.72085 0.32839,0.004 1.26141,0.47261 2.07336,1.0449 0.819486,0.5776 1.107256,1.04052 0.64683,1.04052 -0.45619,0 -0.68878,0.14067 -0.51685,0.3126 0.50861,0.5086 2.297856,-0.38922 1.937536,-0.97224 -0.6413,-1.03765 0.66339,-0.48038 2.98115,1.27333 2.4219,1.83252 3.32685,2.16825 3.32685,1.23428 z m -4.17956,-4.46172 c 0,-0.12397 -0.4702,-0.59419 -1.04488,-1.04489 -0.947,-0.74268 -0.96812,-0.72155 -0.22544,0.22544 0.78001,0.99459 1.27032,1.31087 1.27032,0.81945 z m -7.762016,-0.59707 c 0,-0.12398 -0.4702,-0.59419 -1.04488,-1.0449 -0.947004,-0.74267 -0.968123,-0.72156 -0.22544,0.22544 0.78001,0.99459 1.27032,1.31087 1.27032,0.81946 z m 5.373706,-1.14608 c 0,-0.0976 -1.141916,-1.23947 -2.537576,-2.53759 l -2.53759,-2.36023 2.36022,2.5376 c 2.194976,2.35992 2.714946,2.81195 2.714946,2.36022 z m -7.164936,-1.24224 c 0,-0.12398 -0.4702,-0.59418 -1.044889,-1.04488 -0.946999,-0.74268 -0.968119,-0.72157 -0.225431,0.22543 0.780004,0.99459 1.27032,1.31087 1.27032,0.81945 z m -4.570591,-4.87547 c -0.19446,-0.50676 -0.481618,-0.79333 -0.638128,-0.63682 -0.156512,0.15653 -0.107463,0.57114 0.108999,0.92137 0.58875,0.95263 0.932864,0.76756 0.529129,-0.28455 z m 90.289707,18.41165 c -0.32401,-0.85095 -0.25544,-0.91952 0.33425,-0.33423 0.40806,0.40502 0.59151,0.8868 0.40768,1.07063 -0.18382,0.18383 -0.5177,-0.14754 -0.74193,-0.7364 z m 5.0368,-5.77415 c 0,-0.12398 0.4702,-0.5942 1.04488,-1.04489 0.94699,-0.74269 0.96812,-0.72157 0.22544,0.22543 -0.78002,0.99458 -1.27032,1.31087 -1.27032,0.81946 z m 1.79123,0 c 0,-0.12398 0.47019,-0.5942 1.04489,-1.04489 0.94701,-0.74269 0.96811,-0.72157 0.22542,0.22543 -0.78,0.99458 -1.27031,1.31087 -1.27031,0.81946 z m -5.3737,-1.86491 c 0.82385,-1.02902 0.79994,-1.08453 -0.29856,-0.69298 -0.65677,0.23411 -0.25375,-0.31262 0.89562,-1.21498 3.63669,-2.85505 8.06204,-7.2452 7.68422,-7.62304 -0.2001,-0.20008 -3.69018,-0.0582 -7.75575,0.31501 -4.06555,0.37336 -10.07879,0.74597 -13.36273,0.82807 -3.28393,0.0821 -4.2915,0.0428 -2.23903,-0.0873 2.5448,-0.16127 3.73174,-0.48362 3.73174,-1.0135 0,-0.569 2.35808,-0.97786 8.80691,-1.52701 11.03098,-0.93936 13.51987,-0.77371 13.76132,0.91595 0.12695,0.88837 -0.99501,2.33979 -3.92307,5.07516 -4.23239,3.95387 -9.15704,7.34317 -7.30067,5.02456 z m 7.01561,-5.92923 2.83618,-2.98553 -3.28393,2.9702 c -1.80617,1.63359 -3.95565,3.44975 -4.77662,4.03587 -1.44003,1.02805 -1.42422,1.02859 0.44774,0.0154 1.06724,-0.57769 3.21674,-2.39383 4.77663,-4.03588 z m -16.56887,-3.32492 c 0,-0.3284 -0.11849,-0.59708 -0.2633,-0.59708 -0.14483,0 -0.42937,0.26868 -0.63231,0.59708 -0.20298,0.32839 -0.0845,0.59708 0.26329,0.59708 0.34777,0 0.63232,-0.26869 0.63232,-0.59708 z m 10.69766,-0.97222 c 0.45279,-0.40393 -4.97818,-0.14229 -7.71227,0.37153 -1.95225,0.36691 -1.29926,0.41549 2.38832,0.17769 2.79133,-0.18 5.18712,-0.42715 5.32395,-0.54922 z m 7.51324,-0.52068 c 0.32839,-0.11224 -1.08221,-0.22528 -3.13467,-0.2512 -2.05246,-0.0258 -3.73173,0.18211 -3.73173,0.4623 0,0.45807 5.39371,0.29226 6.8664,-0.2111 z m -0.59139,10.43986 c 0.35486,-0.5742 0.21659,-0.68637 -0.50483,-0.40954 -0.54647,0.20971 -0.99356,0.12102 -0.99356,-0.19707 0,-0.31807 0.53737,-0.57834 1.19415,-0.57834 1.30868,0 1.59419,0.87646 0.50483,1.54971 -0.45865,0.28349 -0.52578,0.1614 -0.20059,-0.36476 z m -34.13167,-8.07709 c -0.19446,-0.50676 -0.19147,-1.08345 0.01,-1.28155 0.58803,-0.58804 5.34223,0.6462 5.61054,1.45658 0.38939,1.17609 -5.1651,1.00302 -5.61715,-0.17503 z m 4.73122,-0.0675 c -0.40423,-0.16357 -1.2103,-0.17352 -1.79123,-0.0221 -0.58094,0.15139 -0.25021,0.28519 0.73498,0.29737 0.98518,0.0122 1.46049,-0.11169 1.05625,-0.27524 z m 3.25926,-1.23345 c 1.05993,-0.13191 2.94074,-0.13407 4.17954,-0.007 1.2388,0.12924 0.37158,0.23716 -1.92718,0.23982 -2.29876,0.004 -3.31231,-0.10312 -2.25236,-0.235 z m 55.86957,-17.03358 c -1.60917,-1.76671 -2.46864,-3.55633 -2.14319,-4.46262 0.14435,-0.40199 2.05601,-2.08101 4.24813,-3.73117 2.19214,-1.65017 6.94122,-5.41953 10.55355,-8.37634 3.61233,-2.95683 8.23929,-6.21152 10.28219,-7.23262 2.04287,-1.02111 4.02373,-2.22938 4.40192,-2.68508 0.9011,-1.08574 2.33261,-1.06294 2.33261,0.0371 0,1.36321 -3.31077,5.91678 -5.47111,7.52484 -2.17929,1.6222 -17.14841,15.55517 -19.80605,18.43509 -2.01864,2.18748 -2.77568,2.27195 -4.39805,0.49072 z m 12.02995,-9.93299 c -0.38863,-0.38866 5.18295,-6.03886 5.95485,-6.03886 0.32701,0 -0.60329,1.26882 -2.06733,2.81958 -2.25839,2.39215 -2.07357,2.28609 1.21911,-0.69963 5.70052,-5.16913 6.59294,-6.1431 3.58247,-3.90976 -2.60802,1.93475 -2.58273,1.88559 0.86148,-1.67532 6.6041,-6.82791 2.03651,-5.14508 -7.72788,2.84717 -3.61233,2.95671 -8.38149,6.74505 -10.59814,8.41852 -5.14747,3.88609 -5.25562,4.52313 -0.14929,0.87932 2.13456,-1.52318 3.88103,-2.54006 3.88103,-2.25972 0,0.28033 -1.6027,1.63995 -3.5615,3.02135 -2.41752,1.70486 -3.45184,2.79748 -3.22007,3.40147 0.69878,1.82098 2.936,0.89177 6.48302,-2.69264 1.9498,-1.97036 3.81441,-3.58247 4.14361,-3.58247 0.32918,0 -1.14012,1.81361 -3.2651,4.03029 l -3.86364,4.03027 4.31174,-4.14672 c 2.37148,-2.28072 4.17851,-4.27998 4.01564,-4.44285 z m -3.25247,-1.92353 c 5.62882,-4.86699 13.6195,-10.68934 14.62843,-10.65889 0.32838,0.01 -0.0341,0.36804 -0.80552,0.79587 -0.7714,0.42782 -2.24918,1.46415 -3.28394,2.30296 -8.8526,7.17625 -11.74637,9.41215 -12.15449,9.39125 -0.26086,-0.0133 0.46615,-0.83739 1.61552,-1.83119 z m 18.81434,-13.0715 1.18777,-1.49269 -1.34341,1.13742 c -0.73889,0.62558 -1.34343,1.40926 -1.34343,1.74148 0,0.33222 0.07,0.4921 0.15563,0.35526 0.0856,-0.13682 0.69014,-0.92049 1.34344,-1.74147 z m -71.52785,24.70766 c -1.14929,-1.14929 0.68502,-12.16902 2.0256,-12.16902 0.69262,0 2.91089,-4.99457 2.96877,-6.68438 0.0511,-1.48982 0.22345,-1.16362 0.85064,1.60922 l 0.40518,1.79123 1.41131,-2.68686 c 1.63529,-3.11321 1.8134,-5.35687 0.61003,-7.68397 -0.47039,-0.90961 -0.94058,-3.68951 -1.04488,-6.17755 -0.10432,-2.48801 -0.39115,-4.40143 -0.63744,-4.25201 -0.2463,0.14941 -0.44781,-0.55025 -0.44781,-1.5548 0,-2.59527 1.62595,-2.36787 2.77764,0.38847 0.63905,1.52949 0.80843,3.09714 0.54731,5.06558 -0.29022,2.18768 -0.096,3.47008 0.8353,5.5143 1.58106,3.47066 1.53053,4.89661 -0.29947,8.44953 -0.83211,1.61553 -2.02008,5.35548 -2.63995,8.31101 -0.61986,2.95554 -1.50936,6.44845 -1.97668,7.76203 -0.74392,2.09101 -1.10544,2.41043 -2.90437,2.56599 -1.1301,0.0977 -2.24663,-0.0142 -2.48118,-0.24877 z m 0.56605,-3.95919 c -0.16565,-0.41049 -0.30117,-0.0748 -0.30117,0.74635 0,0.82099 0.13552,1.15683 0.30117,0.74634 0.16563,-0.41049 0.16563,-1.08219 0,-1.49269 z m 3.39653,-0.93133 c 1.52122,-5.12247 2.22977,-9.42685 1.75119,-10.63841 -0.4087,-1.0347 -0.62703,-0.85908 -1.72327,1.3861 -1.45102,2.97179 -0.95529,3.53403 0.55579,0.63038 0.78826,-1.51466 0.92756,-1.61294 0.63479,-0.44781 -0.2063,0.821 -0.71237,1.89574 -1.1246,2.38832 -0.84652,1.01154 -1.81225,3.99199 -2.36995,7.31421 -0.29594,1.76288 -0.18456,2.23904 0.52367,2.23904 0.55843,0 1.22294,-1.08896 1.75238,-2.87183 z m -2.78702,-2.01673 c -0.19061,-0.47631 -0.33209,-0.33484 -0.36075,0.36071 -0.0258,0.62943 0.1152,0.98207 0.31361,0.78368 0.19841,-0.1984 0.21962,-0.71339 0.0472,-1.14439 z m 4.77663,-1.19417 c -0.1906,-0.47631 -0.33209,-0.33483 -0.36075,0.36074 -0.0258,0.62942 0.1152,0.98206 0.31362,0.78366 0.1984,-0.1984 0.2196,-0.71338 0.0471,-1.1444 z m 0.59707,-2.98539 c -0.1906,-0.47631 -0.33209,-0.33483 -0.36074,0.36073 -0.0258,0.62941 0.1152,0.98208 0.3136,0.78367 0.19841,-0.1984 0.21962,-0.71338 0.0471,-1.1444 z m 0.59709,-2.98539 c -0.1906,-0.47631 -0.3321,-0.33484 -0.36075,0.36073 -0.0258,0.62942 0.11519,0.98207 0.31361,0.78367 0.1984,-0.1984 0.21962,-0.71338 0.0471,-1.1444 z m 1.6819,-3.47053 c 0.50945,-0.98517 0.79193,-1.79123 0.62773,-1.79123 -0.16419,0 -0.71535,0.80606 -1.22481,1.79123 -0.50946,0.98519 -0.79195,1.79124 -0.62775,1.79124 0.16419,0 0.71536,-0.80605 1.22483,-1.79124 z m 1.30348,-3.69441 c -0.19061,-0.47632 -0.33208,-0.33483 -0.36072,0.36074 -0.0258,0.62941 0.11518,0.98206 0.31359,0.78366 0.1984,-0.1984 0.21961,-0.71338 0.0471,-1.1444 z m -1.77681,-10.18067 c -0.14283,-0.74272 -0.26509,-0.27566 -0.27171,1.03793 -0.01,1.31355 0.11023,1.92123 0.25967,1.35038 0.14943,-0.57086 0.15485,-1.6456 0.0121,-2.38831 z m -35.98231,22.06274 c -0.19294,-0.50279 -0.0643,-1.94612 0.286,-3.20746 0.35025,-1.26132 0.63831,-4.06641 0.64013,-6.23352 0.003,-2.16711 0.17811,-6.00778 0.39173,-8.53483 0.31496,-3.72607 0.56544,-4.56056 1.32496,-4.41428 0.72559,0.13973 1.08987,1.5917 1.61693,6.44507 1.42069,13.08169 1.54109,16.11648 0.63934,16.11648 -0.45923,0 -1.67046,0.16712 -2.69163,0.37135 -1.36335,0.27265 -1.94988,0.12843 -2.20746,-0.54281 z m 3.75316,-0.78636 c -0.19841,-0.19839 -0.71339,-0.21962 -1.14442,-0.0472 -0.4763,0.1906 -0.33482,0.33208 0.36075,0.36073 0.62941,0.0258 0.98208,-0.11519 0.78367,-0.3136 z m -0.5975,-7.25201 c -0.12882,-1.23147 -0.23421,-0.2239 -0.23421,2.23903 0,2.46296 0.10539,3.47054 0.23421,2.23905 0.12881,-1.23148 0.12881,-3.24662 0,-4.47808 z m 1.18058,0.89561 c -0.14232,-0.73889 -0.25877,-0.13434 -0.25877,1.34342 0,1.47778 0.11645,2.08232 0.25877,1.34342 0.14231,-0.73886 0.14231,-1.94795 0,-2.68684 z m -2.38124,-0.8874 c -0.13724,-0.9076 -0.2532,-0.30675 -0.25768,1.33522 -0.006,1.64196 0.1078,2.38452 0.24954,1.65017 0.14172,-0.73437 0.14538,-2.07781 0.009,-2.98539 z m 1.95987,-4.89623 c 0,-0.9256 -0.47021,-2.05165 -1.0449,-2.50235 -0.94733,-0.74296 -0.96826,-0.72176 -0.22422,0.2269 0.51506,0.65668 0.68518,1.72399 0.45683,2.86581 -0.22567,1.12827 -0.1405,1.68136 0.22419,1.45597 0.32346,-0.19988 0.5881,-1.12076 0.5881,-2.04633 z m 29.94818,4.14166 c 0,-0.82099 0.13552,-1.15683 0.30117,-0.74633 0.16563,0.41047 0.16563,1.08221 0,1.49269 -0.16565,0.41048 -0.30117,0.0747 -0.30117,-0.74636 z m -0.60189,-5.4877 c -0.0492,-0.8837 -0.35814,-1.77278 -0.68653,-1.97573 -0.83596,-0.51665 -0.72405,-3.64053 0.25665,-7.16495 0.88864,-3.19351 1.02324,-2.86669 1.22965,2.98539 0.058,1.64195 0.27544,4.06013 0.48334,5.37371 0.27864,1.76025 0.25223,1.91727 -0.10044,0.59708 l -0.4785,-1.79123 -0.30735,1.79123 c -0.30106,1.75461 -0.30919,1.7584 -0.39682,0.1845 z m 0.24081,-5.70898 c 0.0301,-3.84194 0.009,-3.91311 -0.52345,-1.53472 -0.45147,2.028 -0.22617,5.57128 0.35382,5.56499 0.0758,-6.6e-4 0.15217,-1.81443 0.16963,-4.03027 z"
       id="path4519"
       inkscape:connector-curvature="0"
       inkscape:export-xdpi="100"
       inkscape:export-ydpi="100" />
  </g>
</svg>
