<?xml version="1.0" encoding="UTF-8" standalone="no"?>
<!-- Created with Inkscape (http://www.inkscape.org/) -->

<svg
   xmlns:dc="http://purl.org/dc/elements/1.1/"
   xmlns:cc="http://creativecommons.org/ns#"
   xmlns:rdf="http://www.w3.org/1999/02/22-rdf-syntax-ns#"
   xmlns:svg="http://www.w3.org/2000/svg"
   xmlns="http://www.w3.org/2000/svg"
   xmlns:sodipodi="http://sodipodi.sourceforge.net/DTD/sodipodi-0.dtd"
   xmlns:inkscape="http://www.inkscape.org/namespaces/inkscape"
   id="svg2"
   version="1.1"
   inkscape:version="0.91 r13725"
   xml:space="preserve"
   width="6in"
   height="9in"
   viewBox="0 0 540 810"
   sodipodi:docname="CatField.svg"
   inkscape:export-filename="/Users/lafespietz/Desktop/PostCapitalistIndustry/images/frontcover.png"
   inkscape:export-xdpi="100"
   inkscape:export-ydpi="100"><metadata
     id="metadata8"><rdf:RDF><cc:Work
         rdf:about=""><dc:format>image/svg+xml</dc:format><dc:type
           rdf:resource="http://purl.org/dc/dcmitype/StillImage" /><dc:title></dc:title></cc:Work></rdf:RDF></metadata><defs
     id="defs6"><clipPath
       clipPathUnits="userSpaceOnUse"
       id="clipPath16"><path
         d="M 0,576 576,576 576,0 0,0 0,576 Z"
         id="path18"
         inkscape:connector-curvature="0" /></clipPath><clipPath
       clipPathUnits="userSpaceOnUse"
       id="clipPath176"><path
         d="M 0,576 576,576 576,0 0,0 0,576 Z"
         id="path178"
         inkscape:connector-curvature="0" /></clipPath></defs><sodipodi:namedview
     pagecolor="#ffffff"
     bordercolor="#666666"
     borderopacity="1"
     objecttolerance="10"
     gridtolerance="10"
     guidetolerance="10"
     inkscape:pageopacity="0"
     inkscape:pageshadow="2"
     inkscape:window-width="1371"
     inkscape:window-height="689"
     id="namedview4"
     showgrid="false"
     inkscape:zoom="0.50428928"
     inkscape:cx="303.50247"
     inkscape:cy="343.86809"
     inkscape:window-x="0"
     inkscape:window-y="23"
     inkscape:window-maximized="0"
     inkscape:current-layer="g10"
     units="in" /><g
     id="g10"
     inkscape:groupmode="layer"
     inkscape:label="CatField"
     transform="matrix(1.25,0,0,-1.25,0,810)"><g
       id="g12"
       transform="matrix(0.63024941,0,0,0.63024941,27.939182,126.97276)"
       inkscape:export-xdpi="100"
       inkscape:export-ydpi="100"><g
         id="g14"
         clip-path="url(#clipPath16)"><g
           id="g20"
           transform="translate(287.6611,288.5898)"><path
             d="m 0,0 c 0,-13.003 25.502,-40.168 58.833,-40.168 26.335,0 49.833,15.167 49.834,40.5"
             style="fill:none;stroke:#211d1d;stroke-width:5;stroke-linecap:round;stroke-linejoin:miter;stroke-miterlimit:10;stroke-dasharray:none;stroke-opacity:1"
             id="path22"
             inkscape:connector-curvature="0" /></g><g
           id="g24"
           transform="translate(287.8418,288.5898)"><path
             d="m 0,0 c 0,-13.003 -25.502,-40.168 -58.833,-40.168 -26.335,0 -49.833,15.167 -49.834,40.5"
             style="fill:none;stroke:#211d1d;stroke-width:5;stroke-linecap:round;stroke-linejoin:miter;stroke-miterlimit:10;stroke-dasharray:none;stroke-opacity:1"
             id="path26"
             inkscape:connector-curvature="0" /></g><g
           id="g28"
           transform="translate(287.6611,289.2539)"><path
             d="m 0,0 c 0,13.003 25.501,40.168 58.833,40.167 26.335,10e-4 49.832,-15.166 49.834,-40.499"
             style="fill:none;stroke:#211d1d;stroke-width:5;stroke-linecap:round;stroke-linejoin:miter;stroke-miterlimit:10;stroke-dasharray:none;stroke-opacity:1"
             id="path30"
             inkscape:connector-curvature="0" /></g><g
           id="g32"
           transform="translate(238.7949,249.2324)"><path
             d="m 0,0 c -3.228,-0.525 -6.557,-0.811 -9.967,-0.811 -26.335,0 -49.833,15.167 -49.834,40.5"
             style="fill:none;stroke:#211d1d;stroke-width:5;stroke-linecap:round;stroke-linejoin:miter;stroke-miterlimit:10;stroke-dasharray:none;stroke-opacity:1"
             id="path34"
             inkscape:connector-curvature="0" /></g><g
           id="g36"
           transform="translate(287.6611,288.5898)"><path
             d="M 0,0 C 0,-8.184 -10.104,-21.979 -25.903,-31.079"
             style="fill:none;stroke:#211d1d;stroke-width:5;stroke-linecap:round;stroke-linejoin:miter;stroke-miterlimit:10;stroke-dasharray:none;stroke-opacity:1"
             id="path38"
             inkscape:connector-curvature="0" /></g><g
           id="g40"
           transform="translate(287.6611,289.2539)"><path
             d="m 0,0 c 0,13.003 -25.501,40.168 -58.833,40.168 -26.334,-10e-4 -49.833,-15.167 -49.834,-40.5"
             style="fill:none;stroke:#211d1d;stroke-width:5;stroke-linecap:round;stroke-linejoin:miter;stroke-miterlimit:10;stroke-dasharray:none;stroke-opacity:1"
             id="path42"
             inkscape:connector-curvature="0" /></g><g
           id="g44"
           transform="translate(287.6611,288.9512)"><path
             d="m 0,0 c 0,-26.006 51.002,-80.336 117.667,-80.336 52.669,0 99.666,30.335 99.666,81.001"
             style="fill:none;stroke:#211d1d;stroke-width:5;stroke-linecap:round;stroke-linejoin:miter;stroke-miterlimit:10;stroke-dasharray:none;stroke-opacity:1"
             id="path46"
             inkscape:connector-curvature="0" /></g><g
           id="g48"
           transform="translate(287.6621,289.2568)"><path
             d="m 0,0 c 0,-26.006 -51.002,-80.336 -117.667,-80.336 -52.669,0 -99.666,30.335 -99.666,81.001"
             style="fill:none;stroke:#211d1d;stroke-width:5;stroke-linecap:round;stroke-linejoin:miter;stroke-miterlimit:10;stroke-dasharray:none;stroke-opacity:1"
             id="path50"
             inkscape:connector-curvature="0" /></g><g
           id="g52"
           transform="translate(349.623,357.7598)"><path
             d="m 0,0 c 16.435,7.785 35.339,12.855 55.705,12.855 52.67,0 99.665,-30.334 99.666,-80.999"
             style="fill:none;stroke:#211d1d;stroke-width:5;stroke-linecap:round;stroke-linejoin:miter;stroke-miterlimit:10;stroke-dasharray:none;stroke-opacity:1"
             id="path54"
             inkscape:connector-curvature="0" /></g><g
           id="g56"
           transform="translate(287.6611,290.2793)"><path
             d="M 0,0 C 0,13.047 12.835,33.223 34.049,50.09"
             style="fill:none;stroke:#211d1d;stroke-width:5;stroke-linecap:round;stroke-linejoin:miter;stroke-miterlimit:10;stroke-dasharray:none;stroke-opacity:1"
             id="path58"
             inkscape:connector-curvature="0" /></g><g
           id="g60"
           transform="translate(231.2466,224.2471)"><path
             d="m 0,0 c -17.672,-9.334 -38.553,-15.632 -61.25,-15.632 -52.671,0 -99.667,30.334 -99.667,81"
             style="fill:none;stroke:#211d1d;stroke-width:5;stroke-linecap:round;stroke-linejoin:miter;stroke-miterlimit:10;stroke-dasharray:none;stroke-opacity:1"
             id="path62"
             inkscape:connector-curvature="0" /></g><g
           id="g64"
           transform="translate(287.6611,288.9512)"><path
             d="M 0,0 C 0,-14.228 -15.268,-36.936 -40.013,-54.584"
             style="fill:none;stroke:#211d1d;stroke-width:5;stroke-linecap:round;stroke-linejoin:miter;stroke-miterlimit:10;stroke-dasharray:none;stroke-opacity:1"
             id="path66"
             inkscape:connector-curvature="0" /></g><g
           id="g68"
           transform="translate(287.6611,290.2793)"><path
             d="m 0,0 c 0,26.006 -51.002,80.337 -117.666,80.336 -52.669,0 -99.666,-30.334 -99.665,-81.001"
             style="fill:none;stroke:#211d1d;stroke-width:5;stroke-linecap:round;stroke-linejoin:miter;stroke-miterlimit:10;stroke-dasharray:none;stroke-opacity:1"
             id="path70"
             inkscape:connector-curvature="0" /></g><g
           id="g72"
           transform="translate(288.5234,290.562)"><path
             d="m 0,0 c 0,26.006 51.002,80.337 117.666,80.336 52.668,0 99.666,-30.334 99.664,-81.001"
             style="fill:none;stroke:#211d1d;stroke-width:5;stroke-linecap:round;stroke-linejoin:miter;stroke-miterlimit:10;stroke-dasharray:none;stroke-opacity:1"
             id="path74"
             inkscape:connector-curvature="0" /></g><g
           id="g76"
           transform="translate(287.6611,288.6895)"><path
             d="M 0,0 C 0,-41.305 64.328,-118.333 157.586,-148.299"
             style="fill:none;stroke:#211d1d;stroke-width:5;stroke-linecap:butt;stroke-linejoin:miter;stroke-miterlimit:10;stroke-dasharray:none;stroke-opacity:1"
             id="path78"
             inkscape:connector-curvature="0" /></g><g
           id="g80"
           transform="translate(331.0586,369.3154)"><path
             d="M 0,0 C 27.335,27.889 66.109,54.44 112.03,69.626"
             style="fill:none;stroke:#211d1d;stroke-width:5;stroke-linecap:round;stroke-linejoin:miter;stroke-miterlimit:10;stroke-dasharray:none;stroke-opacity:1"
             id="path82"
             inkscape:connector-curvature="0" /></g><g
           id="g84"
           transform="translate(287.6602,291.3457)"><path
             d="M 0,0 C 0,14.088 7.484,32.331 21.047,51.446"
             style="fill:none;stroke:#211d1d;stroke-width:5;stroke-linecap:round;stroke-linejoin:miter;stroke-miterlimit:10;stroke-dasharray:none;stroke-opacity:1"
             id="path86"
             inkscape:connector-curvature="0" /></g><g
           id="g88"
           transform="translate(287.6611,288.6895)"><path
             d="M 0,0 C 0,-41.212 -64.041,-117.989 -156.962,-148.097"
             style="fill:none;stroke:#211d1d;stroke-width:5;stroke-linecap:butt;stroke-linejoin:miter;stroke-miterlimit:10;stroke-dasharray:none;stroke-opacity:1"
             id="path90"
             inkscape:connector-curvature="0" /></g><g
           id="g92"
           transform="translate(287.6602,291.3457)"><path
             d="M 0,0 C 0.001,40.893 -63.05,116.8 -154.804,147.388"
             style="fill:none;stroke:#211d1d;stroke-width:5;stroke-linecap:butt;stroke-linejoin:miter;stroke-miterlimit:10;stroke-dasharray:none;stroke-opacity:1"
             id="path94"
             inkscape:connector-curvature="0" /></g><g
           id="g96"
           transform="translate(288.1953,291.3457)"><path
             d="M 0,0 C 0,40.893 63.051,116.8 154.805,147.388"
             style="fill:none;stroke:#211d1d;stroke-width:5;stroke-linecap:butt;stroke-linejoin:miter;stroke-miterlimit:10;stroke-dasharray:none;stroke-opacity:1"
             id="path98"
             inkscape:connector-curvature="0" /></g><g
           id="g100"
           transform="translate(287.6592,288.7549)"><path
             d="M 0,0 C 0,-52.107 34.126,-123.167 94.482,-194.71"
             style="fill:none;stroke:#211d1d;stroke-width:5;stroke-linecap:butt;stroke-linejoin:miter;stroke-miterlimit:10;stroke-dasharray:none;stroke-opacity:1"
             id="path102"
             inkscape:connector-curvature="0" /></g><g
           id="g104"
           transform="translate(287.6592,296.7231)"><path
             d="M 0,0 C 0,50.64 32.232,119.181 89.448,188.67"
             style="fill:none;stroke:#211d1d;stroke-width:5;stroke-linecap:butt;stroke-linejoin:miter;stroke-miterlimit:10;stroke-dasharray:none;stroke-opacity:1"
             id="path106"
             inkscape:connector-curvature="0" /></g><g
           id="g108"
           transform="translate(287.6592,288.7549)"><path
             d="M 0,0 C 0,-52.038 -34.036,-122.978 -94.243,-194.424"
             style="fill:none;stroke:#211d1d;stroke-width:5;stroke-linecap:butt;stroke-linejoin:miter;stroke-miterlimit:10;stroke-dasharray:none;stroke-opacity:1"
             id="path110"
             inkscape:connector-curvature="0" /></g><g
           id="g112"
           transform="translate(287.6592,296.7231)"><path
             d="M 0,0 C 0,50.574 -32.147,119.001 -89.223,188.396"
             style="fill:none;stroke:#211d1d;stroke-width:5;stroke-linecap:butt;stroke-linejoin:miter;stroke-miterlimit:10;stroke-dasharray:none;stroke-opacity:1"
             id="path114"
             inkscape:connector-curvature="0" /></g><g
           id="g116"
           transform="translate(287.6611,288.125)"><path
             d="m 0,0 c 0,-9.103 17.851,-28.117 41.184,-28.117 18.433,0 34.882,10.616 34.881,28.349"
             style="fill:none;stroke:#211d1d;stroke-width:5;stroke-linecap:butt;stroke-linejoin:miter;stroke-miterlimit:10;stroke-dasharray:none;stroke-opacity:1"
             id="path118"
             inkscape:connector-curvature="0" /></g><g
           id="g120"
           transform="translate(288.168,286.9922)"><path
             d="m 0,0 c 0,-9.103 -17.851,-28.117 -41.184,-28.117 -18.433,0 -34.882,10.616 -34.881,28.349"
             style="fill:none;stroke:#211d1d;stroke-width:5;stroke-linecap:butt;stroke-linejoin:miter;stroke-miterlimit:10;stroke-dasharray:none;stroke-opacity:1"
             id="path122"
             inkscape:connector-curvature="0" /></g><g
           id="g124"
           transform="translate(287.6611,288.5898)"><path
             d="m 0,0 c 0.001,9.103 17.851,28.118 41.184,28.118 18.434,0 34.881,-10.617 34.881,-28.35"
             style="fill:none;stroke:#211d1d;stroke-width:5;stroke-linecap:butt;stroke-linejoin:miter;stroke-miterlimit:10;stroke-dasharray:none;stroke-opacity:1"
             id="path126"
             inkscape:connector-curvature="0" /></g><g
           id="g128"
           transform="translate(243.1084,260.127)"><path
             d="M 0,0 C -17.023,1.211 -31.513,11.585 -31.513,28.23"
             style="fill:none;stroke:#211d1d;stroke-width:5;stroke-linecap:round;stroke-linejoin:miter;stroke-miterlimit:10;stroke-dasharray:none;stroke-opacity:1"
             id="path130"
             inkscape:connector-curvature="0" /></g><g
           id="g132"
           transform="translate(287.6611,288.125)"><path
             d="M 0,0 C 0,-8.905 -17.084,-27.297 -39.672,-28.091"
             style="fill:none;stroke:#211d1d;stroke-width:5;stroke-linecap:butt;stroke-linejoin:miter;stroke-miterlimit:10;stroke-dasharray:none;stroke-opacity:1"
             id="path134"
             inkscape:connector-curvature="0" /></g><g
           id="g136"
           transform="translate(287.6611,288.5898)"><path
             d="m 0,0 c 0.001,9.103 -17.851,28.118 -41.183,28.118 -18.435,0 -34.882,-10.617 -34.882,-28.35"
             style="fill:none;stroke:#211d1d;stroke-width:5;stroke-linecap:butt;stroke-linejoin:miter;stroke-miterlimit:10;stroke-dasharray:none;stroke-opacity:1"
             id="path138"
             inkscape:connector-curvature="0" /></g><g
           id="g140"
           transform="translate(287.1992,284.4775)"><path
             d="m 0,0 c -1.488,-2.92 1.13,-11.936 8.614,-15.75 5.912,-3.012 12.924,-2.296 15.824,3.393"
             style="fill:none;stroke:#211d1d;stroke-width:1;stroke-linecap:butt;stroke-linejoin:miter;stroke-miterlimit:10;stroke-dasharray:none;stroke-opacity:1"
             id="path142"
             inkscape:connector-curvature="0" /></g><g
           id="g144"
           transform="translate(287.2749,284.626)"><path
             d="m 0,0 c 1.488,2.92 10.321,6.102 17.805,2.288 5.912,-3.013 9.454,-9.106 6.557,-14.794"
             style="fill:none;stroke:#211d1d;stroke-width:1;stroke-linecap:butt;stroke-linejoin:miter;stroke-miterlimit:10;stroke-dasharray:none;stroke-opacity:1"
             id="path146"
             inkscape:connector-curvature="0" /></g><g
           id="g148"
           transform="translate(287.1992,284.4775)"><path
             d="m 0,0 c -1.488,-2.92 -10.322,-6.102 -17.806,-2.288 -5.913,3.013 -9.454,9.106 -6.555,14.795"
             style="fill:none;stroke:#211d1d;stroke-width:1;stroke-linecap:butt;stroke-linejoin:miter;stroke-miterlimit:10;stroke-dasharray:none;stroke-opacity:1"
             id="path150"
             inkscape:connector-curvature="0" /></g><g
           id="g152"
           transform="translate(287.2749,284.626)"><path
             d="m 0,0 c 1.488,2.92 -1.131,11.937 -8.615,15.75 -5.913,3.013 -12.925,2.296 -15.822,-3.392"
             style="fill:none;stroke:#211d1d;stroke-width:1;stroke-linecap:butt;stroke-linejoin:miter;stroke-miterlimit:10;stroke-dasharray:none;stroke-opacity:1"
             id="path154"
             inkscape:connector-curvature="0" /></g><g
           id="g156"
           transform="translate(269.5,196.6025)"><path
             d="M 0,0 C 1.23,-0.686 1.939,-0.747 3.459,-0.386 4.016,2.646 -0.712,4.096 0,0 m -11.913,4.995 c -0.229,-2.543 2.207,-3.565 4.227,-2.689 1.36,2.632 -2.254,4.377 -4.227,2.689 M 40.734,33.048 C 41.045,30.44 39.788,26.982 38.813,23.44 37.238,17.71 35.796,13.114 35.354,8.069 34.831,2.096 32.861,2.412 30.743,-0.77 c 4.924,-0.423 11.193,0.747 14.988,2.692 1.37,14.896 -0.301,33.203 -7.685,41.887 l -0.77,0 c -0.833,-3.713 2.982,-6.729 3.458,-10.761 m -76.088,31.129 c 2.563,-2.529 7.461,1.455 4.611,4.227 -1.576,-1.371 -4.339,-1.554 -4.611,-4.227 M -1.537,19.599 c 0.022,5.165 1.896,11.464 2.306,18.06 C 1.452,48.669 4.273,64.028 0,71.861 l -1.152,0 c -1.87,-5.726 -3.759,-15.575 -3.075,-23.056 0.214,-2.338 1.189,-4.498 1.153,-6.918 -0.165,-11.042 -1.988,-21.503 -1.537,-31.128 1.754,-0.344 2.177,0.638 3.459,0.768 1.407,2.516 -0.398,5.218 -0.385,8.072 M 12.682,44.192 C 8.811,41.379 9.134,35.28 8.455,28.052 8.059,23.839 6.64,18.823 6.918,16.141 c 0.161,-1.554 1.6,-2.745 1.921,-4.614 0.523,-3.034 -0.165,-6 0,-8.454 C 6.983,2.912 6.076,5.215 4.228,3.842 2.691,-1.95 10.541,-1.61 15.372,-2.306 c 3.196,2.311 2.946,8.07 6.533,9.992 2.721,-0.158 5.02,0.104 6.916,0.768 3.504,11.464 3.217,23.068 0.386,33.433 -1.549,5.67 -5.202,10.311 -6.917,15.371 -2.131,6.292 -3.332,11.708 -4.611,18.063 l -1.154,0 C 17.147,63.308 10.592,55.207 12.682,44.192 m -57.644,41.503 c 1.172,-2.376 4.405,-1.096 6.149,0 l 0,3.076 c -2.749,-0.326 -5.774,-0.376 -6.149,-3.076 m 13.066,4.228 c -4.559,0.268 -4.473,-6.269 -9.608,-7.3 -3.246,-0.652 -4.716,1.397 -8.454,-0.386 -0.771,-3.397 2.328,-6.19 5.765,-5.38 2.13,0.503 1.862,2.908 3.842,3.458 6.116,-6.538 17.212,9.095 8.455,9.608 m -16.14,2.691 c -0.37,3.728 -8.541,4.739 -8.454,-1.152 2.049,-2.993 8.894,-3.301 8.454,1.152 m 21.904,8.838 c -0.195,2.526 -4.617,2.81 -6.917,1.922 -2.762,-1.066 -6.423,-5.781 -5.38,-8.839 2.313,1.333 12.548,3.672 12.297,6.917 M 89.154,33.048 c 12.813,14.946 20.006,36.397 18.833,62.256 -0.777,17.097 -4.306,34.662 -14.605,43.04 -1.678,-3.189 -6.215,-3.519 -7.3,-7.302 -1.868,-0.105 -3.564,1.043 -4.613,-0.384 7.133,-7.724 -6.076,-15.446 -11.144,-18.061 -0.972,-3.524 -7.031,-9.346 -7.685,-13.067 -0.194,-1.097 0.87,-2.333 0.768,-3.459 -0.178,-1.931 -2.49,-3.336 -2.691,-4.995 -0.457,-3.799 2.339,-6.043 4.997,-8.455 -3.352,-2.156 -5.751,-5.265 -7.302,-9.222 -0.528,-0.431 0.439,-2.615 0.769,-3.46 -2.546,-1.265 -2.559,-6.17 -4.228,-9.222 -0.87,-1.594 -2.904,-2.106 -3.072,-3.842 -0.152,-1.562 1.59,-2.691 1.536,-4.228 -3.46,-1.942 -3.115,-5.753 0.384,-7.685 -5.856,-4.543 2.371,-8.466 3.075,-11.914 0.489,-2.397 -0.955,-3.9 -1.536,-6.148 -1.618,-6.222 -2.826,-14.04 -3.075,-20.752 14.723,3.881 26.815,15.147 36.889,26.9 M 40.352,182.153 c -3.789,1.021 -7.943,2.323 -11.531,2.691 -43.768,4.482 -72.239,-18.564 -89.539,-44.578 -2.305,-3.468 -5.19,-6.905 -6.533,-10.376 -4.429,-11.462 -7.608,-26.98 -7.301,-42.272 0.374,-18.723 7.79,-37.343 16.14,-48.806 5.852,-8.034 14.867,-18.685 23.826,-24.593 2.492,-1.645 8.323,-6.018 10.76,-5.765 2.279,0.237 3.654,3.34 6.147,4.611 2.757,1.405 4.928,1.417 7.303,3.076 0.033,17.197 -1.954,32.376 -4.612,46.882 2.416,4.288 0.419,9.515 -4.227,9.993 -0.991,1.23 -0.923,4.41 -3.843,4.226 -5.958,-0.375 -1.667,-15.225 -8.07,-16.909 -5.167,-1.358 -12.31,5.177 -8.07,9.222 1.19,-3.839 7.575,-2.575 6.533,2.305 4.367,0.05 7.711,7.803 4.227,10.761 -2.434,-0.8 -1.876,-2.564 -3.459,-3.842 -2.271,-1.832 -4.833,-1.053 -7.686,-1.922 -1.72,-0.523 -3.132,-2.491 -4.997,-2.69 -6.644,-0.707 -8.935,8.4 -15.756,7.301 -5.869,3.715 1.316,9.891 0,16.525 -0.535,2.701 -3.049,5.118 -3.458,8.454 -0.596,4.861 -0.438,9.139 2.69,12.298 3.848,-1.917 3.46,-8.069 7.686,-9.607 2.991,1.773 3.938,3.939 7.301,4.995 3.505,1.1 7.884,-0.025 11.144,1.538 6.818,3.265 4.226,14.405 11.913,16.908 0.64,-3.36 1.611,-7.953 1.922,-12.297 0.308,-4.289 -1.04,-8.688 0.77,-11.529 4.96,4.006 5.437,12.496 6.533,20.367 0.784,1.265 2.438,1.662 3.458,2.691 3.95,16.289 18.914,21.563 28.438,32.28 0.528,-6.408 5.56,-4.029 8.838,-1.537 3.499,-2.951 5.99,1.219 10.375,0.768 0.769,-8.711 7.62,-11.338 14.219,-14.218 1.673,-3.454 1.655,-8.592 1.538,-13.834 1.77,-2.714 2.73,-6.237 4.228,-9.223 4.299,2.055 1.636,7.112 1.92,11.143 0.141,2.001 1.731,4.084 1.922,6.149 0.333,3.597 -1.489,7.092 -1.153,10.761 1.442,0.703 2.508,-0.656 4.611,-0.385 0.639,5.381 3.4,8.643 4.227,13.835 -7.168,6.767 -17.261,11.592 -28.434,14.603 m 80.699,19.215 c 1.609,-7.357 -4.48,-12.459 0,-16.909 -1.041,-2.803 -4.205,-3.481 -6.148,-5.381 0.615,-5.227 -2.209,-7.015 -5.38,-8.454 -0.002,-4.225 -1.548,-6.907 -3.844,-8.839 0.3,-9.776 -4.322,-14.637 -9.222,-19.215 2.496,-7.722 7.328,-14.132 9.991,-21.904 C 119.769,81.823 102.632,41.465 81.469,21.135 73.697,13.668 61.773,7.213 51.495,2.306 c -0.327,-3.004 -1.017,-5.645 -0.769,-9.225 -0.399,-2.034 -3.339,-1.528 -3.841,-3.458 -0.443,-2.118 2.998,-2.361 1.919,-3.842 -2.24,0.051 -4.705,-1.252 -7.686,-1.537 -0.809,1.88 -0.02,5.359 -2.305,5.765 -1.879,-1.151 0.175,-3.883 -0.383,-6.15 -3.626,1.724 -4.076,8.156 -2.692,12.683 -2.092,4.103 -4.842,-0.755 -8.453,-1.539 -2.56,-0.555 -3.306,1.48 -5.38,-0.384 -4.263,0.866 -8.157,2.153 -14.603,2.692 -4.001,0.333 -8.559,-0.102 -11.529,0.767 -2.514,0.736 -4.45,3.1 -6.533,3.074 -1.978,-0.022 -4.646,-1.84 -5.764,-2.689 -1.9,1.994 -3.222,0.874 -4.612,0.384 -3.136,0.45 -2.271,4.902 -3.459,7.301 -20.558,10.95 -36.182,26.944 -45.346,50.341 -4.6,11.748 -7.733,23.225 -6.533,39.967 2.812,39.253 22.842,67.394 52.264,81.854 9.911,4.872 22.409,9.005 34.586,9.992 12.378,1.002 26.167,-3.027 35.353,-6.149 3.949,-1.341 9.044,-2.719 13.452,-4.996 3.222,-1.665 8.6,-6.959 11.527,-6.917 3.639,0.051 3.773,3.709 5.764,6.149 2.024,0.229 3.303,-0.285 4.997,-0.385 0.366,12.061 9.672,15.18 18.063,19.215 1.772,0.236 2.209,-0.864 3.841,-0.769 1.648,0.656 1.739,2.873 2.691,4.227 3.871,1.786 9.487,3.807 14.987,2.691"
             style="fill:#110f0d;fill-opacity:1;fill-rule:nonzero;stroke:none"
             id="path158"
             inkscape:connector-curvature="0" /></g><g
           id="g160"
           transform="translate(213.3936,274.6123)"><path
             d="m 0,0 c -0.143,-1.551 1.314,-1.503 1.922,-2.306 -2.509,-3.128 -7.59,-3.682 -11.529,-5.38 0.734,3.238 5.973,1.971 6.918,4.998 -0.8,1.842 -3.953,-1.265 -5.38,0 C -6.107,-1.064 -3.357,-0.229 0,0"
             style="fill:#110f0d;fill-opacity:1;fill-rule:nonzero;stroke:none"
             id="path162"
             inkscape:connector-curvature="0" /></g><g
           id="g164"
           transform="translate(217.6201,270.7705)"><path
             d="M 0,0 C 3.463,0.3 4.218,-3.687 2.69,-6.149 1.133,-6.043 1.027,-4.481 0,-3.844 -2.074,-4.715 -1.411,-8.324 -4.227,-8.455 -4.759,-5.182 -2.161,-1.847 0,0"
             style="fill:#110f0d;fill-opacity:1;fill-rule:nonzero;stroke:none"
             id="path166"
             inkscape:connector-curvature="0" /></g></g></g><text
       xml:space="preserve"
       style="font-style:normal;font-weight:normal;font-size:14px;line-height:125%;font-family:sans-serif;letter-spacing:0px;word-spacing:0px;fill:#000000;fill-opacity:1;stroke:none;stroke-width:1px;stroke-linecap:butt;stroke-linejoin:miter;stroke-opacity:1"
       x="88.153442"
       y="-474.0347"
       id="text4329"
       sodipodi:linespacing="125%"
       transform="scale(1,-1)"
       inkscape:export-xdpi="100"
       inkscape:export-ydpi="100"><tspan
         sodipodi:role="line"
         id="tspan4331"
         x="88.153442"
         y="-474.0347"
         style="font-size:36px">TRASH MAGIC</tspan></text>
<text
       transform="scale(1,-1)"
       sodipodi:linespacing="125%"
       id="text4333"
       y="-144.95831"
       x="52.848568"
       style="font-style:normal;font-weight:normal;font-size:14px;line-height:125%;font-family:sans-serif;letter-spacing:0px;word-spacing:0px;fill:#000000;fill-opacity:1;stroke:none;stroke-width:1px;stroke-linecap:butt;stroke-linejoin:miter;stroke-opacity:1"
       xml:space="preserve"
       inkscape:export-xdpi="100"
       inkscape:export-ydpi="100"><tspan
         style="font-size:28px"
         y="-144.95831"
         x="52.848568"
         id="tspan4335"
         sodipodi:role="line">VOLUME I: MANIFESTO</tspan></text>
</g></svg>