<?xml version="1.0" encoding="UTF-8" standalone="no"?>
<!-- Created with Inkscape (http://www.inkscape.org/) -->

<svg
   xmlns:dc="http://purl.org/dc/elements/1.1/"
   xmlns:cc="http://creativecommons.org/ns#"
   xmlns:rdf="http://www.w3.org/1999/02/22-rdf-syntax-ns#"
   xmlns:svg="http://www.w3.org/2000/svg"
   xmlns="http://www.w3.org/2000/svg"
   xmlns:sodipodi="http://sodipodi.sourceforge.net/DTD/sodipodi-0.dtd"
   xmlns:inkscape="http://www.inkscape.org/namespaces/inkscape"
   width="4in"
   height="4in"
   viewBox="0 0 360.00001 360.00001"
   id="svg2"
   version="1.1"
   inkscape:version="0.91 r13725"
   sodipodi:docname="ecoli.svg"
   inkscape:export-filename="/Users/lafespietz/Desktop/PostCapitalistIndustry/images/ecoli.png"
   inkscape:export-xdpi="100"
   inkscape:export-ydpi="100">
  <defs
     id="defs4">
    <clipPath
       clipPathUnits="userSpaceOnUse"
       id="clipPath4235">
      <rect
         style="fill:#000000;fill-opacity:1;stroke:none;stroke-width:3.54330707;stroke-miterlimit:4;stroke-dasharray:none;stroke-opacity:1"
         id="rect4237"
         width="859.94098"
         height="616.76093"
         x="-123.35219"
         y="51.447308" />
    </clipPath>
  </defs>
  <sodipodi:namedview
     id="base"
     pagecolor="#ffffff"
     bordercolor="#666666"
     borderopacity="1.0"
     inkscape:pageopacity="0.0"
     inkscape:pageshadow="2"
     inkscape:zoom="0.80253906"
     inkscape:cx="288.12444"
     inkscape:cy="237.23043"
     inkscape:document-units="px"
     inkscape:current-layer="layer1"
     showgrid="false"
     units="in"
     inkscape:window-width="1366"
     inkscape:window-height="719"
     inkscape:window-x="0"
     inkscape:window-y="1"
     inkscape:window-maximized="1" />
  <metadata
     id="metadata7">
    <rdf:RDF>
      <cc:Work
         rdf:about="">
        <dc:format>image/svg+xml</dc:format>
        <dc:type
           rdf:resource="http://purl.org/dc/dcmitype/StillImage" />
        <dc:title></dc:title>
      </cc:Work>
    </rdf:RDF>
  </metadata>
  <g
     inkscape:label="Layer 1"
     inkscape:groupmode="layer"
     id="layer1"
     transform="translate(0,-692.36215)">
    <path
       style="fill:#000000"
       d="m 176.00489,1019.4772 c -0.13047,-0.2113 -1.06054,-0.3354 -2.06681,-0.2761 -2.48438,0.1464 -2.88557,-0.4144 -2.06671,-2.8887 1.09427,-3.3068 1.80654,-5.891 2.43854,-8.8474 1.48107,-6.9285 2.45996,-11.2284 3.33084,-14.6314 0.51486,-2.0118 1.23264,-5.8524 1.59505,-8.53486 0.36243,-2.68243 0.75311,-5.19719 0.86819,-5.58836 0.28484,-0.96834 1.40039,-0.90016 1.66236,0.10164 0.23783,0.90952 0.32139,0.93546 3.16596,0.98247 l 2.03212,0.0335 0.23234,3.95789 c 0.12777,2.17686 0.34332,4.06893 0.47896,4.20463 0.60574,0.6056 2.82488,-0.3984 3.84958,-1.74182 0.86208,-1.1302 1.13249,-1.99887 1.2637,-4.05967 0.14856,-2.33289 0.2764,-2.66338 1.1603,-2.99942 1.28142,-0.48712 3.66986,-0.48696 3.97106,3.5e-4 0.43456,0.70323 0.99393,16.86506 0.59748,17.26276 -0.12813,0.1286 -1.1085,0.2812 -2.17863,0.3395 -1.86415,0.1019 -2.27981,-0.1317 -2.92236,-1.6381 -0.0277,-0.065 -0.66784,0.2335 -1.4225,0.6633 -2.1622,1.2314 -4.97247,1.4307 -6.55644,0.4649 -1.72998,-1.0547 -1.81488,-1.0344 -2.14596,0.5139 -0.15534,0.7266 -0.46661,1.5496 -0.69169,1.829 -0.22509,0.2794 -0.27303,0.508 -0.10651,0.508 0.16651,0 0.11457,0.2287 -0.11541,0.5081 -0.22998,0.2793 -0.54979,1.42239 -0.71067,2.54009 -0.16088,1.1178 -0.47473,2.2608 -0.69744,2.5402 -0.22271,0.2793 -0.30763,0.508 -0.18874,0.508 0.11891,0 -0.0527,0.9603 -0.38155,2.1338 -1.803,6.436 -2.2551,8.4021 -2.31298,10.059 -0.0425,1.2208 -0.23282,1.7951 -0.57192,1.7272 -0.27942,-0.056 -0.50803,0.082 -0.50803,0.3049 0,0.5149 -0.68826,0.5304 -1.00212,0.023 z m 1.10632,-5.4077 c 0.37385,-1.8443 1.21066,-5.4564 1.85958,-8.027 1.71571,-6.7967 2.48281,-10.2588 2.76341,-12.4717 0.30392,-2.3965 1.17009,-3.2786 2.25525,-2.2965 0.4068,0.3681 0.73964,0.9079 0.73964,1.1995 0,0.2916 0.50108,0.9949 1.11351,1.5627 1.61659,1.4991 4.15488,1.4425 5.79943,-0.1291 0.66857,-0.6389 1.21557,-1.5184 1.21557,-1.9545 0,-1.1959 0.99251,-2.3413 1.77014,-2.043 0.5192,0.1993 0.66841,0.8101 0.66841,2.7361 0,2.2925 0.0647,2.4698 0.85725,2.3497 0.82095,-0.1244 0.85623,-0.3449 0.8327,-5.2102 -0.0253,-5.22013 -0.39333,-9.35257 -0.8321,-9.34163 -0.89757,0.0229 -1.48978,1.11626 -1.81896,3.35901 -0.0545,0.37149 -0.22638,0.80279 -0.38187,0.9583 -0.15549,0.15549 -0.28271,0.70833 -0.28271,1.22844 0,1.13528 -2.59678,3.16078 -4.96021,3.86878 -2.36415,0.7084 -2.83499,0.027 -3.03016,-4.38607 -0.0866,-1.96016 -0.19895,-3.60174 -0.24949,-3.64821 -0.0505,-0.0467 -0.99551,-0.14862 -2.09995,-0.2273 l -2.0081,-0.14306 -0.51218,3.53417 c -0.28168,1.94357 -1.1478,5.96727 -1.92471,8.94137 -1.26558,4.8447 -1.90265,7.7182 -2.55039,11.5036 -0.52288,3.0559 -1.36912,6.6544 -1.94747,8.2811 -1.04251,2.9327 -0.82296,3.5975 1.21377,3.6764 0.71923,0.028 0.92057,-0.4152 1.50964,-3.3209 z m 29.39071,-15.2942 c -1.57802,-0.334 -1.87748,-1.563 -1.52977,-6.2784 0.49617,-6.72857 0.30115,-10.18628 -0.63002,-11.17103 -0.40333,-0.42653 -0.38079,-0.77422 0.11207,-1.72731 0.62702,-1.21248 0.89694,-1.34135 2.53196,-1.20843 0.50587,0.0405 1.55197,-0.13388 2.3247,-0.38896 1.68385,-0.55566 2.60636,0.0361 2.32778,1.49358 -0.0977,0.51103 -0.0671,1.21716 0.0679,1.56908 0.20893,0.54446 0.44899,0.48475 1.60855,-0.39964 0.88965,-0.6786 1.88076,-1.03952 2.85398,-1.03952 1.36286,0 1.56681,0.15594 2.37287,1.81498 l 0.88182,1.81507 1.85625,-1.7199 c 2.54523,-2.35821 5.87452,-4.41891 6.65523,-4.11938 0.35145,0.13495 0.91944,0.67331 1.26221,1.19643 0.34275,0.52311 0.97694,1.06334 1.40931,1.20067 0.97646,0.30993 1.13261,0.7146 2.12267,5.50209 1.5313,7.40457 1.63417,8.87457 0.74326,10.62077 -1.05377,2.0655 -2.36221,2.8578 -4.84372,2.9327 -1.8229,0.056 -2.154,-0.072 -3.02133,-1.1574 -1.08727,-1.3613 -1.44423,-2.9406 -1.45083,-6.4197 l -0.004,-2.3554 -1.5241,0.2709 c -2.0239,0.3597 -2.21522,0.5919 -2.37851,2.8872 -0.21407,3.0085 -0.59923,4.9785 -1.02478,5.2415 -0.47779,0.2952 -3.20775,-0.1424 -4.0203,-0.6446 -0.41575,-0.257 -0.61422,-1.1535 -0.64789,-2.9267 -0.089,-4.6905 -0.006,-4.4512 -1.47952,-4.3092 l -1.32088,0.1274 -0.0993,2.845 c -0.15175,4.3448 -0.43154,5.4777 -1.4466,5.8572 -1.69134,0.6326 -2.52177,0.7423 -3.70852,0.491 z m 24.46129,-2.3885 c 0.1124,-0.3417 -0.14614,-0.4525 -0.78126,-0.3349 -0.52209,0.097 -1.46301,0.1893 -2.09092,0.2059 -0.6904,0.019 -1.03709,0.1994 -0.87715,0.4583 0.36147,0.585 3.54051,0.3058 3.74933,-0.3293 z m -21.52344,-0.1799 c 0.31148,-0.3117 0.48771,-1.8954 0.48771,-4.3832 l 0,-3.8954 1.24009,-0.7325 c 0.96766,-0.5716 1.68195,-0.6718 3.2514,-0.4559 l 2.01132,0.2766 0.0591,1.8924 c 0.0326,1.0408 0.0209,2.4623 -0.0256,3.1586 -0.0868,1.2997 0.93829,2.7958 1.62493,2.3714 0.20552,-0.127 0.38111,-1.4547 0.39019,-2.9503 0.0144,-2.363 0.16227,-2.8897 1.12854,-4.0178 1.26086,-1.47227 3.71749,-2.22303 5.84684,-1.78679 l 1.33982,0.27439 -0.11391,3.4376 c -0.0626,1.8906 -0.011,4.0193 0.11483,4.7306 0.21848,1.2353 0.2964,1.2828 1.73961,1.0612 2.1987,-0.3376 2.84116,-0.7721 2.70818,-1.8316 -0.0642,-0.511 -0.50905,-3.2153 -0.98865,-6.0094 -0.47961,-2.79422 -0.89041,-5.27688 -0.9129,-5.51695 -0.0224,-0.24008 -0.62044,-0.81656 -1.32878,-1.28084 l -1.28792,-0.84426 -1.83857,1.1444 c -1.01122,0.62939 -2.55014,2.06661 -3.41985,3.19398 -1.77093,2.29547 -3.19399,2.73637 -3.77631,1.16989 -0.18696,-0.50309 -0.27574,-1.09738 -0.19732,-1.32089 0.0784,-0.22358 -0.19473,-0.84415 -0.60704,-1.37909 -1.06612,-1.38324 -2.43327,-0.90952 -4.50033,1.55938 -2.1801,2.60388 -2.86411,2.40488 -2.86411,-0.83349 0,-2.28667 -0.0461,-2.39499 -1.02087,-2.39499 -0.96291,0 -1.00615,0.092 -0.76166,1.62112 0.14259,0.89153 0.0668,2.12606 -0.16829,2.74337 -0.65564,1.72107 -1.0023,10.25637 -0.44389,10.92927 0.57013,0.687 1.66292,0.7196 2.31343,0.068 z m 22.85075,-4.4046 c -0.59342,-4.0364 -0.88495,-5.2684 -1.24667,-5.2684 -0.18256,0 -0.16705,0.5748 0.0344,1.2775 0.20151,0.7026 0.48925,2.6334 0.63942,4.2905 0.15017,1.6573 0.42737,2.8588 0.61601,2.6702 0.18863,-0.1886 0.16917,-1.525 -0.0433,-2.9698 z m -73.53181,1.2798 c -0.41834,-0.2734 -0.50116,-0.8648 -0.31319,-2.2362 0.14056,-1.0257 0.0868,-2.3084 -0.11934,-2.8507 -0.51602,-1.3572 1.05903,-3.087 2.81083,-3.087 l 1.23867,0 0,-3.15253 c 0,-1.73384 0.17312,-3.75618 0.38473,-4.49397 0.56713,-1.97741 0.2086,-2.45589 -1.94432,-2.59496 -1.81664,-0.11742 -1.9105,-0.18516 -2.26928,-1.63728 -0.42126,-1.70522 -0.19059,-2.32552 1.93043,-5.19117 l 1.35368,-1.82892 2.97993,-0.12079 c 3.50175,-0.14183 3.64622,-0.0134 3.655,3.2466 0.003,1.27214 0.19799,2.43143 0.43237,2.57637 0.26485,0.16369 0.28453,0.44198 0.0521,0.73516 -0.20579,0.25958 -0.38768,3.18685 -0.40421,6.50517 l -0.0301,6.03332 1.05718,-0.26531 c 0.6794,-0.17049 1.17763,-0.075 1.3943,0.26628 0.42145,0.6645 0.46026,7.93413 0.0437,8.19153 -0.16823,0.104 -1.03385,-0.062 -1.92358,-0.3671 -1.2328,-0.4237 -2.39294,-0.4692 -4.87603,-0.1908 -1.7921,0.201 -3.62414,0.4709 -4.07121,0.5997 -0.44706,0.1287 -1.06878,0.067 -1.38162,-0.1374 z m 9.51015,-2.67 c 0.9848,-0.036 1.60968,-0.2515 1.58505,-0.5464 -0.0224,-0.2678 -0.0682,-0.9956 -0.10164,-1.6175 -0.0499,-0.9234 -0.26576,-1.1471 -1.17863,-1.2202 -1.36944,-0.1098 -2.23325,-1.17721 -1.8626,-2.30176 0.33019,-1.00185 0.2577,-12.23099 -0.0966,-14.95743 -0.15973,-1.22922 -0.45843,-1.94901 -0.82234,-1.98132 -0.31433,-0.0283 -0.80011,-0.0856 -1.07954,-0.12785 -0.97819,-0.14833 -2.6724,0.98395 -3.517,2.35049 -1.41077,2.28268 -1.1914,2.70527 1.40452,2.70527 l 2.25658,0 -0.25843,6.60445 c -0.14215,3.63234 -0.43695,7.30445 -0.65508,8.16005 -0.39307,1.5419 -0.411,1.5533 -1.99815,1.2852 -1.58759,-0.2682 -1.60151,-0.2593 -1.60151,1.0322 l 0,1.3028 3.1498,-0.3143 c 1.73238,-0.1728 3.88136,-0.341 4.77549,-0.3737 z m -44.13538,-5.27096 c -0.0956,-0.0957 -1.61417,-0.21609 -3.37437,-0.26751 -1.7602,-0.0511 -5.02671,-0.42742 -7.25891,-0.83569 -2.23221,-0.4082 -4.24986,-0.62402 -4.48366,-0.47955 -0.23382,0.14455 -5.28685,0.32564 -11.228952,0.40237 -5.942132,0.0768 -12.951383,0.27703 -15.576138,0.44497 -2.624755,0.16793 -5.27512,0.17075 -5.889695,0.008 -0.614578,-0.16432 -2.62783,-0.34769 -4.473902,-0.40732 -2.491917,-0.0802 -3.356486,-0.24951 -3.356486,-0.65655 0,-0.30147 -0.371876,-0.64536 -0.826382,-0.76425 -0.789134,-0.20639 -0.815493,-0.42901 -0.584847,-4.9407 0.132843,-2.59853 0.320522,-5.11702 0.417067,-5.59662 0.112041,-0.55666 -0.07,-0.9664 -0.503382,-1.13264 -0.611128,-0.23454 -0.616457,-0.32295 -0.05338,-0.88602 0.506041,-0.50605 0.927391,-0.54613 2.205888,-0.21012 2.388947,0.62804 12.45481,1.32328 15.637847,1.08012 9.110062,-0.69599 10.059042,-0.78666 13.995412,-1.33781 1.34644,-0.18854 3.35824,-0.28549 4.47068,-0.21536 1.11243,0.0699 2.93861,0.17895 4.05817,0.24189 1.11955,0.0628 2.21691,0.20815 2.43855,0.32253 0.22165,0.11445 1.86613,0.1788 3.6544,0.14303 1.78827,-0.0353 5.08032,0.1716 7.31567,0.46075 2.23533,0.28916 7.72209,0.56124 12.19275,0.60471 4.47068,0.0438 9.04297,0.22549 10.16064,0.40444 1.74692,0.27969 2.10804,0.21874 2.57294,-0.43464 0.66769,-0.93824 1.63039,-0.6258 2.13133,0.69176 0.20601,0.54183 0.55778,0.87184 0.78172,0.73347 0.63354,-0.39161 0.47877,0.59561 -0.19976,1.27417 -0.47792,0.47791 -0.58593,1.55472 -0.50803,5.06441 0.0754,3.39843 -0.0322,4.53886 -0.45273,4.80011 -0.60631,0.37653 -3.00928,0.55416 -6.76402,0.49983 -1.3412,-0.0194 -4.08458,0.1577 -6.09638,0.39346 -4.33713,0.50829 -10.15644,0.84187 -10.40204,0.59632 z m 10.49873,-2.40231 c 0.20907,-0.12921 2.48958,-0.32457 5.06781,-0.4343 2.57821,-0.10959 5.15298,-0.3161 5.72168,-0.45872 l 1.03403,-0.25957 -0.22365,-3.92728 c -0.12301,-2.15997 -0.24456,-3.95522 -0.27014,-3.98937 -0.12286,-0.16392 -10.94932,-0.65014 -16.91315,-0.75951 -3.68832,-0.0677 -7.30256,-0.30984 -8.03165,-0.53816 -1.27254,-0.39853 -28.524716,-0.31399 -33.220556,0.10301 -1.117671,0.0993 -3.769602,0.1711 -5.893173,0.15967 -2.123575,-0.0112 -5.369899,-0.006 -7.214055,0.0162 -1.844157,0.0205 -3.353141,-0.0938 -3.353299,-0.25395 -1.54e-4,-0.16017 -0.444987,-0.31681 -0.9885,-0.34807 -0.930051,-0.0536 -1.002991,0.10185 -1.239152,2.64177 -0.138014,1.48423 -0.349877,3.38741 -0.470816,4.22928 -0.213653,1.48723 -0.169023,1.5532 1.573834,2.32416 2.247565,0.99418 8.49288,1.52312 13.724118,1.16248 2.123569,-0.14642 5.88772,-0.34514 8.364796,-0.44172 2.477061,-0.0965 4.745751,-0.32492 5.041511,-0.50776 0.33743,-0.20859 0.44001,-0.17419 0.27538,0.0922 -0.17916,0.28991 2.15336,0.41074 7.354482,0.38103 4.5,-0.0265 8.69786,0.16052 10.2586,0.45475 1.45298,0.27413 3.922,0.61167 5.48675,0.75023 1.56474,0.13865 2.87535,0.2743 2.9125,0.3012 0.21915,0.15956 10.69005,-0.50459 11.00265,-0.69783 z m 14.53752,-0.26442 c -0.1424,-0.23038 0.0207,-0.29847 0.38244,-0.15964 0.7041,0.27024 0.83291,0.56148 0.24831,0.56148 -0.21035,0 -0.49417,-0.18081 -0.63075,-0.40184 z m 170.28945,-34.84474 c -2.44013,-0.58954 -5.02144,-5.40754 -7.68149,-14.33736 -1.46841,-4.9295 -1.94071,-9.81586 -1.79431,-18.56429 0.0703,-4.20759 -0.0549,-10.1192 -0.27842,-13.13691 -0.48387,-6.53238 -0.49502,-12.00581 -0.0369,-18.08594 0.18531,-2.45888 0.38105,-6.48249 0.435,-8.94137 0.0845,-3.8571 0.7158,-7.62054 1.73816,-10.36384 0.12495,-0.33531 0.19214,-0.83035 0.1493,-1.10011 -0.11783,-0.7421 2.05182,-1.69645 3.31,-1.45595 1.47006,0.28102 1.42439,0.93035 -0.0655,0.93035 -0.69045,0 -1.27626,0.26178 -1.41916,0.63418 -0.20213,0.52676 0.007,0.59429 1.23824,0.39871 0.81487,-0.1295 1.70457,-0.54043 1.97713,-0.91317 0.45099,-0.61674 0.61053,-0.62201 1.77362,-0.0588 0.70292,0.34044 2.41791,0.65449 3.81109,0.69786 3.52793,0.10981 8.99577,1.53753 11.28618,2.94684 2.74044,1.68622 2.97806,2.497 3.44032,11.73848 0.75794,15.15335 1.3346,50.4671 0.86944,53.24177 -0.13116,0.78236 -0.34302,2.88561 -0.47077,4.67388 -0.28114,3.93521 -0.97634,8.27666 -1.48057,9.24617 -0.20343,0.39121 -0.7983,0.71125 -1.3219,0.71125 -0.5236,0 -1.15978,0.25035 -1.4137,0.55635 -0.32057,0.38623 -1.60938,0.57883 -4.21565,0.62991 -2.06465,0.0406 -4.11969,0.14916 -4.56676,0.2415 -1.6159,0.33382 -4.48826,0.50257 -5.28353,0.31043 z m 5.08032,-2.46392 c 0,-0.17563 -0.32006,-0.35108 -0.71125,-0.38988 -1.82533,-0.18098 -3.35301,-0.63938 -3.35301,-1.00613 0,-0.22208 -0.25205,-0.30707 -0.5601,-0.18884 -0.30807,0.11822 -0.7653,0.009 -1.01606,-0.24101 -0.337,-0.33697 -0.45597,-0.24385 -0.45597,0.3569 0,0.44706 0.21946,1.03231 0.48772,1.30055 0.53604,0.53608 5.60867,0.68836 5.60867,0.16841 z m 6.42671,-6.86456 c 0.14236,-3.7667 0.8903,-6.38137 1.87993,-6.57195 0.59204,-0.11401 0.68806,0.0161 0.44851,0.60739 -0.48018,1.18533 -1.07646,7.07683 -0.81218,8.0246 0.17011,0.61011 0.12886,0.6978 -0.14346,0.30497 -0.26894,-0.388 -0.46519,-0.41726 -0.66201,-0.0988 -0.15436,0.24977 0.0506,0.57477 0.45722,0.72501 0.40535,0.14977 0.84786,0.43677 0.98337,0.63779 0.25482,0.37802 1.70123,-1.80756 2.16661,-3.27381 0.9449,-2.97715 1.38342,-8.0218 1.17285,-13.49263 -0.12477,-3.24125 -0.27584,-14.12329 -0.33569,-24.18233 -0.14103,-23.69362 -0.33666,-27.33603 -1.601,-29.80956 -1.40075,-2.74033 -3.60534,-4.6578 -5.91661,-5.14601 -0.11177,-0.0236 -0.80224,-0.18531 -1.5344,-0.35934 -2.74741,-0.65308 -9.7945,-0.91214 -11.67443,-0.42919 -0.6706,0.1723 -1.49361,0.6952 -1.82891,1.16201 -0.93456,1.30112 -1.56702,9.27214 -1.38954,17.51222 0.16786,7.79346 0.17794,7.90668 1.17577,13.20884 0.35759,1.90003 0.74339,4.09473 0.85733,4.8771 1.03066,7.07652 1.39012,10.06605 1.58827,13.20883 0.12685,2.01181 0.49427,6.85843 0.81651,10.77028 0.32224,3.91185 0.67668,9.00828 0.78765,11.32542 0.20687,4.31969 0.61309,5.2891 2.23153,5.3251 0.31942,0.006 1.14244,0.18718 1.82891,0.40014 0.68648,0.21296 2.25405,0.64451 3.48348,0.95898 l 2.23535,0.57176 1.83736,-1.67023 c 1.82116,-1.65547 1.83834,-1.69593 1.94758,-4.58663 z m 1.22203,4.39393 c 0.0714,-0.47732 -0.0313,-0.8679 -0.22837,-0.8679 -0.5141,0 -2.14221,2.2977 -1.84132,2.59859 0.43354,0.43357 1.93353,-0.82075 2.06969,-1.73069 z m 3.55759,1.52275 c 0.52446,-0.84862 0.92127,-3.21118 0.49509,-2.94778 -0.36504,0.22562 -1.54078,2.65668 -1.54078,3.18584 0,0.39614 0.76077,0.22291 1.04569,-0.23806 z m -20.33684,-13.26252 c -0.16966,-2.62652 -0.35241,-5.59851 -0.40614,-6.60441 -0.0538,-1.00591 -0.2106,-2.56048 -0.34859,-3.45462 -0.13799,-0.89414 -0.35969,-3.54607 -0.49266,-5.89316 -0.34035,-6.00724 -2.25626,-18.88777 -2.90028,-19.49836 -0.12374,-0.1173 -0.11779,1.06695 0.0132,2.63169 0.13101,1.56473 0.35376,4.30811 0.49501,6.09639 0.14125,1.78826 0.32357,3.80007 0.40516,4.47067 0.15342,1.26095 0.15017,4.49731 -0.0123,12.19277 -0.0683,3.23984 0.10469,5.22599 0.62871,7.21406 0.39768,1.50885 0.62086,2.74338 0.49597,2.74338 -0.1249,0 4e-4,0.27433 0.27887,0.60963 0.27828,0.3353 0.36971,0.60964 0.2032,0.60964 -0.16649,0 -0.11857,0.22861 0.10651,0.50803 0.2251,0.27941 0.53636,1.10243 0.69169,1.82892 0.15535,0.72647 0.47765,1.32088 0.71622,1.32088 0.30031,0 0.33888,-1.46938 0.12535,-4.77551 z m -97.63336,7.36579 c -3.44117,-0.70851 -6.7488,-2.18509 -9.13351,-4.07735 -3.47728,-2.75925 -4.37334,-4.05161 -4.66003,-6.72096 -0.12734,-1.1857 -0.32712,-2.31155 -0.44394,-2.50189 -0.28604,-0.46597 -0.39887,-3.71952 -0.69263,-19.97522 -0.13738,-7.60016 -0.3744,-16.65329 -0.52678,-20.11806 -0.4904,-11.15247 -0.3107,-16.55211 0.64054,-19.2461 0.4621,-1.3087 1.32186,-3.01097 1.91058,-3.78284 l 1.07041,-1.40338 -1.08096,-1.63346 c -0.96829,-1.46317 -1.37685,-2.98178 -2.06296,-7.66755 -0.11453,-0.78237 -0.29887,-1.838 -0.40961,-2.34588 -0.12606,-0.57824 0.0185,-1.00774 0.38688,-1.14908 0.32351,-0.12415 0.68586,-0.48026 0.80526,-0.79136 0.25539,-0.66554 -0.72166,-2.73285 -1.1087,-2.34582 -0.39813,0.39814 -0.30631,-0.39497 0.12462,-1.07631 0.2441,-0.38596 0.20609,-0.80667 -0.10783,-1.19378 -0.39885,-0.49179 -0.35871,-0.5505 0.22647,-0.3312 0.4833,0.18114 0.71124,0.0676 0.71124,-0.3543 0,-0.35048 -0.19597,-0.49977 -0.44996,-0.34278 -0.30769,0.19015 -0.35649,-0.0166 -0.15429,-0.65355 0.4445,-1.40048 0.344,-9.40156 -0.17591,-14.00468 -0.25247,-2.23535 -0.55234,-4.88728 -0.66639,-5.89318 -0.11404,-1.00591 -0.36976,-2.37759 -0.56826,-3.04819 -0.61511,-2.07801 -1.48663,-13.77122 -1.31735,-17.67477 0.0629,-1.45036 0.38616,-3.55362 0.71833,-4.67388 0.58294,-1.96589 2.60261,-4.62232 4.12294,-5.42281 1.47851,-0.77847 14.15145,-1.30616 16.7698,-0.69827 2.95265,0.6855 6.45999,2.71588 8.01204,4.63816 0.83691,1.03651 1.63805,1.97603 1.78034,2.0878 0.14227,0.11176 0.38632,1.20912 0.5423,2.43855 0.15602,1.22944 0.60452,3.42414 0.99671,4.87712 0.71384,2.6447 0.90379,7.90287 0.31963,8.84808 -0.16986,0.27484 -0.12653,0.4997 0.0964,0.4997 0.22284,0 0.40911,0.32006 0.41393,0.71125 0.0383,3.10991 0.0234,7.49253 -0.0263,7.73291 -0.0335,0.1617 0.0762,0.6065 0.24386,0.98847 0.16764,0.38197 0.0923,1.33857 -0.16758,2.12579 -0.2598,0.78723 -0.35713,1.61778 -0.21627,1.84568 0.14086,0.2279 0.10227,0.41437 -0.0857,0.41437 -0.69025,0 -0.79993,3.28589 -0.28493,8.53494 0.16449,1.67651 0.31374,6.11162 0.33168,9.85582 0.0179,3.74419 0.1667,6.80763 0.33064,6.80763 0.16395,0 0.27464,0.62325 0.246,1.38501 -0.0397,1.05336 -0.19826,1.32891 -0.66259,1.15071 -0.46083,-0.17684 -0.55496,-0.0218 -0.38394,0.63219 0.12747,0.4874 -0.0127,1.06503 -0.3203,1.32033 -0.62526,0.51893 -1.61585,3.18485 -1.4659,3.94509 0.0551,0.27942 -0.11626,0.50803 -0.38083,0.50803 -0.26457,0 -0.70631,0.30805 -0.98163,0.68459 -0.40742,0.55715 -0.32695,1.18125 0.43232,3.35301 1.80259,5.15608 2.49867,9.17561 2.81999,16.28368 0.12629,2.79418 0.33913,5.99478 0.47297,7.11245 0.13385,1.11767 0.29292,6.87875 0.3535,12.80241 0.0605,5.92365 0.26601,12.2334 0.45651,14.02168 0.67101,6.29903 0.37616,11.82033 -0.8416,15.75889 -1.5129,4.89309 -2.78536,5.95506 -8.15983,6.80996 -1.56474,0.2489 -3.11932,0.54974 -3.45462,0.66855 -0.60113,0.21298 -3.70408,0.41568 -4.3446,0.2838 z m 7.21468,-2.78015 c 2.27761,-0.55149 4.5632,-1.27928 5.07908,-1.6173 0.64778,-0.42445 1.29212,-1.71737 2.08276,-4.17921 1.48122,-4.61219 1.47958,-8.90288 -0.006,-17.61039 -0.94416,-5.53105 -1.05399,-7.08478 -0.8762,-12.39597 0.23024,-6.87823 0.22586,-14.41977 -0.009,-16.23295 -0.0871,-0.67061 -0.27104,-2.68241 -0.40893,-4.47068 -0.13789,-1.78828 -0.322,-4.07443 -0.40912,-5.08032 -0.087,-1.00591 -0.62338,-3.09028 -1.19171,-4.63196 -0.56831,-1.54167 -1.03331,-2.86516 -1.03331,-2.94111 0,-0.22739 -2.95726,-1.39148 -3.12041,-1.22834 -0.0829,0.0827 0.12813,0.38198 0.46882,0.66475 0.76277,0.63306 0.80183,1.22742 0.0807,1.22742 -0.91065,0 -2.33039,-1.84269 -2.85906,-3.71077 -0.62533,-2.20964 -0.44159,-3.46259 0.54563,-3.72076 0.46499,-0.12159 0.95712,-0.85685 1.26796,-1.89433 0.44083,-1.47135 1.7368,-2.84983 2.22256,-2.36407 0.0892,0.0891 -0.20076,0.87429 -0.64444,1.74455 -0.99367,1.949 -1.01812,2.62587 -0.0954,2.64264 0.64253,0.0117 0.63476,0.0708 -0.0802,0.61155 -0.43536,0.32925 -1.12119,0.494 -1.5241,0.36612 -0.9611,-0.30504 -0.96577,0.93775 -0.007,2.06781 0.68179,0.80425 4.9652,3.61365 4.9652,3.25657 0,-0.72341 -1.06212,-2.20799 -2.0561,-2.87394 -1.1348,-0.76029 -1.65373,-2.22175 -0.78889,-2.22175 0.22354,0 0.45215,0.0309 0.50803,0.0686 0.0559,0.0377 0.53042,-0.16082 1.05453,-0.44129 1.92551,-1.03052 2.96214,-4.40255 3.65164,-11.87842 0.5937,-6.43727 0.58616,-7.28109 -0.12402,-13.86356 -0.9257,-8.58035 -0.94517,-17.74165 -0.0497,-23.35631 0.3749,-2.35046 0.5507,-4.90944 0.40485,-5.89317 -0.68536,-4.62219 -2.66747,-10.0101 -4.42392,-12.02538 -0.45006,-0.51638 -2.00708,-1.49636 -3.46005,-2.17771 -2.4557,-1.15157 -2.82785,-1.21533 -5.28354,-0.90553 -1.45297,0.18332 -4.54001,0.28815 -6.86009,0.23297 -2.32008,-0.0552 -4.82569,0.10007 -5.56803,0.34513 -2.15224,0.71031 -3.6579,2.77543 -4.39892,6.03341 -0.82059,3.60791 -0.81893,5.10555 0.006,6.36627 0.48045,0.73324 0.5185,1.00176 0.14198,1.00176 -0.40099,0 -0.4505,0.96321 -0.22453,4.36907 0.15942,2.40299 0.30325,4.64342 0.3196,4.97871 0.0165,0.33531 0.38494,2.34712 0.81906,4.47069 0.43414,2.12357 0.84108,4.68406 0.90435,5.68995 0.34381,5.46704 0.72434,12.34013 0.84263,15.2198 0.29912,7.28124 0.70393,12.24941 1.05095,12.89782 0.20168,0.37683 0.36669,1.20481 0.36669,1.83994 0,0.84986 0.52943,1.66837 2.00501,3.09978 1.97848,1.91929 2.54825,3.52097 1.25251,3.52097 -0.86181,0 -3.66394,2.35648 -3.66394,3.08122 0,0.58885 0.0679,0.57307 2.23533,-0.51885 0.44708,-0.22523 1.17865,-0.27342 1.62571,-0.10705 0.63905,0.23778 0.68251,0.34689 0.20321,0.51028 -0.33529,0.11431 -0.97542,0.34587 -1.42249,0.51458 -0.44706,0.16869 -0.96926,0.27128 -1.16044,0.22792 -0.19118,-0.0434 -0.5738,0.10893 -0.85025,0.33839 -0.27646,0.22943 -0.60926,0.31055 -0.73957,0.18023 -0.1303,-0.1303 -0.1827,0.0999 -0.11641,0.51156 0.0662,0.41167 -0.0234,0.93138 -0.19915,1.15492 -0.32208,0.4095 -0.3888,0.65766 -0.3888,1.44647 0,0.23673 -0.16197,0.3303 -0.35994,0.20796 -0.39838,-0.24623 -0.8088,1.34211 -0.54856,2.12287 0.0908,0.27238 0.37808,0.36754 0.6384,0.21147 0.30491,-0.18279 0.29006,-0.0574 -0.0417,0.35238 -0.28327,0.34987 -0.39801,0.94113 -0.25495,1.31392 0.17224,0.44884 0.0731,0.63783 -0.29335,0.55953 -0.6331,-0.13522 -0.54994,1.99125 0.10926,2.79556 0.26391,0.32201 0.15292,0.61286 -0.34428,0.9021 -0.40357,0.23477 -0.55089,0.43238 -0.32736,0.43913 0.25524,0.007 0.40643,2.69607 0.40643,7.2264 0,9.74567 0.52917,31.75032 0.77302,32.14489 0.10794,0.17467 0.30741,2.40961 0.44324,4.96651 0.28809,5.42292 0.86003,8.10356 1.72894,8.10356 0.41362,0 0.53386,0.2691 0.38114,0.85305 -0.12269,0.46918 -0.10782,0.73778 0.0331,0.59689 0.14089,-0.14089 0.44856,0.0948 0.68371,0.52383 0.59557,1.08648 3.82976,3.71619 4.57044,3.71619 0.33625,0 1.18769,0.26191 1.89207,0.58202 2.86348,1.30135 5.20714,1.31053 10.45036,0.0411 z m -12.42598,-66.47187 c -0.4331,-0.70078 0.57029,-3.04897 1.81056,-4.23724 1.73714,-1.66428 2.20367,-1.10258 0.80756,0.97229 -0.66891,0.99408 -1.11282,2.07682 -0.98648,2.40606 0.35354,0.9213 -1.11523,1.69446 -1.63164,0.85889 z m -5.26758,-0.78706 c -0.50605,-0.8188 3.88447,-5.98566 4.67245,-5.49867 0.21452,0.13258 -0.54341,1.37428 -1.6843,2.75933 -2.76116,3.35211 -2.66431,3.26331 -2.98815,2.73934 z m 10.25302,-0.82006 c -0.38781,-0.45292 -0.524,-0.82349 -0.30265,-0.82349 0.56365,0 0.5042,-1.51485 -0.0734,-1.87186 -0.31415,-0.19415 -0.16954,-0.40746 0.42546,-0.62756 0.49575,-0.1834 1.09359,-0.88485 1.32852,-1.55879 0.23493,-0.67392 0.68361,-1.22533 0.99704,-1.22533 0.6905,0 0.69398,0.0554 0.0936,1.49765 -0.26196,0.62926 -0.50098,2.05807 -0.53118,3.17514 -0.0617,2.28456 -0.76403,2.80451 -1.93729,1.43424 z m 5.38333,-0.41707 c -0.36631,-0.23671 -0.41644,-0.39646 -0.1256,-0.4002 0.26623,-0.003 0.59708,0.17667 0.73524,0.4002 0.31184,0.5046 0.17115,0.5046 -0.60964,0 z m -20.02493,-66.49292 c -0.16299,-0.16299 -0.29635,-0.57678 -0.29635,-0.91954 0,-0.45747 0.12022,-0.50295 0.45215,-0.17104 0.24867,0.24868 0.38203,0.66248 0.29635,0.91954 -0.0858,0.25707 -0.28916,0.33403 -0.45215,0.17104 z m 4.17433,57.81696 c 0,-0.0775 -0.36579,-0.56278 -0.81285,-1.07826 -0.882,-1.01695 -1.06188,-0.81827 -0.39212,0.43316 0.35251,0.65869 1.20497,1.11507 1.20497,0.6451 z m 25.92914,-38.29891 c -0.0606,-1.88205 -0.22886,-3.42191 -0.37371,-3.42191 -0.14485,0 -0.28985,1.66016 -0.32223,3.68926 -0.0402,2.51793 0.0785,3.60438 0.37369,3.42192 0.26536,-0.16401 0.38993,-1.59023 0.32225,-3.68927 z m -115.54598,99.20702 c -3.06582,-0.8749 -5.6542,-3.74278 -6.26368,-6.94007 -0.25311,-1.32779 -0.6708,-3.14574 -0.92818,-4.03988 -0.28939,-1.00528 -0.49601,-5.65847 -0.54142,-12.19277 -0.0403,-5.81188 -0.18711,-11.20718 -0.3261,-11.98955 -0.56944,-3.20593 -0.59549,-8.47642 -0.0559,-11.30846 0.44355,-2.32784 0.86601,-3.30545 2.00177,-4.63232 0.79177,-0.92501 1.43959,-1.81935 1.43959,-1.98743 0,-0.16808 -0.55144,-0.69825 -1.22541,-1.17817 -1.65452,-1.17812 -2.33717,-2.63509 -2.78645,-5.947 -0.2079,-1.53272 -0.76078,-4.89002 -1.22858,-7.46067 -0.58271,-3.20209 -0.85453,-6.40168 -0.86319,-10.16064 -0.006,-3.01771 -0.18634,-6.23896 -0.39865,-7.15835 -0.44702,-1.93573 -0.67219,-10.85051 -0.31194,-12.35008 0.13425,-0.55883 0.54581,-1.60813 0.91457,-2.33178 0.36876,-0.72363 0.55729,-1.49882 0.41898,-1.72264 -0.15113,-0.24455 0.0268,-0.30015 0.4459,-0.13932 0.51064,0.19594 0.60832,0.12345 0.36475,-0.27067 -0.21334,-0.34518 -0.175,-0.44084 0.10683,-0.26665 0.24173,0.1494 1.468,-0.34791 2.72505,-1.10513 1.48039,-0.89179 2.08134,-1.45513 1.70596,-1.59919 -0.31875,-0.12231 -1.05644,0.0249 -1.63929,0.32742 -0.67759,0.35155 -1.15021,0.40347 -1.31056,0.144 -0.3878,-0.62748 -0.0984,-0.7301 2.58083,-0.91507 1.372,-0.0947 3.9727,-0.67453 5.77931,-1.28846 3.04333,-1.03419 3.44623,-1.0801 5.48132,-0.62467 3.06798,0.68658 4.1471,1.66404 4.89477,4.43368 0.34302,1.27065 0.97949,3.40764 1.41438,4.74884 1.03628,3.1958 1.19406,4.62558 2.26674,20.53986 0.84062,12.47157 0.49157,19.3354 -1.09782,21.58793 -0.41867,0.59335 -0.76121,1.27497 -0.76121,1.51473 0,0.23976 -0.46473,0.74042 -1.03273,1.1126 -1.01912,0.66777 -1.02261,0.68796 -0.26368,1.53347 0.42297,0.47123 0.88082,1.05678 1.01742,1.30123 0.28932,0.51776 1.7577,7.33939 2.09143,9.71619 0.12555,0.89414 0.5813,3.82039 1.01281,6.50282 1.1086,6.8916 1.30091,11.42006 0.88018,20.7277 -0.37202,8.23014 -0.64175,9.72683 -2.01944,11.20562 -2.0062,2.15339 -10.27258,3.41596 -14.48839,2.21288 z m 9.87116,-1.67118 c 0.15921,-0.24501 0.7467,-0.56453 1.30554,-0.71005 0.55883,-0.14552 1.47329,-0.62 2.03213,-1.05443 0.92629,-0.72004 1.03401,-1.13314 1.21927,-4.67578 0.11176,-2.13728 0.0983,-3.88564 -0.0302,-3.88526 -0.12832,3.8e-4 -0.18975,-0.59372 -0.13653,-1.32019 0.0531,-0.7265 0.12736,-1.32089 0.16472,-1.32089 0.30216,0 0.50193,-3.52721 0.52947,-9.34778 0.0307,-6.48425 -0.0612,-7.35923 -1.49392,-14.2249 -0.83964,-4.02362 -1.56008,-7.63018 -1.60101,-8.01461 -0.0408,-0.3844 -0.41284,-1.09382 -0.8265,-1.57646 -0.57252,-0.668 -0.63112,-0.95229 -0.24544,-1.19067 0.51801,-0.32013 -0.34544,-1.34547 -2.45131,-2.9109 -1.18097,-0.87787 -0.84182,-1.76721 0.7991,-2.0954 0.70463,-0.14093 1.16807,-0.43917 1.02989,-0.66277 -0.14182,-0.22946 0.005,-0.30817 0.33731,-0.1807 1.10491,0.424 2.3522,-2.20591 2.90649,-6.12833 0.25515,-1.80566 0.28871,-14.57137 0.0417,-15.85059 -0.26423,-1.36817 -0.62062,-5.84933 -0.87274,-10.9735 -0.23313,-4.73786 -0.58657,-6.88931 -1.49391,-9.09349 -0.2416,-0.58693 -0.5064,-1.41857 -0.58845,-1.84811 -0.082,-0.42952 -0.30543,-0.97819 -0.49642,-1.21927 -0.191,-0.24108 -0.27994,-0.84983 -0.19767,-1.35278 0.10706,-0.65432 -0.0521,-0.91624 -0.55914,-0.92068 -0.59123,-0.005 -0.61032,-0.0685 -0.1152,-0.38161 0.50578,-0.31992 0.47589,-0.50531 -0.20225,-1.25467 -1.25238,-1.38384 -2.82561,-2.01532 -5.02095,-2.01532 -1.95748,0 -3.02967,0.51821 -1.97722,0.95561 0.28081,0.11672 0.073,0.16284 -0.46176,0.10259 -1.30007,-0.14668 -3.09587,0.50498 -6.4336,2.33458 -3.65041,2.00101 -5.13672,4.19839 -5.17022,7.64362 -0.0127,1.30407 -0.14548,2.3721 -0.29511,2.37339 -0.14963,0.002 -0.12131,0.59673 0.0629,1.32323 0.38206,1.50648 0.82075,7.9887 1.02459,15.13935 0.14224,4.9901 0.91768,10.42463 1.79774,12.59919 0.27139,0.6706 0.5555,2.27823 0.63135,3.57251 0.15016,2.56191 0.93026,4.13962 2.25467,4.55996 0.79099,0.25105 1.61574,1.66675 1.61131,2.76588 -0.002,0.26486 -0.62652,1.16157 -1.38988,1.99268 -2.50714,2.72964 -3.27766,8.10042 -2.23627,15.58767 0.2399,1.72475 0.50417,7.45335 0.5873,12.73021 0.0832,5.27686 0.24821,10.14297 0.36687,10.81357 0.57654,3.25847 1.43688,5.87541 2.17387,6.6124 0.44811,0.44811 0.97365,1.0987 1.16787,1.44572 0.1942,0.34704 1.17501,1.01234 2.17958,1.47845 1.53005,0.70994 2.47215,0.82937 5.8045,0.73579 2.31483,-0.0651 4.099,-0.29797 4.26747,-0.55717 z M 113.1997,874.86863 c 0.002,-0.89237 1.58154,-3.53113 1.91451,-3.19818 0.22416,0.22417 -1.45067,3.90942 -1.77671,3.90942 -0.0767,0 -0.13864,-0.32006 -0.1378,-0.71124 z m 9.61853,-3.3825 c -0.96449,-1.12646 -1.55161,-2.73039 -1.10132,-3.00869 0.29988,-0.18534 2.8612,3.09838 2.8612,3.66819 0,0.50346 -1.12515,0.0818 -1.75988,-0.6595 z m 2.90295,-1.061 c 0.29338,-0.11741 0.64392,-0.103 0.77897,0.0319 0.13505,0.13505 -0.105,0.23112 -0.53343,0.21347 -0.47346,-0.0196 -0.56977,-0.11581 -0.24554,-0.24556 z m 1.52482,-1.22895 c -0.22055,-0.57921 -0.17389,-0.6259 0.22751,-0.2275 0.27776,0.2757 0.40264,0.60363 0.2775,0.72877 -0.12513,0.12513 -0.35239,-0.10048 -0.50501,-0.50127 z m -7.95143,-2.24102 c 0,-0.67279 2.15796,-4.15952 2.83228,-4.57627 0.90324,-0.55824 0.87919,0.127 -0.0595,1.69645 -0.51908,0.86784 -1.13975,1.92587 -1.37925,2.35115 -0.54154,0.96164 -1.39346,1.28484 -1.39346,0.52867 z m 5.28354,-3.47546 c 0,-0.61774 2.5092,-3.344 3.07778,-3.344 0.81475,0 0.72975,0.40383 -0.45067,2.14098 -0.60256,0.88674 -1.36229,1.51685 -1.82891,1.51685 -0.43902,0 -0.7982,-0.14122 -0.7982,-0.31383 z m -2.84499,-48.86367 c -0.3663,-0.23672 -0.41643,-0.39646 -0.12559,-0.4002 0.26623,-0.003 0.59708,0.17667 0.73523,0.4002 0.31184,0.50459 0.17115,0.50459 -0.60964,0 z m -91.64206,96.29263 c -0.890334,-0.48714 -2.170575,-1.2964 -2.84498,-1.79836 -0.674404,-0.50196 -1.774865,-1.08254 -2.445466,-1.29016 -1.90755,-0.5906 -3.117755,-3.32094 -2.85104,-6.43224 0.259106,-3.02257 0.268151,-0.89006 -0.07327,-17.27309 -0.43806,-21.01998 -0.367391,-33.7345 0.220571,-39.68561 0.495599,-5.01626 0.729561,-6.85013 0.873928,-6.85013 0.03368,0 0.142791,-0.44286 0.242397,-0.98416 0.09961,-0.54129 0.358766,-1.19824 0.575909,-1.45989 0.217148,-0.26165 0.273751,-0.59677 0.125785,-0.74474 -0.147966,-0.14797 0.159838,-0.72553 0.684009,-1.28348 0.524172,-0.55796 0.827117,-1.01447 0.673212,-1.01447 -0.458095,0 1.831802,-3.24726 2.325879,-3.29829 0.871869,-0.09 1.274646,-0.20404 2.368631,-0.67044 2.170032,-0.92518 4.951263,-1.02145 8.076616,-0.27955 7.127328,1.69189 8.505092,3.58615 8.740372,12.01692 0.165434,5.92813 0.343841,8.6036 0.986078,14.78799 0.445519,4.29005 0.643061,24.07981 0.269785,27.02729 -0.09908,0.78237 -0.228699,5.53755 -0.288051,10.56707 -0.101545,8.60485 -0.585113,13.81847 -1.28169,13.81847 -0.16845,0 -0.220676,0.22861 -0.116061,0.50803 0.360327,0.96243 -6.380386,3.98036 -10.173146,4.55471 -0.894136,0.13539 -2.265822,0.34149 -3.048192,0.458 -1.003261,0.14938 -1.899569,-0.0491 -3.041277,-0.67387 z m 5.967858,-1.2376 c 1.184555,-0.25025 2.519523,-0.66091 2.966592,-0.91259 0.447068,-0.25166 0.995742,-0.46806 1.219276,-0.48086 0.223534,-0.0129 1.262173,-0.40912 2.308092,-0.88072 2.111679,-0.95214 2.918353,-2.14476 3.377142,-4.99293 l 0.29461,-1.82892 -1.973856,2.73575 c -1.917435,2.65753 -3.403358,3.55157 -3.390127,2.03976 0.0081,-0.91568 0.430902,-1.51986 1.283619,-1.83389 0.37411,-0.13779 1.437528,-1.27568 2.363148,-2.52864 l 1.682945,-2.27813 0.173707,-7.60235 c 0.09553,-4.1813 0.270976,-8.89214 0.389879,-10.46851 0.258288,-3.42442 0.276992,-19.51662 0.02415,-20.7836 -0.09767,-0.48944 -0.21933,-2.22691 -0.270349,-3.86105 -0.05101,-1.63412 -0.237579,-3.51982 -0.414581,-4.19041 -0.177004,-0.6706 -0.432189,-4.23698 -0.567073,-7.92529 -0.290819,-7.95196 -0.541959,-9.65643 -1.623485,-11.01838 -1.811876,-2.28169 -5.649315,-3.71507 -9.974899,-3.72586 -2.418526,-0.005 -2.846744,0.12809 -4.730717,1.48159 -1.968889,1.41451 -3.222798,3.2946 -4.550609,6.82314 -1.035011,2.75045 -1.847094,13.30157 -1.809436,23.50938 0.05587,15.14404 0.412991,34.55347 0.63994,34.78042 0.133488,0.13348 0.552693,-0.23039 0.931563,-0.80863 0.685893,-1.04678 1.408237,-1.39247 1.408237,-0.67392 0,0.20756 -0.274337,0.65173 -0.609638,0.98702 -0.335301,0.33531 -0.609639,0.86048 -0.609639,1.16703 0,0.30656 -0.200593,0.75798 -0.445763,1.00314 -0.585424,0.58543 -0.518039,3.87009 0.131749,6.42198 0.46706,1.83429 0.714317,2.13646 2.549355,3.11566 1.11767,0.59641 2.269494,1.29801 2.559609,1.55914 0.916157,0.82459 2.690515,1.62055 3.618376,1.62315 0.491951,0.002 1.863637,-0.20224 3.048192,-0.45248 z m 6.014784,-9.08027 c 0,-1.16911 1.663006,-7.6995 2.092517,-8.21702 0.902613,-1.08758 1.026482,-0.0628 0.314664,2.60318 -0.404284,1.51421 -0.935447,3.5304 -1.180363,4.48042 -0.424724,1.6475 -1.226818,2.38852 -1.226818,1.13342 z m 6.299596,-1.03181 c -0.138153,-0.22354 -0.0575,-0.40642 0.179225,-0.40642 0.236726,0 0.430414,0.18288 0.430414,0.40642 0,0.22353 -0.08065,0.40642 -0.179225,0.40642 -0.09857,0 -0.292261,-0.18289 -0.430414,-0.40642 z m 0,-6.57054 c 0,-1.10659 0.576926,-1.68601 0.640735,-0.64352 0.01713,0.27943 0.0879,0.79761 0.157308,1.15155 0.06942,0.35392 -0.08174,0.6435 -0.335919,0.6435 -0.254169,0 -0.462124,-0.5182 -0.462124,-1.15153 z m 0.127008,-1.8356 c 0.293385,-0.1174 0.643928,-0.10301 0.778983,0.032 0.13505,0.13506 -0.10499,0.23112 -0.533434,0.21347 -0.473464,-0.0196 -0.569769,-0.11581 -0.245549,-0.24555 z m 0.331959,-4.51447 c -0.113762,-0.18405 -0.140393,-0.69001 -0.05918,-1.12431 0.08121,-0.43429 0.161655,-0.95727 0.178756,-1.16217 0.05968,-0.71489 0.547265,0.15081 0.659182,1.17035 0.112836,1.02789 -0.388887,1.74696 -0.778758,1.11613 z m 0.182757,-9.66988 c 0.01952,-0.47346 0.115808,-0.56976 0.245548,-0.24555 0.117403,0.29338 0.102963,0.64393 -0.03206,0.77898 -0.135055,0.13505 -0.231112,-0.105 -0.213464,-0.53343 z M 324.94592,862.94778 c -5.36224,-1.07872 -7.72209,-1.70026 -7.72209,-2.03388 0,-0.20448 -0.26357,-0.37178 -0.58573,-0.37178 -1.49968,0 -5.25441,-4.86746 -5.74226,-7.44402 -0.36998,-1.95402 -0.52677,-2.55918 -0.93929,-3.6252 -0.23663,-0.6115 -0.53296,-2.25752 -0.65853,-3.65782 -0.12556,-1.40033 -0.33861,-3.36907 -0.47345,-4.37496 -0.13484,-1.00591 -0.29807,-2.37759 -0.3627,-3.04819 -0.0646,-0.67061 -0.31812,-2.22424 -0.56326,-3.45253 -0.50585,-2.53469 -0.68385,-9.82796 -0.25673,-10.51907 0.15518,-0.25108 0.0777,-0.45651 -0.17225,-0.45651 -0.24994,0 -0.32162,-0.21484 -0.15933,-0.47745 0.29468,-0.47682 0.26151,-3.92332 -0.0598,-6.22858 -0.0935,-0.6706 -0.26047,-1.93168 -0.371,-2.80241 -0.42507,-3.34867 -0.66479,-4.56723 -1.2054,-6.12727 -0.30762,-0.88771 -0.48493,-2.21368 -0.39404,-2.94659 0.10153,-0.81833 -0.0123,-1.33256 -0.29476,-1.33256 -0.30394,0 -0.27077,-0.23334 0.0978,-0.68764 0.30679,-0.37822 0.35064,-0.56359 0.0974,-0.41194 -0.29871,0.17894 -0.4563,-0.11474 -0.44884,-0.83643 0.006,-0.6117 -0.13083,-4.4145 -0.30477,-8.45067 -0.29845,-6.92506 -0.26873,-7.44597 0.52758,-9.24619 0.91194,-2.06156 0.6182,-2.44953 -0.75198,-0.99322 -1.52217,1.61784 -2.10851,3.54505 -1.85476,6.09638 0.12786,1.28532 0.15024,2.33694 0.0498,2.33694 -0.29599,0 -1.14698,-1.75263 -1.28085,-2.63791 -0.0679,-0.44919 -0.19226,-1.18059 -0.27633,-1.62535 -0.20535,-1.08651 1.0191,-3.7315 2.40932,-5.20444 2.15328,-2.2814 8.02302,-4.14877 12.0101,-3.82082 2.46562,0.20279 3.04267,0.30492 4.40279,0.7791 0.3353,0.11689 1.65271,0.51694 2.92756,0.889 1.76865,0.51618 2.65458,1.06978 3.73861,2.33624 1.86433,2.17806 3.08804,5.85882 3.08804,9.28847 0,1.48027 0.17084,3.68517 0.37964,4.89979 0.92102,5.35791 1.46488,11.82681 3.14133,37.36419 0.38457,5.85839 0.4243,14.72324 0.0756,16.86666 -0.27769,1.7069 -0.95508,4.98353 -1.38637,6.70603 -0.13992,0.55883 -0.24828,1.34007 -0.24084,1.73609 0.006,0.39602 -0.15823,0.61383 -0.36824,0.48404 -0.21,-0.12978 -0.38183,0.0282 -0.38183,0.35119 0,0.79543 -0.95037,2.49237 -1.44452,2.57925 -0.21975,0.0385 -0.85338,0.15976 -1.40803,0.26913 -0.55468,0.10937 -1.8315,0.0333 -2.83742,-0.16907 z m 3.51248,-1.18638 c 0.32987,0 0.49041,-0.17691 0.35678,-0.39314 -0.13363,-0.21622 0.12991,-0.62599 0.58565,-0.91061 0.45575,-0.28462 0.82863,-0.83927 0.82863,-1.23257 0,-0.85829 -0.32703,-0.90318 -1.18729,-0.16299 -1.02142,0.87888 -3.23523,1.47952 -5.47778,1.48626 -3.15357,0.009 -3.5555,0.60288 -0.7788,1.14983 3.13667,0.61788 4.77234,0.7398 4.93757,0.36804 0.0745,-0.16765 0.40537,-0.30482 0.73524,-0.30482 z m -10.62493,-2.03212 c -0.40459,-0.44708 -1.11877,-0.80048 -1.58708,-0.78535 -0.82924,0.0267 -0.8276,0.0391 0.063,0.46853 0.50295,0.24257 0.91445,0.59598 0.91445,0.78534 0,0.18937 0.3027,0.34432 0.67264,0.34432 0.6049,0 0.59854,-0.0818 -0.063,-0.81284 z m 3.45462,-2.10301 c 0,-0.21467 0.3482,-0.27982 0.77376,-0.14475 0.54833,0.17405 1.46592,-0.33385 3.14979,-1.74349 3.03029,-2.53677 3.62795,-3.22329 4.38653,-5.03881 0.34043,-0.81479 0.80463,-1.59619 1.03155,-1.73642 0.60027,-0.371 0.50506,-1.01987 -0.14966,-1.01987 -0.30922,0 -0.67249,-0.41151 -0.80729,-0.91445 -0.40993,-1.52965 -0.28443,-5.92936 0.17729,-6.21471 0.73157,-0.45214 0.92219,0.12199 0.84855,2.55587 -0.039,1.28587 0.11117,2.61228 0.33348,2.94759 0.53333,0.8044 0.56117,-10.80465 0.0332,-13.84544 -0.21089,-1.21462 -0.48519,-3.39717 -0.60953,-4.85014 -0.12434,-1.45298 -0.31922,-3.37333 -0.43304,-4.26747 -0.11382,-0.89414 -0.28693,-4.64341 -0.38473,-8.33172 -0.0978,-3.68832 -0.37365,-7.80338 -0.61307,-9.14458 -0.23942,-1.3412 -0.54597,-4.26747 -0.68125,-6.50281 -0.13525,-2.23534 -0.38517,-4.33859 -0.55536,-4.67389 -0.50212,-0.98925 -0.94056,-4.12917 -0.84902,-6.08032 0.10849,-2.31327 -0.85977,-4.45778 -2.51929,-5.57946 -3.5933,-2.42872 -11.65404,-3.77228 -13.94371,-2.32413 -2.17983,1.37868 -4.17801,3.9278 -4.58992,5.8554 -0.46954,2.19736 -0.21863,7.53123 0.56401,11.98955 0.31392,1.78826 0.68553,4.53164 0.82582,6.09638 0.14029,1.56473 0.42396,3.4851 0.63037,4.26748 0.20642,0.78236 0.56019,3.98296 0.78614,7.11244 0.22595,3.12948 0.49338,6.05953 0.59429,6.51124 0.19927,0.89206 1.04244,13.17992 1.23706,18.02834 0.2713,6.75867 1.8566,12.74743 3.9758,15.01931 1.02631,1.10027 3.81982,2.63041 4.28143,2.34512 0.17064,-0.1055 0.55929,-0.0379 0.86364,0.15025 0.6375,0.39399 1.64316,0.10848 1.64316,-0.46651 z m 4.57265,0.29019 c 0.78128,-0.32643 1.51722,-0.96338 1.63544,-1.41543 0.25161,-0.96222 -0.34624,-0.71813 -2.34704,0.9582 -1.41265,1.18353 -1.26056,1.28126 0.7116,0.45723 z M 108.32108,815.83531 c 0,-0.22354 0.18289,-0.40643 0.40643,-0.40643 0.22353,0 0.40642,0.18289 0.40642,0.40643 0,0.22353 -0.18289,0.40642 -0.40642,0.40642 -0.22354,0 -0.40643,-0.18289 -0.40643,-0.40642 z"
       id="path4301"
       inkscape:connector-curvature="0"
       sodipodi:nodetypes="csssssssscscsssscscsssssssssscssccsssssssssssscscssssscsssscscssscsssssscssssssssccsssssscssccssccscscsscccsssscscssscscssscssssssscccsssscccscscssssscscccscscssssccsssssscssscsssscsscssssscssssssssssssccssssssssscsccsscscscscccssssssccssscccccscssssssssssssssssssssscssssssssssssscsscsssssscssssssssscsscsssscssssscsssccssssscsssscccssssssscsscssssssssssssssssscsssssccssssssssscsscsssssssscccssssssssscssssscscsssssscssssssssssscsscsssssssscssscccscssscsscsscssssccsssccssscssssssssssssssscssssccsssssssssssssssssssssssssssssscscsssssssssssssssscssscsssscssssssssssccsscsscssscssssscssssscsscccsscscsscccccssssssssssssssscssssssssssscsscssssssssssssccsscsssscsscsssscsssccssssssscssssssssssssccssccccccsssccscccssssssssscsscsscsssssssssssssssssssssccscssssssssscsscsssscssscssscsssssssssssssssssssscccsssssssss" />
  </g>
</svg>
