<?xml version="1.0" encoding="UTF-8" standalone="no"?>
<!-- Created with Inkscape (http://www.inkscape.org/) -->

<svg
   xmlns:dc="http://purl.org/dc/elements/1.1/"
   xmlns:cc="http://creativecommons.org/ns#"
   xmlns:rdf="http://www.w3.org/1999/02/22-rdf-syntax-ns#"
   xmlns:svg="http://www.w3.org/2000/svg"
   xmlns="http://www.w3.org/2000/svg"
   xmlns:sodipodi="http://sodipodi.sourceforge.net/DTD/sodipodi-0.dtd"
   xmlns:inkscape="http://www.inkscape.org/namespaces/inkscape"
   width="4in"
   height="6in"
   viewBox="0 0 360.00001 539.99999"
   id="svg2"
   version="1.1"
   inkscape:version="0.91 r13725"
   sodipodi:docname="PTO2x4.svg">
  <defs
     id="defs4" />
  <sodipodi:namedview
     id="base"
     pagecolor="#ffffff"
     bordercolor="#666666"
     borderopacity="1.0"
     inkscape:pageopacity="0.0"
     inkscape:pageshadow="2"
     inkscape:zoom="0.84263558"
     inkscape:cx="172.30043"
     inkscape:cy="318.03076"
     inkscape:document-units="px"
     inkscape:current-layer="layer1"
     showgrid="false"
     units="in"
     inkscape:window-width="1366"
     inkscape:window-height="719"
     inkscape:window-x="0"
     inkscape:window-y="1"
     inkscape:window-maximized="1" />
  <metadata
     id="metadata7">
    <rdf:RDF>
      <cc:Work
         rdf:about="">
        <dc:format>image/svg+xml</dc:format>
        <dc:type
           rdf:resource="http://purl.org/dc/dcmitype/StillImage" />
        <dc:title></dc:title>
      </cc:Work>
    </rdf:RDF>
  </metadata>
  <g
     inkscape:label="Layer 1"
     inkscape:groupmode="layer"
     id="layer1"
     transform="translate(0,-512.36216)">
    <path
       style="fill:#000000"
       d="m 94.320442,900.02638 c 0.33992,-0.55 0.20388,-1 -0.30231,-1 -0.50619,0 -0.69738,-1.16638 -0.42486,-2.59195 0.28882,-1.51091 0.78563,-2.12247 1.19116,-1.46631 0.80415,1.30114 13.998028,-12.09578 21.343578,-21.67204 13.02409,-16.97926 27.4708,-43.62533 36.70389,-67.69806 2.7575,-7.1894 5.40559,-13.76914 5.88466,-14.62164 0.68001,-1.2101 0.34832,-1.55 -1.51255,-1.55 -1.34135,0 -2.38357,0.59382 -2.38357,1.35807 0,2.73638 -11.31893,29.11709 -18.12231,42.23714 -8.33841,16.0803 -17.52543,30.12841 -27.39483,41.89014 -9.621488,11.46628 -14.482858,16.08226 -14.482858,13.7518 0,-3.49119 -2.00181,-0.42424 -2.07029,3.17187 -0.0386,2.03004 -0.45702,4.59098 -0.92971,5.69098 -0.51963,1.20924 -0.81246,-4.52375 -0.74063,-14.5 0.0653,-9.075 0.28285,-13.85622 0.48335,-10.62494 0.2076,3.34562 0.98727,6.49779 1.81091,7.32143 0.79551,0.7955 1.44637,2.16767 1.44637,3.04925 0,2.19309 3.23991,-0.89729 12.593268,-12.01205 13.67288,-16.24772 25.42553,-35.66092 35.85977,-59.23369 7.91473,-17.88076 9.37226,-22.3719 7.61329,-23.459 -1.11563,-0.6895 -1.84992,0.3626 -3.3414,4.78765 -3.17106,9.40818 -12.09346,28.39498 -19.21616,40.89187 -7.98193,14.00441 -14.59075,23.35206 -25.13877,35.55679 l -7.792058,9.0159 -1.30581,-4.89661 c -0.71819,-2.69313 -1.58796,-9.45478 -1.9328,-15.0259 -0.79325,-12.8151 0.7672,-17.71672 9.191128,-28.8707 8.50781,-11.26506 16.84367,-25.02069 23.59613,-38.93773 4.04633,-8.33965 5.98754,-11.42843 6.44052,-10.24797 1.78877,4.66145 -17.09624,39.14193 -30.49914,55.6857 -2.896278,3.575 -5.658368,7.50748 -6.137968,8.73884 -1.61538,4.1474 -1.95891,14.71453 -0.6898,21.21824 l 1.26001,6.45709 7.283768,-8.45709 c 14.69634,-17.06373 30.47656,-43.52053 40.17541,-67.35727 3.20274,-7.87133 3.67255,-9.80382 2.49345,-10.25628 -0.79906,-0.30663 -1.45284,-1.02911 -1.45284,-1.60551 0,-0.5764 0.81291,-0.31232 1.80648,0.58684 0.99356,0.89917 2.79356,1.44475 4,1.21241 1.20643,-0.23234 2.19352,0.0283 2.19352,0.57916 0,0.55088 0.51953,0.68052 1.15451,0.28808 0.6925,-0.42799 0.88394,-0.27574 0.47839,0.38046 -0.41259,0.66757 0.11186,1.03463 1.34549,0.9417 1.11188,-0.0838 2.02161,-0.50652 2.02161,-0.93947 0,-0.43296 0.5625,-0.6747 1.25,-0.5372 1.57824,0.31565 7.22776,-16.56243 12.30115,-36.75 2.07333,-8.25 3.81,-15.0566 3.85927,-15.12577 0.0493,-0.0692 1.10208,-0.437 2.33958,-0.81739 2.17655,-0.66904 2.25,-0.47529 2.25,5.93479 0,4.16296 0.37176,6.39664 1,6.00837 0.55,-0.33992 1,0.20307 1,1.20665 0,1.67425 0.68019,1.76812 8.25,1.13854 18.39723,-1.5301 61.11482,-0.49832 71.96304,1.73816 2.97838,0.61403 2.77049,1.04852 4.58536,-9.58335 0.8911,-5.22027 0.93952,-4.9914 0.95191,4.5 0.009,6.52992 -0.25184,8.95898 -0.75031,7 -0.70996,-2.79012 -0.77272,-2.8251 -0.897,-0.5 -0.27089,5.06802 -0.96272,5.30835 -11.86631,4.12217 -16.52017,-1.79721 -42.84627,-2.38138 -57.71592,-1.28071 -10.6606,0.78911 -14.15858,0.75271 -14.73469,-0.15335 -0.43675,-0.68688 -0.75545,0.0775 -0.75545,1.81189 0,5.52385 0.0168,5.52789 18.50949,4.45342 16.27049,-0.94536 42.70116,-0.0937 59.0897,1.90397 5.00312,0.60986 6.32491,0.46188 7.1912,-0.8051 0.83017,-1.21415 1.07418,-0.64981 1.12017,2.59072 0.0348,2.44854 -0.45444,4.33996 -1.19609,4.62456 -0.69019,0.26485 -7.10269,-0.1549 -14.25,-0.93278 -8.94931,-0.97401 -21.86805,-1.32412 -41.4951,-1.12456 l -28.5,0.28977 -0.60809,-4 c -0.56659,-3.72699 -0.61778,-3.61313 -0.75,1.66821 -0.078,3.11752 0.10231,6.30464 0.4008,7.08249 0.4549,1.18546 4.73034,1.33887 26.42697,0.94821 15.93412,-0.28689 30.81356,-0.011 38.70729,0.71781 18.0139,1.6631 20.15597,2.07303 20.65677,3.95305 0.23884,0.89663 0.54658,0.0552 0.68387,-1.86977 0.22694,-3.18205 0.32036,-3.04578 1.0284,1.5 0.42833,2.75 0.73311,16.7 0.6773,31 -0.0558,14.3 -0.26273,23.44989 -0.45982,20.33309 -0.21183,-3.34989 -0.95225,-6.15982 -1.81091,-6.87245 -0.79892,-0.66304 -1.45258,-2.0201 -1.45258,-3.0157 0,-2.20967 -0.89802,-2.48475 -13.5,-4.13524 -6.31079,-0.82652 -20.99105,-1.3097 -39.79245,-1.3097 l -29.79246,0 0.29246,-2.5 c 0.27937,-2.38815 0.67275,-2.52912 8.79245,-3.15075 19.41937,-1.48672 45.00892,-0.62064 65.75,2.22531 7.03569,0.9654 8.25,1.41119 8.25,3.02873 0,4.10319 1.75733,1.59776 2.35202,-3.35329 1.05138,-8.75325 0.72968,-17.1119 -0.86533,-22.48285 -1.72796,-5.8187 -0.73158,-5.44481 -19.34264,-7.25814 -11.42253,-1.11293 -49.44713,-1.36475 -58.77997,-0.38928 -5.09322,0.53235 -6.10096,0.98349 -7.14669,3.19937 -0.66956,1.4188 -1.16809,4.85242 -1.10782,7.63026 l 0.10956,5.05064 0.86186,-4.3881 c 0.47403,-2.41345 1.05692,-4.58315 1.29533,-4.82155 1.33238,-1.33238 34.01379,-2.15189 49.99363,-1.25362 16.67666,0.93744 31.49411,2.49399 32.40413,3.40402 0.21674,0.21674 0.56608,2.34374 0.77631,4.72666 0.21023,2.38293 0.14513,3.57486 -0.14466,2.64874 -0.60869,-1.94524 -2.42738,-2.38896 -15.40573,-3.7586 -22.0293,-2.3248 -65.20529,-2.18559 -67.60887,0.21799 -0.34412,0.34412 -0.74205,2.56039 -0.8843,4.92506 -0.14225,2.36467 -0.0639,3.33163 0.1741,2.1488 0.40844,-2.02989 1.20128,-2.19213 14.1259,-2.89056 19.79863,-1.06988 56.32859,0.59882 66.94317,3.05799 1.2375,0.2867 2.30324,1.3002 2.36831,2.25222 0.0651,0.95202 0.46184,0.38095 0.88169,-1.26905 l 0.76337,-3 0.0186,3.5 c 0.022,4.13278 -1.51339,9.96542 -1.68233,6.3908 -0.09,-1.90398 -1.04829,-2.23028 -9.84968,-3.35373 -11.7686,-1.50221 -55.38798,-2.54024 -65.78875,-1.56561 -7.08241,0.66368 -7.46125,0.82478 -7.46125,3.17288 0,1.39448 -0.43627,2.20406 -1,1.85566 -0.6256,-0.38664 -0.97369,1.55683 -0.92971,5.19098 0.0505,4.17015 0.31275,5.24477 0.92971,3.80902 0.82671,-1.92385 0.86211,-1.91609 0.92971,0.20375 l 0.0703,2.20375 20.25,-0.58827 c 19.62902,-0.57024 39.20395,0.42782 55.31949,2.82056 l 7.06948,1.04964 1.2894,6.15528 c 2.36344,11.28249 2.58516,22.19008 0.54313,26.7185 -1.58104,3.50612 -2.14316,3.95045 -4.39229,3.47196 -15.60532,-3.31998 -54.07687,-5.52854 -71.27226,-4.09157 -6.87143,0.57422 -8.78545,1.07534 -9.134,2.39143 -0.24252,0.91573 -0.48626,0.31497 -0.54164,-1.33503 -0.20549,-6.12268 -0.77807,-6.00313 28.58222,-5.96739 24.83426,0.0302 41.60625,1.3321 52.9456,4.10971 1.9162,0.46938 2.29626,-0.0839 3.37804,-4.9178 0.98475,-4.40032 0.95418,-6.96223 -0.15913,-13.3356 l -1.37801,-7.88892 -9,-1.19323 c -17.76395,-2.35515 -40.01204,-3.50587 -55,-2.8447 -8.25,0.36393 -15.7509,0.87756 -16.66867,1.14139 -1.03173,0.29659 -1.84629,-0.20417 -2.134,-1.31189 -0.27124,-1.04431 -0.50732,-0.54028 -0.56602,1.20843 -0.15788,4.70413 1.07774,5.87097 5.36528,5.06662 6.84315,-1.28379 45.55711,-0.686 59.00341,0.91107 19.31843,2.29453 19.5,2.34233 19.5,5.1336 0,2.8544 -0.1628,2.86301 -13.5,0.71399 -7.24308,-1.16707 -18.27076,-1.6806 -40,-1.86269 l -30,-0.25141 -0.63169,-2.85559 c -0.48432,-2.18942 -0.65928,-1.65028 -0.75,2.31108 -0.0762,3.32746 0.32666,5.32051 1.13169,5.59885 0.6875,0.2377 10.27558,0.21293 21.30685,-0.055 19.75821,-0.47996 38.18053,0.60265 54.64703,3.2114 6.82177,1.08076 7.75254,1.04061 8.12887,-0.35068 0.23374,-0.86416 0.29233,0.15346 0.1302,2.26139 -0.16214,2.10792 -0.44513,3.96854 -0.62887,4.1347 -0.18374,0.16616 -4.00896,-0.29002 -8.50048,-1.01373 -15.64024,-2.52011 -36.36974,-3.73617 -54.98989,-3.22589 -11.62774,0.31866 -18.89226,0.92088 -19.59585,1.62447 -1.52677,1.52677 -2.14876,12.069 -0.89371,15.14786 0.66065,1.6207 1.04137,1.91249 1.08246,0.82959 0.0498,-1.31328 1.49884,-1.82413 6.77751,-2.38942 11.02921,-1.18113 49.39194,0.30133 63.28413,2.4455 9.11523,1.40688 12.68701,1.62359 13.19562,0.80064 0.38356,-0.62062 0.94536,-0.88041 1.24844,-0.57733 0.71201,0.712 2.5213,22.52227 2.54186,30.64102 0.0136,5.35771 -0.24115,6.25 -1.78417,6.25 -0.99,0 -2.2275,-0.40835 -2.75,-0.90745 -1.01407,-0.96865 -13.90548,-3.27158 -29.45,-5.26097 -5.225,-0.6687 -19.24947,-1.20442 -31.16549,-1.19051 l -21.66549,0.0253 -1.08451,-2.38024 c -1.38203,-3.03324 -1.36683,-6.02333 0.0703,-13.82281 l 1.15479,-6.26727 15.09521,-0.69125 c 16.15546,-0.73981 35.90492,0.43579 53.59521,3.1903 5.775,0.8992 11.5125,1.67316 12.75,1.71991 1.52649,0.0576 2.27539,0.7281 2.32895,2.08498 0.0457,1.15894 0.29858,1.45177 0.60122,0.69633 0.73357,-1.83108 -0.60817,-8.35887 -1.59299,-7.75021 -0.44648,0.27594 -4.58624,-0.14172 -9.19948,-0.92812 -15.63078,-2.66454 -29.32833,-3.70465 -48.62916,-3.69264 -20.51233,0.0127 -25.25856,0.52091 -25.25856,2.70438 0,0.75397 -0.60814,1.73071 -1.35143,2.17054 -0.95775,0.56674 -1.53877,4.38436 -1.99454,13.10524 -0.35372,6.76805 -1.1601,13.27154 -1.79197,14.4522 -0.86532,1.61686 -0.86513,2.24123 7.7e-4,2.52986 1.93275,0.64425 0.17431,2.21239 -2.48086,2.21239 -1.375,0 -2.24564,-0.41157 -1.93476,-0.91459 0.31089,-0.50302 0.0811,-1.07597 -0.51061,-1.27321 -0.63952,-0.21317 0.3719,-3.37961 2.49377,-7.8072 2.63674,-5.50196 3.56841,-8.76266 3.56495,-12.47679 l -0.005,-5.02821 -6.05539,12.47997 c -3.41946,7.04739 -5.59123,12.6347 -4.98909,12.83541 1.86633,0.62211 0.0324,2.18462 -2.56418,2.18462 -1.41203,0 -2.23104,-0.43519 -1.88197,-1 0.33992,-0.55 0.13772,-1 -0.44934,-1 -0.58705,0 1.33517,-4.8375 4.27161,-10.75 2.93643,-5.9125 6.64065,-13.86504 8.2316,-17.67232 2.46417,-5.89696 2.97902,-6.56351 3.47585,-4.5 l 0.58322,2.42232 0.59889,-2.24612 c 0.59121,-2.21729 0.0868,-9.33947 -0.86784,-12.25388 -0.27024,-0.825 -2.4754,3.225 -4.90037,9 -2.42497,5.775 -7.33619,16.2375 -10.91382,23.25 -3.57764,7.0125 -6.03387,12.75 -5.45828,12.75 0.57558,0 0.7684,0.45 0.42848,1 -0.33992,0.55 -1.74303,1 -3.11803,1 -1.41203,0 -2.23104,-0.43519 -1.88197,-1 0.33992,-0.55 0.16573,-1 -0.38709,-1 -0.55282,0 2.76466,-7.3125 7.37217,-16.25 4.60752,-8.9375 10.70291,-22.02698 13.54533,-29.08772 4.85851,-12.06889 5.18765,-13.44634 5.49576,-23 0.24598,-7.62708 0.152,-8.66545 -0.37668,-4.16228 -1.18661,10.10713 -15.87092,44.04615 -28.66422,66.25 -1.9806,3.4375 -3.09847,6.25 -2.48416,6.25 0.61431,0 0.83881,0.45 0.49889,1 -0.33992,0.55 -1.74303,1 -3.11803,1 -1.375,0 -2.24564,-0.41157 -1.93476,-0.91459 0.31089,-0.50302 0.0729,-1.07869 -0.52876,-1.27926 -0.61065,-0.20355 1.23324,-4.1073 4.17329,-8.83541 7.18558,-11.55567 19.51202,-37.39953 26.29763,-55.13611 4.36558,-11.411 5.59917,-15.84917 5.55898,-20 l -0.0513,-5.33463 -3.78641,10.5 c -9.4064,26.08469 -23.03104,54.88184 -33.47354,70.75 -2.98604,4.5375 -5.02587,8.25 -4.53295,8.25 0.49291,0 0.8962,0.45 0.8962,1 0,0.55 -1.37656,1 -3.05902,1 -1.7847,0 -2.80156,-0.41658 -2.44098,-1 0.33992,-0.55 0.1575,-1 -0.40537,-1 -0.56287,0 2.57492,-5.50195 6.97286,-12.22656 12.7798,-19.54077 27.52671,-51.29075 36.06874,-77.65571 2.899,-8.94776 3.45105,-9.98403 3.99546,-7.5 0.37961,1.73213 0.67889,-0.38626 0.75,-5.30871 0.0653,-4.51801 -0.33011,-8.46812 -0.88169,-8.80902 -0.55,-0.33992 -1,0.0272 -1,0.81571 0,2.94303 -10.37774,32.54009 -16.1025,45.92393 -10.28471,24.04447 -19.39109,40.88619 -30.40045,56.22384 -3.14491,4.38131 -5.21427,8.13078 -4.60039,8.33541 2.07406,0.69135 0.006,2.20111 -3.01469,2.20111 -1.65,0 -2.74564,-0.41157 -2.43476,-0.91459 0.31089,-0.50302 0.15004,-1.06552 -0.35743,-1.25 -0.50748,-0.18448 2.24235,-4.61041 6.11074,-9.83541 18.35693,-24.79459 34.69075,-58.98527 46.59992,-97.54506 6.10111,-19.75431 6.60261,-23.27527 5.66836,-39.79658 l -0.74408,-13.15836 -4.38727,17 c -5.54898,21.50146 -14.5427,48.30926 -21.81752,65.03201 -12.98019,29.83782 -25.65488,50.06596 -45.36887,72.40642 -2.94192,3.33386 -4.82787,6.06157 -4.19099,6.06157 0.63688,0 0.87985,0.45 0.53993,1 -0.33992,0.55 -2.193028,1 -4.118028,1 -2.07869,0 -3.24903,-0.40609 -2.88197,-1 z m 172.256208,-14.75 -0.36452,-3.75 -0.83664,4.33121 c -0.46015,2.38216 -1.12883,3.85842 -1.48596,3.28058 -0.88659,-1.43453 -22.52838,-4.82055 -39.56909,-6.19088 -8.21691,-0.66076 -20.0929,-0.84627 -28.75,-0.44909 -13.61081,0.62444 -14.75,0.54225 -14.75,-1.06422 0,-0.95752 -0.27902,-1.46192 -0.62004,-1.12089 -0.34102,0.34102 -0.34162,2.10352 -0.001,3.91666 l 0.6187,3.29663 24.75134,0 c 21.13477,0 27.06654,0.35307 40.59628,2.41637 8.76923,1.33732 16.43978,3.01121 17.17698,3.74841 1.10939,1.10939 1.40844,1.03979 1.78906,-0.41637 0.33192,-1.26982 0.53478,-1.06409 0.74112,0.75159 0.20048,1.76416 0.39956,1.39623 0.67637,-1.25 0.21574,-2.0625 0.22823,-5.4375 0.0277,-7.5 z m -1.75621,-3.6791 c 0,-2.12718 -0.65255,-2.56272 -5.25,-3.50408 -18.93095,-3.87624 -50.66689,-5.99928 -69,-4.61589 -9.09169,0.68604 -9.75005,0.88134 -9.75073,2.89239 -7.3e-4,2.15077 0.0564,2.15576 20.87576,1.82097 20.98796,-0.33751 39.69518,1.11071 55.12497,4.26748 3.575,0.73141 6.8375,1.38347 7.25,1.44903 0.4125,0.0656 0.75,-0.9739 0.75,-2.3099 z m -157.5,18.4291 c 0.33992,-0.55 0.11893,-1 -0.49109,-1 -0.61003,0 1.99573,-3.7125 5.79056,-8.25 25.85181,-30.91113 44.33187,-69.21237 59.70846,-123.75 4.18383,-14.83917 4.37275,-15.26129 4.43111,-9.90094 0.0609,5.5969 -3.91076,20.77439 -10.9648,41.90094 -11.6153,34.78739 -29.52505,69.34343 -47.81146,92.25 -3.40277,4.2625 -5.70488,7.75 -5.1158,7.75 0.58908,0 0.79294,0.45 0.45302,1 -0.33992,0.55 -1.96803,1 -3.61803,1 -1.74536,0 -2.74153,-0.41821 -2.38197,-1 z m 71.5,-1.94098 c 0,-0.51754 0.45,-1.2191 1,-1.55902 0.55,-0.33992 1,0.0835 1,0.94098 0,0.85746 -0.45,1.55902 -1,1.55902 -0.55,0 -1,-0.42344 -1,-0.94098 z M 94.410322,860.99244 c -1.06999,-8.06603 0.13071,-11.69692 6.255678,-18.91698 7.86469,-9.27083 18.20076,-25.4797 25.53848,-40.04908 8.59453,-17.06482 9.30206,-18.95242 7.52554,-20.07705 -1.10011,-0.69642 -1.11947,-0.89569 -0.0881,-0.90764 0.72678,-0.008 1.96866,0.63192 2.75973,1.42299 1.75517,1.75517 0.0936,6.43644 -8.00787,22.5617 -8.66215,17.24117 -17.33812,30.73614 -27.52507,42.81363 -4.763518,5.64756 -6.098098,7.92558 -5.858498,10 0.29118,2.52104 0.7002,2.2248 6.645988,-4.81363 12.36954,-14.64263 26.18996,-37.4836 34.76156,-57.4503 3.02462,-7.04557 4.29116,-11.08689 3.55182,-11.33334 -1.95845,-0.65281 -1.26171,-2.05857 0.75846,-1.53029 1.04915,0.27436 2.1115,1.27878 2.36079,2.23204 1.0714,4.09706 -15.95887,38.72469 -27.46466,55.84384 -4.23244,6.29726 -19.433158,25.23805 -20.254558,25.23805 -0.16033,0 -0.59201,-2.26527 -0.95929,-5.03394 z m -2.2593,-32.70684 c -1.15013,-9.35969 -0.79382,-76.62916 0.43836,-82.75922 0.9499,-4.72574 0.99751,-4.50632 0.86804,4 -0.0753,4.95 0.18094,12.15 0.56952,16 0.4096,4.05839 0.36994,5.4195 -0.0944,3.23896 -1.41656,-6.65241 -2.11542,-5.29583 -1.98048,3.84437 0.0879,5.95115 0.34566,7.75263 0.77516,5.41667 0.61152,-3.32592 0.6789,-3.37566 1.3547,-1 1.02516,3.60368 0.89827,7 -0.2615,7 -0.55,0 -0.99311,1.9125 -0.98469,4.25 0.0112,3.11246 0.27477,3.84851 0.98469,2.75 0.85196,-1.31832 0.97123,-1.31994 0.98468,-0.0134 0.0193,1.87187 5.955188,-6.87955 12.199988,-17.98665 4.14812,-7.37792 4.78138,-8.09843 4.79716,-5.45804 0.0281,4.70679 -15.064578,30.14297 -17.128598,28.86734 -0.46928,-0.29004 -0.89809,0.73672 -0.95291,2.28168 l -0.0997,2.80907 -0.80064,-2.5 c -0.53194,-1.66099 -0.79442,0.35262 -0.7821,6 0.0183,8.40082 0.0306,8.44201 1.04864,3.53024 0.56657,-2.73336 1.6629,-5.60253 2.43629,-6.37593 5.194658,-5.19465 17.674408,-26.72884 16.804298,-28.99631 -0.47251,-1.23137 -0.15273,-1.14412 1.29695,0.35382 1.90139,1.96471 1.8889,2.05901 -1.0581,7.98818 -3.09683,6.23064 -16.310198,26.54508 -17.955378,27.60486 -0.51643,0.33268 -0.79308,2.07477 -0.61478,3.87132 0.30603,3.08361 0.83632,2.49001 9.473738,-10.60486 5.03226,-7.62923 10.57925,-16.73932 12.32666,-20.24466 2.44295,-4.90063 3.44823,-6.09825 4.35044,-5.18283 1.57288,1.5959 -4.57005,13.14538 -16.66502,31.33234 -7.849268,11.8028 -9.254798,13.45013 -9.811958,11.5 -0.51161,-1.79066 -0.67158,-1.49374 -0.75,1.39204 -0.0548,2.01752 0.18337,4.40582 0.52931,5.30734 0.53389,1.3913 0.87408,1.27142 2.25,-0.79288 0.89156,-1.3376 4.980138,-7.3259 9.085738,-13.30734 4.1056,-5.98143 10.1806,-16.05033 13.5,-22.37533 5.28965,-10.07925 8.53527,-14.2552 8.53527,-10.98183 0,4.01523 -18.14212,35.26755 -27.115578,46.71036 -2.68643,3.4257 -4.88442,6.66164 -4.88442,7.19099 0,0.52934 -0.41374,1.21815 -0.91942,1.53068 -0.50568,0.31253 -1.29318,-2.47342 -1.75,-6.19098 z m 65.974058,-46.38432 c -0.0493,-3.27095 0.23781,-4.62762 0.79371,-3.75 1.08798,1.71761 1.13105,5.96558 0.0773,7.6251 -0.45524,0.71695 -0.82668,-0.93557 -0.87103,-3.8751 z m -20.55464,-1.66596 c -15.57028,-5.29056 -19.52499,-7.20894 -14.86111,-7.20894 1.12271,0 1.83255,-0.64902 1.75,-1.60006 -0.10704,-1.23316 1.00764,-1.67559 4.86111,-1.92943 l 5,-0.32936 -5,1.37442 c -4.95114,1.361 -4.89739,1.371 5.5,1.02303 l 10.5,-0.3514 -10.25,1.04277 c -5.6375,0.57352 -10.25,1.35762 -10.25,1.74245 0,1.68465 12.49824,4.02758 21.4849,4.02758 l 9.5151,0 6.2e-4,-3.75 6.2e-4,-3.75 -5.25062,0.23041 c -6.20872,0.27245 -5.26972,-0.36934 1.49938,-1.02479 l 4.75,-0.45995 0,8.37717 c 0,6.06163 -0.34551,8.36339 -1.25,8.32734 -0.6875,-0.0274 -8.7875,-2.61096 -18,-5.74124 z m 22.17227,-6.70894 c -0.12313,-1.1 -0.11946,-3.29546 0.008,-4.87879 0.20603,-2.55642 -0.029,-2.81318 -2.0992,-2.29283 -2.23396,0.56153 -2.31701,0.38281 -1.9906,-4.28383 0.32778,-4.68619 0.41261,-4.80815 2.25,-3.23493 1.05016,0.89917 1.90938,2.73485 1.90938,4.07929 0,1.34443 0.19931,2.24512 0.4429,2.00152 0.49047,-0.49032 9.38019,-32.89043 9.02441,-32.89043 -0.1226,0 -1.86349,-0.68548 -3.86865,-1.52329 -3.52784,-1.47402 -3.67525,-1.44977 -4.55873,0.75 -0.89669,2.23265 -0.91414,2.23498 -0.97639,0.13028 -0.0752,-2.54269 2.3607,-3.73558 4.87757,-2.38859 0.98784,0.52868 2.08024,0.67707 2.42756,0.32975 0.34731,-0.34732 0.63148,-0.0583 0.63148,0.64217 0,0.70051 0.62334,1.03446 1.3852,0.74211 0.76186,-0.29236 2.33765,0.13557 3.50175,0.95094 1.16411,0.81537 2.56577,1.20487 3.1148,0.86555 0.54904,-0.33933 0.99825,-0.0879 0.99825,0.55869 0,0.67598 -0.8344,0.95745 -1.96323,0.66226 -1.07978,-0.28237 -2.35658,0.003 -2.83734,0.63336 -0.48076,0.63073 -2.55318,7.79449 -4.60538,15.91947 -4.275,16.92537 -7.33886,26.20161 -7.67178,23.2273 z m 13.07773,-40.89301 c 0,-0.21616 -0.69837,-0.661 -1.55194,-0.98855 -0.88992,-0.34149 -1.29132,-0.17385 -0.94098,0.39301 0.58726,0.95021 2.49292,1.40545 2.49292,0.59554 z m -57.99935,38.14301 c -9.7e-4,-1.11881 6.78439,-0.90683 7.48945,0.23398 0.36858,0.59638 -0.98659,0.89181 -3.44034,0.75 -2.22665,-0.12869 -4.04876,-0.57148 -4.04911,-0.98398 z m 25.49935,-1.75364 c 2.2,-0.41431 5.575,-1.03731 7.5,-1.38443 l 3.5,-0.63113 -3,1.46449 c -1.65,0.80548 -5.025,1.42847 -7.5,1.38444 l -4.5,-0.0801 4,-0.75331 z m -27.96766,-5.80772 c -0.40863,-3.47125 -0.47057,-6.58375 -0.13765,-6.91667 0.33292,-0.33291 0.63694,0.4822 0.6756,1.81136 0.0653,2.24403 0.13168,2.2738 0.92971,0.41667 1.13874,-2.65 1.20445,6.12881 0.0674,9 -0.58004,1.46462 -0.99095,0.31052 -1.53502,-4.31136 z m 47.55475,-11.04563 c -0.0635,-2.44702 -0.46698,-3.21121 -1.48855,-2.8192 -1.47796,0.56715 -2.56051,-2.00471 -2.58489,-6.141 -0.008,-1.27446 -3.08398,-7.34946 -6.83659,-13.5 -3.75262,-6.15055 -8.06348,-13.47979 -9.57969,-16.2872 -2.61756,-4.84671 -2.94202,-5.08985 -6.42705,-4.81629 -2.9856,0.23437 -3.32393,0.0935 -1.81355,-0.75505 2.52516,-1.41866 8.64323,-1.90712 8.64323,-0.69006 0,0.5411 0.43023,0.71793 0.95607,0.39294 0.52584,-0.32498 1.57724,0.43596 2.33646,1.69098 8.27616,13.6809 12.70983,22.02985 12.72112,23.95488 0.0243,4.14541 1.10565,6.71844 2.58489,6.1508 0.99129,-0.38039 1.42457,0.29837 1.48041,2.3192 0.0898,3.25067 0.21458,3.00061 2.44109,-4.89301 1.83264,-6.49723 4.09743,-7.94964 3.11867,-2 -0.3393,2.0625 -1.70762,7.575 -3.04072,12.25 -1.83851,6.44742 -2.44484,7.68935 -2.5109,5.14301 z m -47.38603,-2.01801 c -0.38558,-1.85625 -0.69417,-4.33125 -0.68575,-5.5 0.0125,-1.73851 0.19162,-1.85219 0.98469,-0.625 0.70205,1.08634 0.9736,0.20637 0.98469,-3.19098 0.008,-2.58004 -0.43469,-4.9691 -0.98469,-5.30902 -0.55,-0.33992 -1,-2.19303 -1,-4.11803 0,-1.925 0.41189,-3.24544 0.91531,-2.93431 1.41955,0.87733 2.34551,14.47531 1.36546,20.05234 l -0.87864,5 -0.70107,-3.375 z m 144.20425,-6.55303 c -1.41362,-1.41361 -41.25499,-2.52376 -57.40808,-1.59963 -9.81074,0.56128 -18.01321,0.84501 -18.22771,0.63051 -0.89983,-0.89982 -0.91168,-10.60285 -0.0129,-10.60285 0.53712,0 0.76295,1.11755 0.50184,2.48345 -0.43245,2.26225 -0.24242,2.41813 2.13342,1.75 3.86341,-1.08644 63.36718,-0.77202 72.3142,0.38212 7.37239,0.95102 7.72368,0.90509 8.11382,-1.06076 0.27179,-1.36954 0.44865,-1.05432 0.53031,0.94519 0.23352,5.71759 -0.78842,7.5 -4.30012,7.5 -1.76919,0 -3.40932,-0.19261 -3.64473,-0.42803 z m -73.54943,-9.80517 c -0.30588,-0.49492 -0.28609,-1.16992 0.044,-1.5 0.33008,-0.33007 0.60014,-0.0486 0.60014,0.62555 0,0.67413 0.45734,0.94303 1.01631,0.59757 0.55897,-0.34546 0.75742,-1.04702 0.44098,-1.55902 -0.31643,-0.51199 -0.0988,-0.9309 0.48369,-0.9309 0.58246,0 1.05902,0.825 1.05902,1.83333 0,1.87642 -2.64294,2.55343 -3.64412,0.93347 z m 6.13563,-0.78054 c -0.38048,-0.61563 -0.42172,-1.38938 -0.0917,-1.71946 0.33008,-0.33007 0.61445,0.0374 0.63194,0.81653 0.0221,0.98506 0.50649,0.80734 1.58985,-0.58333 1.49167,-1.91481 1.54356,-1.91834 1.2182,-0.0829 -0.39937,2.25289 -2.35837,3.17093 -3.34834,1.56913 z m -75.24151,-7.49459 c -1.47709,-9.46318 -1.59632,-14.49167 -0.34362,-14.49167 0.49851,0 0.66091,0.93867 0.3609,2.08593 -0.30002,1.14726 0.006,4.40976 0.6808,7.25 0.67446,2.84024 1.07456,6.96407 0.8891,9.16407 -0.28623,3.39557 -0.52607,2.78987 -1.58718,-4.00833 z m 80.41667,6.84166 c -0.36667,-0.36666 -0.65978,-1.15416 -0.65136,-1.75 0.009,-0.61059 0.37443,-0.51721 0.83827,0.214 0.65732,1.03622 1.08143,0.9859 2.10714,-0.25 1.72578,-2.07944 4.04291,-1.96273 4.02397,0.20267 -0.0131,1.50121 -0.15791,1.53675 -1.0183,0.25 -0.87477,-1.30825 -1.13483,-1.27629 -2.03438,0.25 -1.08475,1.84054 -2.15355,2.19513 -3.26534,1.08333 z M 91.954052,723.77638 c 0.12588,-7.77243 0.1787,-7.96057 0.9124,-3.25 1.12099,7.1971 1.10378,11.5 -0.046,11.5 -0.59666,0 -0.94611,-3.32759 -0.86639,-8.25 z m 109.898188,7 c -0.0263,-1.44434 1.16464,-2.29314 2.2182,-1.58102 0.1375,0.0929 1.22181,-0.35112 2.40958,-0.98679 1.82295,-0.97561 2.12174,-0.89801 1.91687,0.49789 -0.26884,1.83172 -3.57645,2.79383 -3.57645,1.04031 0,-0.60646 -0.66069,-0.22914 -1.4682,0.83848 -1.32847,1.7564 -1.47122,1.77459 -1.5,0.19113 z m 48.4682,-0.92432 c -5.5,-0.4812 -13.26517,-1.12748 -17.25594,-1.43617 -5.1411,-0.39768 -7.05253,-0.90056 -6.55804,-1.72539 0.38384,-0.64026 -0.0978,-0.51806 -1.07028,0.27158 -1.32757,1.07794 -1.95076,1.14026 -2.50093,0.25007 -0.55339,-0.89541 -1.19761,-0.84571 -2.63189,0.20306 -1.98935,1.45465 -4.48292,1.11398 -4.48292,-0.61245 0,-0.5553 0.9,-0.77429 2,-0.48663 1.1,0.28766 2,0.0627 2,-0.5 0,-0.56266 0.82303,-0.80779 1.82896,-0.54473 1.00593,0.26306 2.66694,-0.13446 3.69113,-0.88337 1.7152,-1.25418 1.72404,-1.36165 0.11202,-1.36165 -0.96258,0 -1.48912,-0.42234 -1.17009,-0.93854 0.31902,-0.5162 -0.21692,-1.40251 -1.19099,-1.96959 -0.97407,-0.56708 -1.23509,-1.04474 -0.58005,-1.06146 0.65504,-0.0167 1.46522,0.41331 1.80039,0.95563 0.69009,1.11659 3.2759,0.9021 5.50863,-0.45693 1.32072,-0.8039 1.32596,-0.69875 0.0438,0.87981 -1.96538,2.41979 -2.06583,3.84696 -0.38151,5.42036 1.20251,1.12331 1.31087,0.9121 0.72654,-1.41609 l -0.68677,-2.73631 13.29305,0.67279 c 7.31119,0.37003 15.02822,0.95024 17.14896,1.28936 l 3.8559,0.61659 0,-3.51431 c 0,-3.17104 -0.31746,-3.57486 -3.25,-4.13422 -5.69811,-1.08686 -53.76929,-1.90632 -67,-1.14213 -9.90804,0.57228 -12.75,1.04833 -12.75,2.13573 0,0.76962 0.5625,1.42722 1.25,1.46132 0.6875,0.0341 5.75,0.10739 11.25,0.16284 l 10,0.10082 -10,0.62387 -10,0.62386 10,0.50401 10,0.50401 -10.16667,0.20929 c -7.35384,0.15139 -10.31067,-0.13655 -10.68718,-1.04071 -0.37862,-0.90925 -0.90894,-0.77225 -1.94545,0.50257 -1.04057,1.27982 -2.33883,1.61185 -4.81283,1.23089 -2.73647,-0.42138 -3.00332,-0.32737 -1.38787,0.48894 1.86857,0.94421 1.87478,0.99475 0.0945,0.76911 -1.04804,-0.13283 -2.02104,-1.03115 -2.16222,-1.99627 -0.14118,-0.96512 0.10665,-1.53021 0.55074,-1.25575 0.44409,0.27446 1.08811,-0.23242 1.43116,-1.1264 0.54388,-1.41732 0.86548,-1.34668 2.51204,0.55182 l 1.88831,2.17724 1.09274,-5.0953 c 0.60102,-2.80241 1.09276,-5.70283 1.09276,-6.44538 0,-1.02423 3.0773,-1.52836 12.75,-2.08873 13.3092,-0.77103 62.8154,0.045 67.38051,1.11067 2.23825,0.52249 2.72995,1.30842 3.29731,5.27033 1.32348,9.24191 1.63293,15.76184 0.64815,13.65626 -0.89844,-1.92097 -0.93818,-1.91109 -1.00568,0.25 -0.0472,1.51043 -0.64551,2.20079 -1.82029,2.1003 -0.9625,-0.0823 -6.25,-0.54342 -11.75,-1.02462 z m -38.41406,-0.77257 c -1.06716,-0.65954 -0.92044,-1.07131 0.68854,-1.93241 1.63726,-0.87624 2.00204,-0.8038 1.83071,0.36356 -0.30866,2.10304 -0.97923,2.52064 -2.51925,1.56885 z m -55.56886,-3.02547 c -0.39454,-0.63839 -0.44729,-1.43076 -0.11722,-1.76084 0.33008,-0.33007 0.60014,-0.0751 0.60014,0.56653 0,1.65644 2.52314,1.44617 4,-0.33333 0.8601,-1.03636 0.89795,-1.5 0.12244,-1.5 -0.61734,0 -1.12244,0.45 -1.12244,1 0,2.58316 -1.93037,0.23782 -6.89147,-8.37291 -3.23453,-5.61401 -5.99194,-9.31158 -6.89238,-9.2424 -0.82549,0.0634 -1.71507,-0.49441 -1.97683,-1.23963 -0.34486,-0.98174 0.10504,-1.17054 1.63342,-0.68545 1.16015,0.36822 2.67589,0.31596 3.36831,-0.11613 0.69242,-0.43209 2.15895,-0.9124 3.25895,-1.06735 1.57156,-0.22137 1.6889,-0.081 0.54775,0.65509 -0.79874,0.51525 -1.88077,0.67198 -2.40451,0.34829 -0.52374,-0.32369 -0.63117,-0.069 -0.23873,0.56598 0.39244,0.63498 1.30737,1.15451 2.03319,1.15451 1.38637,0 4.21027,5.69386 3.78169,7.62507 -0.13733,0.61878 0.76963,1.79565 2.01546,2.61526 2.90228,1.90936 7.18991,9.37617 5.48546,9.5528 -0.67117,0.0696 -2.40506,0.41193 -3.85309,0.76084 -1.57246,0.37888 -2.92169,0.16691 -3.35014,-0.52633 z m 9.04768,-1.92286 c -0.3043,-0.49236 0.14251,-1.16221 0.99292,-1.48854 0.8854,-0.33976 1.28509,-0.17086 0.93524,0.39521 -0.33602,0.5437 -0.1344,0.98855 0.44806,0.98855 1.81077,0 1.16177,-2.91888 -0.94098,-4.23207 -1.1,-0.68696 -2,-1.64588 -2,-2.13092 0,-0.48505 0.5625,-0.46169 1.25,0.0519 0.6875,0.51359 1.8125,0.84994 2.5,0.74744 0.6875,-0.10249 1.85,-0.2426 2.58333,-0.31135 0.73334,-0.0687 1.37889,-0.6875 1.43456,-1.375 0.0557,-0.6875 1.25567,-6.14591 2.66666,-12.12981 1.66569,-7.064 2.5129,-13.37703 2.41562,-18 -0.0824,-3.9161 -0.32417,-5.77019 -0.53724,-4.12019 -0.21307,1.65 -1.74582,9.15039 -3.4061,16.66754 -1.66029,7.51715 -3.08673,14.57061 -3.16987,15.67435 -0.12003,1.59336 -0.51433,1.81244 -1.91394,1.06339 -1.36015,-0.72792 -1.55619,-1.45296 -0.8583,-3.17434 1.76144,-4.34475 9.03375,-38.34365 8.93269,-41.76143 -0.0971,-3.28374 -0.19799,-3.17502 -1.88433,2.03049 -0.97996,3.025 -3.52129,13.26161 -5.64741,22.74803 -2.81484,12.5594 -4.25742,17.24857 -5.3068,17.25 -1.04374,10e-4 -0.90586,0.43606 0.5,1.57619 1.86992,1.51647 1.84942,1.54993 -0.55887,0.91207 -1.375,-0.36419 -3.5125,-0.62763 -4.75,-0.58542 -1.2375,0.0422 -2.25,-0.36823 -2.25,-0.91207 0,-0.54384 0.3375,-0.89964 0.75,-0.79067 1.92641,0.50889 5.29607,-1.55096 5.74974,-3.51478 0.27742,-1.20084 1.88129,-8.25835 3.56416,-15.68335 3.3382,-14.72843 5.19931,-21.82426 7.73735,-29.5 l 1.65328,-5 0.66836,4 0.66836,4 -0.14563,-4 c -0.11853,-3.25584 -0.51006,-4 -2.10458,-4 -2.44008,0 -3.91478,4.51363 -10.43516,31.9391 -2.72524,11.46268 -5.25391,20.03939 -5.94819,20.175 -0.66423,0.12975 -0.74644,0.007 -0.18269,-0.27243 0.56375,-0.27959 1.01132,-1.70834 0.99459,-3.175 -0.0274,-2.40396 -0.13744,-2.48245 -1.11683,-0.79669 -0.87722,1.50989 -1.25354,1.60617 -1.95428,0.5 -1.3152,-2.07615 -1.09478,-4.10594 0.35152,-3.23704 0.72721,0.43689 0.62265,-0.035 -0.25,-1.12821 -1.35962,-1.70332 -1.33734,-1.81824 0.238,-1.22795 0.95591,0.35818 1.69012,0.32994 1.63158,-0.0628 -0.27727,-1.86027 0.20386,-3.47391 0.84472,-2.83304 0.39287,0.39286 1.74463,-3.91964 3.00391,-9.58334 1.25929,-5.66369 3.69617,-15.13513 5.41529,-21.04763 3.01702,-10.37633 3.2234,-10.75 5.93707,-10.75 1.54627,0 3.13332,-0.52089 3.52678,-1.15752 0.50158,-0.81158 -0.004,-0.96509 -1.69098,-0.51366 -1.3235,0.35413 -3.4044,0.65002 -4.62423,0.65752 -1.90731,0.0117 -2.56593,1.16881 -4.70383,8.26366 -1.36729,4.5375 -3.36581,11.625 -4.44115,15.75 -1.07534,4.125 -2.01042,6.6 -2.07796,5.5 -0.11624,-1.89302 -0.19501,-1.90482 -1.47274,-0.22061 -1.21285,1.5987 -1.41271,1.61578 -1.96819,0.16821 -0.34005,-0.88612 -0.61827,-3.08641 -0.61827,-4.88951 0,-1.8031 -1.7423,-7.0538 -3.87177,-11.66821 -3.1233,-6.76796 -12.37865,-30.83286 -13.64569,-35.48025 -0.17526,-0.64284 -1.66931,-0.8858 -3.63991,-0.59192 -1.83845,0.27417 -2.78013,0.68985 -2.09263,0.92374 0.6875,0.23388 1.25,0.83317 1.25,1.33174 0,2.05579 10.56433,29.06017 16.0747,41.08992 7.40946,16.17565 7.71228,20.15869 1.4253,18.74712 -2.48589,-0.55814 -2.60013,-0.69385 -0.66667,-0.79189 1.28334,-0.0651 2.16808,-0.45581 1.96611,-0.86831 -8.56144,-17.48508 -13.89849,-29.89817 -19.43095,-45.19311 -2.49812,-6.90629 -5.20731,-13.29972 -6.02041,-14.20761 -0.9889,-1.1042 -1.12571,-1.86868 -0.41322,-2.30902 1.61934,-1.00081 3.05705,0.31725 2.35153,2.15581 -0.41863,1.09093 -0.23838,1.39229 0.54367,0.90896 0.64347,-0.39769 1.16994,-1.37151 1.16994,-2.16405 0,-1.96096 6.38224,-1.91589 8.35714,0.059 0.825,0.825 1.75715,1.5 2.07143,1.5 1.02329,0 0.60129,-2.82338 -0.47566,-3.18236 -0.5759,-0.19197 0.7741,-0.39678 3,-0.45515 2.2259,-0.0584 4.04709,0.2862 4.04709,0.76569 0,0.4795 -1.125,0.87182 -2.5,0.87182 -1.375,0 -2.5,0.16143 -2.5,0.35874 0,0.70958 7.79306,21.27498 10.36824,27.36113 1.44747,3.42092 2.63176,7.77162 2.63176,9.66821 0,1.89659 0.27822,4.17337 0.61827,5.05952 0.55548,1.44757 0.75534,1.43049 1.96819,-0.16821 1.2502,-1.64793 1.3577,-1.59469 1.45501,0.72061 0.0578,1.375 1.16045,-1.325 2.45036,-6 3.80375,-13.78591 3.69702,-13.61697 9.06711,-14.35302 7.20444,-0.98748 8.45643,-0.85061 7.80269,0.85302 -0.31659,0.825 -0.0775,1.5 0.53138,1.5 0.60885,0 1.10699,-0.43875 1.10699,-0.975 0,-0.54087 1.28178,-0.71864 2.87872,-0.39926 1.5833,0.31666 3.16222,0.11703 3.50873,-0.44362 0.76048,-1.2305 -2.28421,-1.87109 -12.88953,-2.71194 -8.81096,-0.69858 -11.35264,-1.93863 -12.06883,-5.88821 -0.26217,-1.44575 -1.36596,-4.88479 -2.45288,-7.64232 -2.43196,-6.16993 -2.43801,-6.58562 -0.10479,-7.19578 1.55064,-0.4055 2.38355,0.85216 4.85914,7.33718 2.58464,6.77067 2.77063,7.87071 1.37858,8.15384 -1.10155,0.22405 -0.58676,0.84393 1.63196,1.96512 2.09901,1.06069 3.46447,1.27639 3.875,0.61214 0.4267,-0.69041 0.85221,-0.67244 1.3018,0.055 0.36734,0.59438 6.14196,1.61635 12.83247,2.27106 6.69052,0.65471 11.93216,1.56645 11.64809,2.02608 -0.28407,0.45963 -1.81338,0.8357 -3.39846,0.8357 -1.58508,0 -3.14793,0.43035 -3.47301,0.95633 -0.32507,0.52598 -1.32975,0.67285 -2.23262,0.32639 -1.26255,-0.48449 -1.48392,-0.21905 -0.95872,1.14959 0.59695,1.55561 0.18317,1.73187 -3.28842,1.4008 -3.80433,-0.3628 -3.94595,-0.27266 -3.36858,2.14408 0.33149,1.38755 0.6519,2.58105 0.71203,2.65223 0.0601,0.0712 5.28432,-0.30563 11.60932,-0.83735 13.33245,-1.12083 68.73371,-0.46126 70.01964,0.8336 1.7297,1.74173 3.12375,14.80497 2.33432,21.87433 -0.42993,3.85 -0.93808,5.78593 -1.12922,4.30207 -0.30457,-2.36437 -0.92723,-2.79146 -5.03614,-3.45438 -5.28843,-0.85321 -58.41895,-1.11454 -70.6886,-0.34769 l -8,0.5 -0.27236,-5 c -0.16413,-3.01306 0.0669,-4.48885 0.58144,-3.71372 0.69081,1.04073 4.36985,1.06595 19.27236,0.13213 17.04403,-1.06802 38.91906,-0.78557 56.61513,0.73101 6.78923,0.58185 7.2209,0.76488 7.62653,3.23367 0.23649,1.4393 0.23801,-0.29311 0.003,-3.84981 -0.23462,-3.5567 -0.62862,-6.66875 -0.87554,-6.91568 -0.90383,-0.9042 -62.26108,-1.26093 -72.20056,-0.41977 -8.78113,0.74313 -10.25,0.65497 -10.25,-0.61519 0,-1.07117 -0.30288,-1.17976 -1.09136,-0.39128 -1.13415,1.13415 -0.96162,22.59653 0.19087,23.74406 0.32972,0.32831 8.42972,0.0818 18,-0.54772 16.3825,-1.07768 40.48438,-0.77 58.15049,0.74232 l 7.75,0.66345 0,3.01993 c 0,3.67599 0.95456,2.95889 2.01356,-1.51265 0.51175,-2.16085 0.75673,0.67071 0.70937,8.19925 -0.0398,6.325 -0.2451,9.57724 -0.45625,7.22721 -0.21115,-2.35004 -0.80753,-4.01098 -1.32529,-3.69099 -0.51777,0.32 -0.94139,-0.76442 -0.94139,-2.40982 0,-1.9806 -0.59142,-3.17074 -1.75,-3.52161 -4.95533,-1.50073 -43.96545,-2.55996 -60.25,-1.63595 -9.625,0.54614 -18.2875,1.00157 -19.25,1.01207 -1.07697,0.0118 -1.75,0.78827 -1.75,2.01909 0,1.1 -0.45,2 -1,2 -0.55445,0 -1,2.64699 -1,5.94098 0,3.26754 -0.44485,6.21592 -0.98855,6.55194 -0.55819,0.34499 -0.73943,-0.0382 -0.41631,-0.88024 0.31472,-0.82016 0.0983,-2.30604 -0.48105,-3.30194 -1.01498,-1.74492 -1.05438,-1.74453 -1.08368,0.0107 -0.0336,2.01362 -2.28868,4.67857 -3.95898,4.67857 -0.92583,0 -1.29207,1.35136 -0.98602,3.6382 0.23796,1.77808 -4.54315,3.04821 -5.52065,1.46658 z m 40.77065,-4.37109 c -0.26048,-0.42147 -0.89251,-0.50742 -1.40451,-0.19098 -0.51199,0.31643 -0.9309,0.16403 -0.9309,-0.33866 0,-0.50269 2.96158,-0.99546 6.58128,-1.09504 3.94988,-0.10867 6.34638,0.19903 5.99377,0.76955 -0.32313,0.52284 -0.13471,1.10155 0.41872,1.28603 0.55343,0.18448 -1.51174,0.33541 -4.58926,0.33541 -3.07752,0 -5.80862,-0.34484 -6.0691,-0.76631 z m -44.33541,-2.73369 c -0.90129,-0.58246 -1.02463,-0.97549 -0.30902,-0.98469 0.65504,-0.008 1.4691,0.43469 1.80902,0.98469 0.7673,1.24153 0.42112,1.24153 -1.5,0 z m -69.099678,-7.75 c -0.0824,-3.9262 -0.24319,-4.31642 -0.92714,-2.25 -0.65634,1.98301 -0.78851,1.5718 -0.63911,-1.98846 0.14165,-3.37535 0.61957,-4.57151 1.92714,-4.82333 0.95634,-0.18417 1.73879,0.1747 1.73879,0.79748 0,0.62279 -0.39772,0.88654 -0.88382,0.58611 -0.49677,-0.30701 -0.65578,2.29475 -0.36309,5.94099 0.2864,3.56796 0.23412,6.48721 -0.11618,6.48721 -0.3503,0 -0.68177,-2.1375 -0.73659,-4.75 z m 25.561648,0.68847 c -0.319,-0.51616 0.34655,-1.00597 1.47901,-1.08847 1.13246,-0.0825 2.50902,-0.195 3.05902,-0.25 0.55,-0.055 1.1125,0.34042 1.25,0.87871 0.32393,1.26814 -5.02579,1.69309 -5.78803,0.45976 z m -14.71197,-3.20225 c -10.276808,-3.20626 -10.025848,-3.3855 9.42199,-6.72935 16.66956,-2.86615 47.82636,-2.59602 43.02238,0.373 -0.9976,0.61655 -35.7252,7.15691 -43.19437,8.13493 -1.375,0.18005 -5.5375,-0.62031 -9.25,-1.77858 z m -6.196198,-6.45661 c -0.41036,-1.06938 0.26153,-1.21728 3.105838,-0.68368 2.76579,0.51886 3.44633,0.38454 2.85981,-0.56445 -0.58661,-0.94916 0.0284,-1.07006 2.58583,-0.50836 3.01676,0.6626 3.21984,0.57356 2.01179,-0.88205 -0.73902,-0.89048 -1.7116,-1.39166 -2.16128,-1.11375 -0.44968,0.27792 -1.10478,0.0406 -1.45579,-0.52732 -0.35101,-0.56794 -1.1696,-0.72814 -1.8191,-0.35599 -0.64949,0.37215 -0.83052,0.29162 -0.40228,-0.17897 1.60527,-1.764 6.68613,-1.35346 8.0921,0.65386 1.34601,1.92169 1.38919,1.91484 2.06929,-0.32813 0.43448,-1.4329 0.89204,-1.81007 1.22183,-1.00715 0.63946,1.55682 -1.53443,4.41316 -2.77515,3.64635 -0.48768,-0.3014 -0.88669,-0.13352 -0.88669,0.37307 0,0.50659 -2.68258,1.35309 -5.96128,1.88111 -4.778418,0.76954 -6.065178,0.68927 -6.484918,-0.40454 z m 12.446198,-3.72059 c 0,-0.24254 -0.45,-0.7191 -1,-1.05902 -0.55,-0.33992 -1,-0.14148 -1,0.44098 0,0.58246 0.45,1.05902 1,1.05902 0.55,0 1,-0.19844 1,-0.44098 z m 5,0.22492 c 0,-1.77583 0.21823,-1.86179 1.75,-0.68935 0.9625,0.73671 1.88035,1.40966 2.03966,1.49544 0.15932,0.0858 -0.62818,0.39599 -1.75,0.68935 -1.55792,0.4074 -2.03966,0.0542 -2.03966,-1.49544 z m 4.68886,-0.15307 c -0.27454,-0.71589 1.2521,-1.24277 4.16033,-1.43581 5.18734,-0.34432 5.07846,0.58081 -0.20869,1.77325 -2.3634,0.53304 -3.66028,0.42229 -3.95164,-0.33744 z m 37.04422,-0.37766 c 0.58135,-1.51498 2.4499,-1.20426 3.01865,0.50198 0.2072,0.6216 -0.50273,1.06394 -1.57763,0.98297 -1.18861,-0.0895 -1.75323,-0.67137 -1.44102,-1.48495 z m -22.17828,-0.66406 -4.9452,-1.17327 -6.42857,-14.95794 c -3.53571,-8.22687 -6.76672,-17.20794 -7.18004,-19.95794 l -0.75148,-5 -0.14007,5 c -0.077,2.75 -0.61829,5.675 -1.20278,6.5 -0.77196,1.08962 -0.89368,-0.27832 -0.44489,-5 0.3398,-3.575 0.79146,-9.65 1.00368,-13.5 0.32506,-5.89721 0.25719,-6.29107 -0.43083,-2.5 -0.72488,3.99419 -0.78645,3.72179 -0.5477,-2.42345 0.21327,-5.48931 0.60498,-6.97276 1.89103,-7.16152 0.89213,-0.13093 1.62205,0.17212 1.62205,0.67345 0,0.50134 -0.44139,0.91152 -0.98087,0.91152 -3.02821,0 4.16981,22.69884 14.74558,46.5 4.60544,10.36472 5.0687,11.01792 8.02146,11.31037 l 3.13373,0.31037 -4.48563,-9.59899 c -5.74584,-12.29576 -9.49072,-21.71472 -15.33661,-38.57395 -4.16534,-12.01264 -4.49685,-13.56745 -2.91811,-13.68637 0.97959,-0.0738 2.04149,0.2872 2.35978,0.8022 0.31829,0.515 -0.12285,0.93637 -0.98031,0.93637 -0.85746,0 -1.55902,0.3876 -1.55902,0.86133 0,0.47373 1.05219,0.66019 2.3382,0.41435 2.19082,-0.4188 2.63922,0.42506 7.11426,13.38867 2.62683,7.60961 7.67967,20.36065 11.22852,28.33565 3.54886,7.975 6.69559,15.0625 6.99273,15.75 0.34021,0.78714 -0.3325,1.28691 -1.81672,1.34968 l -2.35699,0.0997 2.5,0.80064 c 4.12827,1.3221 -4.58563,0.97935 -10.4452,-0.41085 z m -34.984538,-1.47546 c -0.30127,-0.48747 0.37289,-1.12707 1.498138,-1.42133 1.67795,-0.43879 1.83375,-0.27939 0.86631,0.88631 -1.38095,1.66394 -1.63167,1.72067 -2.364448,0.53502 z m -3.82026,-0.80302 c -0.9625,-0.25152 -1.75,-1.07276 -1.75,-1.82498 0,-0.75221 -0.52647,-1.69303 -1.16994,-2.09072 -0.79376,-0.49057 -0.95821,-0.1713 -0.51145,0.99292 0.36218,0.94384 0.24688,1.4616 -0.25625,1.15065 -1.13141,-0.69925 -1.22006,-38.17469 -0.10654,-45.03854 0.5359,-3.30333 0.77959,2.126 0.71813,16 -0.0512,11.55 0.16677,22.125 0.48429,23.5 1.01611,4.40021 1.97164,5.88739 3.42452,5.32987 0.86066,-0.33027 1.41724,0.0873 1.41724,1.06314 0,0.88385 -0.1125,1.55479 -0.25,1.49099 -0.1375,-0.0638 -1.0375,-0.3218 -2,-0.57333 z m 17.249998,-11.11067 c 0,-2.09 0.41993,-4.2275 0.93317,-4.75 0.51325,-0.5225 1.1126,-2.75 1.3319,-4.95 0.27876,-2.79655 0.44519,-2.04439 0.55317,2.5 0.1669,7.02405 -0.53246,11 -1.93487,11 -0.48585,0 -0.88337,-1.71 -0.88337,-3.8 z m -19.713988,-10.7 c 0.007,-2.75 0.20172,-3.75631 0.43157,-2.23625 0.22986,1.52006 0.22371,3.77006 -0.0136,5 -0.23736,1.22994 -0.42542,-0.0137 -0.41792,-2.76375 z m 1.7444,-19.75 c -0.0167,-12.5125 0.20742,-22.75 0.49811,-22.75 1.97703,0 12.557858,6.33901 12.197058,7.3073 -0.24444,0.65599 -2.80644,8.8427 -5.69334,18.1927 -2.886898,9.35 -5.636478,17.675 -6.110168,18.5 -0.50101,0.87258 -0.87397,-8.01592 -0.89166,-21.25 z m 65.042698,14.37755 c -0.0585,-1.89894 -0.34811,-2.14421 -1.45097,-1.22892 -1.08935,0.90408 -1.50527,0.66798 -1.98634,-1.12756 -0.33467,-1.24909 -0.61464,-3.67211 -0.62215,-5.3845 -0.008,-1.71238 -1.74291,-7.71848 -3.85646,-13.34689 -2.52797,-6.73204 -3.65022,-11.14124 -3.27994,-12.88658 0.52547,-2.47683 0.58608,-2.50361 0.91236,-0.4031 0.19222,1.2375 0.78792,2.25 1.32378,2.25 0.53585,0 0.84206,-0.74082 0.68045,-1.64626 -0.16161,-0.90544 0.38116,-1.8397 1.20616,-2.07613 1.33333,-0.38211 1.33333,-0.312 0,0.63095 -1.10236,0.77959 -1.15298,1.06487 -0.19098,1.07613 0.71996,0.008 1.05378,0.42829 0.74182,0.93305 -0.31195,0.50475 0.59278,4.13344 2.01052,8.06375 2.03518,5.642 2.32684,7.4483 1.38573,8.58226 -0.86869,1.04671 -0.88238,1.43625 -0.0505,1.43625 0.71825,0 0.90884,0.92695 0.51403,2.5 -0.47449,1.89052 -0.23534,2.5 0.98095,2.5 0.98972,0 1.62347,0.86549 1.64755,2.25 0.0328,1.88744 0.26676,1.7263 1.45173,-1 1.32783,-3.055 1.70048,-3.24149 6.21086,-3.1081 l 4.79827,0.14191 -4,0.60809 c -3.89768,0.59254 -4.05569,0.77438 -6.17689,7.1081 -1.26141,3.76644 -2.20764,5.50227 -2.25,4.12755 z m 30.92689,-7.85342 c 0,-0.80151 11.16379,-3.27413 14.78259,-3.27413 1.00933,0 2.70866,0.64533 3.77628,1.43406 1.75308,1.29514 1.3446,1.41573 -4.21657,1.24483 -3.38674,-0.10407 -5.99886,0.0678 -5.80472,0.38191 0.19414,0.31413 -1.64739,0.67469 -4.0923,0.80125 -2.4449,0.12656 -4.44528,-0.13801 -4.44528,-0.58792 z m 15.76166,-1.96121 c -0.95609,-0.25029 -2.75609,-0.25937 -4,-0.0202 -1.24391,0.23919 -0.46166,0.44398 1.73834,0.45508 2.2,0.0111 3.21775,-0.18461 2.26166,-0.4349 z m 6.88391,0.004 c 1.18006,-0.23586 2.93352,-1.29951 3.89656,-2.36367 1.65722,-1.8312 1.82786,-1.8416 3.18607,-0.19413 1.3628,1.65303 1.40736,1.65256 0.88482,-0.009 -0.43688,-1.38946 0.0442,-1.75 2.33503,-1.75 1.58691,0 3.09614,0.5625 3.35386,1.25 0.32464,0.866 0.95486,0.63561 2.05153,-0.75 0.87063,-1.1 1.59726,-1.46406 1.61476,-0.80902 0.0175,0.65504 -0.42554,1.47364 -0.98451,1.8191 -0.55897,0.34546 -0.81554,0.95298 -0.57015,1.35003 0.24539,0.39705 -1.10346,0.541 -2.99746,0.31988 -1.89399,-0.22111 -4.11243,0.15304 -4.92985,0.83144 -1.03297,0.85727 -1.48623,0.89112 -1.48623,0.11099 0,-0.61734 -0.47656,-1.12244 -1.05902,-1.12244 -0.58246,0 -0.85131,0.3375 -0.59745,0.75 0.25386,0.4125 -1.18208,0.80534 -3.19098,0.87297 -2.0089,0.0676 -2.68704,-0.07 -1.50698,-0.30586 z m 17.38623,-1.00809 c -0.0175,-0.65504 0.42554,-1.47364 0.98451,-1.8191 0.55897,-0.34546 0.75742,-1.04702 0.44098,-1.55902 -0.31643,-0.512 1.02623,-0.93091 2.98369,-0.93091 2.0244,0 3.55902,0.49802 3.55902,1.15499 0,0.69104 0.73458,0.49019 1.82874,-0.5 2.06861,-1.87206 7.70066,-2.22545 8.73724,-0.54823 0.47683,0.77153 0.94441,0.69581 1.54371,-0.25 0.63257,-0.99833 0.86373,-1.02653 0.875,-0.10676 0.008,0.6875 0.0277,1.5593 0.0428,1.93733 0.0151,0.37803 -0.65987,0.78821 -1.5,0.91151 -0.84012,0.12331 -1.52749,-0.41099 -1.52749,-1.18732 0,-2.21303 -5.65704,-1.831 -6.24616,0.42181 -0.46697,1.78568 -3.75384,2.66128 -3.75384,1 0,-1.56808 -5.2775,-0.83598 -6.60795,0.91667 -0.73344,0.96618 -1.34269,1.21656 -1.36025,0.55902 z m -21.0318,-1.36805 c 0,-0.58246 0.45,-0.7809 1,-0.44098 0.55,0.33992 1,0.81648 1,1.05902 0,0.24254 -0.45,0.44098 -1,0.44098 -0.55,0 -1,-0.47656 -1,-1.05902 z m -17,-1.44098 c -5.225,-0.67106 -9.5,-1.31774 -9.5,-1.43707 0,-0.11933 -2.025,-0.43486 -4.5,-0.70118 -2.475,-0.26632 -5.03613,-1.01916 -5.6914,-1.67298 -1.78019,-1.77626 -7.28643,-16.68877 -6.1621,-16.68877 0.53434,0 0.66723,-0.49238 0.2953,-1.09417 -0.38303,-0.61975 -1.81777,-0.82853 -3.30902,-0.4815 -1.44803,0.33696 -3.98278,0.83541 -5.63278,1.10766 l -3,0.49499 3.36481,-1.51349 c 1.85065,-0.83242 5.09902,-1.51349 7.21862,-1.51349 3.19243,0 3.74359,0.28722 3.21158,1.67361 -0.49211,1.2824 -0.23888,1.51883 1.08332,1.01145 0.96382,-0.36985 1.47278,-0.25317 1.15296,0.26431 -0.31492,0.50955 0.62765,3.92458 2.09461,7.58896 2.21195,5.52535 2.42882,6.81343 1.27064,7.54677 -0.7681,0.48635 -1.16857,0.89116 -0.88994,0.89959 0.27863,0.008 2.00423,0.44482 3.83466,0.96978 2.76774,0.79378 3.13727,0.72459 2.19484,-0.41097 -0.72198,-0.86993 -0.77614,-1.58613 -0.14925,-1.97357 0.58949,-0.36433 -0.19989,-3.479 -1.969,-7.76916 -2.08697,-5.06094 -2.61699,-7.36868 -1.8073,-7.8691 0.63013,-0.38943 0.83647,-1.20838 0.45855,-1.81987 -0.39192,-0.63414 -0.0173,-1.1118 0.87188,-1.1118 0.85746,0 1.55902,0.5051 1.55902,1.12244 0,0.72969 0.58178,0.64221 1.66262,-0.25 1.29619,-1.06996 1.75534,-1.09695 2.08333,-0.12244 0.58598,1.74101 2.24755,1.55928 4.57141,-0.5 1.41554,-1.25438 2.09622,-1.40332 2.40344,-0.52589 0.31948,0.91243 1.0461,0.8195 2.8539,-0.36501 2.21439,-1.45093 3.64657,-4.23192 1.4944,-2.90181 -0.512,0.31644 -1.21809,0.11065 -1.5691,-0.45729 -0.35101,-0.56794 -1.02601,-0.79294 -1.5,-0.5 -0.47399,0.29294 -1.14899,0.0679 -1.5,-0.5 -0.35101,-0.56794 -1.05195,-0.77691 -1.55764,-0.46437 -0.5057,0.31253 -0.64639,-0.14335 -0.31264,-1.01308 0.5379,-1.40174 0.76012,-1.37925 1.95674,0.19806 1.02673,1.35337 1.35755,1.43435 1.38174,0.33826 0.0229,-1.03911 0.44137,-0.89963 1.5,0.5 1.12273,1.48439 1.47928,1.58819 1.51531,0.44113 0.039,-1.24186 0.19734,-1.26283 0.92,-0.12189 0.50849,0.80281 1.40152,1.05141 2.1392,0.5955 0.88245,-0.54539 1.01818,-0.38115 0.44775,0.54182 -0.59434,0.96167 -0.36276,1.14954 0.8455,0.68589 1.20477,-0.46231 1.66404,-0.0952 1.66404,1.33006 0,1.08274 0.47656,1.96862 1.05902,1.96862 0.58246,0 0.7809,-0.45 0.44098,-1 -0.33992,-0.55 -0.14148,-1 0.44098,-1 0.66691,0 1.05902,3.3323 1.05902,9 l 0,9 4,0.125 c 2.2,0.0688 4.5625,0.19631 5.25,0.28346 0.6875,0.0871 1.49122,-0.17738 1.78605,-0.58785 0.29483,-0.41046 4.68289,-0.87552 9.75123,-1.03346 7.1257,-0.22204 9.2149,0.0131 9.21395,1.03699 -8.9e-4,0.96001 -1.39555,1.25013 -5.07171,1.05502 -3.52798,-0.18725 -5.38194,0.17046 -6.09433,1.17586 -0.82064,1.15818 -0.90756,1.08576 -0.43794,-0.36488 0.50528,-1.56077 0.0709,-1.76722 -3.15566,-1.5 -2.46432,0.20408 -3.64779,0.76195 -3.46681,1.63419 0.15112,0.72838 -0.18638,1.03932 -0.75,0.69098 -0.56363,-0.34834 -1.02478,-0.15679 -1.02478,0.42567 0,1.84278 -4.96363,1.14579 -8.04049,-1.12904 -2.80254,-2.072 -2.96561,-2.58914 -3.07451,-9.75 -0.10192,-6.70174 -0.20911,-7.10692 -0.94237,-3.56194 -1.37381,6.64182 -1.12816,12.49157 0.55163,13.13617 0.82184,0.31537 1.18546,1.08875 0.80804,1.71861 -0.37742,0.62987 0.14007,0.47375 1.14999,-0.34694 1.69041,-1.37368 1.78234,-1.32246 1.15787,0.64509 -0.63627,2.0047 -0.24212,2.18105 6.35575,2.84365 3.86875,0.38852 7.03409,1.14106 7.03409,1.6723 0,0.53124 -0.7875,0.74666 -1.75,0.4787 -0.9625,-0.26795 -6.3625,-1.0239 -12,-1.67988 -9.85963,-1.14727 -14.00018,-2.9677 -6.75,-2.9677 1.925,0 3.5,-0.45 3.5,-1 0,-0.55 -0.3375,-0.94671 -0.75,-0.88158 -1.93578,0.30565 -2.83609,-0.26115 -2.96784,-1.86842 -0.0789,-0.9625 -1.30743,-4.3679 -2.73007,-7.56756 -1.42264,-3.19965 -2.36747,-6.17214 -2.09962,-6.60554 0.26785,-0.43339 -0.62438,-0.57553 -1.98273,-0.31587 -3.05642,0.58427 -3.05489,0.67181 0.13771,7.86454 4.57198,10.30038 3.7735,13.07116 -3.10745,10.78307 -3.12071,-1.03771 -3.32061,-1.21904 -0.90934,-0.82491 2.09858,0.34303 3.51713,-0.009 4.41927,-1.0957 1.10802,-1.33508 1.10284,-1.55 -0.0312,-1.29445 -0.86133,0.19409 -2.4492,-2.32419 -4.33139,-6.86934 -2.64121,-6.37806 -5.32843,-9.3098 -7.0006,-7.63763 -0.25799,0.258 0.83627,3.6346 2.4317,7.50356 2.77857,6.73811 3.02379,9.60907 0.69797,8.17163 -0.65284,-0.40348 -0.79732,-0.20468 -0.36252,0.49884 1.2604,2.03937 7.03027,3.88056 14.517,4.63242 3.98687,0.40038 8.44591,1.08956 9.90899,1.5315 2.49067,0.75234 2.43716,0.8001 -0.83986,0.74954 -1.925,-0.0297 -7.775,-0.60304 -13,-1.2741 z m 19.36889,-6.28786 c 0.26781,-0.43332 -0.71813,-0.85383 -2.19098,-0.93446 -2.33782,-0.12799 -2.42391,-0.0369 -0.67791,0.71757 1.1,0.4753 2.08594,0.89581 2.19098,0.93446 0.10504,0.0387 0.4101,-0.28425 0.67791,-0.71757 z m -12.36889,-14.27116 c 0,-2.27431 -0.45336,-2.94098 -2,-2.94098 -2.34395,0 -2.30399,-0.17046 -0.90259,3.84959 1.30222,3.73554 2.90259,3.23457 2.90259,-0.90861 z m -3.33333,-5.4251 c 0,-1.12339 -0.32409,-1.21516 -1.33334,-0.37756 -0.73333,0.60861 -1.33333,1.27647 -1.33333,1.48412 0,0.20766 0.6,0.37756 1.33333,0.37756 0.73334,0 1.33334,-0.66786 1.33334,-1.48412 z m -37.72992,24.90791 c -1.08184,-1.30353 -1.06803,-1.72462 0.0798,-2.43402 1.87191,-1.15691 3.33776,-0.12162 2.04067,1.44127 -0.57193,0.68914 -0.74378,1.54907 -0.38189,1.91097 0.3619,0.36189 0.41309,0.65799 0.11377,0.65799 -0.29932,0 -1.13288,-0.7093 -1.85236,-1.57621 z m 97.81325,0.78586 c -4.47242,-0.39403 -4.94231,-1.80766 -0.80281,-2.41521 1.62095,-0.2379 2.74854,-0.11113 2.50574,0.28172 -0.24279,0.39285 0.19373,0.95801 0.97005,1.25591 0.77633,0.29791 1.65962,-0.10494 1.96288,-0.89521 0.30325,-0.79027 0.0889,-1.43686 -0.47626,-1.43686 -0.5652,0 -0.76167,-0.43035 -0.43659,-0.95633 0.88859,-1.43777 3.36296,-0.13183 3.10323,1.63786 -0.31354,2.13628 -2.41978,2.91633 -6.82624,2.52812 z m -87.55833,-3.28465 c 0.19708,-0.59125 0.78583,-1.075 1.30833,-1.075 0.5225,0 1.11125,0.48375 1.30833,1.075 0.19709,0.59125 -0.39166,1.075 -1.30833,1.075 -0.91667,0 -1.50542,-0.48375 -1.30833,-1.075 z m 87.40489,-1.76877 c -0.34605,-0.55992 -0.1419,-1.31919 0.45366,-1.68727 1.53748,-0.95022 2.52947,0.35135 1.24598,1.63484 -0.71818,0.71818 -1.27752,0.73543 -1.69964,0.0524 z m -8.34656,-2.18739 c -1.2375,-0.49742 -2.25,-1.21889 -2.25,-1.60328 0,-0.38439 0.2961,-0.4028 0.65799,-0.0409 0.3619,0.36189 1.28729,0.13572 2.05642,-0.50261 1.08732,-0.90239 1.33027,-0.85495 1.09201,0.21322 -0.16853,0.7556 0.21858,1.39428 0.86025,1.41928 0.64166,0.025 1.50416,0.38295 1.91666,0.79545 1.00617,1.00617 -1.54196,0.84083 -4.33333,-0.28116 z m -14.25,-1.17973 c 0,-2.32552 0.91484,-2.64753 4.10293,-1.44416 2.04199,0.77077 3.21011,0.80028 3.69206,0.0933 0.38776,-0.56881 1.70849,-1.09646 2.93497,-1.17256 1.81094,-0.11237 1.99884,0.11302 1,1.19945 -0.67648,0.73581 -1.38622,0.91338 -1.57721,0.39461 -0.19915,-0.54096 -0.94321,-0.44861 -1.74467,0.21654 -0.76858,0.63787 -2.38891,0.90049 -3.60072,0.58359 -1.21181,-0.31689 -2.7892,-0.0899 -3.50532,0.50442 -0.96798,0.80335 -1.30204,0.70709 -1.30204,-0.37518 z M 91.174212,628.5059 c -0.71241,-1.85651 -0.46273,-2.17857 2.04249,-2.63445 2.64629,-0.48156 3.02282,1.41212 0.58365,2.9354 -1.69505,1.05858 -2.12328,1.0095 -2.62614,-0.30095 z m 2.14623,-0.47952 c 0.33992,-0.55 0.14148,-1 -0.44098,-1 -0.58246,0 -1.05902,0.45 -1.05902,1 0,0.55 0.19844,1 0.44098,1 0.24254,0 0.7191,-0.45 1.05902,-1 z m 77.499998,1 c 0,-0.55 0.45,-1 1,-1 0.55,0 1,0.45 1,1 0,0.55 -0.45,1 -1,1 -0.55,0 -1,-0.45 -1,-1 z m -72.728858,-2.31344 c 0.21754,-0.65261 0.92053,-1.24281 1.56219,-1.31156 0.641668,-0.0687 1.279168,-0.20997 1.416668,-0.31382 1.0702,-0.80828 9.7514,-0.34921 9.75078,0.51563 -4.5e-4,0.6143 -1.22179,0.8976 -2.84354,0.65958 -1.56351,-0.22948 -4.5165,0.0449 -6.56218,0.60975 -2.803668,0.77413 -3.622048,0.73484 -3.323918,-0.15958 z m 14.015438,-2.0463 c 0.41761,-1.25283 8.71591,-1.38644 8.71099,-0.14026 -0.002,0.55 -2.03152,1.01203 -4.50967,1.02674 -2.47815,0.0147 -4.36874,-0.38421 -4.20132,-0.88648 z m 10.00012,-1.00038 c 0.1697,-0.50907 2.53711,-0.91665 5.26092,-0.90571 2.72381,0.0109 5.35893,-0.21901 5.85582,-0.51099 0.49689,-0.29198 2.74689,-0.51985 5,-0.50637 2.25311,0.0135 4.50311,-0.21153 5,-0.5 1.6196,-0.94028 8.98497,-0.55157 9.33301,0.49255 0.20942,0.62825 -2.99571,1.09056 -8.38395,1.20932 -4.79764,0.10574 -9.07312,0.40865 -9.50106,0.67313 -1.49751,0.92552 -12.87172,0.96903 -12.56474,0.0481 z m 35.20032,-2.36575 c 2.19287,-0.23272 4.25759,-0.8609 4.58828,-1.39596 0.35684,-0.57739 1.07126,-0.4065 1.75752,0.42038 0.96555,1.16343 0.20875,1.39368 -4.58828,1.39597 -4.21244,0.002 -4.68118,-0.11011 -1.75752,-0.42039 z m 26.49292,-0.7983 c -0.69572,-0.83829 -0.97582,-1.81329 -0.62244,-2.16666 0.35337,-0.35338 0.6425,-0.0694 0.6425,0.63115 0,0.7014 0.65107,1.02382 1.44907,0.7176 0.96852,-0.37166 1.26467,-0.0755 0.89301,0.89301 -0.69197,1.80324 -0.80627,1.79961 -2.36214,-0.0751 z m -18.52106,-0.54236 c -0.36253,-0.58659 -0.38909,-1.33659 -0.059,-1.66667 0.33006,-0.33007 0.60012,-0.10813 0.60012,0.49321 0,0.60134 0.7875,1.29914 1.75,1.55066 1.57771,0.4123 1.58352,0.46875 0.059,0.57333 -0.93004,0.0638 -1.9876,-0.36394 -2.35014,-0.95053 z m 14.54112,-1.43347 c 0,-0.825 0.17686,-1.5 0.39301,-1.5 0.21616,0 0.65203,0.675 0.96862,1.5 0.31658,0.825 0.13972,1.5 -0.39301,1.5 -0.53274,0 -0.96862,-0.675 -0.96862,-1.5 z"
       id="path4217"
       inkscape:connector-curvature="0"
       inkscape:export-xdpi="300"
       inkscape:export-ydpi="300" />
  </g>
</svg>
