<?xml version="1.0" encoding="UTF-8" standalone="no"?>
<!-- Created with Inkscape (http://www.inkscape.org/) -->

<svg
   xmlns:dc="http://purl.org/dc/elements/1.1/"
   xmlns:cc="http://creativecommons.org/ns#"
   xmlns:rdf="http://www.w3.org/1999/02/22-rdf-syntax-ns#"
   xmlns:svg="http://www.w3.org/2000/svg"
   xmlns="http://www.w3.org/2000/svg"
   xmlns:sodipodi="http://sodipodi.sourceforge.net/DTD/sodipodi-0.dtd"
   xmlns:inkscape="http://www.inkscape.org/namespaces/inkscape"
   width="210mm"
   height="297mm"
   viewBox="0 0 744.09448819 1052.3622047"
   id="svg2"
   version="1.1"
   inkscape:version="0.91 r13725"
   sodipodi:docname="ptoCrazycolors.svg">
  <defs
     id="defs4" />
  <sodipodi:namedview
     id="base"
     pagecolor="#ffffff"
     bordercolor="#666666"
     borderopacity="1.0"
     inkscape:pageopacity="0.0"
     inkscape:pageshadow="2"
     inkscape:zoom="0.80253906"
     inkscape:cx="249.61847"
     inkscape:cy="669.52543"
     inkscape:document-units="px"
     inkscape:current-layer="layer1"
     showgrid="false"
     inkscape:window-width="1366"
     inkscape:window-height="719"
     inkscape:window-x="0"
     inkscape:window-y="1"
     inkscape:window-maximized="1" />
  <metadata
     id="metadata7">
    <rdf:RDF>
      <cc:Work
         rdf:about="">
        <dc:format>image/svg+xml</dc:format>
        <dc:type
           rdf:resource="http://purl.org/dc/dcmitype/StillImage" />
        <dc:title></dc:title>
      </cc:Work>
    </rdf:RDF>
  </metadata>
  <g
     inkscape:label="Layer 1"
     inkscape:groupmode="layer"
     id="layer1">
    <g
       id="g4219"
       transform="translate(13.706493,-52.333901)"
       inkscape:export-filename="/Users/lafespietz/Desktop/insanity.png"
       inkscape:export-xdpi="300"
       inkscape:export-ydpi="300">
      <path
         style="fill:#a9a9a9"
         d="m 2.0833304,365.79126 0,-276 365.4999996,0 365.5,0 0,276 0,276 -365.5,0 -365.4999996,0 0,-276 z"
         id="path4235"
         inkscape:connector-curvature="0" />
      <path
         style="fill:#930008;fill-opacity:1"
         d="m 2.0833304,365.79126 0,-276 365.4999996,0 365.5,0 0,276 0,276 -365.5,0 -365.4999996,0 0,-276 z M 384.8994,560.26595 c 41.62616,-5.78892 76.92143,-10.77468 78.43393,-11.07946 1.70804,-0.34418 2.73412,-1.1871 2.70808,-2.22469 -0.0745,-2.96902 -88.65842,-185.56391 -90.5977,-186.74585 -1.41879,-0.86471 -4.70878,-0.70162 -13.86038,0.68707 -6.6,1.0015 -27.3,3.83996 -46,6.30769 l -34,4.48677 -2.11766,-2.20311 c -1.16471,-1.21171 -6.09198,-12.32811 -10.94949,-24.70311 -4.85751,-12.375 -9.13021,-22.86564 -9.49489,-23.31254 -0.65614,-0.80408 -30.24141,2.76402 -32.01696,3.86137 -0.53112,0.32824 -0.921,14.48898 -0.921,33.45117 0,23.35876 -0.32717,33.08417 -1.12966,33.58014 -0.62132,0.38399 -13.55882,2.41471 -28.75,4.5127 -25.44118,3.51358 -27.71896,3.68476 -28.87034,2.16972 -0.6875,-0.90465 -1.25,-2.42281 -1.25,-3.37368 0,-0.95087 -5.85,-16.56532 -13,-34.69876 -8.17755,-20.73947 -13,-34.30911 -13,-36.58001 0,-3.65973 -1.13337,-4.44486 -3.8934,-2.69716 -0.76637,0.48529 -1.158,1.7159 -0.8703,2.73469 0.57916,2.05092 43.56106,110.21546 44.22154,111.28415 0.22777,0.36854 26.20544,-2.83871 57.72815,-7.12722 31.5227,-4.28851 58.66401,-7.68643 60.31401,-7.55093 2.7991,0.22986 3.04436,0.58119 3.66239,5.24636 0.36432,2.75 0.7095,21.425 0.76708,41.5 0.0576,20.075 0.76431,49.325 1.57053,65 0.80622,15.675 1.47354,30.3795 1.48293,32.67668 0.0128,3.12779 0.45655,4.29152 1.76707,4.63399 0.9625,0.25153 1.89223,0.50953 2.06607,0.57333 0.17385,0.0638 34.37385,-4.62039 76,-10.40931 z M 525.33333,389.65186 c 31.74386,-4.24449 54.75135,-7.74924 54.75322,-8.34062 0.005,-1.66282 -12.19363,-31.91304 -13.39758,-33.22273 -0.85739,-0.93269 -7.03815,-0.39932 -27.5273,2.37548 -25.37445,3.43641 -26.47431,3.50623 -27.75,1.76162 -0.73059,-0.99914 -1.33012,-2.5181 -1.3323,-3.37548 -0.005,-1.84308 -21.59241,-57.05524 -22.76802,-58.23085 -0.90734,-0.90734 -59.27517,6.76707 -60.28977,7.92711 -0.57928,0.66233 36.28692,94.76972 38.42084,98.0759 0.47298,0.73279 1.82133,1.11061 3,0.84062 1.1775,-0.26973 26.77841,-3.7847 56.89091,-7.81105 z M 327.15941,292.28168 c 0.31684,-3.29473 0.8404,-6.66542 1.16346,-7.49042 2.83859,-7.24885 1.04062,-11 -5.27242,-11 -3.72989,0 -3.93726,0.17496 -5.03722,4.25 -1.16386,4.31175 -2.87307,14.85118 -2.90979,17.9425 -0.0151,1.26727 1.0477,1.79099 4.22989,2.08449 7.28696,0.67208 7.1987,0.73734 7.82608,-5.78657 z"
         id="path4233"
         inkscape:connector-curvature="0" />
      <path
         style="fill:#00fffa;fill-opacity:1"
         d="m 2.0833304,365.79126 0,-276 365.4999996,0 365.5,0 0,276 0,276 -276.39301,0 c -251.11179,0 -276.44853,-0.14468 -277,-1.58179 -1.09671,-2.85796 -0.69577,-202.24531 0.40805,-202.92751 2.22041,-1.37229 117.37016,-16.35491 118.99858,-15.48341 1.48157,0.79291 1.73122,4.84569 2.32175,37.69058 0.36392,20.24117 0.66234,53.56463 0.66315,74.05213 l 0.001,37.25 4.56607,0 c 4.01187,0 152.17487,-20.18367 158.30948,-21.56588 l 2.37555,-0.53525 -0.62097,-29.69943 c -0.34153,-16.33469 -0.90612,-50.00312 -1.25463,-74.81873 l -0.63368,-45.11929 4.87909,-1.10929 c 2.6835,-0.61011 28.72753,-4.30487 57.87563,-8.21058 29.14809,-3.90571 53.1304,-7.23516 53.29402,-7.39877 0.16361,-0.16362 -2.82186,-8.11518 -6.63438,-17.67013 -6.08298,-15.24522 -7.22111,-17.40231 -9.29401,-17.61482 -1.2992,-0.1332 -13.16217,1.25617 -26.36217,3.08748 -15.14165,2.10068 -24.64592,3.00755 -25.75,2.45699 -1.63701,-0.81633 -1.75,-4.67963 -1.75,-59.83748 0,-34.09387 -0.37804,-58.96482 -0.89627,-58.96482 -0.82352,0 -22.53892,33.36455 -23.72197,36.44752 -0.28496,0.7426 -0.0362,1.64799 0.5527,2.01197 0.58894,0.36399 2.01391,2.73205 3.1666,5.26235 2.268,4.97858 1.79067,9.85578 -1.10859,11.32708 -0.82086,0.41657 -15.28022,2.56609 -32.1319,4.77672 -16.85169,2.21062 -31.47669,4.48216 -32.5,5.04785 -1.02332,0.5657 -4.44807,1.30796 -7.61057,1.64948 -5.66212,0.61145 -5.75,0.66946 -5.75,3.79558 0,4.89756 -4.88354,18.44567 -9.32405,25.86713 -2.20014,3.67712 -6.65164,9.47201 -9.89222,12.87753 -4.47906,4.70703 -5.81904,6.7912 -5.58785,8.69123 0.33954,2.79053 -1.65691,1.57334 42.12043,25.67967 14.74897,8.12163 26.56606,15.01685 26.2602,15.32272 -0.30587,0.30586 -2.24821,-0.15012 -4.31631,-1.0133 -7.86607,-3.2831 -39.51532,-17.28199 -57.5291,-25.44588 l -18.76891,-8.50612 -6.754,1.52525 c -3.71471,0.83889 -11.4687,2.03644 -17.2311,2.66123 -5.7624,0.62479 -22.62709,2.6929 -37.47709,4.5958 -31.08851,3.98372 -31.68419,4.01335 -33.69764,1.67619 -0.82919,-0.9625 -5.49421,-11.875 -10.36671,-24.25 -4.87251,-12.375 -9.00481,-22.70348 -9.1829,-22.95219 -0.32965,-0.46036 -26.89961,2.65217 -31.00275,3.63181 l -2.25,0.5372 0,31.8098 c 0,17.49539 -0.27127,32.51672 -0.60282,33.38074 -0.33156,0.86401 -2.24406,1.99173 -4.25,2.50605 -6.27446,1.60876 -51.0682,7.33088 -52.64643,6.72525 -1.31086,-0.50302 -1.50075,-8.03779 -1.50075,-59.54826 0,-32.4348 -0.35936,-59.19446 -0.79857,-59.46591 -0.43921,-0.27145 -6.387,8.3062 -13.21732,19.06144 -12.13063,19.1013 -15.62522,23.07296 -18.11273,20.58545 -0.76582,-0.76582 5.18379,-10.77449 20.71683,-34.85067 11.98516,-18.57697 21.81833,-34.59035 21.85149,-35.58529 0.047,-1.40999 -9.25121,-6.33337 -42.1573,-22.3222 -23.21967,-11.28227 -42.682173,-20.51322 -43.249995,-20.51322 -0.706688,0 -1.032405,68.16916 -1.032405,216.07143 0,185.92857 -0.199292,216.27072 -1.428571,217.5 -1.193872,1.19387 -8.504762,1.42857 -44.5,1.42857 l -43.0714286,0 0,-276 z m 329.9095796,-67.59042 4.90959,-0.59041 0.54644,-4.65959 c 0.30054,-2.56277 0.90373,-7.35958 1.34041,-10.65958 0.43669,-3.3 0.64052,-10.8375 0.45296,-16.75 l -0.34103,-10.75 -4.88992,0 c -4.41889,0 -4.95213,0.24784 -5.53569,2.57293 -0.35517,1.41511 -1.66812,2.96162 -2.91766,3.4367 -1.55076,0.5896 -2.81791,2.50767 -3.9921,6.0428 l -1.72019,5.17904 -3.84208,-0.51533 c -2.29345,-0.30762 -4.21873,-0.052 -4.77653,0.63426 -1.3034,1.6035 -4.82806,13.3614 -5.6516,18.85321 l -0.68461,4.56531 6.34621,2.05119 c 6.25305,2.02108 8.35494,2.08077 20.7558,0.58947 z m 88.29654,-19.75855 c 0.74193,-0.74194 10.967,-16.29544 22.72237,-34.56334 18.19302,-28.27202 21.16494,-33.41543 19.97246,-34.56559 -1.22153,-1.17818 -75.65873,-42.5221 -76.55843,-42.5221 -0.18839,0 -0.3418,17.2125 -0.34093,38.25 l 0.002,38.25 6.58927,6.98677 c 6.29317,6.6728 12.35437,15.61961 13.91674,20.54219 2.60224,8.19892 3.285,8.97104 7.9328,8.97104 2.42833,0 5.02219,-0.60704 5.76413,-1.34897 z"
         id="path4231"
         inkscape:connector-curvature="0" />
      <path
         style="fill:#000bf5;fill-opacity:1"
         d="m 2.0833304,365.79126 0,-276 365.4999996,0 365.5,0 0,276 0,276 -276.5,0 -276.5,0 0,-101.98095 0,-101.98095 2.25,-0.51351 c 6.22395,-1.42047 115.17374,-15.57596 116.36482,-15.1189 1.16295,0.44626 1.38518,12.38906 1.38518,74.44048 0,59.31514 0.25596,74.12137 1.2963,74.98478 1.524,1.2648 -2.19989,1.72903 94.05227,-11.72496 38.96671,-5.44672 71.25987,-10.31443 71.76258,-10.81714 0.55202,-0.55202 0.4684,-30.13236 -0.21115,-74.68885 -0.76765,-50.33329 -0.79981,-74.10019 -0.10122,-74.79878 0.56316,-0.56316 26.48883,-4.45365 57.61258,-8.64552 47.11745,-6.34596 56.58864,-7.88053 56.58864,-9.16877 0,-1.77166 -12.76156,-34.06336 -13.95274,-35.30585 -0.43181,-0.45041 -12.594,0.7828 -27.02708,2.74047 -14.43309,1.95767 -26.64208,3.31213 -27.13108,3.00991 -0.50061,-0.30939 -0.93266,-26.19453 -0.98878,-59.24048 -0.0548,-32.28004 -0.40888,-59.80019 -0.7868,-61.15589 -0.60229,-2.16058 -2.26188,4e-5 -13.44187,17.5 -10.26904,16.07405 -12.65723,20.48507 -12.25438,22.63397 0.59547,3.17642 5.0756,2.24926 -40.37764,8.35612 -30.72276,4.12775 -36.53817,5.30961 -34.77957,7.06822 0.3447,0.3447 18.05441,-1.72932 39.35491,-4.60894 37.59125,-5.08197 38.76899,-5.18061 40.11869,-3.36007 1.36517,1.8414 1.05423,7.0792 -0.50241,8.46331 -0.40219,0.35761 -14.88512,2.55505 -32.18429,4.8832 -17.29917,2.32815 -32.37417,4.57685 -33.5,4.99712 -1.12583,0.42027 -4.74696,1.09507 -8.04696,1.49956 -6.64008,0.81388 -7.46235,1.51117 -7.48469,6.34704 -0.0139,3.01014 -1.4155,7.24333 -5.69001,17.18538 -2.1806,5.07182 -11.69916,19.12134 -14.73116,21.74339 -1.85675,1.60569 -2.59414,3.22337 -2.59414,5.69098 0,4.20513 -0.54846,4.57536 -7.77571,5.24896 -3.14836,0.29344 -7.58556,1.137 -9.86045,1.87458 -6.84142,2.21818 -21.41349,4.41637 -28.86384,4.35409 -3.85,-0.0322 -18.46123,1.54716 -32.4694,3.50963 -21.03339,2.94668 -25.69819,3.33935 -26.78302,2.25452 -0.72249,-0.72249 -5.31304,-11.34946 -10.20121,-23.61549 -4.88817,-12.26603 -9.3313,-22.74559 -9.87363,-23.28792 -0.92422,-0.92422 -31.30955,2.57575 -33.35924,3.84252 -0.44742,0.27653 -0.8135,15.29966 -0.8135,33.38474 0,23.28864 -0.32839,33.08492 -1.1256,33.57762 -1.32788,0.82068 -47.88891,7.36842 -52.6244,7.40042 l -3.25,0.022 -0.0137,-58.75 c -0.0128,-55.03558 -0.25542,-63.31217 -1.85298,-63.20916 -0.34835,0.0225 -6.03337,8.64028 -12.63337,19.1507 -6.6,10.51042 -12.82016,20.16705 -13.82258,21.45916 -2.10597,2.71458 -4.19588,3.14276 -3.24501,0.66483 0.91274,-2.37855 41.51857,-65.43455 43.53116,-67.59868 1.36362,-1.46629 11.81423,-3.15441 58.81144,-9.5 41.76759,-5.63948 56.82632,-8.01014 55.93907,-8.80635 -0.66769,-0.59922 -19.21403,-9.3301 -41.21403,-19.40195 -22,-10.07186 -41.19447,-19.14408 -42.65437,-20.16051 -1.55893,-1.08536 -4.39413,-1.84804 -6.86997,-1.84804 -4.14626,0 -92.80043,11.88722 -106.47566,14.27682 l -7,1.22318 -0.505655,217.5 c -0.278111,119.625 -0.615611,217.6125 -0.75,217.75 -0.13439,0.1375 -19.819345,0.25 -43.744345,0.25 l -43.4999996,0 0,-276 z M 258.08333,308.70523 c 16.775,-2.25635 30.91275,-4.49529 31.41722,-4.97543 0.5456,-0.51928 0.2488,-1.12947 -0.73256,-1.50605 -1.68879,-0.64805 -59.91393,6.97314 -61.698,8.07576 -1.15681,0.71495 -1.32466,2.48805 -0.23666,2.49995 0.4125,0.005 14.475,-1.83789 31.25,-4.09423 z m 79.75,-9.46582 c 0.72396,-0.2232 1.25,-2.0475 1.25,-4.33498 0,-6.19191 0.69087,-7.11124 5.35699,-7.12848 5.98092,-0.0221 7.14301,-1.1127 7.14301,-6.70352 l 0,-4.78117 7.5,-0.61601 c 13.51722,-1.11024 18.10948,-2.00571 18.74223,-3.65464 0.32996,-0.85986 -0.48955,-3.62573 -1.82115,-6.14637 -2.0289,-3.84061 -2.98707,-4.66397 -5.91518,-5.08298 -2.72299,-0.38966 -3.93678,-1.29218 -5.5,-4.08955 -4.64666,-8.31518 -7.68083,-11.79021 -10.84986,-12.42629 -5.58481,-1.12097 -6.65604,-1.59332 -6.65604,-2.93492 0,-2.66881 -9.93493,-3.53749 -12,-1.04924 -0.68469,0.825 -2.48354,1.5 -3.99744,1.5 -1.51391,0 -4.10779,0.27105 -5.76419,0.60233 -4.02779,0.80555 -16.23837,12.40387 -16.23837,15.42413 0,3.57901 -5.82954,12.89265 -8.4872,13.55968 -2.33363,0.58571 -4.63767,4.80996 -7.49427,13.74008 -1.12039,3.5025 -1.03266,4.02984 1.03693,6.23281 1.24348,1.32363 3.2022,2.68098 4.35271,3.01635 1.15051,0.33536 3.90252,1.45895 6.11559,2.49687 2.21306,1.03791 7.16306,2.27128 11,2.74082 6.37787,0.78048 19.19358,0.57007 22.22624,-0.36492 z m 81.41735,-18.43714 c 1.08991,-0.007 9.18185,-11.69943 23.36525,-33.76101 11.93383,-18.5625 22.43352,-34.49341 23.33264,-35.40203 1.27262,-1.28606 13.70787,-3.26132 56.13476,-8.91662 29.975,-3.99552 54.85544,-7.56755 55.28987,-7.93784 0.64063,-0.54604 -72.76067,-36.94966 -83.81666,-41.56915 -2.59854,-1.08574 -5.41701,-0.99594 -17.53471,0.55867 -7.94118,1.01879 -30.8635,3.95698 -50.9385,6.52932 -20.075,2.57235 -37.4,4.83946 -38.5,5.03804 -1.96568,0.35485 -1.99495,1.03143 -1.70591,39.4258 l 0.29408,39.06474 6.20592,6.36304 c 6.8863,7.06065 12.82634,16.38298 15.32708,24.05444 2.29407,7.03742 3.12399,7.84674 7.33244,7.1504 1.95052,-0.32274 4.2967,-0.59175 5.21374,-0.5978 z"
         id="path4229"
         inkscape:connector-curvature="0" />
      <path
         style="fill:#6d6d6d"
         d="m 2.0833304,365.79126 0,-276 365.4999996,0 365.5,0 0,276 0,276 -276.5,0 -276.5,0 0,-101.39301 c 0,-82.25664 0.24528,-101.48714 1.29962,-101.89172 2.92471,-1.12232 116.74559,-16.0034 117.39997,-15.34902 0.39015,0.39016 0.89878,34.21736 1.13029,75.17156 l 0.42092,74.46219 4.44068,0 c 5.46658,0 154.30094,-20.57557 159.68344,-22.0754 l 3.87493,-1.07974 -0.62054,-33.67243 c -0.3413,-18.51984 -0.90534,-51.99323 -1.25342,-74.38532 l -0.63287,-40.7129 2.37849,-0.98278 c 1.30817,-0.54054 26.90349,-4.22349 56.87849,-8.18434 30.84324,-4.07557 55.06766,-7.72079 55.80775,-8.39778 1.06345,-0.97277 -0.0254,-4.54147 -5.82854,-19.10278 -3.92496,-9.84859 -7.46648,-18.24956 -7.87005,-18.66883 -0.40356,-0.41926 -12.40565,0.82324 -26.6713,2.76112 -14.26566,1.93787 -26.50012,3.30753 -27.18771,3.04368 -0.98159,-0.37667 -1.25015,-13.79265 -1.25015,-62.4521 0,-34.0848 0.3375,-62.17562 0.75,-62.42403 0.4125,-0.24842 11.55,-1.8697 24.75,-3.60285 13.2,-1.73316 24.74027,-3.46896 25.64506,-3.85735 1.47397,-0.63273 16.88913,-22.73655 16.83128,-24.13441 -0.013,-0.31447 -19.92552,-10.19763 -44.25,-21.96259 l -44.22634,-21.39083 -13,1.65367 c -7.15,0.90951 -15.475,1.64856 -18.5,1.64234 -3.025,-0.006 -19,1.78144 -35.5,3.97261 -16.5,2.19116 -32.11486,4.2546 -34.69969,4.58541 -2.58483,0.3308 -5.05983,1.12485 -5.5,1.76455 -0.44017,0.63969 -0.57531,18.71308 -0.30031,40.16308 l 0.5,39 6.29811,6.41382 c 3.46395,3.52759 7.84434,9.05207 9.7342,12.27662 4.62409,7.88981 8.73606,20.31121 7.93347,23.96537 -0.34358,1.5643 -0.47644,2.8378 -0.29524,2.82999 0.18121,-0.008 18.30073,-2.45759 40.26562,-5.44396 21.96489,-2.98637 40.30239,-5.20342 40.75,-4.92679 1.02424,0.63302 1.03707,5.48557 0.0188,7.08764 -0.46158,0.72617 -12.63907,2.82228 -30.73469,5.29037 -16.48362,2.24822 -31.76492,4.56572 -33.95845,5.15 -2.19352,0.58428 -6.7183,1.12861 -10.05505,1.20963 -5.95033,0.14448 -6.11856,0.2266 -8.76177,4.27704 -1.48222,2.27136 -2.69495,5.32382 -2.69495,6.78325 0,1.45943 -1.125,4.87359 -2.5,7.58702 -1.375,2.71343 -2.5,5.62218 -2.5,6.46388 0,0.8417 -1.51368,3.21915 -3.36373,5.28324 -1.85004,2.06408 -4.15317,5.32788 -5.11805,7.25288 -0.96488,1.925 -2.80764,4.90813 -4.09501,6.62918 -2.06759,2.76409 -2.20341,3.49288 -1.16407,6.24641 0.96244,2.54978 0.90942,3.37646 -0.29126,4.54134 -1.69785,1.64724 -6.34249,2.19354 -10.00608,1.17691 -1.65722,-0.45987 -4.1268,-0.0234 -7.11511,1.25755 -6.34856,2.72131 -19.68252,5.30011 -26.5811,5.1408 -3.17108,-0.0732 -17.01559,1.48932 -30.76559,3.47233 -13.75,1.983 -26.29344,3.47722 -27.87432,3.32047 -2.76862,-0.27451 -3.21587,-1.1441 -12.16266,-23.64765 -5.10859,-12.84946 -9.68141,-23.75573 -10.16183,-24.23615 -1.04896,-1.04896 -32.24206,2.95034 -34.05119,4.36574 -0.9548,0.747 -1.25,8.7379 -1.25,33.83646 l 0,32.85851 -2.25,0.51061 c -5.02106,1.13947 -52.30416,7.24358 -53,6.84214 -0.65439,-0.37753 -1.15262,-125.27393 -0.5,-125.33993 0.1375,-0.0139 12.85,-1.75936 28.25,-3.87879 15.4,-2.11943 28.37434,-3.51121 28.83187,-3.09285 0.45752,0.41836 0.68252,11.38917 0.5,24.37958 l -0.33187,23.61892 2.57672,-7.9e-4 c 1.4172,-4.3e-4 16.0422,-1.83168 32.5,-4.06944 16.4578,-2.23776 31.04828,-3.83397 32.42328,-3.54715 1.375,0.28682 5.425,1.17022 9,1.96309 3.575,0.79288 10.2125,1.72463 14.75,2.07056 l 8.25,0.62895 0,-4.50435 c 0,-5.3794 -0.57173,-5.17697 20.25,-7.16977 l 5.75,-0.55032 0,-4.43262 c 0,-5.47389 0.25782,-5.59676 16.70536,-7.96162 6.71295,-0.9652 12.75599,-2.09522 13.42899,-2.51115 0.96132,-0.59413 0.94269,-1.92738 -0.0869,-6.21924 -1.35792,-5.66019 -0.95782,-7.69773 1.51152,-7.69773 1.94801,0 1.85721,-0.42145 -1.25438,-5.82193 -6.04633,-10.49404 -14.8091,-20.15554 -22.04717,-24.3084 -4.68322,-2.687 -6.39022,-3.0641 -16,-3.53457 -9.93042,-0.48617 -11.29005,-0.32263 -17.68473,2.12725 -3.81,1.45965 -8.20334,3.56255 -9.76297,4.67311 -4.68856,3.33854 -13.26475,12.06029 -16.77199,17.05665 -1.81152,2.58066 -3.89422,4.92256 -4.62822,5.20422 -2.00029,0.76759 -6.99439,11.32046 -8.44743,17.85 -1.13355,5.09385 -1.09045,5.9544 0.37956,7.57874 2.59962,2.87255 2.05362,5.96393 -1.42723,8.08076 -3.57693,2.17525 -29.50903,5.9505 -30.83852,4.48953 -0.72583,-0.79762 7.06323,-13.28951 35.45799,-56.86665 6.57853,-10.096 8.17653,-13.21945 7.20907,-14.09081 -0.68365,-0.61573 -19.693,-9.56569 -42.243,-19.88879 -22.55,-10.32311 -41.94797,-19.63756 -43.1066,-20.6988 -1.15864,-1.06123 -3.63364,-2.16817 -5.5,-2.45986 -1.86637,-0.29169 -20.2684,1.76833 -40.8934,4.57782 -50.4712,6.87507 -56.73476,7.82231 -58.76125,8.88644 -0.95631,0.50216 -3.76375,1.21438 -6.23875,1.58269 -2.475,0.36831 -5.7375,0.90632 -7.25,1.19558 l -2.75,0.52593 0,216.33876 c 0,118.98631 -0.273145,217.05056 -0.606989,217.92054 -0.54059,1.40876 -5.35374,1.58179 -44,1.58179 l -43.3930106,0 0,-276 z"
         id="path4227"
         inkscape:connector-curvature="0" />
      <path
         style="fill:#5bf45b;fill-opacity:1"
         d="m 2.0833304,365.79126 0,-276 365.4999996,0 365.5,0 0,276 0,276 -276.25,9e-5 -276.25,1e-4 0.26424,-100.71433 c 0.17077,-65.09269 0.61605,-101.06615 1.25893,-101.70903 1.28676,-1.28676 115.23841,-16.71124 116.22037,-15.73156 0.40895,0.40799 0.85895,34.24722 1,75.19827 l 0.25646,74.45646 6.5,-0.26426 c 9.95971,-0.4049 160.89669,-21.73243 162.06405,-22.89979 0.70161,-0.70161 0.66659,-24.35789 -0.11072,-74.78928 -0.6857,-44.48802 -0.77458,-74.12542 -0.22395,-74.67605 0.50214,-0.50214 25.85595,-4.2798 56.3418,-8.3948 30.48585,-4.115 55.99132,-7.69135 56.67882,-7.94743 0.6875,-0.25609 1.25,-1.14111 1.25,-1.96671 0,-0.8256 -3.23093,-9.61472 -7.17985,-19.53139 -7.15403,-17.96546 -7.19088,-18.03005 -10.25,-17.96464 -1.68858,0.0361 -13.64515,1.53679 -26.57015,3.33484 -12.925,1.79804 -23.8375,3.09194 -24.25,2.87533 -0.4125,-0.21662 -0.75,-28.01197 -0.75,-61.76745 0,-57.59339 0.10779,-61.40447 1.75,-61.87493 0.9625,-0.27573 12.55,-1.91375 25.75,-3.64004 17.40787,-2.27659 24.27467,-3.54636 25,-4.62286 8.98233,-13.33113 15.51505,-23.82539 15.27664,-24.54063 -0.16487,-0.49461 -20.31701,-10.61017 -44.78252,-22.47902 l -44.48274,-21.57973 -13.00569,1.76681 c -7.15313,0.97175 -15.48069,1.71366 -18.50569,1.64869 -3.025,-0.065 -17.58076,1.49683 -32.34612,3.47064 l -26.84612,3.58875 -21.44634,-10.31269 -21.44633,-10.31269 -113.20755,15.29347 c -62.26415,8.41141 -113.54504,15.49832 -113.95754,15.74868 -0.4125,0.25037 -0.75,6.0271 -0.75,12.83718 0,7.39575 -0.41372,12.63766 -1.02736,13.01691 -0.56504,0.34921 -5.57891,1.27368 -11.14193,2.05436 -5.56301,0.78068 -10.6132,1.82463 -11.22264,2.31989 -0.60944,0.49525 -4.43676,1.41169 -8.505161,2.03654 -4.0684,0.62484 -7.7809,1.37329 -8.25,1.66321 -0.4691,0.28992 -0.852909,98.60057 -0.852909,218.46811 l 0,217.94098 -43.5,0 -43.4999996,0 0,-276 z M 169.08333,336.35028 c 0,-35.73119 0.37994,-61.6758 0.90799,-62.00215 0.49939,-0.30865 12.71787,-2.16346 27.15217,-4.12182 21.33048,-2.89398 26.41134,-3.31485 27.13693,-2.24785 0.49101,0.72204 0.76003,11.5127 0.59783,23.97924 -0.16221,12.46654 -0.0699,22.8916 0.2052,23.16678 0.27506,0.27519 14.8551,-1.44717 32.40008,-3.82746 17.54498,-2.38029 32.47264,-4.10805 33.17257,-3.83946 2.06078,0.79079 2.36728,2.89537 0.8481,5.82358 -0.78148,1.50631 -1.42087,3.08087 -1.42087,3.49903 0,1.56069 13.65581,4.99816 20,5.03444 15.15385,0.0867 14,0.41006 14,-3.92382 0,-4.99082 1.47598,-6.08353 8.08197,-5.98333 2.97992,0.0452 8.20802,-0.23991 11.618,-0.63358 l 6.19997,-0.71576 0.30003,-4.63343 0.30003,-4.63343 6,-0.50393 c 3.3,-0.27717 6.675,-0.93639 7.5,-1.46495 0.825,-0.52855 3.3,-1.2024 5.5,-1.49743 l 4,-0.53642 0.0896,-4.84049 c 0.0977,-5.27736 1.23209,-6.61669 5.62521,-6.64147 1.6804,-0.009 3.12265,-0.77736 3.78518,-2.01531 0.5887,-1.1 1.61703,-2.00689 2.28518,-2.01531 3.15835,-0.0398 3.79662,-1.54466 2.23769,-5.27572 -0.83757,-2.0046 -1.52286,-4.84357 -1.52286,-6.30882 0,-1.46524 -0.94779,-4.19764 -2.1062,-6.07199 -1.25142,-2.02483 -1.87981,-4.27365 -1.54837,-5.5411 0.38478,-1.47138 -0.35789,-3.17615 -2.39379,-5.49492 -1.6234,-1.84895 -2.95164,-3.99946 -2.95164,-4.7789 0,-0.77944 -2.025,-2.8104 -4.5,-4.51324 -2.475,-1.70284 -4.5,-3.4405 -4.5,-3.86146 0,-0.42096 -3.07347,-1.96583 -6.82992,-3.43305 -14.38459,-5.61842 -31.45653,-4.19129 -45.79711,3.82842 -9.2321,5.16289 -23.23388,19.31071 -27.18256,27.46609 -4.06742,8.40063 -6.19041,16.85466 -6.19041,24.65108 0,3.42699 -0.39593,6.47559 -0.87985,6.77466 -0.87619,0.54152 -21.16446,3.57426 -23.91085,3.57426 -0.88205,0 -1.26458,-0.6806 -0.9845,-1.75163 0.25193,-0.96339 10.00429,-16.55994 21.67191,-34.659 17.23376,-26.7334 20.96895,-33.13926 19.90857,-34.14326 -0.71791,-0.67973 -19.64914,-9.66144 -42.06942,-19.95936 -22.42028,-10.29792 -41.02784,-19.15016 -41.35013,-19.67165 -0.3223,-0.52149 -0.33766,-1.1965 -0.0341,-1.50002 0.30352,-0.30353 38.03608,-5.62523 83.85014,-11.826 57.68895,-7.80801 83.68257,-10.9621 84.54827,-10.25917 0.95959,0.77918 1.25,9.69715 1.25,38.38591 l 0,37.37093 6.01683,6.11097 c 7.01671,7.12649 13.46447,17.62554 14.98147,24.39468 0.58683,2.61857 1.54252,5.64961 2.12374,6.73564 0.83188,1.55438 0.5124,3.02385 -1.50127,6.90511 -1.74835,3.36988 -2.37947,5.82336 -1.99388,7.75128 0.64132,3.20662 -2.59702,10.5064 -5.08429,11.46085 -0.92679,0.35564 -1.5426,1.818 -1.5426,3.66317 0,1.68918 -0.83615,4.7408 -1.8581,6.78139 -1.02196,2.04059 -2.16474,4.98436 -2.53952,6.54172 -0.81743,3.39672 -5.5236,10.39411 -12.16268,18.08413 -8.57019,9.92681 -25.56765,16.88362 -40.59189,16.61365 -2.9413,-0.0528 -17.49781,1.66923 -32.34781,3.82684 -20.17742,2.93165 -27.28251,3.63498 -28.11801,2.78337 -0.61495,-0.62675 -5.21028,-11.48955 -10.21188,-24.13955 -8.70069,-22.00568 -9.21437,-23.00944 -11.88199,-23.21842 -1.53349,-0.12013 -9.53816,0.77987 -17.78816,2 l -15,2.21842 -0.26394,32.96394 c -0.14516,18.13016 -0.62774,33.32774 -1.07238,33.77238 -0.69496,0.69496 -48.69485,7.76368 -52.71901,7.76368 -1.24388,0 -1.44467,-8.53931 -1.44467,-61.44098 z m 206.55505,17.53006 c -0.59242,-0.95856 5.34312,-5.08908 7.31298,-5.08908 1.54602,0 1.44073,3.96765 -0.11803,4.44786 -3.89333,1.19943 -6.6956,1.44918 -7.19495,0.64122 z m 34.12034,-57.49263 c -0.42679,-1.11218 0.10023,-5.41856 0.69124,-5.64829 0.0734,-0.0285 17.45837,-2.44093 38.63337,-5.36093 33.43579,-4.61074 38.65543,-5.11723 39.68165,-3.8505 0.72159,0.8907 0.8746,2.29657 0.393,3.61093 -0.71062,1.93938 -2.36117,2.37142 -16.68165,4.36654 -8.74115,1.2178 -25.59739,3.5803 -37.45832,5.25 -24.88816,3.50356 -24.5496,3.48169 -25.25929,1.63225 z"
         id="path4225"
         inkscape:connector-curvature="0" />
      <path
         style="fill:#ffffff;fill-opacity:1"
         d="m 2.0833304,365.79126 0,-276 365.4999996,0 365.5,0 0,276 0,276 -75.39301,0 c -67.82608,0 -75.45393,-0.15876 -76,-1.58179 -1.08293,-2.82208 -0.69557,-254.38418 0.39485,-256.42165 0.78333,-1.46367 -0.63134,-5.99184 -6.48632,-20.76172 l -7.48816,-18.88977 -0.042,-63.57273 -0.0419,-63.57273 7.03989,-10.81494 c 3.87193,-5.94822 6.91648,-11.18515 6.76566,-11.63762 -0.25573,-0.7672 -57.25349,-28.83833 -80.74901,-39.76851 l -10.5,-4.88463 -14.4503,1.96078 c -7.94767,1.07843 -15.8313,1.70171 -17.51918,1.38506 -1.68789,-0.31665 -15.21025,1.06207 -30.0497,3.06382 l -26.98082,3.63955 -20.86351,-10.07156 c -13.80519,-6.66426 -22.00771,-10.07156 -24.24561,-10.07156 -4.19911,0 -225.36574,29.86643 -226.53977,30.59202 -0.46811,0.28931 -0.85111,6.0979 -0.85111,12.90798 0,8.54596 -0.37146,12.61154 -1.19899,13.12299 -0.65945,0.40756 -5.27195,1.30821 -10.25,2.00144 -4.97806,0.69324 -10.40101,1.9146 -12.05101,2.71414 -1.65,0.79954 -5.587771,1.75786 -8.750603,2.1296 -3.162832,0.37174 -6.428355,1.35365 -7.256719,2.18201 -1.333834,1.33383 -1.47675,26.3765 -1.249397,218.92799 l 0.256719,217.42187 -43.25,-2e-5 -43.2499996,-2e-5 0,-276 z M 270.33333,343.42764 c -5.0875,-12.84405 -9.25,-23.86662 -9.25,-24.4946 0,-1.52851 -1.33059,-1.46678 -18.5,0.85822 -8.12316,1.1 -15.38376,2 -16.13469,2 -1.42216,0 -1.92576,-3.54558 -0.61531,-4.33212 0.4125,-0.24758 14.85177,-2.34987 32.08727,-4.67175 21.80096,-2.93691 31.65543,-3.90343 32.38278,-3.17608 1.68237,1.68237 0.19451,3.84704 -3.09665,4.50527 l -3.0485,0.6097 1.55557,3.78249 c 4.04962,9.847 14.90474,15.11574 32.57025,15.8086 l 7.70072,0.30203 0.29928,-5.16407 0.29928,-5.16407 5,-0.0761 c 7.70039,-0.11726 7.5,0.0225 7.5,-5.22953 l 0,-4.80567 11.75,-1.11984 c 11.38211,-1.08479 20.39763,-2.62399 22.31682,-3.81012 0.51325,-0.31724 0.93318,-2.54866 0.93318,-4.95874 0,-4.83608 0.64935,-5.53573 6.5,-7.00348 l 4,-1.00348 -0.19774,-5.78197 c -0.19326,-5.65076 -0.13136,-5.79525 2.72757,-6.36704 4.67465,-0.93493 5.49639,-2.67763 3.6018,-7.63853 -2.20453,-5.7725 -2.17288,-5.88765 2.32419,-8.4555 5.08315,-2.90251 5.46324,-2.85734 7.86406,0.9345 1.88875,2.98308 1.91933,3.42681 0.4834,7.01555 -1.25115,3.12694 -1.32412,4.66009 -0.39703,8.34191 1.3262,5.26681 0.31465,8.04336 -3.45209,9.47547 -2.22082,0.84435 -2.37177,1.30452 -1.79891,5.48402 0.44092,3.21685 0.1553,5.51139 -0.96849,7.78044 -0.87661,1.76996 -1.84535,4.82681 -2.15276,6.793 -0.4405,2.81747 -1.24296,3.87682 -3.78748,5 -2.71227,1.19722 -3.40679,2.22466 -4.34315,6.42511 -0.61303,2.75 -2.45122,7.45524 -4.08486,10.45609 -2.30663,4.23705 -3.67946,5.63987 -6.14439,6.2786 -1.74577,0.45237 -3.17412,1.22759 -3.17412,1.7227 0,0.49511 -1.51563,2.50725 -3.36808,4.47141 -2.64087,2.80014 -4.1395,3.5712 -6.94098,3.5712 -1.9651,0 -3.85102,0.45 -4.19094,1 -0.9466,1.53162 -6.09898,1.18813 -7.5,-0.5 -0.68469,-0.825 -2.73349,-1.5 -4.55289,-1.5 -2.66918,0 -3.36972,-0.43451 -3.62756,-2.25 -0.26174,-1.84297 -1.13362,-2.35746 -4.81955,-2.84401 -2.475,-0.32671 -5.64236,-1.0669 -7.03858,-1.64487 -1.39622,-0.57797 -6.12122,-1.35006 -10.5,-1.71576 -4.37878,-0.3657 -9.19892,-0.89876 -10.71142,-1.18459 -7.44981,-1.40783 1.14823,7.78957 12.22179,13.07376 4.10948,1.96101 8.27198,3.56547 9.25,3.56547 3.03392,0 1.95322,1.74515 -1.47179,2.37668 -3.18926,0.58806 -46.76937,6.62786 -47.75,6.6177 -0.275,-0.003 -4.6625,-10.51395 -9.75,-23.358 z m 109.75,7.86362 c 0.68469,-0.825 1.63979,-1.5 2.12244,-1.5 0.48266,0 0.87756,0.675 0.87756,1.5 0,0.86218 -0.90249,1.5 -2.12244,1.5 -1.77324,0 -1.91763,-0.2468 -0.87756,-1.5 z m -122.3706,-50.75 c 0.4111,-0.6875 10.13317,-15.8273 21.60462,-33.64399 11.47144,-17.81669 20.72415,-33.07843 20.56157,-33.91497 -0.18005,-0.92645 -16.28371,-8.8776 -41.19738,-20.34114 -22.49599,-10.35108 -41.13349,-19.05185 -41.41667,-19.33503 -0.28318,-0.28318 -0.23854,-0.7912 0.0992,-1.12895 0.62756,-0.62755 159.38671,-22.35926 163.46926,-22.37645 l 2.25,-0.009 0,36.83333 c 0,20.25834 -0.26262,37.09596 -0.58361,37.41695 -0.60546,0.60545 -5.30336,-1.81239 -11.50567,-5.92155 -8.85211,-5.86471 -27.90173,-8.06959 -41.67099,-4.82316 -11.76046,2.77281 -24.26199,10.63767 -33.26789,20.92921 -9.28838,10.61435 -13.41419,20.18798 -15.11153,35.06514 -0.56475,4.94995 -1.12795,9.10106 -1.25157,9.22467 -0.19083,0.19083 -21.23101,3.27541 -22.34183,3.27541 -0.21172,0 -0.0486,-0.5625 0.36249,-1.25 z m 153.3706,-6.25 c 0,-1.375 0.53164,-2.5 1.18143,-2.5 0.64979,0 17.82452,-2.26527 38.16607,-5.03393 37.13914,-5.05496 41.33361,-5.21861 37.58123,-1.46623 -1.04253,1.04254 -12.48661,2.97882 -38.37493,6.49286 -20.28915,2.75401 -37.26387,5.0073 -37.72159,5.0073 -0.45771,0 -0.83221,-1.125 -0.83221,-2.5 z"
         id="path4223"
         inkscape:connector-curvature="0" />
      <path
         style="fill:none"
         d="m 2.0833304,365.79126 0,-276 365.4999996,0 365.5,0 0,276 0,276 -75.25,6e-5 -75.25,6e-5 0.26098,-130.98068 0.26098,-130.98068 -6.47877,-16.1589 -6.47876,-16.1589 -0.10005,-65.7224 -0.10004,-65.7224 6.72925,-10.2704 c 4.80675,-7.33621 6.46887,-10.67302 5.81783,-11.67968 -0.50128,-0.77511 -20.93642,-11.1307 -45.41142,-23.01243 l -44.5,-21.60313 -11.5,1.37211 c -6.325,0.75467 -16.225,1.40722 -22,1.45011 -5.95699,0.0442 -20.66769,1.49294 -34,3.34827 l -23.5,3.27027 -21.57821,-10.4322 -21.57821,-10.4322 -113.92179,15.37501 c -62.65698,8.45626 -114.48429,15.57759 -115.17179,15.82518 -0.90866,0.32723 -1.25,3.8387 -1.25,12.8591 0,8.7499 -0.36859,12.69123 -1.25,13.36628 -0.6875,0.52654 -5.51347,1.50327 -10.72437,2.17051 -5.21091,0.66725 -10.16091,1.82165 -11,2.56535 -1.16872,1.03584 -12.838021,3.55169 -16.473864,3.55169 -0.31082,0 -0.449621,98.55001 -0.308447,219.00002 l 0.256681,219.00002 -43.25,-2e-5 -43.2499996,-2e-5 0,-276 z m 277.2716396,-1.75 c -0.36607,-0.9625 -4.36592,-10.975 -8.88856,-22.25 -4.52263,-11.275 -7.92149,-20.80368 -7.55303,-21.17484 0.70823,-0.71339 14.66745,-2.82516 18.67492,-2.82516 1.5785,0 2.58663,0.74524 3.04371,2.25 0.3759,1.2375 1.66856,3.6 2.87258,5.25 1.20402,1.65 3.36895,5.0491 4.81096,7.55356 5.3584,9.30635 19.00164,20.2122 31.26778,24.99419 2.75908,1.07563 2.83939,1.23652 1,2.00337 -1.9065,0.79483 -39.05383,5.96473 -42.78138,5.954 -0.97977,-0.003 -2.0809,-0.79262 -2.44698,-1.75512 z"
         id="path4221"
         inkscape:connector-curvature="0" />
    </g>
  </g>
</svg>
