<?xml version="1.0" encoding="UTF-8" standalone="no"?>
<!-- Created with Inkscape (http://www.inkscape.org/) -->

<svg
   xmlns:dc="http://purl.org/dc/elements/1.1/"
   xmlns:cc="http://creativecommons.org/ns#"
   xmlns:rdf="http://www.w3.org/1999/02/22-rdf-syntax-ns#"
   xmlns:svg="http://www.w3.org/2000/svg"
   xmlns="http://www.w3.org/2000/svg"
   xmlns:sodipodi="http://sodipodi.sourceforge.net/DTD/sodipodi-0.dtd"
   xmlns:inkscape="http://www.inkscape.org/namespaces/inkscape"
   width="4in"
   height="4in"
   viewBox="0 0 360.00001 360.00001"
   id="svg2"
   version="1.1"
   inkscape:version="0.91 r13725"
   sodipodi:docname="SMALLPTOBALL1.svg">
  <defs
     id="defs4">
    <marker
       inkscape:isstock="true"
       style="overflow:visible;"
       id="marker4820"
       refX="0.0"
       refY="0.0"
       orient="auto"
       inkscape:stockid="Arrow1Mend">
      <path
         transform="scale(0.4) rotate(180) translate(10,0)"
         style="fill-rule:evenodd;stroke:#000000;stroke-width:1pt;stroke-opacity:1;fill:#000000;fill-opacity:1"
         d="M 0.0,0.0 L 5.0,-5.0 L -12.5,0.0 L 5.0,5.0 L 0.0,0.0 z "
         id="path4822" />
    </marker>
    <marker
       inkscape:stockid="Arrow1Mend"
       orient="auto"
       refY="0.0"
       refX="0.0"
       id="marker4587"
       style="overflow:visible;"
       inkscape:isstock="true">
      <path
         id="path4589"
         d="M 0.0,0.0 L 5.0,-5.0 L -12.5,0.0 L 5.0,5.0 L 0.0,0.0 z "
         style="fill-rule:evenodd;stroke:#000000;stroke-width:1pt;stroke-opacity:1;fill:#000000;fill-opacity:1"
         transform="scale(0.4) rotate(180) translate(10,0)" />
    </marker>
    <marker
       inkscape:stockid="Arrow1Mend"
       orient="auto"
       refY="0.0"
       refX="0.0"
       id="Arrow1Mend"
       style="overflow:visible;"
       inkscape:isstock="true"
       inkscape:collect="always">
      <path
         id="path4282"
         d="M 0.0,0.0 L 5.0,-5.0 L -12.5,0.0 L 5.0,5.0 L 0.0,0.0 z "
         style="fill-rule:evenodd;stroke:#000000;stroke-width:1pt;stroke-opacity:1;fill:#000000;fill-opacity:1"
         transform="scale(0.4) rotate(180) translate(10,0)" />
    </marker>
    <marker
       inkscape:stockid="Arrow1Mstart"
       orient="auto"
       refY="0.0"
       refX="0.0"
       id="Arrow1Mstart"
       style="overflow:visible"
       inkscape:isstock="true">
      <path
         id="path4279"
         d="M 0.0,0.0 L 5.0,-5.0 L -12.5,0.0 L 5.0,5.0 L 0.0,0.0 z "
         style="fill-rule:evenodd;stroke:#000000;stroke-width:1pt;stroke-opacity:1;fill:#000000;fill-opacity:1"
         transform="scale(0.4) translate(10,0)" />
    </marker>
  </defs>
  <sodipodi:namedview
     id="base"
     pagecolor="#ffffff"
     bordercolor="#666666"
     borderopacity="1.0"
     inkscape:pageopacity="0.0"
     inkscape:pageshadow="2"
     inkscape:zoom="0.80253906"
     inkscape:cx="71.732762"
     inkscape:cy="199.68733"
     inkscape:document-units="px"
     inkscape:current-layer="layer1"
     showgrid="false"
     units="in"
     inkscape:window-width="1366"
     inkscape:window-height="719"
     inkscape:window-x="0"
     inkscape:window-y="1"
     inkscape:window-maximized="1" />
  <metadata
     id="metadata7">
    <rdf:RDF>
      <cc:Work
         rdf:about="">
        <dc:format>image/svg+xml</dc:format>
        <dc:type
           rdf:resource="http://purl.org/dc/dcmitype/StillImage" />
        <dc:title></dc:title>
      </cc:Work>
    </rdf:RDF>
  </metadata>
  <g
     inkscape:label="Layer 1"
     inkscape:groupmode="layer"
     id="layer1"
     transform="translate(0,-692.36212)">
    <g
       id="g4217"
       transform="translate(-1.9759644,-9.024658)">
      <path
         style="fill:#fdfdfd"
         d="m 12.414718,867.94745 0,-204 172.000002,0 172,0 0,204 0,204.00005 -172,0 -172.000002,0 0,-204.00005 z"
         id="path4233"
         inkscape:connector-curvature="0" />
      <path
         style="fill:#c7c7c7"
         d="m 147.98172,1062.1811 c -0.31185,-0.3118 -0.567,-11.517 -0.567,-24.9003 0,-20.0017 -0.24522,-24.3334 -1.37756,-24.3334 -3.69791,0 -3.81673,-1.6631 -3.76631,-52.71871 l 0.0492,-49.78124 -7.45297,-6.5 c -7.78619,-6.7906 -9.34981,-9.4545 -7.53735,-12.84112 0.59677,-1.11507 1.08503,-7.01812 1.08503,-13.11789 0,-10.90972 -0.0407,-11.10598 -2.5,-12.04099 -3.15894,-1.20103 -3.16628,-2.51733 -0.0255,-4.57524 2.42995,-1.59216 2.47945,-1.89404 2.75,-16.77285 l 0.2755,-15.15151 6.79872,-4.40893 6.79871,-4.40894 -0.15604,-55.76309 c -0.0858,-30.66971 0.14381,-56.24828 0.5103,-56.84127 0.36649,-0.59299 1.53979,-1.07817 2.60733,-1.07817 1.81711,0 1.94098,-0.79253 1.94098,-12.41821 0,-6.83002 0.27953,-13.14666 0.62118,-14.03699 1.82354,-4.75206 14.50387,-6.5211 33.46894,-4.66926 13.69337,1.33709 21.2679,3.39157 24.52964,6.65331 2.28103,2.28103 2.38024,2.96566 2.38024,16.4257 l 0,14.04545 4.56574,0 c 2.51116,0 5.49843,0.49916 6.63837,1.10924 2.07135,1.10855 2.07218,1.1421 1.33736,54.41838 l -0.73526,53.30915 7.09689,5.16185 7.0969,5.16184 -0.002,9.66977 c -0.001,5.31837 -0.29932,19.50071 -0.66216,31.51631 l -0.6597,21.84654 -7.07205,6.85146 -7.07204,6.85147 -0.66436,48.0773 c -0.47912,34.67193 -0.99417,48.47474 -1.84722,49.50254 -0.66894,0.8061 -3.42843,1.5554 -6.35144,1.7247 l -5.16903,0.2994 -0.5,26.0001 c -0.275,14.3 -0.83322,26.5126 -1.24049,27.1391 -0.76936,1.1835 -54.02979,1.7572 -55.19251,0.5945 z m 57.03958,-165.40265 7.39342,-7.169 0,-11.831 c 0,-11.22526 -0.10401,-11.831 -2.03138,-11.831 -1.11727,0 -2.19267,0.5625 -2.38979,1.25 -4.71161,16.43272 -15.15694,25.17519 -30.07883,25.17519 -9.4229,0 -15.93162,-2.92871 -22.5135,-10.13034 -3.49292,-3.82182 -5.44286,-7.05687 -6.55085,-10.86821 -3.01013,-10.35447 -4.7802,-5.95672 -4.27603,10.62382 l 0.34038,11.1941 5.5,4.92515 5.5,4.92515 14,-0.54918 c 11.71891,-0.45969 16.86564,-0.20612 26.85658,1.3232 0.47112,0.0721 4.18362,-3.09493 8.25,-7.03788 z m -56.67786,-40.581 c 2.56635,-10.45331 11.8944,-19.8086 22.22105,-22.28593 16.53682,-3.96712 32.19796,5.7587 36.8013,22.85421 0.85752,3.18459 1.60138,4.22256 2.85434,3.98293 1.43308,-0.27409 1.81597,-2.25133 2.48112,-12.81266 0.4326,-6.8687 0.53984,-13.48786 0.23831,-14.70923 -0.30846,-1.24949 -3.19417,-4.0175 -6.59832,-6.32922 -3.32755,-2.25969 -6.32696,-4.86039 -6.66536,-5.77932 -0.3384,-0.91893 -1.0981,-2.00139 -1.68822,-2.40547 -0.59012,-0.40408 -9.28544,-0.74158 -19.32294,-0.75 -17.30322,-0.0145 -18.25,0.0838 -18.25,1.89505 0,1.27697 -2.23801,3.30296 -6.75,6.11055 -3.7125,2.3101 -7.3125,4.91145 -8,5.78077 -1.30539,1.65062 -1.8375,24.50375 -0.64301,27.61653 1.05463,2.74832 2.11825,1.73386 3.32173,-3.16821 z"
         id="path4231"
         inkscape:connector-curvature="0" />
      <path
         style="fill:#b7b7b7"
         d="m 148.41472,1037.2149 0,-24.3169 -2.42121,-0.9206 c -2.01982,-0.7679 -2.53625,-1.8413 -3.11519,-6.475 -0.56124,-4.492 -0.34734,-6.08046 1.11827,-8.30468 1.65598,-2.51313 1.85992,-6.47658 2.36519,-45.9662 0.49454,-38.65193 0.7301,-43.39291 2.23047,-44.89181 3.70405,-3.70043 50.12485,-4.3844 55.57247,-0.81882 2.2378,1.46468 2.25,1.61357 2.25,27.44961 0,16.6513 0.359,25.97695 1,25.97695 0.61036,0 1,-4.61343 1,-11.84029 0,-6.51216 0.29623,-19.44966 0.65829,-28.75 l 0.65828,-16.90971 6.84172,-6.56682 6.84171,-6.56682 0,-11.09063 0,-11.09063 -5.25,-0.51946 c -2.8875,-0.2857 -6.34231,-0.66485 -7.67735,-0.84255 -2.19415,-0.29205 -2.61054,0.29313 -4.3341,6.09101 -1.56997,5.2812 -2.92184,7.42919 -7.65375,12.1611 -8.49898,8.49898 -18.17388,10.86932 -30.01359,7.35331 -7.85557,-2.33286 -16.24593,-10.84605 -18.65541,-18.92851 -3.68633,-12.36562 -5.17741,-10.0558 -5.80982,9 -0.27379,8.25 -0.52215,15.1676 -0.55189,15.37244 -0.0298,0.20485 -0.71668,-0.17745 -1.52652,-0.84956 -1.13749,-0.94403 -1.53557,-4.32714 -1.75,-14.87244 l -0.27757,-13.65044 -5.70855,-0.50855 c -10.11754,-0.90133 -9.98635,-4.03462 0.20855,-4.98093 l 5.5,-0.51052 0.27558,-15.78672 0.27558,-15.78672 6.97442,-4.51173 c 7.07572,-4.57726 8.5241,-6.41483 5.05621,-6.41483 -5.36109,0 -5.08179,2.75905 -5.08179,-50.20061 0,-48.23445 -0.0309,-48.9947 -2.01094,-49.5125 -4.05979,-1.06166 -3.83844,-9.88508 0.26259,-10.46755 2.17246,-0.30856 2.25663,-0.72439 2.49368,-12.31934 0.13493,-6.6 0.46671,-12.95553 0.73728,-14.12341 0.64382,-2.77893 4.74831,-4.39869 11.53705,-4.55289 5.19072,-0.11791 13.98034,0.95034 13.98034,1.6991 0,0.19085 -0.41239,1.43166 -0.91641,2.75734 -1.83012,4.81357 -3.08732,29.26964 -4.12301,80.20378 -0.73703,36.2466 -0.73969,52.08971 -0.009,52.33334 2.60512,0.86831 0.64692,2.18274 -3.25158,2.18274 -4.47693,0 -6.69642,1.30752 -6.70507,3.95 -0.003,0.8525 -3.38925,3.68159 -7.52546,6.28687 l -7.52039,4.73687 0.27546,15.6809 c 0.31638,18.01025 1.39851,20.23732 4.64301,9.5555 3.2754,-10.78351 10.92138,-18.72246 20.53784,-21.32478 5.76031,-1.5588 16.26128,-0.61056 21.20718,1.91501 6.32251,3.22854 13.10533,11.39758 14.9983,18.06355 2.19234,7.72017 3.29856,8.7514 7.21515,6.72605 1.69106,-0.87448 4.67201,-1.58997 6.62432,-1.58997 l 3.54966,0 -0.0699,-13.75 -0.0699,-13.75 -6.18015,-4.51243 -6.18015,-4.51243 0.39885,-49.73757 c 0.35304,-44.0117 0.22396,-49.73757 -1.12114,-49.73757 -1.32785,0 -1.60806,5.78617 -2.21555,45.75 -0.3825,25.1625 -0.92076,46.5375 -1.19614,47.5 -0.55749,1.94851 -3.49953,2.25199 -7.9667,0.82179 -1.59457,-0.51052 -5.53794,-1.2243 -8.76304,-1.58618 -4.3087,-0.48347 -5.56843,-0.95336 -4.75,-1.77179 2.40124,-2.40124 0.63856,-118.67437 -1.9626,-129.45969 -0.69584,-2.88523 -0.9272,-5.58384 -0.51413,-5.99691 1.67162,-1.67163 14.84571,-0.34713 19.49203,1.95969 l 4.59852,2.28309 0.2761,14.64019 c 0.30956,16.41397 -0.009,15.8151 8.43872,15.84616 2.54144,0.009 3.98043,0.56641 4.55573,1.76365 0.46251,0.9625 0.48357,25.11019 0.0468,53.66152 -0.60952,39.84337 -0.5156,52.24714 0.40397,53.35516 0.65896,0.79399 3.87048,3.2584 7.13671,5.47646 l 5.93861,4.03283 -0.54686,30.98635 -0.54685,30.98636 -7.18385,7.23211 -7.18385,7.23212 -0.55816,46.89354 c -0.30699,25.79145 -0.93378,47.906 -1.39287,49.1435 -0.6451,1.739 -1.62055,2.25 -4.29435,2.25 -1.90281,0 -4.60645,0.4361 -6.00809,0.969 l -2.54843,0.9689 -0.26667,26.2742 -0.26666,26.2743 -27.25,0.049 -27.25,0.049 0,-24.3169 z m 29.4639,-61.51745 c 0.27611,-1.2375 1.17745,-8.1 2.00299,-15.25 0.82554,-7.15 1.91003,-15.7 2.40999,-19 0.49996,-3.3 1.19128,-10.3875 1.53625,-15.75 l 0.62724,-9.75 -7.66185,0 -7.66185,0 0.69062,11.75 c 0.37983,6.4625 1.13064,14.45 1.66845,17.75 0.53781,3.3 1.40113,10.95 1.9185,17 1.07283,12.54551 1.64576,15.5 3.00576,15.5 0.52904,0 1.1878,-1.0125 1.4639,-2.25 z m 4.09573,-104.90772 c 4.19944,-1.51854 5.86526,-6.31262 4.03271,-11.60581 -1.44803,-4.18253 -4.79639,-5.63189 -10.79093,-4.67094 -3.11748,0.49974 -3.87704,1.13361 -4.8344,4.03442 -0.62469,1.89283 -0.84281,5.1757 -0.48472,7.29525 0.54218,3.20909 1.18358,4.02493 3.8344,4.87718 4.32232,1.38964 4.58705,1.39189 8.24294,0.0699 z m -46.2897,33.07542 c -7.71023,-6.92708 -9.50876,-10.10744 -7.08598,-12.53022 1.44145,-1.44145 2.09929,-1.12169 7.44857,3.62061 8.15191,7.22691 9.36748,8.79742 9.36748,12.10269 0,4.33978 -2.11992,3.64409 -9.73007,-3.19308 z"
         id="path4229"
         inkscape:connector-curvature="0" />
      <path
         style="fill:#a7a7a7"
         d="m 149.16472,1061.3854 c -0.4125,-0.4242 -0.75,-11.6146 -0.75,-24.8675 0,-24.0295 -0.006,-24.0989 -2.25,-25.0833 -4.07207,-1.7865 -4.26039,-14.48715 -0.21482,-14.48715 1.26423,0 1.46482,-6.02526 1.46482,-44 0,-42.66667 0.0606,-44.06061 2,-46 1.1,-1.1 3.0125,-2.06663 4.25,-2.14806 1.2375,-0.0814 2.925,-0.21417 3.75,-0.29498 15.03996,-1.47315 24.13192,-1.62307 33.6245,-0.55446 5.98152,0.67337 11.663,1.6391 12.6255,2.14608 1.62521,0.85606 1.75,3.98555 1.75,43.8866 0,37.52428 0.18994,42.96482 1.5,42.96482 0.825,0 1.52186,-0.1125 1.54857,-0.25 0.0267,-0.1375 0.45225,-20.46405 0.94563,-45.17011 l 0.89706,-44.92012 6.44098,-6.57988 6.44099,-6.57989 0.65506,-11.05961 c 0.36028,-6.08279 0.36316,-11.82029 0.006,-12.75 -0.48783,-1.27229 -1.8731,-1.69039 -5.6003,-1.69039 -2.72361,0 -4.71183,-0.38864 -4.41827,-0.86364 0.29357,-0.475 2.28881,-0.86363 4.43387,-0.86363 2.14506,0 4.40643,-0.31292 5.02526,-0.69538 0.74888,-0.46283 1.12515,-5.48988 1.12515,-15.03212 l 0,-14.33674 -4.85535,-3.11567 c -9.1947,-5.90022 -8.4416,-0.61187 -8.01878,-56.30873 0.37002,-48.74213 0.35214,-49.28409 -1.62587,-49.28409 -1.96169,0 -2.01273,0.88816 -2.66447,46.36447 -0.43333,30.23672 -1.03048,46.73048 -1.71669,47.41669 -0.73629,0.73629 -3.08889,0.66798 -7.83553,-0.2275 l -6.78331,-1.27972 0.25602,-67.13697 c 0.14081,-36.92533 0.4548,-67.67499 0.69774,-68.33258 0.54376,-1.47178 6.64399,-0.69454 11.30708,1.44066 4.20152,1.92385 4.61459,3.80522 4.01766,18.29903 -0.31379,7.61906 -0.11152,12.2229 0.5668,12.90122 0.58009,0.58009 3.1022,1.06159 5.6047,1.07001 2.5025,0.008 5.17447,0.41078 5.93772,0.89413 1.17016,0.74105 1.27447,9.24358 0.66537,54.23469 l -0.72235,53.35587 6.83463,5.01478 6.83463,5.01479 -0.32414,30.98521 -0.32415,30.98522 -7.17555,7.27489 -7.17556,7.2749 -0.65634,48.10801 c -0.52723,38.64506 -0.92069,48.27555 -2.0003,48.95985 -0.73918,0.4684 -3.14396,0.8655 -5.34396,0.8824 -2.2,0.017 -4.52213,0.3628 -5.1603,0.7688 -0.81734,0.5201 -1.2607,8.4719 -1.5,26.9026 -0.18683,14.3904 -0.68369,26.5078 -1.10413,26.9275 -0.68742,0.6864 -19.47027,-1.0003 -20.29213,-1.8222 -0.18703,-0.187 0.0629,-3.4758 0.55536,-7.3084 0.49248,-3.8326 1.38824,-17.0933 1.99057,-29.4684 0.60232,-12.375 1.75299,-31.72495 2.55704,-42.99995 0.80405,-11.275 1.57253,-30.4 1.70775,-42.5 l 0.24584,-22 -8.5,-0.31009 c -4.675,-0.17056 -10.32727,-0.0433 -12.5606,0.28287 l -4.0606,0.59296 0.325,20.21713 c 0.17875,11.11942 0.77205,27.86713 1.31844,37.21713 0.5464,9.35 1.67043,31.85005 2.49784,49.99995 0.82741,18.1501 1.73561,33.729 2.01821,34.6198 0.36993,1.1662 -0.29088,1.7808 -2.35955,2.1945 -5.73384,1.1468 -17.69692,1.8762 -18.42874,1.1237 z M 134.45364,902.18242 c -6.16243,-5.693 -7.21044,-7.11919 -6.6135,-9 0.39015,-1.22923 1.24153,-2.22364 1.89197,-2.20979 0.65043,0.0138 4.22011,2.88186 7.93261,6.37335 5.00892,4.71072 6.75,7.02567 6.75,8.97481 0,1.50806 -0.56176,2.62666 -1.31911,2.62666 -0.72552,0 -4.6144,-3.04426 -8.64197,-6.76503 z m 6.54894,-19.37016 c -0.85412,-12.40114 -0.80449,-50.1367 0.0689,-52.41278 0.34852,-0.90822 3.75003,-3.64885 7.55891,-6.09028 7.02159,-4.50073 8.09139,-6.58133 3.70598,-7.20757 -5.06922,-0.72389 -4.92165,0.79376 -4.92165,-50.61611 l 0,-48.21704 -2.5,-1.13908 c -3.87648,-1.76624 -3.15841,-7.60092 1.13638,-9.2338 2.31584,-0.88048 2.36362,-1.15883 2.36362,-13.76841 0,-15.66884 0.4713,-16.43147 10.24798,-16.5829 l 6.25202,-0.0968 -0.5,43.5 c -0.275,23.925 -0.5,54.75 -0.5,68.5 0,24.87943 -0.0109,25.00618 -2.25,26.28194 -1.2375,0.70506 -2.25,2.17051 -2.25,3.25655 0,1.35877 -2.26117,3.41891 -7.25,6.60543 -3.9875,2.54694 -7.60612,5.13149 -8.04139,5.74344 -0.43526,0.61195 -0.71794,8.53764 -0.62818,17.61264 0.2816,28.46903 -0.0493,44 -0.93748,44 -0.47137,0 -1.17116,-4.56084 -1.55509,-10.13519 z m 27.74459,7.28412 c -9.84977,-3.40383 -15.58745,-9.55829 -19.25421,-20.65282 -1.87033,-5.65907 -1.893,-6.30526 -0.40319,-11.49611 2.36029,-8.22383 4.75347,-12.32699 9.76023,-16.73412 14.71948,-12.9566 39.76584,-6.88244 45.91295,11.13466 3.67479,10.77077 3.67667,10.79028 1.62934,16.95479 -2.65713,8.0006 -5.36653,12.08649 -10.7307,16.18234 -8.15954,6.23028 -17.56591,7.84187 -26.91442,4.61126 z m 19.43936,-17.85408 c 3.22592,-3.22591 3.55645,-4.08128 3.62858,-9.39022 0.0766,-5.63854 -0.0705,-5.98076 -4.24437,-9.87282 -3.91335,-3.64914 -4.81406,-4.02825 -9.48987,-3.99426 -4.39432,0.0319 -5.75587,0.54221 -9.11337,3.41545 -3.7036,3.16942 -3.97102,3.76887 -4.33272,9.71245 -0.36775,6.04315 -0.23003,6.50263 2.994,9.98837 3.7566,4.06154 6.21924,4.87321 12.64724,4.16844 3.29657,-0.36145 5.22776,-1.34466 7.91051,-4.02741 z m -58.27181,-8.29485 c -0.37772,-0.61117 1.05746,-0.97267 3.69098,-0.92971 3.32492,0.0542 3.85226,0.26656 2.30902,0.92971 -2.76748,1.18923 -5.26502,1.18923 -6,0 z"
         id="path4227"
         inkscape:connector-curvature="0" />
      <path
         style="fill:#909090"
         d="m 149.02171,1060.3657 c -0.33385,-0.87 -0.60699,-12.1341 -0.60699,-25.0314 0,-21.4203 -0.15144,-23.5055 -1.75,-24.0953 -2.64218,-0.9748 -3.21793,-2.3338 -3.23469,-7.6352 -0.0127,-4.00971 0.32901,-4.93363 1.98469,-5.3666 1.1,-0.28766 2.10089,-0.58303 2.2242,-0.65638 0.12332,-0.0734 0.46082,-20.37754 0.75,-45.12042 l 0.5258,-44.98706 2.883,-1.38126 c 6.19659,-2.96881 47.13194,-2.68271 51.28985,0.35847 1.73006,1.2654 1.8079,3.59849 1.46497,43.90499 -0.333,39.1386 -0.22687,42.62051 1.31721,43.21303 0.92367,0.35444 2.08588,0.23797 2.58269,-0.25884 0.4968,-0.4968 1.21574,-20.90842 1.59765,-45.35914 l 0.69437,-44.45587 6.83513,-7.22146 6.83513,-7.22146 0.0407,-12.30217 c 0.0224,-6.7662 0.13486,-19.47426 0.25,-28.24014 l 0.20934,-15.93797 -4.29157,-3.28445 c -2.36036,-1.80644 -5.22573,-3.93876 -6.36747,-4.73847 -2.05434,-1.43891 -2.07262,-1.89375 -1.75904,-43.77758 0.17424,-23.27796 0.3396,-45.69857 0.36743,-49.82357 0.0496,-7.34234 -0.004,-7.50633 -2.5419,-7.80123 l -2.59251,-0.30122 -0.65749,13.70934 c -0.36162,7.54013 -0.65749,28.43308 -0.65749,46.42878 0,36.95929 0.19578,36.00209 -6.92714,33.86801 l -4.07286,-1.22026 0,-67.34171 0,-67.34171 2.75,0.0147 c 1.5125,0.008 3.875,0.58287 5.25,1.27724 2.46213,1.24338 2.50757,1.48926 3,16.23096 l 0.5,14.96846 6,0.82535 c 3.3,0.45394 6.33351,1.14938 6.74113,1.54542 0.40762,0.39605 0.39047,24.10157 -0.0381,52.67896 -0.42858,28.57738 -0.5953,52.53737 -0.37049,53.24443 0.22481,0.70705 3.23403,3.30164 6.68717,5.76574 3.45313,2.4641 6.46342,5.0356 6.68953,5.71444 0.22611,0.67884 0.23143,14.73426 0.0118,31.23426 l -0.39929,30 -7.2705,7.06234 -7.27051,7.06234 -0.72683,47.93766 c -0.39976,26.36571 -1.03712,48.26435 -1.41636,48.66365 -0.37924,0.3993 -3.15283,1.0792 -6.16354,1.5108 l -5.47401,0.7849 -0.63187,13.4892 c -0.34752,7.419 -0.68502,19.4251 -0.75,26.6801 -0.065,7.2551 -0.52156,13.4403 -1.01464,13.7451 -1.12677,0.6964 -9.43257,-0.4034 -11.17376,-1.4795 -1.06192,-0.6563 -0.89475,-12.0046 0.91521,-62.12979 2.74446,-76.00552 2.77634,-82.54269 0.40506,-83.06735 -2.13613,-0.47264 -31.57763,0.32893 -32.17972,0.87612 -0.23634,0.21479 0.33721,30.87216 1.27457,68.12748 0.93735,37.25534 1.69322,69.61224 1.67971,71.90414 l -0.0246,4.1671 -5.04922,1.0829 c -6.67126,1.4307 -7.6252,1.3737 -8.34379,-0.4989 z M 135.55467,902.86141 c -5.07342,-4.40989 -7.13995,-6.88745 -7.13995,-8.56006 0,-1.29464 0.51259,-2.3539 1.1391,-2.3539 1.79039,0 13.67471,10.83801 14.40402,13.13587 1.475,4.64732 -1.36398,3.89665 -8.40317,-2.22191 z m 37.7805,-12.01999 c -11.74608,-1.74262 -20.76641,-10.45386 -23.96074,-23.1397 -0.91771,-3.64456 -0.83543,-5.69076 0.42696,-10.61836 4.28794,-16.73746 18.7781,-25.77122 34.76686,-21.67509 21.82181,5.59049 29.41979,30.94425 14.04712,46.87391 -6.69183,6.9343 -15.6924,9.98167 -25.2802,8.55924 z m 13.72981,-12.5349 c 2.47852,-1.45251 4.94048,-3.59001 5.47101,-4.75 0.53053,-1.15999 1.64199,-3.23407 2.4699,-4.60907 1.03818,-1.72423 1.35756,-4.12936 1.02923,-7.75076 -1.12464,-12.40455 -14.78613,-19.85285 -26.25243,-14.31294 -9.45382,4.56759 -12.89517,17.03594 -7.03623,25.49296 5.99061,8.64706 15.65905,11.0046 24.31852,5.92981 z m -45.65026,-23.11982 0,-25.09409 2.38737,-1.82258 c 1.31306,-1.00242 4.4934,-3.06733 7.06744,-4.5887 3.66246,-2.16466 4.61105,-3.25184 4.36263,-5 -0.21716,-1.52817 -0.89372,-2.13567 -2.14163,-1.92301 -4.698,0.80063 -4.67581,1.04012 -4.67581,-50.45807 l 0,-48.4023 -2.5,-0.9505 c -2.00132,-0.7609 -2.5,-1.64014 -2.5,-4.40786 0,-2.7107 0.48592,-3.60901 2.25,-4.15953 1.2375,-0.3862 2.58061,-1.20402 2.98469,-1.81739 0.40408,-0.61337 0.74158,-6.83689 0.75,-13.83004 0.0172,-14.24734 0.28947,-14.78518 7.48582,-14.78518 l 3.60199,0 -0.59868,69.75 c -0.32927,38.3625 -0.78519,70.65 -1.01315,71.75 -0.24496,1.18207 -2.92437,3.43138 -6.55164,5.5 -10.2795,5.86235 -9.92018,4.71447 -9.74687,31.13773 0.0825,12.58584 -0.14516,23.1786 -0.50603,23.53947 -0.36087,0.36088 -0.65613,-10.63621 -0.65613,-24.43795 z"
         id="path4225"
         inkscape:connector-curvature="0" />
      <path
         style="fill:#6f6f6f"
         d="m 149.41472,1036.4227 0,-24.5247 -2.5,-0.9506 c -1.83155,-0.6963 -2.50365,-1.6924 -2.51365,-3.7252 -0.008,-1.5261 -0.28167,-3.7745 -0.60923,-4.9964 -0.46301,-1.7272 -0.0148,-2.4863 2.01366,-3.41054 l 2.60922,-1.18884 0,-43.40523 c 0,-26.40047 0.3835,-44.12179 0.97889,-45.2343 1.55918,-2.91335 6.32864,-3.97828 20.89646,-4.66579 14.15612,-0.66808 30.3665,0.75225 32.93743,2.88593 1.12159,0.93084 1.22958,8.4648 0.62809,43.81957 l -0.72637,42.69546 2.19074,0.69531 c 4.70677,1.49387 4.72796,1.31346 5.42494,-46.17515 l 0.65651,-44.73117 6.75666,-6.80726 6.75665,-6.80726 0.5,-13.22454 c 0.275,-7.2735 0.3561,-20.34344 0.18023,-29.04433 l -0.31977,-15.81979 -4.54724,-3.18021 c -2.50098,-1.74911 -5.28208,-3.70828 -6.18023,-4.35369 -1.47348,-1.05886 -1.63299,-6.08945 -1.63299,-51.5 l 0,-50.32652 -3,0 -3,0 -1,46.91857 c -1.03205,48.42231 -1.09636,49.02596 -4.99057,46.84664 -1.39721,-0.78191 -1.56138,-7.97764 -1.52372,-66.78473 0.0232,-36.24962 0.37848,-66.24467 0.78949,-66.65568 0.41101,-0.41101 1.86723,-0.18956 3.23605,0.49211 2.46091,1.22554 2.49184,1.40288 2.76485,15.85144 0.30955,16.382 -0.008,15.78695 8.43872,15.818 2.54894,0.009 3.97264,0.56288 4.53633,1.76365 0.45184,0.9625 0.45741,25.15 0.0124,53.75 l -0.80914,52 2.68569,2 c 1.47713,1.1 4.52489,3.3781 6.7728,5.06246 l 4.08712,3.06245 -0.22598,30.88985 -0.22598,30.88985 -7.09084,7.13848 -7.09084,7.13847 -0.68318,47.40922 c -0.37575,26.07507 -1.04724,47.97177 -1.4922,48.65927 -0.44496,0.6875 -2.72145,1.25 -5.05887,1.25 -7.79781,0 -7.58327,-0.7766 -7.87395,28.5 l -0.25816,26 -2.5,0.259 c -5.29857,0.549 -5.19342,1.5608 -4.09008,-39.3528 0.56224,-20.8484 1.32669,-53.47448 1.69879,-72.50232 0.65362,-33.4242 0.61243,-34.60976 -1.21609,-35 -1.04096,-0.22216 -10.44264,-0.17893 -20.89264,0.0961 l -19,0.5 -0.0835,19 c -0.0459,10.45 0.23431,43.075 0.62277,72.49992 0.51699,39.1609 0.40536,53.697 -0.41648,54.2347 -0.61752,0.4041 -2.36026,0.7416 -3.87276,0.75 l -2.75003,0.015 0,-24.5248 z M 135.05934,901.85886 c -6.25217,-5.72898 -7.74506,-8.11327 -5.82358,-9.30081 1.34551,-0.83157 14.17896,11.35928 14.17896,13.46899 0,1.05623 -0.38492,1.92041 -0.85538,1.92041 -0.47045,0 -3.84545,-2.73987 -7.5,-6.08859 z M 168.907,889.15049 c -9.7365,-3.36688 -16.17966,-10.50004 -18.91359,-20.93905 -2.23715,-8.54218 1.88507,-20.08125 9.50341,-26.60227 9.62574,-8.23927 22.83172,-8.90732 34.15286,-1.72767 5.76499,3.65605 9.54077,9.21403 11.75523,17.30381 1.60696,5.8705 1.60225,6.50266 -0.09,12.09184 -3.22332,10.64588 -9.59154,17.26837 -19.46184,20.23889 -6.19319,1.86388 -10.78536,1.76482 -16.94606,-0.36555 z m 17.50772,-6.28707 c 10.36837,-4.70057 15.49741,-14.5056 13.01057,-24.87192 -2.21068,-9.21515 -11.79793,-17.05223 -20.84348,-17.03847 -13.56483,0.0206 -24.81645,12.3946 -22.564,24.81478 0.86229,4.75477 3.58537,10.10463 6.54959,12.86757 3.51817,3.27928 10.83629,6.26815 15.34732,6.26815 2.2,0 6.025,-0.91805 8.5,-2.04011 z m -30,-64.91597 c 0,-1.65 0.45,-3 1,-3 0.55,0 1,1.35 1,3 0,1.65 -0.45,3 -1,3 -0.55,0 -1,-1.35 -1,-3 z m -6.33333,-2.66667 c -0.36667,-0.36666 -0.66667,-22.15952 -0.66667,-48.42857 0,-42.08658 -0.18673,-47.94863 -1.57143,-49.33333 -0.86428,-0.86429 -2.2428,-1.57143 -3.06336,-1.57143 -1.07785,0 -1.40496,-0.89111 -1.17857,-3.2107 0.24185,-2.47802 0.88386,-3.34375 2.81336,-3.79371 2.49676,-0.58225 2.50035,-0.60047 2.76808,-14.0393 0.28266,-14.18838 0.88252,-15.95629 5.41404,-15.95629 1.72176,0 1.772,2.93997 1.15766,67.75 -0.44982,47.45351 -0.97138,67.9701 -1.74099,68.48469 -1.38104,0.9234 -3.06511,0.96565 -3.93212,0.0986 z"
         id="path4223"
         inkscape:connector-curvature="0" />
      <path
         style="fill:#525252"
         d="m 150.18211,1036.2677 c -0.25455,-23.4218 -0.36345,-24.6568 -2.26739,-25.7119 -1.1,-0.6096 -2.07041,-1.1084 -2.15646,-1.1084 -0.0861,0 -0.46124,-2.048 -0.83375,-4.5513 -0.62795,-4.2197 -0.48982,-4.6367 1.89615,-5.72384 l 2.57343,-1.17253 0.26032,-44.76287 0.26031,-44.76286 3,-1.51327 c 4.15846,-2.09763 44.75222,-2.22326 48.39635,-0.14977 l 2.39635,1.3635 -0.72215,42.70115 c -0.65179,38.54078 -0.56573,42.83095 0.88327,44.03351 1.1995,0.9955 2.19014,1.06595 3.91812,0.27863 2.14109,-0.97554 2.36152,-1.8514 2.97039,-11.80258 0.36172,-5.91187 0.69564,-24.06634 0.74205,-40.34328 0.0464,-16.27694 0.40573,-32.16471 0.79848,-35.30615 0.66769,-5.34047 1.10967,-6.08793 6.80008,-11.5 l 6.08599,-5.78829 0.52293,-12.28595 c 0.33159,-7.7906 0.99065,-12.84953 1.80123,-13.82622 0.95379,-1.14925 0.98439,-1.72191 0.12053,-2.2558 -0.77205,-0.47716 -1.25036,-5.68767 -1.43569,-15.63983 l -0.27793,-14.92429 -6.41033,-4.46997 -6.41033,-4.46997 0.67127,-49.60304 c 0.51754,-38.24286 0.39394,-49.88038 -0.53967,-50.81399 -1.57563,-1.57563 -5.29075,-1.55355 -6.57046,0.0391 -0.61537,0.76583 -1.28303,19.06751 -1.72373,47.25 -0.39562,25.3 -0.90623,46.195 -1.1347,46.43333 -0.22846,0.23834 -0.7787,0.0133 -1.22274,-0.5 -1.2085,-1.39706 0.11788,-130.93333 1.34069,-130.93333 0.60892,0 1.1082,5.76365 1.27666,14.73764 0.31234,16.63816 -0.66648,14.9547 9.45797,16.26673 l 4.73464,0.61357 -0.64796,52.93182 c -0.73314,59.89047 -1.4835,54.07088 7.73447,59.98603 2.62156,1.68226 4.94694,3.5999 5.16749,4.26143 0.22056,0.66153 0.20973,14.44712 -0.0241,30.63465 l -0.42506,29.43187 -7.38708,7.75481 -7.38707,7.75481 -0.14011,26.81332 c -0.0771,14.74733 -0.41455,36.25805 -0.75,47.80162 l -0.60989,20.98821 -5.47401,0.7858 c -3.01071,0.4321 -5.93571,1.2466 -6.5,1.8099 -0.63197,0.6308 -1.13037,10.7026 -1.29777,26.226 -0.28317,26.2567 -0.51123,28.8187 -2.39738,26.9326 -0.80478,-0.8048 -0.76813,-20.7769 0.13538,-73.76459 0.68218,-40.00797 0.85582,-72.97027 0.38637,-73.34915 -0.46888,-0.37846 -11.20255,-0.44712 -23.85255,-0.15259 l -23,0.53552 0.37839,73.09374 c 0.3443,66.50627 0.23321,73.14947 -1.23261,73.71187 -1.45011,0.5565 -1.63771,-1.8391 -1.87839,-23.9854 z M 135.0782,901.47086 c -3.86354,-3.56559 -5.71271,-6.00114 -5.47028,-7.20491 0.29494,-1.46454 1.57696,-0.66968 6.58651,4.08372 5.4985,5.21734 7.71822,8.68782 5.47029,8.5527 -0.4125,-0.0248 -3.37643,-2.46898 -6.58652,-5.43151 z m 34.0392,-12.96573 c -9.74578,-3.4764 -15.50676,-9.77953 -18.10401,-19.80768 -1.31896,-5.09262 -1.31896,-6.40738 0,-11.5 3.47053,-13.39995 13.10381,-21.10136 26.5256,-21.20611 13.94518,-0.10883 24.18448,8.24446 27.38348,22.33962 1.37381,6.05318 0.13535,12.13703 -3.8577,18.95067 -5.92308,10.10696 -20.61139,15.26714 -31.94737,11.2235 z m 16.17541,-2.11412 c 17.32072,-5.1437 23.27101,-27.29319 10.82123,-40.28119 -5.32101,-5.55104 -10.23274,-7.60297 -18.19932,-7.60297 -7.96658,0 -12.87831,2.05193 -18.19932,7.60297 -12.19659,12.72386 -6.89708,34.14076 9.88193,39.93584 6.56739,2.26822 9.03747,2.32257 15.69548,0.34535 z m -34.87977,-88.19356 c -9.2e-4,-9.2125 -0.29944,-31.30159 -0.66338,-49.08687 l -0.66171,-32.33687 -2.40299,-0.91361 c -1.8663,-0.70957 -2.33233,-1.5258 -2.08662,-3.65458 0.20825,-1.80413 0.99996,-2.86888 2.31638,-3.1152 1.1,-0.20583 2.33061,-0.88468 2.73469,-1.50855 0.40408,-0.62388 0.74158,-6.87182 0.75,-13.88432 0.0127,-10.55408 0.26893,-12.75 1.48785,-12.75 1.21439,0 1.52119,2.48407 1.75,14.16931 0.1526,7.79312 -0.0223,19.15562 -0.38866,25.25 -0.36636,6.09438 -0.70386,29.86819 -0.75,52.83069 -0.0545,27.11074 -0.43452,41.75 -1.08388,41.75 -0.6268,0 -1.00063,-6.25112 -1.00168,-16.75 z"
         id="path4221"
         inkscape:connector-curvature="0" />
      <path
         style="fill:#2d2d2d"
         d="m 148.41472,1002.4474 c 0,-1.375 0.45,-2.49995 1,-2.49995 0.55,0 1,1.12495 1,2.49995 0,1.375 -0.45,2.5 -1,2.5 -0.55,0 -1,-1.125 -1,-2.5 z m 53.52617,-0.7477 c -0.91108,-3.37453 0.0755,-6.55055 1.57048,-5.0556 0.67684,0.67684 0.71162,2.19444 0.10123,4.4172 l -0.92985,3.3861 -0.74186,-2.7477 z m 9.82577,-2.00225 c -0.59425,-1.37972 -0.69053,-8.43865 -0.24893,-18.25 0.39608,-8.8 0.75994,-29.66046 0.80857,-46.35658 l 0.0884,-30.35658 7,-7.21913 7,-7.21913 0,-11.5193 c 0,-10.24931 0.2205,-11.71885 2,-13.32928 1.99149,-1.80227 2,-1.74663 2,13.0715 l 0,14.88147 -7.22106,7.26957 -7.22105,7.26958 -0.69642,46.75394 c -0.38304,25.71467 -0.73356,46.86649 -0.77895,47.00389 -0.33688,1.0206 -1.93319,-0.1486 -2.73058,-1.99995 z m -38.85194,-87.31423 c -0.55,-0.17871 -5.69097,-0.47278 -11.42437,-0.65348 -10.60839,-0.33433 -13.37741,-1.48005 -9.10424,-3.76698 3.98313,-2.13171 25.29211,-3.42709 36.40856,-2.21328 11.48689,1.25425 13.62005,1.83556 13.62005,3.71163 0,0.93582 -2.72965,1.46986 -9.75,1.90752 -5.3625,0.33431 -11.775,0.77246 -14.25,0.97368 -2.475,0.20122 -4.95,0.21963 -5.5,0.0409 z m -37.99168,-11.95746 c -3.29543,-2.93056 -5.67678,-5.64318 -5.2919,-6.02807 0.38488,-0.38488 3.30054,1.79947 6.47923,4.85411 3.1787,3.05464 5.56005,5.76726 5.2919,6.02806 -0.26815,0.2608 -3.18381,-1.92355 -6.47923,-4.8541 z m 93.15835,-39.14498 c -0.36667,-0.36666 -0.66667,-6.97516 -0.66667,-14.68555 0,-13.1453 -0.14021,-14.17159 -2.25,-16.46956 l -2.25,-2.45068 4,2.49232 4,2.49232 0.30669,10.39391 c 0.43235,14.65273 -0.61792,20.74935 -3.14002,18.22724 z m -10.03054,-36.1043 -3.86386,-2.65075 0.36386,-50.20531 c 0.20013,-27.61292 0.0179,-50.5515 -0.40495,-50.97462 -0.42284,-0.42312 -2.67284,-0.86165 -5,-0.97451 -3.72133,-0.18048 -4.23118,-0.4895 -4.23118,-2.56452 0,-2.25618 0.26229,-2.34388 6,-2.00621 3.3,0.19421 6.39879,0.59615 6.88621,0.8932 0.51189,0.31196 0.57575,22.80997 0.15119,53.2648 l -0.73501,52.72471 2.83858,2.63209 c 3.56093,3.30188 2.94878,3.25948 -2.00484,-0.13888 z m -70.56199,-110.1976 c -4.29987,-1.03975 -3.60554,-4.22633 1.17586,-5.39651 2.89183,-0.70774 3.17715,-0.11856 1.90032,3.9241 -0.5003,1.58402 -1.20994,1.92369 -3.07618,1.47241 z"
         id="path4219"
         inkscape:connector-curvature="0" />
    </g>
    <text
       xml:space="preserve"
       style="font-style:normal;font-weight:normal;font-size:17.5px;line-height:125%;font-family:sans-serif;letter-spacing:0px;word-spacing:0px;fill:#000000;fill-opacity:1;stroke:none;stroke-width:1px;stroke-linecap:butt;stroke-linejoin:miter;stroke-opacity:1"
       x="224.6772"
       y="821.51733"
       id="text4235"
       sodipodi:linespacing="125%"><tspan
         sodipodi:role="line"
         id="tspan4237"
         x="224.6772"
         y="821.51733"
         style="font-style:normal;font-variant:normal;font-weight:normal;font-stretch:normal;font-size:22.5px;font-family:'Comic Sans MS';-inkscape-font-specification:'Comic Sans MS'">HDPE</tspan></text>
    <text
       sodipodi:linespacing="125%"
       id="text4239"
       y="663.15192"
       x="162.76328"
       style="font-style:normal;font-weight:normal;font-size:17.5px;line-height:125%;font-family:sans-serif;letter-spacing:0px;word-spacing:0px;fill:#000000;fill-opacity:1;stroke:none;stroke-width:1px;stroke-linecap:butt;stroke-linejoin:miter;stroke-opacity:1"
       xml:space="preserve"><tspan
         style="font-style:normal;font-variant:normal;font-weight:normal;font-stretch:normal;font-size:22.5px;font-family:'Comic Sans MS';-inkscape-font-specification:'Comic Sans MS'"
         y="663.15192"
         x="162.76328"
         id="tspan4241"
         sodipodi:role="line">1&quot; WOOD STICK</tspan></text>
    <text
       xml:space="preserve"
       style="font-style:normal;font-weight:normal;font-size:17.5px;line-height:125%;font-family:sans-serif;letter-spacing:0px;word-spacing:0px;fill:#000000;fill-opacity:1;stroke:none;stroke-width:1px;stroke-linecap:butt;stroke-linejoin:miter;stroke-opacity:1"
       x="2.4035325"
       y="1040.1781"
       id="text4243"
       sodipodi:linespacing="125%"><tspan
         sodipodi:role="line"
         id="tspan4245"
         x="2.4035325"
         y="1040.1781"
         style="font-style:normal;font-variant:normal;font-weight:normal;font-stretch:normal;font-size:22.5px;font-family:'Comic Sans MS';-inkscape-font-specification:'Comic Sans MS'">WOOD STICK</tspan></text>
    <text
       sodipodi:linespacing="125%"
       id="text4247"
       y="919.31799"
       x="68.724792"
       style="font-style:normal;font-weight:normal;font-size:17.5px;line-height:125%;font-family:sans-serif;letter-spacing:0px;word-spacing:0px;fill:#000000;fill-opacity:1;stroke:none;stroke-width:1px;stroke-linecap:butt;stroke-linejoin:miter;stroke-opacity:1"
       xml:space="preserve"><tspan
         style="font-style:normal;font-variant:normal;font-weight:normal;font-stretch:normal;font-size:22.5px;font-family:'Comic Sans MS';-inkscape-font-specification:'Comic Sans MS'"
         y="919.31799"
         x="68.724792"
         id="tspan4249"
         sodipodi:role="line">HDPE</tspan></text>
    <text
       xml:space="preserve"
       style="font-style:normal;font-weight:normal;font-size:17.5px;line-height:125%;font-family:sans-serif;letter-spacing:0px;word-spacing:0px;fill:#000000;fill-opacity:1;stroke:none;stroke-width:1px;stroke-linecap:butt;stroke-linejoin:miter;stroke-opacity:1"
       x="68.724792"
       y="919.31799"
       id="text4251"
       sodipodi:linespacing="125%"><tspan
         sodipodi:role="line"
         id="tspan4253"
         x="68.724792"
         y="919.31799"
         style="font-style:normal;font-variant:normal;font-weight:normal;font-stretch:normal;font-size:22.5px;font-family:'Comic Sans MS';-inkscape-font-specification:'Comic Sans MS'">HDPE</tspan></text>
    <text
       sodipodi:linespacing="125%"
       id="text4255"
       y="760.72235"
       x="1.7621754"
       style="font-style:normal;font-weight:normal;font-size:17.5px;line-height:125%;font-family:sans-serif;letter-spacing:0px;word-spacing:0px;fill:#000000;fill-opacity:1;stroke:none;stroke-width:1px;stroke-linecap:butt;stroke-linejoin:miter;stroke-opacity:1"
       xml:space="preserve"><tspan
         style="font-style:normal;font-variant:normal;font-weight:normal;font-stretch:normal;font-size:22.5px;font-family:'Comic Sans MS';-inkscape-font-specification:'Comic Sans MS'"
         y="760.72235"
         x="1.7621754"
         id="tspan4257"
         sodipodi:role="line">SILICONE</tspan><tspan
         style="font-style:normal;font-variant:normal;font-weight:normal;font-stretch:normal;font-size:22.5px;font-family:'Comic Sans MS';-inkscape-font-specification:'Comic Sans MS'"
         y="788.84735"
         x="1.7621754"
         sodipodi:role="line"
         id="tspan4259">BALL</tspan><tspan
         style="font-style:normal;font-variant:normal;font-weight:normal;font-stretch:normal;font-size:22.5px;font-family:'Comic Sans MS';-inkscape-font-specification:'Comic Sans MS'"
         y="816.97235"
         x="1.7621754"
         sodipodi:role="line"
         id="tspan4263">WHEEL</tspan></text>
    <path
       style="fill:none;fill-rule:evenodd;stroke:#000000;stroke-width:3;stroke-linecap:butt;stroke-linejoin:miter;stroke-miterlimit:4;stroke-dasharray:none;stroke-opacity:1;marker-end:url(#Arrow1Mend)"
       d="M 70.486965,781.8684 170.93089,851.47427"
       id="path4267"
       inkscape:connector-curvature="0"
       sodipodi:nodetypes="cc" />
    <text
       xml:space="preserve"
       style="font-style:normal;font-weight:normal;font-size:17.5px;line-height:125%;font-family:sans-serif;letter-spacing:0px;word-spacing:0px;fill:#000000;fill-opacity:1;stroke:none;stroke-width:1px;stroke-linecap:butt;stroke-linejoin:miter;stroke-opacity:1"
       x="249.34764"
       y="943.10736"
       id="text4796"
       sodipodi:linespacing="125%"><tspan
         id="tspan4802"
         sodipodi:role="line"
         x="249.34764"
         y="943.10736"
         style="font-style:normal;font-variant:normal;font-weight:normal;font-stretch:normal;font-size:22.5px;font-family:'Comic Sans MS';-inkscape-font-specification:'Comic Sans MS'">AXLE IN</tspan><tspan
         sodipodi:role="line"
         x="249.34764"
         y="971.23236"
         style="font-style:normal;font-variant:normal;font-weight:normal;font-stretch:normal;font-size:22.5px;font-family:'Comic Sans MS';-inkscape-font-specification:'Comic Sans MS'"
         id="tspan4808">PLASTIC</tspan><tspan
         sodipodi:role="line"
         x="249.34764"
         y="999.35736"
         style="font-style:normal;font-variant:normal;font-weight:normal;font-stretch:normal;font-size:22.5px;font-family:'Comic Sans MS';-inkscape-font-specification:'Comic Sans MS'"
         id="tspan4810">BEARING</tspan></text>
    <path
       sodipodi:nodetypes="cc"
       inkscape:connector-curvature="0"
       id="path4818"
       d="M 244.9422,942.22624 214.10416,858.52295"
       style="fill:none;fill-rule:evenodd;stroke:#000000;stroke-width:3;stroke-linecap:butt;stroke-linejoin:miter;stroke-miterlimit:4;stroke-dasharray:none;stroke-opacity:1;marker-end:url(#marker4820)" />
  </g>
</svg>
