<?xml version="1.0" encoding="UTF-8" standalone="no"?>
<!-- Created with Inkscape (http://www.inkscape.org/) -->

<svg
   xmlns:dc="http://purl.org/dc/elements/1.1/"
   xmlns:cc="http://creativecommons.org/ns#"
   xmlns:rdf="http://www.w3.org/1999/02/22-rdf-syntax-ns#"
   xmlns:svg="http://www.w3.org/2000/svg"
   xmlns="http://www.w3.org/2000/svg"
   xmlns:sodipodi="http://sodipodi.sourceforge.net/DTD/sodipodi-0.dtd"
   xmlns:inkscape="http://www.inkscape.org/namespaces/inkscape"
   width="4in"
   height="4in"
   viewBox="0 0 360.00001 360.00001"
   id="svg2"
   version="1.1"
   inkscape:version="0.91 r13725"
   sodipodi:docname="squat.svg">
  <defs
     id="defs4">
    <clipPath
       clipPathUnits="userSpaceOnUse"
       id="clipPath4206">
      <rect
         style="fill:#000000;fill-opacity:1;stroke:none;stroke-width:3.54330707;stroke-miterlimit:4;stroke-dasharray:none;stroke-opacity:1"
         id="rect4208"
         width="785.92963"
         height="771.83228"
         x="169.16872"
         y="298.15167" />
    </clipPath>
  </defs>
  <sodipodi:namedview
     id="base"
     pagecolor="#ffffff"
     bordercolor="#666666"
     borderopacity="1.0"
     inkscape:pageopacity="0.0"
     inkscape:pageshadow="2"
     inkscape:zoom="1.1349616"
     inkscape:cx="146.26819"
     inkscape:cy="220.93976"
     inkscape:document-units="px"
     inkscape:current-layer="layer1"
     showgrid="false"
     units="in"
     inkscape:window-width="1366"
     inkscape:window-height="719"
     inkscape:window-x="0"
     inkscape:window-y="1"
     inkscape:window-maximized="1" />
  <metadata
     id="metadata7">
    <rdf:RDF>
      <cc:Work
         rdf:about="">
        <dc:format>image/svg+xml</dc:format>
        <dc:type
           rdf:resource="http://purl.org/dc/dcmitype/StillImage" />
        <dc:title></dc:title>
      </cc:Work>
    </rdf:RDF>
  </metadata>
  <g
     inkscape:label="Layer 1"
     inkscape:groupmode="layer"
     id="layer1"
     transform="translate(0,-692.36215)">
    <path
       style="fill:#000000"
       d="m 58.756936,1006.2151 c -0.526845,-0.3606 -1.080248,-0.8367 -1.229781,-1.058 -0.665232,-0.985 -2.161174,-2.7908 -3.408612,-4.1148 -2.438472,-2.58831 -3.09933,-3.38041 -3.101818,-3.71821 -0.0013,-0.183 -0.497391,-0.6142 -1.102323,-0.9582 -1.30113,-0.7402 -2.69816,-3.54396 -2.583923,-5.18574 0.04448,-0.63927 0.108099,-1.51929 0.141387,-1.95525 0.03327,-0.43605 0.365621,-1.20159 0.738514,-1.701 0.98784,-1.32345 4.830009,-5.06088 5.202506,-5.06088 0.175028,0 0.318236,-0.31959 0.318236,-0.71037 0,-0.39071 0.697357,-1.46574 1.549683,-2.3889 0.852324,-0.92332 1.549682,-1.86818 1.549682,-2.09976 0,-0.23158 0.523014,-0.91466 1.162258,-1.51802 0.639244,-0.60337 1.162261,-1.31326 1.162261,-1.57772 0,-0.26447 0.435849,-0.89019 0.968552,-1.39077 0.532704,-0.50034 0.968551,-1.22821 0.968551,-1.61717 0,-0.38902 0.276901,-1.01239 0.615337,-1.38528 3.914186,-4.31268 4.792135,-5.44497 4.799741,-6.18978 0.0049,-0.48114 0.428557,-1.13776 0.957788,-1.48454 0.521937,-0.34198 1.149972,-1.23082 1.395633,-1.97523 0.296074,-0.89709 1.077614,-1.80664 2.318195,-2.69795 1.029349,-0.7395 2.482583,-2.26512 3.229413,-3.39027 0.746834,-1.12508 1.627502,-2.26953 1.957045,-2.54298 0.32955,-0.27352 0.994118,-1.28828 1.47683,-2.2552 0.482705,-0.96687 1.182743,-1.94856 1.555636,-2.18151 0.372893,-0.23301 0.683294,-0.59958 0.68978,-0.81465 0.0064,-0.21511 1.051925,-1.52435 2.323197,-2.90931 1.271274,-1.38504 2.312001,-2.65396 2.312729,-2.81983 0.003,-0.71835 4.796364,-7.64053 5.290635,-7.64053 0.300475,0 0.662799,-0.30515 0.805164,-0.67797 0.142364,-0.37294 0.564062,-1.00668 0.93711,-1.40836 0.373042,-0.40169 0.782163,-1.20339 0.909155,-1.7816 0.126992,-0.5782 0.833027,-1.63486 1.568967,-2.34816 0.735934,-0.71332 1.338064,-1.44412 1.338064,-1.62402 0,-0.45162 1.6354,-2.74489 2.22767,-3.12378 1.00625,-0.64376 0.0588,-5.86303 -1.16287,-6.4057 -0.16016,-0.0711 -0.40098,-0.81593 -0.53517,-1.6551 -0.13419,-0.83918 -0.39542,-1.61937 -0.58051,-1.73378 -0.1851,-0.11438 -0.33654,-0.53185 -0.33654,-0.92768 0,-0.39582 -0.13075,-0.7778 -0.29056,-0.84882 -0.594368,-0.26416 -2.002267,-3.67794 -2.252179,-5.46095 -0.142235,-1.01475 -0.412828,-1.94032 -0.601325,-2.05682 -0.188493,-0.11648 -0.342717,-0.55256 -0.342717,-0.96904 0,-0.41648 -0.166276,-1.05996 -0.3695,-1.42996 -0.438656,-0.79862 -1.442246,-4.995 -1.78234,-7.45259 -0.132692,-0.95886 -0.46528,-2.52792 -0.739092,-3.48678 -0.273802,-0.95886 -0.52008,-2.24878 -0.547277,-2.86649 -0.0272,-0.6177 -0.25953,-1.37622 -0.516302,-1.68561 -0.583396,-0.70295 -0.754201,-1.46884 -0.71282,-3.19631 0.01786,-0.74579 -0.25045,-2.402 -0.596249,-3.68049 -0.701899,-2.59505 -1.122987,-18.62808 -0.499369,-19.01349 0.18805,-0.11623 0.24473,-0.59849 0.12596,-1.07172 -0.11877,-0.47323 0.05386,-1.37782 0.38361,-2.01021 0.32976,-0.63239 0.600635,-1.33838 0.601949,-1.56884 0.0043,-0.72194 1.634725,-5.76127 1.989266,-6.14775 0.185704,-0.20244 0.337642,-0.66561 0.337642,-1.0293 0,-0.36368 0.558691,-1.85427 1.241524,-3.31244 0.682837,-1.45816 1.220679,-2.8964 1.195205,-3.19609 -0.02548,-0.2997 0.200364,-0.79158 0.501868,-1.09309 0.301508,-0.30149 0.548187,-0.88906 0.548187,-1.30568 0,-0.41662 0.556143,-1.36864 1.235868,-2.11561 1.150091,-1.26386 2.028551,-3.0419 2.519081,-5.09869 0.11278,-0.47292 0.44727,-1.06087 0.74329,-1.30655 0.29603,-0.24569 0.53823,-0.67347 0.53823,-0.95066 0,-0.2772 0.43585,-1.02195 0.96855,-1.65502 0.5327,-0.63309 0.96855,-1.30508 0.96855,-1.49331 0,-0.44066 1.438352,-1.67671 1.951122,-1.67671 0.21592,0 0.55829,-0.43585 0.76082,-0.96855 0.20254,-0.53271 0.5469,-0.96856 0.76526,-0.96856 0.21835,0 0.397,-0.42555 0.397,-0.94568 0,-0.52014 0.17434,-1.05344 0.38743,-1.18513 0.21307,-0.13169 0.38741,-0.47725 0.38741,-0.76791 0,-0.59832 2.18819,-2.91258 2.75391,-2.91258 0.20337,0 0.47896,-0.3051 0.61242,-0.678 0.56694,-1.58416 7.91787,-10.16978 8.70727,-10.16978 0.38818,0 0.91119,-0.45026 4.20424,-3.61941 2.60482,-2.50681 8.29405,-6.60568 9.79605,-7.05767 0.46851,-0.14099 1.66765,-0.93442 2.66474,-1.76319 0.99709,-0.82878 1.98088,-1.50687 2.18622,-1.50687 0.20532,0 0.47367,-0.26151 0.59632,-0.58112 0.12265,-0.31964 0.55118,-0.58113 0.9523,-0.58113 0.40111,0 1.58337,-0.46356 2.62724,-1.03013 3.3181,-1.80088 5.31643,-2.71035 7.90297,-3.59673 1.38502,-0.47463 2.69257,-1.00764 2.90566,-1.18446 0.71621,-0.59431 5.25571,-2.0102 5.78893,-1.80558 0.29026,0.11138 0.63098,0.0993 0.75715,-0.0268 0.12616,-0.12617 0.70981,-0.26737 1.29699,-0.31379 0.58717,-0.0464 2.02645,-0.28575 3.1984,-0.53184 2.43464,-0.51128 3.39194,-0.62711 10.06329,-1.21771 2.6582,-0.23533 5.01178,-0.54127 5.23017,-0.67986 0.62463,-0.39637 7.32982,-0.70009 9.50146,-0.43035 0.31962,0.0397 3.10906,0.40261 6.19873,0.80647 3.08968,0.40384 7.75671,0.99845 10.37117,1.32131 4.14768,0.51222 5.04485,0.75776 7.03875,1.92635 1.56645,0.91806 2.76834,1.3393 3.82135,1.3393 1.21033,0 1.57914,0.16435 1.7388,0.77484 0.12852,0.49151 0.52844,0.77484 1.09361,0.77484 0.80609,0 6.46317,2.56767 6.92996,3.14542 0.10654,0.13186 1.12367,0.70884 2.26028,1.28216 1.41656,0.71454 1.99918,1.21796 1.85238,1.60049 -0.14265,0.37178 0.0458,0.55807 0.56474,0.55807 0.42839,0 1.15635,0.3517 1.61773,0.78152 0.46137,0.42983 1.45654,0.9505 2.21147,1.15705 0.75494,0.20655 1.89563,0.85743 2.53489,1.44641 0.63924,0.58896 2.4393,1.9187 4.00013,2.95495 1.56083,1.03625 2.93308,2.1322 3.04946,2.43546 0.11637,0.30326 0.66987,0.79048 1.23004,1.08272 0.56015,0.29224 1.97731,1.41793 3.14928,2.50152 1.17193,1.0836 2.31728,1.97125 2.54521,1.97257 0.45512,0.005 1.53902,-1.16568 2.58054,-2.78143 0.36872,-0.57204 1.10966,-1.47932 1.64653,-2.01618 0.53686,-0.53685 0.97612,-1.13124 0.97612,-1.32086 0,-0.18961 0.82811,-1.30776 1.84024,-2.48476 1.01214,-1.177 2.17329,-2.60354 2.58035,-3.17009 0.67228,-0.93569 1.11363,-1.46854 3.24252,-3.91483 0.37087,-0.42617 1.02121,-1.47221 1.44522,-2.32453 0.42399,-0.85233 1.41306,-2.20555 2.19794,-3.00716 0.78489,-0.80163 1.95675,-2.37068 2.60418,-3.48679 0.6474,-1.11612 1.85658,-2.73252 2.68706,-3.59199 0.83047,-0.85949 1.87441,-2.25419 2.31987,-3.09937 0.44545,-0.84517 1.44037,-2.23402 2.21096,-3.08636 1.39687,-1.54509 2.31002,-3.22907 1.94751,-3.59158 -0.27716,-0.27716 -5.50671,1.01264 -7.77275,1.91704 -2.46703,0.98462 -5.56484,2.0032 -8.52324,2.80246 -2.75897,0.7454 -6.88925,1.98235 -9.96954,2.98573 -2.35044,0.76565 -5.78255,1.14544 -7.45752,0.82524 -1.12761,-0.21555 -2.13768,-1.81991 -2.13768,-3.39542 0,-0.5573 -0.16696,-1.32522 -0.37103,-1.70652 -0.56961,-1.06433 -1.16991,-5.38495 -1.23674,-8.90127 -0.0507,-2.66682 0.0559,-3.27059 0.67695,-3.83345 1.6696,-1.51328 4.26158,-2.86376 6.46831,-3.37013 0.3821,-0.0877 1.25381,-0.32626 1.93711,-0.53016 0.68329,-0.2039 2.20123,-0.64576 3.37317,-0.98192 1.17195,-0.33614 3.23805,-0.95873 4.59136,-1.38352 1.35329,-0.42478 3.31852,-0.88615 4.36717,-1.02526 1.04866,-0.13912 2.00017,-0.40429 2.11452,-0.58929 0.11433,-0.18499 0.50268,-0.33743 0.863,-0.33873 0.36031,-0.003 1.12031,-0.2451 1.68887,-0.54174 0.56855,-0.29664 1.78891,-0.65983 2.71194,-0.80709 1.70714,-0.27236 3.8455,-0.91147 5.93983,-1.77526 1.51335,-0.62419 1.65835,-0.66939 3.48677,-1.08708 2.16161,-0.49382 8.74964,-2.54594 9.68552,-3.01697 0.42616,-0.2145 1.82088,-0.60917 3.09937,-0.87705 1.27848,-0.26789 4.20354,-1.08119 6.50012,-1.80735 2.29659,-0.72615 4.47583,-1.32024 4.84276,-1.32018 0.36693,3e-5 2.18589,-0.44673 4.0421,-0.99285 1.85624,-0.5461 4.03548,-0.9384 4.84277,-0.87177 l 1.46779,0.12113 0.0382,3.09937 c 0.0209,1.70465 -0.12188,3.4156 -0.31745,3.80212 -0.23124,0.45696 -0.20129,0.88868 0.0856,1.23435 0.27324,0.32922 0.31505,0.79913 0.10983,1.23434 -0.18228,0.38651 -0.2958,1.48729 -0.25229,2.44615 0.078,1.71855 0.0909,5.99647 0.047,15.49682 -0.0123,2.66351 0.008,6.06313 0.0457,7.55469 0.0375,1.49158 0.0157,3.32213 -0.0488,4.06792 -0.0644,0.74579 0.0515,1.70466 0.25749,2.13083 0.20595,0.42615 0.40256,1.9952 0.4369,3.48678 0.0343,1.49156 0.0927,4.10664 0.12963,5.8113 0.0369,1.70464 -0.0201,7.63218 -0.12682,13.1723 -0.10672,5.54011 -0.1979,10.46117 -0.20263,10.9357 -0.004,0.47451 -0.42185,1.13353 -0.92692,1.46447 -1.01393,0.66436 -0.7473,0.64662 -9.06134,0.60255 -5.36215,-0.0284 -5.98347,-0.10304 -6.68301,-0.80258 -0.8819,-0.8819 -0.87047,-0.57997 -0.82484,-21.7888 0.0294,-13.65464 -0.0254,-13.98883 -1.85243,-11.30627 -0.51561,0.75704 -1.51807,2.01028 -2.22767,2.78499 -0.7096,0.77471 -1.29018,1.60899 -1.29018,1.85393 0,0.24497 -0.34869,0.76093 -0.77485,1.14661 -0.42615,0.38567 -0.77484,0.90796 -0.77484,1.16065 0,0.25269 -0.68538,1.15862 -1.52307,2.0132 -0.83769,0.85457 -2.35434,2.93079 -3.37032,4.61384 -1.01598,1.68304 -1.98682,3.11819 -2.15742,3.18922 -0.17059,0.071 -0.31017,0.36746 -0.31017,0.65873 0,0.29128 -0.23609,0.66901 -0.52464,0.8394 -0.68373,0.40378 -3.73316,4.45507 -3.73533,4.96254 -0.002,0.2151 -0.35034,0.60884 -0.77651,0.87498 -0.42615,0.26614 -0.77483,0.87693 -0.77483,1.3573 0,0.53119 -0.33884,1.02324 -0.86482,1.25581 -0.47565,0.21035 -1.07304,0.8042 -1.32751,1.31968 -0.25449,0.51546 -0.737,1.09072 -1.07229,1.27836 -0.33528,0.18763 -0.60959,0.59399 -0.60959,0.90303 0,0.30904 -0.18342,0.56188 -0.40757,0.56188 -0.22417,0 -0.58991,0.52302 -0.81274,1.16226 -0.22284,0.63924 -0.64963,1.16226 -0.94841,1.16226 -0.29876,0 -0.54322,0.27015 -0.54322,0.60033 0,0.3302 -0.60534,1.22364 -1.34521,1.98546 -0.73986,0.76181 -1.44897,1.71204 -1.57578,2.1116 -0.12683,0.39958 -0.39879,0.72649 -0.60438,0.72649 -0.2056,0 -0.49894,0.3051 -0.65189,0.67799 -0.15295,0.3729 -0.76629,1.3972 -1.36299,2.27622 -1.24077,1.8278 -1.15658,2.98133 0.33504,4.59083 0.5045,0.54437 1.45991,2.16394 2.12312,3.59907 0.66321,1.43513 1.47549,2.90868 1.80506,3.27457 0.3523,0.3911 0.50795,1.01425 0.37774,1.51219 -0.12181,0.46582 0.0307,1.33459 0.3389,1.9306 0.30821,0.59602 0.56039,1.75088 0.56039,2.56638 0,0.81549 0.23582,1.8266 0.52403,2.24691 0.28822,0.4203 0.63365,1.72604 0.76762,2.90166 0.13398,1.1756 0.50375,2.91901 0.82172,3.8742 0.51598,1.55007 1.86439,8.39733 2.36378,12.00338 0.10327,0.74578 0.25263,1.79181 0.33188,2.32452 0.9177,6.16804 1.11963,19.31117 0.31912,20.77007 -0.24684,0.44984 -0.54841,1.84456 -0.67019,3.09936 -0.12176,1.25478 -0.54195,2.97881 -0.93373,3.83114 -0.6896,1.50021 -1.66831,4.58471 -2.2127,6.97357 -0.14568,0.63923 -0.50037,1.50615 -0.78821,1.92644 -0.28783,0.42032 -0.52332,1.04135 -0.52332,1.38007 0,0.33871 -0.34868,1.33755 -0.77484,2.2196 -0.42616,0.88207 -0.77483,1.76515 -0.77483,1.96244 0,0.19727 -0.26153,0.57572 -0.58115,0.84099 -0.31962,0.26527 -0.58111,0.81669 -0.58111,1.22538 0,0.4087 -0.33161,1.21546 -0.73687,1.79282 -1.48485,2.11526 -4.68704,7.86962 -4.68704,8.42259 0,0.31309 -0.16615,0.56925 -0.36924,0.56925 -0.20309,0 -0.655,0.60216 -1.00425,1.33814 -0.34924,0.73599 -0.88043,1.54187 -1.18042,1.79084 -0.30001,0.24897 -0.54545,0.67067 -0.54545,0.93711 0,1.50581 -1.8443,4.26072 -4.8259,7.20868 -1.80986,1.78943 -3.75822,3.60222 -4.32973,4.02838 -0.57147,0.42616 -2.62837,2.34389 -4.57085,4.26164 -4.83118,4.76959 -6.63323,6.39244 -7.09841,6.39244 -0.21723,0 -0.67103,0.58169 -1.00846,1.29281 -0.33743,0.71102 -1.01107,1.58128 -1.49697,1.93381 -1.0079,0.73114 -5.42458,3.60636 -6.91781,4.50343 -0.54884,0.32969 -2.26074,1.38391 -3.80423,2.34287 -1.54348,0.95887 -3.32929,2.03233 -3.96847,2.38551 -0.63918,0.35318 -1.49378,0.94229 -1.89911,1.30911 -0.74459,0.67375 -1.17273,0.79487 -6.76423,1.91293 -1.70465,0.34084 -4.23258,0.95248 -5.6176,1.35927 -3.08413,0.90571 -4.75985,1.24462 -6.77986,1.37124 -0.85233,0.0532 -2.59571,0.29015 -3.8742,0.5262 -1.27849,0.23619 -3.0306,0.43041 -3.89358,0.43149 -0.86298,0 -1.73992,0.17322 -1.94875,0.38207 -0.24115,0.24109 -1.57714,0.25851 -3.66113,0.0482 -2.58281,-0.26127 -8.68075,-0.28146 -11.41726,-0.0379 -0.4151,0.0365 -5.43797,-0.24895 -10.40733,-0.59223 -1.67548,-0.1157 -3.52754,-0.45927 -4.11564,-0.76341 -0.58813,-0.30407 -1.17359,-0.44863 -1.30104,-0.3212 -0.81039,0.81028 -11.20206,-3.2419 -13.34069,-5.20226 -0.29057,-0.26631 -1.02858,-0.48427 -1.64004,-0.48427 -0.61144,0 -1.23046,-0.19217 -1.37558,-0.42699 -0.14512,-0.23482 -0.80918,-0.67447 -1.47569,-0.977 -0.6665,-0.30252 -1.99635,-1.14489 -2.95522,-1.87185 -0.95886,-0.72696 -1.89824,-1.3334 -2.08748,-1.3475 -0.18926,-0.0144 -1.10065,-0.72309 -2.02531,-1.5754 -0.92466,-0.85231 -1.91034,-1.54968 -2.19037,-1.54968 -0.28006,0 -1.37357,-0.78335 -2.43004,-1.74065 -1.05646,-0.9573 -2.35671,-1.96137 -2.88941,-2.23122 -1.96354,-0.99474 -4.49514,-2.85693 -6.31937,-4.64826 -1.03073,-1.01213 -2.17095,-1.84022 -2.53382,-1.84022 -0.36288,0 -1.15339,-0.56253 -1.75669,-1.25006 l -1.09691,-1.25007 -1.88477,2.1218 c -1.03664,1.16694 -1.98831,2.42683 -2.11484,2.79967 -0.12653,0.37293 -0.37569,0.67803 -0.55369,0.67803 -0.17802,0 -0.96286,0.96302 -1.74412,2.13992 -0.78126,1.17709 -1.80066,2.52926 -2.26534,3.00495 -0.46468,0.47565 -1.36789,1.6483 -2.00713,2.60588 -1.50354,2.25225 -1.38853,2.10067 -3.819572,5.03409 -1.14782,1.38503 -2.20186,2.89103 -2.34231,3.34677 -0.14044,0.45566 -0.64204,1.25734 -1.11465,1.7815 -1.752116,1.94314 -2.806893,3.21889 -3.183823,3.85064 -0.213081,0.35721 -1.171948,1.68341 -2.130813,2.94727 -0.958866,1.26394 -2.615089,3.54396 -3.680495,5.06691 -1.065406,1.52288 -2.678044,3.74803 -3.583639,4.94456 -0.905596,1.1967 -1.646537,2.34803 -1.646537,2.55879 0,0.2106 -0.341042,0.75622 -0.757873,1.21241 -2.38097,2.60585 -6.215696,7.7489 -6.215696,8.33615 0,0.20403 -0.156402,0.42903 -0.347559,0.49995 -0.191154,0.0702 -1.381091,1.65204 -2.644299,3.51324 -1.263212,1.86113 -2.829274,3.96923 -3.480141,4.68443 -0.650862,0.7152 -1.403883,1.7204 -1.673377,2.2336 -0.269492,0.51335 -0.987782,1.56835 -1.596192,2.34485 -0.608413,0.7765 -1.106206,1.6763 -1.106206,1.9996 0,0.6573 -2.127082,2.5938 -2.849175,2.5938 -0.25586,0 -0.896258,-0.2951 -1.4231,-0.6556 z M 179.02969,942.54979 c 1.04782,0 2.22564,0.0997 2.61736,0.22401 0.39173,0.1243 1.6716,-0.0526 2.84416,-0.3937 1.52863,-0.44444 2.34034,-0.50833 2.86833,-0.22571 0.53228,0.28486 1.12999,0.22964 2.15633,-0.19913 0.78094,-0.32635 2.5837,-0.6966 4.0061,-0.82283 1.42239,-0.12621 2.77349,-0.37588 3.00242,-0.55482 0.22893,-0.17894 1.67601,-0.44242 3.21575,-0.58555 2.36053,-0.21932 3.06616,-0.46378 4.50012,-1.55871 0.93536,-0.71415 1.92902,-1.29956 2.20815,-1.30091 0.27913,0 0.9701,-0.24373 1.53548,-0.53865 0.56537,-0.29501 1.69857,-0.75571 2.51822,-1.02379 0.81967,-0.26805 2.46465,-1.13199 3.65552,-1.91984 1.19088,-0.78785 2.71715,-1.62487 3.39169,-1.85995 1.89995,-0.66235 5.20679,-3.0173 6.06569,-4.31963 0.42615,-0.64621 1.26962,-1.34749 1.87435,-1.55838 0.60474,-0.21089 1.18375,-0.70557 1.28672,-1.0993 0.10297,-0.39375 0.67665,-1.00502 1.27489,-1.3584 2.34041,-1.3825 8.54262,-7.99544 8.54262,-9.10832 0,-0.15611 0.48847,-0.81865 1.08546,-1.47231 0.597,-0.65363 1.01833,-1.38984 0.93628,-1.63601 -0.0821,-0.24617 0.0397,-0.44759 0.27051,-0.44759 0.23083,0 0.4197,-0.21909 0.4197,-0.48686 0,-0.26776 0.78179,-1.35739 1.73731,-2.42137 0.95553,-1.06399 1.74006,-2.08251 1.7434,-2.2634 0.004,-0.18087 0.24943,-0.87824 0.54686,-1.54968 0.29744,-0.67144 0.94958,-2.26684 1.44919,-3.54533 0.49963,-1.27849 1.02275,-2.4117 1.16251,-2.51823 0.13977,-0.10655 0.44929,-0.92016 0.68787,-1.80802 0.23858,-0.88788 0.69139,-2.10824 1.00627,-2.71195 0.31487,-0.6037 0.57357,-1.5832 0.57487,-2.17667 0.003,-0.59347 0.27448,-1.49432 0.60704,-2.00186 0.33257,-0.50757 0.68109,-1.85256 0.77448,-2.98889 0.0934,-1.13632 0.33565,-3.19925 0.53834,-4.58428 0.62326,-4.25909 0.847,-6.82962 0.85891,-9.86821 0.006,-1.60416 0.16871,-2.91668 0.36092,-2.91668 1.03234,0 -0.1488,-8.40903 -1.44056,-10.25597 -0.29396,-0.42031 -0.53447,-1.24443 -0.53447,-1.83141 0,-0.58697 -0.44116,-2.23921 -0.98033,-3.67167 -0.53916,-1.43244 -0.88482,-2.85323 -0.76816,-3.1573 0.1167,-0.30408 0.0149,-0.79063 -0.22633,-1.08122 -0.24117,-0.2906 -0.64987,-1.14322 -0.90822,-1.89472 -0.46805,-1.36146 -0.47274,-1.36373 -1.31158,-0.6362 -0.46303,0.40157 -0.84186,1.0311 -0.84186,1.39894 0,0.36786 -0.33702,0.75695 -0.74891,0.86467 -0.73785,0.19295 -1.96302,2.24577 -1.96302,3.28909 0,0.2941 -0.9153,1.48812 -2.03397,2.65339 -2.00493,2.08844 -4.16476,5.09576 -4.16476,5.79899 0,0.19818 -0.34868,0.54693 -0.77485,0.77502 -0.42617,0.22806 -0.77483,0.66139 -0.77483,0.96292 0,0.30154 -0.22212,0.68768 -0.49358,0.85806 -0.27147,0.1704 -0.77272,0.74567 -1.11389,1.27837 -0.34118,0.5327 -1.27756,1.66155 -2.08084,2.50855 -0.8033,0.84699 -1.70227,2.11853 -1.99772,2.82565 -0.29546,0.70712 -0.7818,1.37952 -1.08076,1.49426 -0.29895,0.11471 -1.20873,1.18798 -2.02171,2.38505 -0.81297,1.19705 -1.73967,2.47811 -2.05928,2.8468 -0.31963,0.36869 -1.01699,1.22678 -1.54969,1.90686 -0.53269,0.68009 -1.15922,1.43712 -1.39226,1.68228 -0.23304,0.24517 -0.9304,1.20627 -1.54969,2.13577 -1.91206,2.8699 -2.25908,3.34035 -3.18558,4.31871 -0.49356,0.52118 -1.26225,1.55778 -1.7082,2.30357 -0.44597,0.74578 -1.14205,1.62597 -1.54686,1.956 -0.40481,0.33001 -0.77646,0.87567 -0.82593,1.21257 -0.13287,0.90546 -2.66343,4.13724 -3.44714,4.4024 -0.3724,0.12599 -0.78357,0.65331 -0.91369,1.17181 -0.13016,0.51851 -0.3958,0.94273 -0.59035,0.94273 -0.19454,0 -0.56723,0.47944 -0.8282,1.06541 -0.44653,1.00268 -1.7031,2.59422 -3.655,4.62924 -0.46915,0.48913 -1.15991,1.54359 -1.53499,2.34325 -0.37507,0.79965 -0.90651,1.68428 -1.18094,1.96585 -0.27444,0.28157 -0.49896,0.67383 -0.49896,0.8717 0,0.19784 -0.24148,0.35975 -0.53658,0.35975 -0.29511,0 -0.84779,0.47943 -1.22816,1.06541 -0.38038,0.58596 -1.0106,1.29322 -1.40054,1.57164 -0.38991,0.27843 -0.70893,0.75173 -0.70893,1.05177 0,0.30005 -0.34868,0.73215 -0.77484,0.96022 -0.42617,0.22807 -0.77485,0.67395 -0.77485,0.99084 0,0.31688 -0.66025,1.3132 -1.4672,2.21404 -0.80694,0.90083 -1.94832,2.38742 -2.53639,3.30355 -0.58804,0.9161 -1.29247,1.75133 -1.56535,1.85605 -1.00566,0.3859 -2.6038,-0.60976 -3.17569,-1.9785 -0.31423,-0.75206 -0.91599,-1.71203 -1.33723,-2.1333 -0.42126,-0.42122 -0.76855,-1.24533 -0.77174,-1.83131 -0.005,-1.10476 -0.69502,-3.34719 -1.339,-4.35824 -0.20351,-0.3195 -0.32215,-1.03727 -0.26364,-1.59507 0.0586,-0.55779 -0.18276,-1.30331 -0.53619,-1.65673 -0.35339,-0.3534 -0.5516,-0.87957 -0.44044,-1.16924 0.11116,-0.28969 -0.0481,-0.88376 -0.35364,-1.32017 -0.30569,-0.43642 -0.66671,-1.6028 -0.8023,-2.59196 -0.13558,-0.98915 -0.56967,-2.43236 -0.96468,-3.20712 -0.39499,-0.77476 -0.71818,-1.75032 -0.71818,-2.16791 0,-0.41761 -0.2701,-1.05776 -0.60022,-1.42255 -0.33014,-0.36478 -0.63939,-1.2502 -0.68724,-1.9676 -0.0478,-0.7174 -0.25451,-1.56586 -0.45923,-1.88548 -0.20475,-0.31963 -0.38913,-0.66831 -0.40977,-0.77485 -0.41042,-2.11889 -1.78981,-6.7357 -2.15039,-7.19726 -0.17933,-0.22958 -0.57493,-1.53712 -0.8791,-2.90566 -0.30418,-1.36853 -0.90913,-3.42043 -1.34436,-4.55978 -0.43525,-1.13935 -0.9851,-3.05708 -1.22191,-4.26163 -0.23681,-1.20455 -0.6608,-2.80026 -0.94218,-3.54606 -0.28139,-0.74578 -0.63583,-2.27106 -0.78764,-3.38949 -0.33397,-2.46017 -0.72722,-2.79228 -1.62076,-1.36875 -0.61668,0.98245 -1.24402,1.75757 -4.49087,5.54873 -0.58597,0.68421 -1.06541,1.47333 -1.06541,1.75359 0,0.28026 -0.17434,0.61731 -0.38741,0.74901 -0.21308,0.13167 -0.38742,0.65323 -0.38742,1.15901 0,0.61597 -0.28779,1.00801 -0.8717,1.18747 -1.08606,0.33376 -2.34122,1.61166 -2.04839,2.08551 0.12036,0.19472 -0.65063,1.26087 -1.71328,2.3692 -1.06267,1.10833 -2.03569,2.34146 -2.16225,2.7403 -0.1266,0.39882 -0.36905,0.72515 -0.5388,0.72515 -0.16972,0 -0.81176,0.73842 -1.42671,1.64093 -0.61496,0.90252 -1.59753,2.05122 -2.18351,2.55267 -0.58597,0.50146 -1.0654,1.06184 -1.0654,1.24529 0,0.5384 -2.30966,3.80463 -3.06773,4.33826 -0.38242,0.26922 -0.83297,0.92534 -1.0012,1.45804 -0.43089,1.36434 -2.06479,3.8742 -2.52208,3.8742 -0.2104,0 -0.38255,0.24812 -0.38255,0.5514 0,0.30328 -0.41468,1.04422 -0.92149,1.64654 -0.50683,0.60231 -0.9248,1.24079 -0.92882,1.41883 -0.009,0.38119 -1.69794,2.54361 -3.47674,4.45044 -0.6925,0.74235 -1.25911,1.66554 -1.25911,2.05152 0,0.38598 -0.33687,0.88206 -0.7486,1.10242 -0.41173,0.22035 -0.87111,0.79309 -1.02084,1.27274 -0.14974,0.47967 -0.70897,1.30797 -1.24274,1.84068 -0.53377,0.53269 -1.21203,1.54015 -1.50724,2.23877 -0.29521,0.69865 -0.95439,1.63339 -1.46487,2.07724 -0.51047,0.44386 -0.87126,1.10215 -0.8018,1.46288 0.31827,1.65265 1.35697,3.40742 2.54175,4.29403 0.71188,0.53271 2.32595,1.84026 3.58685,2.90567 1.2609,1.0654 2.62855,2.13076 3.03923,2.36747 0.41067,0.23672 1.1324,0.77244 1.60384,1.19047 1.02969,0.91306 4.67932,3.22192 5.09293,3.22192 0.16152,0 0.75645,0.32324 1.32203,0.71831 0.56561,0.39513 1.47696,0.82655 2.02524,0.95876 0.54828,0.13219 1.64563,0.68062 2.43858,1.21873 0.79293,0.53809 1.66273,0.9784 1.93287,0.9784 0.27013,0 1.21284,0.34869 2.09488,0.77485 0.88206,0.42617 1.9395,0.77485 2.34987,0.77485 0.41036,0 0.96314,0.26146 1.22841,0.58113 0.26528,0.3196 0.78058,0.58113 1.14512,0.58113 0.36457,0 0.78233,0.11947 0.92835,0.2655 0.41699,0.41697 2.93981,1.21477 4.67588,1.47869 0.86911,0.13206 2.03492,0.41473 2.59071,0.62821 1.73032,0.66453 4.66816,0.97036 8.09386,0.84276 1.81119,-0.0675 4.15038,-0.12362 5.19822,-0.12478 z M 116.5314,896.74365 c 0.55371,-0.69394 1.28215,-1.79431 1.61877,-2.44526 0.33663,-0.65096 1.67058,-2.28229 2.96435,-3.62517 1.29376,-1.34287 2.35228,-2.60195 2.35228,-2.79794 0,-0.19601 0.52303,-0.86762 1.16227,-1.4925 0.63924,-0.62489 1.16226,-1.33062 1.16226,-1.56828 0,-0.46555 2.30077,-3.48906 3.75663,-4.9367 0.49084,-0.48806 0.89242,-1.1492 0.89242,-1.46918 0,-0.62569 0.41227,-1.22471 1.94357,-2.82391 1.56815,-1.6377 4.64258,-5.34286 4.64258,-5.59502 0,-0.12737 0.69735,-1.22709 1.54967,-2.44384 0.85234,-1.21673 1.54969,-2.53749 1.54969,-2.93502 0,-0.39752 0.29424,-0.83567 0.65387,-0.97367 0.85002,-0.32618 2.87522,-2.63985 3.57652,-4.08591 0.30244,-0.62363 1.30489,-1.76497 2.22766,-2.53632 0.92278,-0.77136 1.67778,-1.70555 1.67778,-2.07601 0,-0.37045 0.2221,-0.81296 0.49357,-0.98336 0.27147,-0.17039 0.81588,-0.83284 1.20978,-1.47208 0.39391,-0.63924 1.39217,-1.79588 2.21837,-2.57034 0.84317,-0.79034 1.50217,-1.77386 1.50217,-2.2419 0,-0.49529 0.94385,-1.80442 2.32453,-3.22419 1.27847,-1.31466 2.32451,-2.61581 2.32451,-2.89139 0,-0.2756 0.17435,-0.50108 0.38742,-0.50108 0.21308,0 0.38757,-0.21793 0.38777,-0.48428 1.8e-4,-0.26635 0.72324,-1.18162 1.60676,-2.03395 0.88353,-0.85233 1.88631,-2.15988 2.22839,-2.90566 0.6016,-1.31155 1.61085,-2.65054 3.42863,-4.54881 0.47944,-0.50066 0.87171,-1.12037 0.87171,-1.37714 0,-0.25676 0.69735,-1.22973 1.54968,-2.16215 0.85232,-0.93245 1.54968,-1.8359 1.54968,-2.00769 0,-0.17179 0.32037,-0.41404 0.71194,-0.53831 0.39158,-0.12428 1.29466,-0.74622 2.00688,-1.38208 0.71221,-0.63586 1.4644,-1.15612 1.67152,-1.15612 0.20713,0 1.11898,0.56659 2.02635,1.25912 1.11502,0.851 1.71219,1.63584 1.84235,2.42138 0.38932,2.34953 1.08977,4.69723 1.96501,6.58615 1.26637,2.73304 1.77103,4.41884 1.39282,4.65259 -0.34887,0.21561 0.039,1.90365 0.73688,3.20787 0.23584,0.44068 0.50793,1.4193 0.60466,2.17476 0.0967,0.75546 0.34374,1.68725 0.54893,2.07065 0.20519,0.38342 0.66526,1.82463 1.02234,3.20271 0.35709,1.37806 0.75795,2.68141 0.89078,2.89635 0.13283,0.21494 0.19138,0.86878 0.13011,1.45298 -0.0638,0.60867 0.23172,1.54409 0.69225,2.19084 0.44203,0.62078 0.80144,1.36327 0.79871,1.65 -0.0156,1.632 2.26758,10.50663 3.47305,13.49991 0.38615,0.95886 0.82152,2.57816 0.9675,3.59845 0.3037,2.1228 1.17671,4.42034 2.05522,5.40878 0.56542,0.63615 0.69314,0.57934 2.08363,-0.92685 0.81471,-0.88249 1.59386,-1.95919 1.73144,-2.39267 0.13759,-0.43349 0.83882,-1.39428 1.55828,-2.13511 0.71949,-0.74083 1.30815,-1.58171 1.30815,-1.86865 0,-0.28693 0.16616,-0.52169 0.36925,-0.52169 0.20308,0 0.65879,-0.61019 1.01268,-1.35597 0.35389,-0.74579 0.77698,-1.35598 0.94019,-1.35598 0.36302,0 3.24941,-3.80547 3.59974,-4.7459 0.13891,-0.37289 0.43236,-0.67798 0.65213,-0.67798 0.21977,0 0.39958,-0.14315 0.39958,-0.31811 0,-0.17496 0.78452,-1.13689 1.74339,-2.13762 0.95886,-1.00072 1.74339,-2.05953 1.74339,-2.35287 0,-0.29334 0.50043,-1.06906 1.11205,-1.72381 0.61164,-0.65476 1.39964,-1.79647 1.75111,-2.53714 0.35148,-0.74069 1.02784,-1.66173 1.50303,-2.04674 1.07707,-0.87267 2.99481,-3.41315 2.99481,-3.96727 0,-0.2273 0.26523,-0.41327 0.58943,-0.41327 0.32418,0 0.79639,-0.47943 1.04936,-1.0654 0.25294,-0.58598 1.0293,-1.71478 1.72524,-2.50847 0.69594,-0.79369 1.37023,-1.86095 1.49841,-2.37171 0.1282,-0.51077 0.64096,-1.14695 1.13947,-1.41376 0.49851,-0.26678 1.01101,-0.76856 1.13891,-1.11505 0.44363,-1.2019 1.30363,-2.45386 2.6534,-3.86283 0.74622,-0.7789 1.46585,-1.7808 1.59916,-2.22642 0.13334,-0.44563 1.10174,-1.73037 2.15203,-2.85496 1.05028,-1.12461 1.96327,-2.41623 2.02885,-2.87028 0.18225,-1.26179 -1.11059,-3.627 -2.29225,-4.1936 -0.58059,-0.27838 -1.23504,-0.85805 -1.45436,-1.28816 -0.51852,-1.01688 -2.03094,-2.51106 -2.54172,-2.51106 -0.21978,0 -0.49994,-0.2615 -0.62259,-0.58111 -0.12265,-0.31964 -0.40581,-0.58114 -0.62926,-0.58114 -0.22344,0 -0.97767,-0.43585 -1.67608,-0.96855 -0.69841,-0.53271 -1.42849,-0.96855 -1.6224,-0.96855 -0.31469,0 -2.07768,-1.40085 -3.95619,-3.14352 -0.84549,-0.78436 -6.65439,-4.06594 -7.83919,-4.42853 -0.48529,-0.14852 -2.10272,-0.84266 -3.5943,-1.54253 -3.19916,-1.50111 -5.0175,-2.12062 -6.22426,-2.12062 -0.48313,0 -0.93654,-0.16408 -1.00758,-0.36464 -0.14904,-0.42086 -1.42947,-0.73286 -4.97189,-1.2115 -1.38503,-0.18715 -2.95409,-0.45645 -3.48678,-0.59843 -2.39702,-0.63895 -9.47298,-0.70997 -11.71529,-0.11762 -0.79675,0.21048 -2.80166,0.3618 -4.45532,0.33626 -5.06988,-0.0783 -6.41977,0.0157 -8.4306,0.58619 -1.06542,0.30232 -2.46013,0.67639 -3.09937,0.83128 -0.63925,0.15486 -1.24943,0.3093 -1.35598,0.3432 -0.10654,0.0339 -0.89106,0.18996 -1.74338,0.34682 -0.85233,0.15686 -1.98554,0.47378 -2.51824,0.7043 -0.5327,0.23052 -1.80363,0.46429 -2.82429,0.51954 -1.6663,0.0901 -2.01565,0.28206 -3.42222,1.88002 -1.25826,1.42946 -1.74391,1.73507 -2.46832,1.55325 -1.02184,-0.25646 -3.9803,0.92076 -4.79547,1.90823 -0.29243,0.35425 -0.75852,0.6441 -1.03572,0.6441 -0.27721,0 -1.25832,0.5745 -2.18024,1.27669 -0.92192,0.70217 -2.48875,1.66905 -3.48183,2.14861 -0.9931,0.47955 -1.90291,1.12541 -2.02181,1.43525 -0.11888,0.30984 -0.68108,0.56333 -1.2493,0.56333 -0.94108,0 -2.86538,1.52032 -2.86538,2.26382 0,0.32898 -3.21112,3.54748 -3.53935,3.54748 -0.40856,0 -4.44996,4.23249 -4.97096,5.20598 -0.28621,0.53481 -1.1247,1.63072 -1.86328,2.43538 -0.7386,0.80467 -1.37871,1.63737 -1.4225,1.85045 -0.30496,1.48404 -1.23789,3.95983 -1.6528,4.38615 -0.27404,0.28157 -0.49825,0.78692 -0.49825,1.12302 0,0.33608 -0.50866,1.67476 -1.13035,2.97483 -0.62169,1.30008 -1.35872,3.1483 -1.63784,4.10715 -0.27913,0.95887 -0.87994,2.52793 -1.33515,3.4868 -0.45519,0.95886 -0.95542,2.6128 -1.11159,3.67538 -0.15617,1.06261 -0.50081,2.37015 -0.76584,2.90566 -0.26503,0.53551 -0.70254,2.2812 -0.97225,3.87931 -0.2697,1.59811 -0.71144,3.42867 -0.98163,4.06791 -1.04559,2.47371 -1.43245,4.48651 -0.96954,5.04428 0.38836,0.46796 0.67732,7.40311 0.35481,8.51545 -0.0618,0.21308 0.0266,2.43168 0.19647,4.93023 0.20904,3.07518 0.48173,4.68633 0.84406,4.98705 0.2944,0.24433 0.53527,0.77485 0.53527,1.17891 0,0.40408 0.43585,1.98217 0.96855,3.50688 0.5327,1.52473 0.96856,2.99124 0.96856,3.25894 0,0.51786 1.61057,3.20837 1.9371,3.23599 0.10654,0.009 0.64673,-0.55138 1.20042,-1.24533 z"
       id="path4272"
       inkscape:connector-curvature="0"
       inkscape:export-xdpi="100"
       inkscape:export-ydpi="100" />
  </g>
</svg>
