<?xml version="1.0" encoding="UTF-8" standalone="no"?>
<!-- Created with Inkscape (http://www.inkscape.org/) -->

<svg
   xmlns:dc="http://purl.org/dc/elements/1.1/"
   xmlns:cc="http://creativecommons.org/ns#"
   xmlns:rdf="http://www.w3.org/1999/02/22-rdf-syntax-ns#"
   xmlns:svg="http://www.w3.org/2000/svg"
   xmlns="http://www.w3.org/2000/svg"
   xmlns:sodipodi="http://sodipodi.sourceforge.net/DTD/sodipodi-0.dtd"
   xmlns:inkscape="http://www.inkscape.org/namespaces/inkscape"
   width="4in"
   height="4in"
   viewBox="0 0 360.00001 360.00001"
   id="svg2"
   version="1.1"
   inkscape:version="0.91 r13725"
   sodipodi:docname="truncatedcube.svg">
  <defs
     id="defs4" />
  <sodipodi:namedview
     id="base"
     pagecolor="#ffffff"
     bordercolor="#666666"
     borderopacity="1.0"
     inkscape:pageopacity="0.0"
     inkscape:pageshadow="2"
     inkscape:zoom="0.80253906"
     inkscape:cx="158.18812"
     inkscape:cy="121.26551"
     inkscape:document-units="px"
     inkscape:current-layer="layer1"
     showgrid="false"
     units="in"
     inkscape:window-width="1366"
     inkscape:window-height="719"
     inkscape:window-x="0"
     inkscape:window-y="1"
     inkscape:window-maximized="1" />
  <metadata
     id="metadata7">
    <rdf:RDF>
      <cc:Work
         rdf:about="">
        <dc:format>image/svg+xml</dc:format>
        <dc:type
           rdf:resource="http://purl.org/dc/dcmitype/StillImage" />
        <dc:title></dc:title>
      </cc:Work>
    </rdf:RDF>
  </metadata>
  <g
     inkscape:label="Layer 1"
     inkscape:groupmode="layer"
     id="layer1"
     transform="translate(0,-692.36215)">
    <g
       id="g4219"
       transform="matrix(0.59873695,0,0,0.59873695,-3.5986016,571.32163)"
       inkscape:export-xdpi="300"
       inkscape:export-ydpi="300">
      <path
         style="fill:#fdfdfd"
         d="m 46.273174,476.68933 0,-172.5 261.499996,0 261.5,0 0,172.5 0,172.5 -261.5,0 -261.499996,0 0,-172.5 z"
         id="path4235"
         inkscape:connector-curvature="0" />
      <path
         style="fill:#cdcdcd"
         d="m 292.48027,560.72656 c -7.3111,-2.39989 -14.30417,-5.02604 -15.54017,-5.8359 -2.23533,-1.46464 -30.34764,-36.36769 -32.43812,-40.2738 -0.60253,-1.12582 -1.62289,-8.58218 -2.26748,-16.56968 l -1.17197,-14.52273 9.27282,-22.41756 c 5.10005,-12.32966 9.95481,-23.21901 10.78835,-24.19855 0.83355,-0.97955 4.80817,-3.59857 8.8325,-5.82005 4.02434,-2.22148 7.31697,-4.40036 7.31697,-4.84195 0,-0.78355 -15.89595,-4.05701 -19.70085,-4.05701 -1.0528,0 -48.20855,23.44177 -104.79055,52.09283 -56.582006,28.65106 -103.693625,52.25022 -104.692486,52.44258 -2.201389,0.42395 -2.299436,-0.19494 -0.341123,-2.15325 0.811242,-0.81125 46.373742,-24.21268 101.249999,-52.00319 54.87625,-27.79051 100.14546,-50.88757 100.59823,-51.3268 1.08356,-1.05116 8.7826,0.57482 -97.32322,-20.55402 -83.016507,-16.53108 -94.200764,-18.54691 -99.749996,-17.97881 -3.912526,0.40055 -6.25,0.26725 -6.25,-0.35641 0,-0.54795 0.5625,-1.2245 1.25,-1.50347 0.941215,-0.38191 0.879458,-0.77303 -0.25,-1.58333 -2.403704,-1.72447 0.393904,-2.84078 5.814094,-2.31997 3.766876,0.36195 17.78274,-2.93141 71.188122,-16.72735 74.34049,-19.20399 77.34466,-20.01527 76.65844,-20.70148 -0.81768,-0.81768 -106.241231,-13.12611 -108.785297,-12.70092 -1.306448,0.21834 -11.502644,1.98081 -22.658214,3.91659 -12.500115,2.1691 -20.87006,3.19099 -21.813188,2.66319 -2.924847,-1.63683 0.862044,-3.04873 14.135111,-5.27011 7.128513,-1.19303 13.580396,-2.50397 14.337518,-2.91321 0.769987,-0.41618 -2.975574,-1.26874 -8.5,-1.93475 -5.432122,-0.65488 -11.956464,-1.44295 -14.498537,-1.75125 -2.542073,-0.30831 -5.242073,-0.96023 -6,-1.44871 -2.141108,-1.37995 0.953889,-3.03331 4.621951,-2.46907 1.65,0.25381 11.786232,1.46157 22.524959,2.68389 l 19.52496,2.22241 41.975037,-7.27756 c 37.77848,-6.54996 45.51788,-8.04783 41.58269,-8.04783 -0.67413,0 -0.96105,-0.42819 -0.63761,-0.95153 0.341,-0.55175 -2.05005,-1.08962 -5.69098,-1.2802 -3.45348,-0.18076 4.52094,-0.31508 17.72094,-0.29847 13.2,0.0166 22.425,0.30846 20.5,0.64856 -3.17312,0.56061 -3.03302,0.62885 1.5,0.73069 2.75,0.0618 24.76324,1.77514 48.91831,3.80746 l 43.91832,3.69514 15.08168,-3.602 c 19.90002,-4.75278 26.86815,-6.059 29.17527,-5.4691 1.62861,0.41641 1.57854,0.50435 -0.34358,0.60345 -1.2375,0.0638 -2.25,0.47461 -2.25,0.9129 0,0.4383 -6.075,2.3463 -13.5,4.24001 -13.00973,3.31807 -16.53743,4.95049 -10.75,4.9745 1.5125,0.006 28.85,2.26516 60.75,5.01975 l 58,5.00835 14.25,-7.10326 c 7.8375,-3.9068 14.25,-7.44145 14.25,-7.85479 0,-0.69458 -30.63445,-3.10058 -39.30902,-3.08729 -2.17288,0.003 -3.55486,-0.40539 -3.21734,-0.95152 0.34828,-0.56353 -2.40412,-1.12684 -6.69098,-1.36939 -4.00546,-0.22662 1.94234,-0.14494 13.21734,0.18152 28.77322,0.83311 48.08663,0.7193 50.90637,-0.29998 1.71147,-0.61865 2.20502,-0.54405 1.7091,0.25836 -1.04649,1.69327 0.60812,1.87215 42.42414,4.58648 21.19678,1.37591 39.30928,2.79701 40.25,3.158 2.05004,0.78667 2.21671,2.03409 0.36664,2.74403 -0.73906,0.2836 -21.32656,-0.82274 -45.75,-2.45854 l -44.40625,-2.97419 -14.73439,7.28115 c -8.10391,4.00462 -14.40391,7.5915 -14,7.97083 0.40392,0.37932 26.38439,2.8001 57.73439,5.37949 31.35,2.5794 58.2375,5.1516 59.75,5.71602 2.9348,1.09517 3.53986,2.3023 1.5,2.9926 -0.6875,0.23265 -29.7152,-2.01036 -64.506,-4.98446 l -63.25601,-5.40747 -6.74399,3.15326 c -3.7092,1.73429 -15.969,7.94104 -27.244,13.79277 -19.06919,9.89693 -20.29061,10.69365 -17.5,11.41509 1.65,0.42656 41.925,5.31766 89.5,10.86911 47.575,5.55145 87.5125,10.58788 88.75,11.19208 2.99988,1.46467 2.83761,2.29046 -0.5,2.54446 -1.5125,0.11511 -44.375,-4.77045 -95.25,-10.8568 l -92.5,-11.06609 -57,28.71686 c -31.35,15.79428 -57.1875,28.87556 -57.41667,29.06951 -1.01358,0.85785 1.44721,1.60628 13.0488,3.96866 l 12.36787,2.51843 19.07428,-1.73883 19.07427,-1.73882 12.42573,2.24002 c 6.83414,1.23202 13.58468,2.6813 15.00119,3.22064 1.41651,0.53933 5.67944,4.10854 9.47318,7.93158 3.79374,3.82303 7.57396,6.95097 8.40048,6.95097 3.71885,0 193.64642,38.24937 194.83798,39.23828 1.11591,0.92612 1.10706,1.24144 -0.0531,1.89069 -0.79692,0.44598 -41.12907,-7.12156 -94.31318,-17.69603 -51.10646,-10.16138 -93.88876,-18.35322 -95.07178,-18.20409 -2.00542,0.25281 -1.77621,0.90584 3.38799,9.65254 l 5.53892,9.38139 -1.07645,14.61861 c -1.06847,14.51037 -1.1343,14.7852 -8.89114,37.11861 l -7.81469,22.5 -6.9286,8.27657 c -3.81073,4.55211 -7.85931,8.48355 -8.99685,8.73653 -1.13753,0.25299 -11.51824,2.04983 -23.06824,3.99298 -11.55,1.94316 -21.9,3.72686 -23,3.96379 -1.1,0.23693 -7.98181,-1.53276 -15.2929,-3.93264 z m 21.62501,-171.69475 c 30.61734,-15.48664 55.85539,-28.31164 56.08456,-28.5 0.22916,-0.18837 0.17504,-0.58411 -0.12029,-0.87943 -0.65152,-0.65152 -149.71209,-18.46305 -154.51301,-18.46305 -2.78664,0 -146.851062,36.62391 -148.200033,37.67526 -0.229166,0.17861 -0.206685,0.53472 0.04996,0.79136 0.757168,0.75717 184.052103,37.30207 187.698813,37.42294 2.5086,0.0832 17.09007,-6.84851 59,-28.04708 z m 90.55476,-45.971 c 28.02307,-14.08876 27.1843,-13.63365 26.46071,-14.35724 -0.55351,-0.5535 -116.7027,-10.53742 -124.34758,-10.68863 -4.51994,-0.0894 -12.22637,1.77039 -75.85094,18.30506 -2.11802,0.55043 -3.5761,1.27562 -3.24019,1.61154 0.57146,0.57145 141.69401,17.8657 147.978,18.13436 1.88332,0.0805 11.96449,-4.44039 29,-13.00509 z M 251.87017,327.15936 c 37.83826,-9.78938 38.49574,-9.97991 36.73038,-10.644 -0.64495,-0.24261 -21.11995,-2.17074 -45.5,-4.28473 l -44.32738,-3.84362 -44.23274,7.58509 c -24.328,4.1718 -43.97805,7.83977 -43.66677,8.15105 0.81991,0.81991 92.75794,11.80313 99.99651,11.94591 4.70564,0.0928 14.06208,-1.94042 41,-8.9097 z M 47.301199,308.278 c -1.295966,-0.86377 -1.295966,-1.03611 0,-1.44132 3.311459,-1.0354 18.841281,-2.63809 23.971975,-2.47392 5.044918,0.16142 5.14646,0.20775 1.227207,0.55989 -2.350036,0.21115 -4.048679,0.74653 -3.774762,1.18973 0.273916,0.44321 -2.528327,1.11024 -6.227207,1.4823 -3.698881,0.37205 -8.300238,0.89875 -10.225238,1.17043 -1.925,0.27169 -4.162389,0.0525 -4.971975,-0.48711 z"
         id="path4233"
         inkscape:connector-curvature="0" />
      <path
         style="fill:#b5b5b5"
         d="m 290.77317,559.34641 -14,-4.75362 -14.82076,-18.45173 c -8.15142,-10.14845 -15.45819,-19.3765 -16.23728,-20.50678 -0.91135,-1.32217 -1.81487,-7.38478 -2.53354,-17 l -1.11703,-14.94495 8.71685,-21 c 4.79427,-11.55 9.3292,-22.19193 10.07763,-23.64874 0.848,-1.65065 4.29117,-4.21105 9.13745,-6.79478 4.27717,-2.28033 8.54809,-5.05588 9.49093,-6.1679 1.4443,-1.70346 2.42504,-1.91526 6.22794,-1.34498 2.48252,0.37228 12.98564,-0.11165 23.34026,-1.0754 18.80956,-1.75069 18.83783,-1.75029 31.27207,0.4502 6.84501,1.21136 13.43585,2.60555 14.64631,3.09819 1.21046,0.49265 5.48546,3.98981 9.5,7.77147 4.01454,3.78166 8.12409,7.17663 9.13233,7.54437 1.00823,0.36774 1.65045,1.21674 1.42714,1.88666 -0.22331,0.66993 2.24419,5.70703 5.48332,11.19357 l 5.88934,9.97552 -1.12762,14.55591 c -1.10034,14.20375 -1.30886,15.08817 -8.61898,36.55591 l -7.49136,22 -7.32665,8.57211 -7.32666,8.57211 -22.37084,3.74285 c -12.30397,2.05857 -23.49585,3.91852 -24.87085,4.13324 -1.375,0.21471 -8.8,-1.74874 -16.5,-4.36323 z M 46.273174,526.18933 c 0,-0.55 0.476558,-1 1.059017,-1 0.582459,0 0.780902,0.45 0.440983,1 -0.339919,0.55 -0.816476,1 -1.059017,1 -0.242541,0 -0.440983,-0.45 -0.440983,-1 z M 252.27317,419.74683 c 0,-1.18345 1.10073,-1.5575 4.58333,-1.5575 5.90202,0 5.55535,2.36777 -0.41105,2.8075 -3.2421,0.23894 -4.17228,-0.0397 -4.17228,-1.25 z M 46.273174,382.18933 c 0,-0.55 0.476558,-1 1.059017,-1 0.582459,0 0.780902,0.45 0.440983,1 -0.339919,0.55 -0.816476,1 -1.059017,1 -0.242541,0 -0.440983,-0.45 -0.440983,-1 z m 3,-2.43021 c 0,-1.10196 1.606575,-1.43528 7,-1.45233 5.463597,-0.0173 7,0.29664 7,1.43021 0,1.13146 -1.546558,1.45233 -7,1.45233 -5.403737,0 -7,-0.32614 -7,-1.43021 z m 323.999996,-20.8459 c 0,-1.70703 8.91924,-3.12691 10.43333,-1.66091 1.35284,1.30986 0.6662,1.63015 -5.18333,2.41779 -4.26423,0.57417 -5.25,0.43206 -5.25,-0.75688 z M 206.58136,339.87897 c -1.01588,-1.64372 1.70002,-2.38585 9.25693,-2.52949 4.48866,-0.0853 7.43488,0.26366 7.43488,0.88065 0,1.42232 -1.49216,1.77402 -9.31369,2.19519 -3.74754,0.2018 -7.06769,-0.0441 -7.37812,-0.54635 z m 227.69181,-11.99954 c 0,-0.96818 1.65834,-1.65243 5.11674,-2.1112 2.8142,-0.37332 5.3717,-0.42379 5.68333,-0.11216 1.0995,1.0995 -1.35459,2.30733 -6.05007,2.97768 -3.77159,0.53844 -4.75,0.38307 -4.75,-0.75432 z M 83.273174,324.64177 c 0,-1.18189 2.048969,-1.45244 11,-1.45244 6.136786,0 10.999996,0.41232 10.999996,0.93261 0,1.44205 -2.72087,1.85046 -12.749996,1.91383 -7.447769,0.0471 -9.25,-0.22454 -9.25,-1.394 z m 210.999996,-8.37112 c 0,-1.271 2.32726,-1.78304 11.75,-2.58522 6.16648,-0.52496 7.25,-0.38398 7.25,0.94335 0,0.8583 -0.3375,1.58687 -0.75,1.61903 -11.3624,0.88597 -18.25,0.89459 -18.25,0.0228 z m 273,-2.08132 c 0,-0.55 0.45,-1 1,-1 0.55,0 1,0.45 1,1 0,0.55 -0.45,1 -1,1 -0.55,0 -1,-0.45 -1,-1 z m -95.30178,-4.63512 c -1.47095,-1.47095 -0.5821,-2.36488 2.35144,-2.36488 1.67731,0 4.40782,-0.70233 6.06779,-1.56074 3.90449,-2.01909 5.23202,-1.50283 3.08317,1.19902 -1.71895,2.16132 -10.08463,4.14437 -11.5024,2.7266 z m -287.91309,-2.5095 c -0.23034,-0.691 -3.55516,-1.52003 -7.84249,-1.95548 -4.64506,-0.47179 -2.55614,-0.53092 5.55736,-0.15731 15.17559,0.6988 15.04374,0.69923 23.5,-0.0777 4.29671,-0.39474 5.4831,-0.30978 3.5,0.25064 -1.92974,0.54534 -2.31622,0.89001 -1.08333,0.96612 1.05416,0.0651 1.63527,0.3997 1.29135,0.74362 -0.34392,0.34393 -6.0023,0.80628 -12.57418,1.02747 -8.70672,0.29303 -12.05736,0.0767 -12.34871,-0.7974 z M 60.773174,305.14332 c 2.75,-0.42833 7.025,-0.76188 9.5,-0.74122 l 4.5,0.0376 -4.5,0.80071 c -2.475,0.44039 -6.75,0.77394 -9.5,0.74122 l -5,-0.0595 5,-0.77878 z m 280.499996,0.046 c 1.375,-0.44035 3.625,-0.81387 5,-0.83003 2.27259,-0.0267 2.31807,0.0488 0.5,0.83003 -1.1,0.47269 -3.35,0.8462 -5,0.83003 -2.9254,-0.0287 -2.93783,-0.0493 -0.5,-0.83003 z m 81.5,0 -8,-0.63324 8,-0.0714 c 4.4,-0.0393 12.275,0.25539 17.5,0.65486 l 9.5,0.72631 -9.5,-0.0216 c -5.225,-0.0119 -13.1,-0.30658 -17.5,-0.65486 z"
         id="path4231"
         inkscape:connector-curvature="0" />
      <path
         style="fill:#ababab"
         d="m 290.27317,557.8156 -12.5,-4.21633 -16.11748,-20.15974 -16.11747,-20.15973 -0.73005,-9.29523 c -1.87291,-23.84673 -2.29509,-21.19223 6.90463,-43.41387 4.54283,-10.97306 8.77019,-20.9049 9.39413,-22.07075 0.62395,-1.16586 4.62911,-3.98284 8.90035,-6.25996 4.27124,-2.27713 8.5373,-5.05006 9.48014,-6.16208 1.4443,-1.70346 2.42504,-1.91526 6.22794,-1.34498 2.48252,0.37228 12.98564,-0.11165 23.34026,-1.0754 18.80956,-1.75069 18.83783,-1.75029 31.27207,0.4502 6.84501,1.21136 13.43585,2.60555 14.64631,3.09819 1.21046,0.49265 5.48546,3.98981 9.5,7.77147 4.01454,3.78166 8.12409,7.17663 9.13233,7.54437 1.00823,0.36774 1.65045,1.21674 1.42714,1.88666 -0.22331,0.66993 2.24419,5.70703 5.48332,11.19357 l 5.88934,9.97552 -1.12561,14.55591 c -1.09817,14.20092 -1.30757,15.09004 -8.58641,36.45743 l -7.46078,21.90153 -6.95947,8.26449 c -4.73579,5.62383 -7.84473,8.44556 -9.73008,8.83116 -12.11971,2.47882 -40.09509,6.58632 -44.42406,6.5226 -3.46805,-0.051 -9.73839,-1.5601 -17.84655,-4.29503 z m 59.54271,-73.32523 c 4.92651,-13.58443 9.10729,-25.05943 9.29062,-25.5 0.53298,-1.28081 -4.39871,-0.96285 -26.97388,1.73911 -11.67279,1.39708 -23.13388,2.5785 -25.46908,2.62537 l -4.24583,0.0852 2.67773,2.27232 c 1.47275,1.24978 9.87773,11.51566 18.67773,22.81306 8.8,11.29741 16.24422,20.56844 16.54271,20.6023 0.2985,0.0339 4.5735,-11.05296 9.5,-24.63739 z m -49.81354,-21.90521 c -0.3323,-0.33229 -1.1948,-0.36781 -1.91667,-0.0789 -0.79773,0.31922 -0.56078,0.55618 0.60417,0.60416 1.05416,0.0434 1.64479,-0.19293 1.3125,-0.52522 z M 46.273174,526.18933 c 0,-0.55 0.476558,-1 1.059017,-1 0.582459,0 0.780902,0.45 0.440983,1 -0.339919,0.55 -0.816476,1 -1.059017,1 -0.242541,0 -0.440983,-0.45 -0.440983,-1 z M 252.27317,419.74683 c 0,-1.18345 1.10073,-1.5575 4.58333,-1.5575 5.90202,0 5.55535,2.36777 -0.41105,2.8075 -3.2421,0.23894 -4.17228,-0.0397 -4.17228,-1.25 z M 46.273174,382.18933 c 0,-0.55 0.476558,-1 1.059017,-1 0.582459,0 0.780902,0.45 0.440983,1 -0.339919,0.55 -0.816476,1 -1.059017,1 -0.242541,0 -0.440983,-0.45 -0.440983,-1 z m 3,-2.43021 c 0,-1.10196 1.606575,-1.43528 7,-1.45233 5.463597,-0.0173 7,0.29664 7,1.43021 0,1.13146 -1.546558,1.45233 -7,1.45233 -5.403737,0 -7,-0.32614 -7,-1.43021 z m 323.999996,-20.8459 c 0,-1.70703 8.91924,-3.12691 10.43333,-1.66091 1.35284,1.30986 0.6662,1.63015 -5.18333,2.41779 -4.26423,0.57417 -5.25,0.43206 -5.25,-0.75688 z M 206.58136,339.87897 c -1.01588,-1.64372 1.70002,-2.38585 9.25693,-2.52949 4.48866,-0.0853 7.43488,0.26366 7.43488,0.88065 0,1.42232 -1.49216,1.77402 -9.31369,2.19519 -3.74754,0.2018 -7.06769,-0.0441 -7.37812,-0.54635 z m 227.69181,-11.99954 c 0,-0.96818 1.65834,-1.65243 5.11674,-2.1112 2.8142,-0.37332 5.3717,-0.42379 5.68333,-0.11216 1.0995,1.0995 -1.35459,2.30733 -6.05007,2.97768 -3.77159,0.53844 -4.75,0.38307 -4.75,-0.75432 z M 83.273174,324.64177 c 0,-1.18189 2.048969,-1.45244 11,-1.45244 6.136786,0 10.999996,0.41232 10.999996,0.93261 0,1.44205 -2.72087,1.85046 -12.749996,1.91383 -7.447769,0.0471 -9.25,-0.22454 -9.25,-1.394 z m 210.999996,-8.37112 c 0,-1.271 2.32726,-1.78304 11.75,-2.58522 6.16648,-0.52496 7.25,-0.38398 7.25,0.94335 0,0.8583 -0.3375,1.58687 -0.75,1.61903 -11.3624,0.88597 -18.25,0.89459 -18.25,0.0228 z m 273,-2.08132 c 0,-0.55 0.45,-1 1,-1 0.55,0 1,0.45 1,1 0,0.55 -0.45,1 -1,1 -0.55,0 -1,-0.45 -1,-1 z m -95.30178,-4.63512 c -1.47095,-1.47095 -0.5821,-2.36488 2.35144,-2.36488 1.67731,0 4.40782,-0.70233 6.06779,-1.56074 3.90449,-2.01909 5.23202,-1.50283 3.08317,1.19902 -1.71895,2.16132 -10.08463,4.14437 -11.5024,2.7266 z m -287.91309,-2.5095 c -0.23034,-0.691 -3.55516,-1.52003 -7.84249,-1.95548 -4.64506,-0.47179 -2.55614,-0.53092 5.55736,-0.15731 15.17559,0.6988 15.04374,0.69923 23.5,-0.0777 4.29671,-0.39474 5.4831,-0.30978 3.5,0.25064 -1.92974,0.54534 -2.31622,0.89001 -1.08333,0.96612 1.05416,0.0651 1.63527,0.3997 1.29135,0.74362 -0.34392,0.34393 -6.0023,0.80628 -12.57418,1.02747 -8.70672,0.29303 -12.05736,0.0767 -12.34871,-0.7974 z M 60.773174,305.14332 c 2.75,-0.42833 7.025,-0.76188 9.5,-0.74122 l 4.5,0.0376 -4.5,0.80071 c -2.475,0.44039 -6.75,0.77394 -9.5,0.74122 l -5,-0.0595 5,-0.77878 z m 280.499996,0.046 c 1.375,-0.44035 3.625,-0.81387 5,-0.83003 2.27259,-0.0267 2.31807,0.0488 0.5,0.83003 -1.1,0.47269 -3.35,0.8462 -5,0.83003 -2.9254,-0.0287 -2.93783,-0.0493 -0.5,-0.83003 z m 81.5,0 -8,-0.63324 8,-0.0714 c 4.4,-0.0393 12.275,0.25539 17.5,0.65486 l 9.5,0.72631 -9.5,-0.0216 c -5.225,-0.0119 -13.1,-0.30658 -17.5,-0.65486 z"
         id="path4229"
         inkscape:connector-curvature="0" />
      <path
         style="fill:#aaaaaa"
         d="m 290.27317,557.8156 -12.5,-4.21633 -16.11748,-20.15974 -16.11747,-20.15973 -0.73005,-9.29523 c -1.88577,-24.01051 -2.38388,-21.03468 7.51599,-44.90269 4.88021,-11.7659 9.67768,-21.98482 10.66106,-22.7087 5.47947,-4.03356 18.31603,-10.33877 21.78795,-10.70207 2.2,-0.2302 12.81058,-1.16966 23.57906,-2.08768 19.44685,-1.65786 19.66293,-1.65429 32,0.52882 6.83152,1.20887 13.42356,2.60661 14.64899,3.10608 2.37192,0.96676 18.27195,15.73313 18.27195,16.96916 0,0.40304 -3.40128,3.54624 -7.55839,6.98488 l -7.55839,6.25209 -24.19161,2.87247 c -13.30539,1.57985 -25.91364,2.87695 -28.01834,2.88243 l -3.82672,0.01 2.82672,2.3977 c 1.5547,1.31873 10.02673,11.64103 18.82673,22.93843 8.8,11.29741 16.24647,20.56844 16.54772,20.6023 0.30124,0.0339 3.40789,-7.92593 6.90366,-17.68843 12.3488,-34.48601 11.36137,-32.46899 18.86292,-38.53108 3.67713,-2.97153 7.20183,-5.69682 7.83266,-6.05619 0.71177,-0.40548 3.29699,3.03823 6.81338,9.07593 l 5.66641,9.72932 -1.12251,14.51601 c -1.09442,14.15272 -1.30923,15.06413 -8.5833,36.41753 l -7.46078,21.90153 -6.95947,8.26449 c -4.73579,5.62383 -7.84473,8.44556 -9.73008,8.83116 -12.11971,2.47882 -40.09509,6.58632 -44.42406,6.5226 -3.46805,-0.051 -9.73839,-1.5601 -17.84655,-4.29503 z m 9.72917,-95.23044 c -0.3323,-0.33229 -1.1948,-0.36781 -1.91667,-0.0789 -0.79773,0.31922 -0.56078,0.55618 0.60417,0.60416 1.05416,0.0434 1.64479,-0.19293 1.3125,-0.52522 z M 60.542206,305.49634 c 0.972967,-0.25354 2.322967,-0.23687 3,0.0371 0.677032,0.27393 -0.119032,0.48137 -1.769032,0.46099 -1.65,-0.0204 -2.203936,-0.2445 -1.230968,-0.49804 z m 124.994714,-0.0246 c 1.52006,-0.22986 3.77006,-0.22371 5,0.0137 1.22994,0.23736 -0.0137,0.42542 -2.76375,0.41792 -2.75,-0.008 -3.75631,-0.20172 -2.23625,-0.43157 z m 15.54875,0.0345 c 0.72187,-0.28887 1.58437,-0.25335 1.91667,0.0789 0.33229,0.33229 -0.25834,0.56864 -1.3125,0.52522 -1.16495,-0.048 -1.4019,-0.28494 -0.60417,-0.60416 z m 234.9152,-0.0386 c 1.77523,-0.22091 4.92523,-0.22454 7,-0.008 2.07476,0.21647 0.6223,0.39722 -3.2277,0.40166 -3.85,0.004 -5.54754,-0.17268 -3.7723,-0.3936 z m -367.458664,-0.9713 c 0.972967,-0.25354 2.322967,-0.23687 3,0.0371 0.677032,0.27393 -0.119032,0.48137 -1.769032,0.46099 -1.65,-0.0204 -2.203936,-0.2445 -1.230968,-0.49804 z m 104.980964,-0.0233 c 1.5125,-0.22913 3.9875,-0.22913 5.5,0 1.5125,0.22912 0.275,0.41659 -2.75,0.41659 -3.025,0 -4.2625,-0.18747 -2.75,-0.41659 z m 33.5625,0.0331 c 0.72187,-0.28887 1.58437,-0.25335 1.91667,0.0789 0.33229,0.3323 -0.25834,0.56864 -1.3125,0.52522 -1.16495,-0.048 -1.4019,-0.28494 -0.60417,-0.60416 z m 213.9375,-0.0403 c 1.7875,-0.22182 4.7125,-0.22182 6.5,0 1.7875,0.22183 0.325,0.40333 -3.25,0.40333 -3.575,0 -5.0375,-0.1815 -3.25,-0.40333 z"
         id="path4227"
         inkscape:connector-curvature="0" />
      <path
         style="fill:#a1a1a1"
         d="m 290.27317,557.8156 -12.5,-4.21633 -16.11748,-20.15974 -16.11747,-20.15973 -0.66935,-9.29523 c -0.36814,-5.11238 -0.94404,-11.9547 -1.27978,-15.20515 l -0.61044,-5.90992 12.36599,-11.78817 c 6.8013,-6.48349 13.39891,-12.34097 14.66137,-13.01661 1.925,-1.03023 4.7456,-0.67554 17.47991,2.19808 10.36024,2.33788 15.99512,4.10888 17.73589,5.57423 1.40325,1.18123 9.75136,11.39103 18.55136,22.68843 8.8,11.29741 16.24647,20.56844 16.54772,20.6023 0.30124,0.0339 3.40789,-7.92593 6.90366,-17.68843 12.3488,-34.48601 11.36137,-32.46899 18.86292,-38.53108 3.67713,-2.97153 7.20183,-5.69682 7.83266,-6.05619 0.71177,-0.40548 3.29699,3.03823 6.81338,9.07593 l 5.66641,9.72932 -1.12251,14.51601 c -1.09442,14.15272 -1.30923,15.06413 -8.5833,36.41753 l -7.46078,21.90153 -6.95947,8.26449 c -4.73579,5.62383 -7.84473,8.44556 -9.73008,8.83116 -12.11971,2.47882 -40.09509,6.58632 -44.42406,6.5226 -3.46805,-0.051 -9.73839,-1.5601 -17.84655,-4.29503 z M 60.542206,305.49634 c 0.972967,-0.25354 2.322967,-0.23687 3,0.0371 0.677032,0.27393 -0.119032,0.48137 -1.769032,0.46099 -1.65,-0.0204 -2.203936,-0.2445 -1.230968,-0.49804 z m 124.994714,-0.0246 c 1.52006,-0.22986 3.77006,-0.22371 5,0.0137 1.22994,0.23736 -0.0137,0.42542 -2.76375,0.41792 -2.75,-0.008 -3.75631,-0.20172 -2.23625,-0.43157 z m 15.54875,0.0345 c 0.72187,-0.28887 1.58437,-0.25335 1.91667,0.0789 0.33229,0.33229 -0.25834,0.56864 -1.3125,0.52522 -1.16495,-0.048 -1.4019,-0.28494 -0.60417,-0.60416 z m 234.9152,-0.0386 c 1.77523,-0.22091 4.92523,-0.22454 7,-0.008 2.07476,0.21647 0.6223,0.39722 -3.2277,0.40166 -3.85,0.004 -5.54754,-0.17268 -3.7723,-0.3936 z m -367.458664,-0.9713 c 0.972967,-0.25354 2.322967,-0.23687 3,0.0371 0.677032,0.27393 -0.119032,0.48137 -1.769032,0.46099 -1.65,-0.0204 -2.203936,-0.2445 -1.230968,-0.49804 z m 104.980964,-0.0233 c 1.5125,-0.22913 3.9875,-0.22913 5.5,0 1.5125,0.22912 0.275,0.41659 -2.75,0.41659 -3.025,0 -4.2625,-0.18747 -2.75,-0.41659 z m 33.5625,0.0331 c 0.72187,-0.28887 1.58437,-0.25335 1.91667,0.0789 0.33229,0.3323 -0.25834,0.56864 -1.3125,0.52522 -1.16495,-0.048 -1.4019,-0.28494 -0.60417,-0.60416 z m 213.9375,-0.0403 c 1.7875,-0.22182 4.7125,-0.22182 6.5,0 1.7875,0.22183 0.325,0.40333 -3.25,0.40333 -3.575,0 -5.0375,-0.1815 -3.25,-0.40333 z"
         id="path4225"
         inkscape:connector-curvature="0" />
      <path
         style="fill:#727272"
         d="m 290.27317,557.8156 -12.5,-4.21633 -16.11748,-20.15974 -16.11747,-20.15973 -0.66935,-9.29523 c -0.36814,-5.11238 -0.94404,-11.9547 -1.27978,-15.20515 l -0.61044,-5.90992 12.36599,-11.78817 c 6.8013,-6.48349 13.39891,-12.34097 14.66137,-13.01661 1.92474,-1.03009 4.75562,-0.67515 17.53127,2.19808 13.03998,2.93267 15.69793,3.85891 18.44169,6.42653 1.76319,1.65 10.20069,11.92309 18.75,22.82909 l 15.5442,19.82909 0,16.72978 c 0,11.89728 -0.36107,17.17383 -1.25,18.26704 -1.53509,1.88787 -21.895,14.58981 -26.40946,16.47607 -4.99322,2.08631 -8.74187,1.58211 -22.34054,-3.0048 z M 60.542206,305.49634 c 0.972967,-0.25354 2.322967,-0.23687 3,0.0371 0.677032,0.27393 -0.119032,0.48137 -1.769032,0.46099 -1.65,-0.0204 -2.203936,-0.2445 -1.230968,-0.49804 z m 124.994714,-0.0246 c 1.52006,-0.22986 3.77006,-0.22371 5,0.0137 1.22994,0.23736 -0.0137,0.42542 -2.76375,0.41792 -2.75,-0.008 -3.75631,-0.20172 -2.23625,-0.43157 z m 15.54875,0.0345 c 0.72187,-0.28887 1.58437,-0.25335 1.91667,0.0789 0.33229,0.33229 -0.25834,0.56864 -1.3125,0.52522 -1.16495,-0.048 -1.4019,-0.28494 -0.60417,-0.60416 z m 234.9152,-0.0386 c 1.77523,-0.22091 4.92523,-0.22454 7,-0.008 2.07476,0.21647 0.6223,0.39722 -3.2277,0.40166 -3.85,0.004 -5.54754,-0.17268 -3.7723,-0.3936 z m -367.458664,-0.9713 c 0.972967,-0.25354 2.322967,-0.23687 3,0.0371 0.677032,0.27393 -0.119032,0.48137 -1.769032,0.46099 -1.65,-0.0204 -2.203936,-0.2445 -1.230968,-0.49804 z m 104.980964,-0.0233 c 1.5125,-0.22913 3.9875,-0.22913 5.5,0 1.5125,0.22912 0.275,0.41659 -2.75,0.41659 -3.025,0 -4.2625,-0.18747 -2.75,-0.41659 z m 33.5625,0.0331 c 0.72187,-0.28887 1.58437,-0.25335 1.91667,0.0789 0.33229,0.3323 -0.25834,0.56864 -1.3125,0.52522 -1.16495,-0.048 -1.4019,-0.28494 -0.60417,-0.60416 z m 213.9375,-0.0403 c 1.7875,-0.22182 4.7125,-0.22182 6.5,0 1.7875,0.22183 0.325,0.40333 -3.25,0.40333 -3.575,0 -5.0375,-0.1815 -3.25,-0.40333 z"
         id="path4223"
         inkscape:connector-curvature="0" />
      <path
         style="fill:#545454"
         d="m 60.542206,305.49634 c 0.972967,-0.25354 2.322967,-0.23687 3,0.0371 0.677032,0.27393 -0.119032,0.48137 -1.769032,0.46099 -1.65,-0.0204 -2.203936,-0.2445 -1.230968,-0.49804 z m 124.994714,-0.0246 c 1.52006,-0.22986 3.77006,-0.22371 5,0.0137 1.22994,0.23736 -0.0137,0.42542 -2.76375,0.41792 -2.75,-0.008 -3.75631,-0.20172 -2.23625,-0.43157 z m 15.54875,0.0345 c 0.72187,-0.28887 1.58437,-0.25335 1.91667,0.0789 0.33229,0.33229 -0.25834,0.56864 -1.3125,0.52522 -1.16495,-0.048 -1.4019,-0.28494 -0.60417,-0.60416 z m 234.9152,-0.0386 c 1.77523,-0.22091 4.92523,-0.22454 7,-0.008 2.07476,0.21647 0.6223,0.39722 -3.2277,0.40166 -3.85,0.004 -5.54754,-0.17268 -3.7723,-0.3936 z m -367.458664,-0.9713 c 0.972967,-0.25354 2.322967,-0.23687 3,0.0371 0.677032,0.27393 -0.119032,0.48137 -1.769032,0.46099 -1.65,-0.0204 -2.203936,-0.2445 -1.230968,-0.49804 z m 104.980964,-0.0233 c 1.5125,-0.22913 3.9875,-0.22913 5.5,0 1.5125,0.22912 0.275,0.41659 -2.75,0.41659 -3.025,0 -4.2625,-0.18747 -2.75,-0.41659 z m 33.5625,0.0331 c 0.72187,-0.28887 1.58437,-0.25335 1.91667,0.0789 0.33229,0.3323 -0.25834,0.56864 -1.3125,0.52522 -1.16495,-0.048 -1.4019,-0.28494 -0.60417,-0.60416 z m 213.9375,-0.0403 c 1.7875,-0.22182 4.7125,-0.22182 6.5,0 1.7875,0.22183 0.325,0.40333 -3.25,0.40333 -3.575,0 -5.0375,-0.1815 -3.25,-0.40333 z"
         id="path4221"
         inkscape:connector-curvature="0" />
    </g>
  </g>
</svg>
