<?xml version="1.0" encoding="utf-8"?>
<!-- Generator: Adobe Illustrator 15.1.0, SVG Export Plug-In . SVG Version: 6.00 Build 0)  -->
<!DOCTYPE svg PUBLIC "-//W3C//DTD SVG 1.1//EN" "http://www.w3.org/Graphics/SVG/1.1/DTD/svg11.dtd">
<svg version="1.1" id="Layer_1" xmlns="http://www.w3.org/2000/svg" xmlns:xlink="http://www.w3.org/1999/xlink" x="0px" y="0px"
	 width="82px" height="93.001px" viewBox="164.5 72.5 82 93.001" enable-background="new 164.5 72.5 82 93.001"
	 xml:space="preserve">
<title>QR Code</title>
<desc>https://github.com/LafeLabs/</desc>
<rect x="89.338" y="89.338" fill="#FFFFFF" width="71.325" height="71.325"/>
<g id="elements">
	<path d="M89.338,89.338h2.854v2.854h-2.854V89.338z M92.192,89.338h2.853v2.854h-2.853V89.338z M95.044,89.338h2.853v2.854h-2.853
		V89.338z M97.897,89.338h2.853v2.854h-2.853V89.338z M100.75,89.338h2.853v2.854h-2.853V89.338z M103.603,89.338h2.854v2.854
		h-2.854V89.338z M106.457,89.338h2.852v2.854h-2.852V89.338z M115.015,89.338h2.853v2.854h-2.853V89.338z M126.428,89.338h2.852
		v2.854h-2.852V89.338z M134.984,89.338h2.854v2.854h-2.854V89.338z M140.691,89.338h2.852v2.854h-2.852V89.338z M143.543,89.338
		h2.854v2.854h-2.854V89.338z M146.396,89.338h2.854v2.854h-2.854V89.338z M149.25,89.338h2.854v2.854h-2.854V89.338z
		 M152.104,89.338h2.854v2.854h-2.854V89.338z M154.957,89.338h2.854v2.854h-2.854V89.338z M157.811,89.338h2.854v2.854h-2.854
		V89.338z M89.338,92.192h2.854v2.853h-2.854V92.192z M106.457,92.192h2.852v2.853h-2.852V92.192z M112.162,92.192h2.853v2.853
		h-2.853V92.192z M115.015,92.192h2.853v2.853h-2.853V92.192z M120.721,92.192h2.853v2.853h-2.853V92.192z M123.574,92.192h2.854
		v2.853h-2.854V92.192z M129.279,92.192h2.854v2.853h-2.854V92.192z M132.133,92.192h2.854v2.853h-2.854V92.192z M134.984,92.192
		h2.854v2.853h-2.854V92.192z M140.691,92.192h2.852v2.853h-2.852V92.192z M157.811,92.192h2.854v2.853h-2.854V92.192z
		 M89.338,95.044h2.854v2.853h-2.854V95.044z M95.044,95.044h2.853v2.853h-2.853V95.044z M97.897,95.044h2.853v2.853h-2.853V95.044z
		 M100.75,95.044h2.853v2.853h-2.853V95.044z M106.457,95.044h2.852v2.853h-2.852V95.044z M115.015,95.044h2.853v2.853h-2.853
		V95.044z M117.868,95.044h2.853v2.853h-2.853V95.044z M120.721,95.044h2.853v2.853h-2.853V95.044z M129.279,95.044h2.854v2.853
		h-2.854V95.044z M134.984,95.044h2.854v2.853h-2.854V95.044z M140.691,95.044h2.852v2.853h-2.852V95.044z M146.396,95.044h2.854
		v2.853h-2.854V95.044z M149.25,95.044h2.854v2.853h-2.854V95.044z M152.104,95.044h2.854v2.853h-2.854V95.044z M157.811,95.044
		h2.854v2.853h-2.854V95.044z M89.338,97.897h2.854v2.853h-2.854V97.897z M95.044,97.897h2.853v2.853h-2.853V97.897z M97.897,97.897
		h2.853v2.853h-2.853V97.897z M100.75,97.897h2.853v2.853h-2.853V97.897z M106.457,97.897h2.852v2.853h-2.852V97.897z
		 M112.162,97.897h2.853v2.853h-2.853V97.897z M115.015,97.897h2.853v2.853h-2.853V97.897z M120.721,97.897h2.853v2.853h-2.853
		V97.897z M123.574,97.897h2.854v2.853h-2.854V97.897z M126.428,97.897h2.852v2.853h-2.852V97.897z M140.691,97.897h2.852v2.853
		h-2.852V97.897z M146.396,97.897h2.854v2.853h-2.854V97.897z M149.25,97.897h2.854v2.853h-2.854V97.897z M152.104,97.897h2.854
		v2.853h-2.854V97.897z M157.811,97.897h2.854v2.853h-2.854V97.897z M89.338,100.75h2.854v2.853h-2.854V100.75z M95.044,100.75
		h2.853v2.853h-2.853V100.75z M97.897,100.75h2.853v2.853h-2.853V100.75z M100.75,100.75h2.853v2.853h-2.853V100.75z
		 M106.457,100.75h2.852v2.853h-2.852V100.75z M117.868,100.75h2.853v2.853h-2.853V100.75z M123.574,100.75h2.854v2.853h-2.854
		V100.75z M126.428,100.75h2.852v2.853h-2.852V100.75z M134.984,100.75h2.854v2.853h-2.854V100.75z M140.691,100.75h2.852v2.853
		h-2.852V100.75z M146.396,100.75h2.854v2.853h-2.854V100.75z M149.25,100.75h2.854v2.853h-2.854V100.75z M152.104,100.75h2.854
		v2.853h-2.854V100.75z M157.811,100.75h2.854v2.853h-2.854V100.75z M89.338,103.603h2.854v2.854h-2.854V103.603z M106.457,103.603
		h2.852v2.854h-2.852V103.603z M112.162,103.603h2.853v2.854h-2.853V103.603z M117.868,103.603h2.853v2.854h-2.853V103.603z
		 M126.428,103.603h2.852v2.854h-2.852V103.603z M129.279,103.603h2.854v2.854h-2.854V103.603z M132.133,103.603h2.854v2.854h-2.854
		V103.603z M134.984,103.603h2.854v2.854h-2.854V103.603z M140.691,103.603h2.852v2.854h-2.852V103.603z M157.811,103.603h2.854
		v2.854h-2.854V103.603z M89.338,106.457h2.854v2.852h-2.854V106.457z M92.192,106.457h2.853v2.852h-2.853V106.457z M95.044,106.457
		h2.853v2.852h-2.853V106.457z M97.897,106.457h2.853v2.852h-2.853V106.457z M100.75,106.457h2.853v2.852h-2.853V106.457z
		 M103.603,106.457h2.854v2.852h-2.854V106.457z M106.457,106.457h2.852v2.852h-2.852V106.457z M112.162,106.457h2.853v2.852h-2.853
		V106.457z M117.868,106.457h2.853v2.852h-2.853V106.457z M123.574,106.457h2.854v2.852h-2.854V106.457z M129.279,106.457h2.854
		v2.852h-2.854V106.457z M134.984,106.457h2.854v2.852h-2.854V106.457z M140.691,106.457h2.852v2.852h-2.852V106.457z
		 M143.543,106.457h2.854v2.852h-2.854V106.457z M146.396,106.457h2.854v2.852h-2.854V106.457z M149.25,106.457h2.854v2.852h-2.854
		V106.457z M152.104,106.457h2.854v2.852h-2.854V106.457z M154.957,106.457h2.854v2.852h-2.854V106.457z M157.811,106.457h2.854
		v2.852h-2.854V106.457z M120.721,109.309h2.853v2.853h-2.853V109.309z M129.279,109.309h2.854v2.853h-2.854V109.309z
		 M89.338,112.162h2.854v2.853h-2.854V112.162z M92.192,112.162h2.853v2.853h-2.853V112.162z M95.044,112.162h2.853v2.853h-2.853
		V112.162z M97.897,112.162h2.853v2.853h-2.853V112.162z M100.75,112.162h2.853v2.853h-2.853V112.162z M106.457,112.162h2.852v2.853
		h-2.852V112.162z M109.309,112.162h2.853v2.853h-2.853V112.162z M112.162,112.162h2.853v2.853h-2.853V112.162z M115.015,112.162
		h2.853v2.853h-2.853V112.162z M117.868,112.162h2.853v2.853h-2.853V112.162z M120.721,112.162h2.853v2.853h-2.853V112.162z
		 M123.574,112.162h2.854v2.853h-2.854V112.162z M129.279,112.162h2.854v2.853h-2.854V112.162z M132.133,112.162h2.854v2.853h-2.854
		V112.162z M137.84,112.162h2.852v2.853h-2.852V112.162z M143.543,112.162h2.854v2.853h-2.854V112.162z M149.25,112.162h2.854v2.853
		h-2.854V112.162z M154.957,112.162h2.854v2.853h-2.854V112.162z M92.192,115.015h2.853v2.853h-2.853V115.015z M112.162,115.015
		h2.853v2.853h-2.853V115.015z M115.015,115.015h2.853v2.853h-2.853V115.015z M120.721,115.015h2.853v2.853h-2.853V115.015z
		 M123.574,115.015h2.854v2.853h-2.854V115.015z M126.428,115.015h2.852v2.853h-2.852V115.015z M134.984,115.015h2.854v2.853h-2.854
		V115.015z M143.543,115.015h2.854v2.853h-2.854V115.015z M154.957,115.015h2.854v2.853h-2.854V115.015z M92.192,117.868h2.853
		v2.853h-2.853V117.868z M95.044,117.868h2.853v2.853h-2.853V117.868z M97.897,117.868h2.853v2.853h-2.853V117.868z
		 M106.457,117.868h2.852v2.853h-2.852V117.868z M109.309,117.868h2.853v2.853h-2.853V117.868z M115.015,117.868h2.853v2.853h-2.853
		V117.868z M129.279,117.868h2.854v2.853h-2.854V117.868z M132.133,117.868h2.854v2.853h-2.854V117.868z M143.543,117.868h2.854
		v2.853h-2.854V117.868z M146.396,117.868h2.854v2.853h-2.854V117.868z M149.25,117.868h2.854v2.853h-2.854V117.868z
		 M154.957,117.868h2.854v2.853h-2.854V117.868z M157.811,117.868h2.854v2.853h-2.854V117.868z M89.338,120.721h2.854v2.853h-2.854
		V120.721z M92.192,120.721h2.853v2.853h-2.853V120.721z M97.897,120.721h2.853v2.853h-2.853V120.721z M100.75,120.721h2.853v2.853
		h-2.853V120.721z M103.603,120.721h2.854v2.853h-2.854V120.721z M109.309,120.721h2.853v2.853h-2.853V120.721z M112.162,120.721
		h2.853v2.853h-2.853V120.721z M115.015,120.721h2.853v2.853h-2.853V120.721z M117.868,120.721h2.853v2.853h-2.853V120.721z
		 M120.721,120.721h2.853v2.853h-2.853V120.721z M123.574,120.721h2.854v2.853h-2.854V120.721z M134.984,120.721h2.854v2.853h-2.854
		V120.721z M137.84,120.721h2.852v2.853h-2.852V120.721z M140.691,120.721h2.852v2.853h-2.852V120.721z M143.543,120.721h2.854
		v2.853h-2.854V120.721z M157.811,120.721h2.854v2.853h-2.854V120.721z M92.192,123.574h2.853v2.854h-2.853V123.574z
		 M95.044,123.574h2.853v2.854h-2.853V123.574z M97.897,123.574h2.853v2.854h-2.853V123.574z M103.603,123.574h2.854v2.854h-2.854
		V123.574z M106.457,123.574h2.852v2.854h-2.852V123.574z M115.015,123.574h2.853v2.854h-2.853V123.574z M126.428,123.574h2.852
		v2.854h-2.852V123.574z M129.279,123.574h2.854v2.854h-2.854V123.574z M137.84,123.574h2.852v2.854h-2.852V123.574z
		 M140.691,123.574h2.852v2.854h-2.852V123.574z M146.396,123.574h2.854v2.854h-2.854V123.574z M152.104,123.574h2.854v2.854h-2.854
		V123.574z M154.957,123.574h2.854v2.854h-2.854V123.574z M157.811,123.574h2.854v2.854h-2.854V123.574z M89.338,126.428h2.854
		v2.853h-2.854V126.428z M92.192,126.428h2.853v2.853h-2.853V126.428z M112.162,126.428h2.853v2.853h-2.853V126.428z
		 M115.015,126.428h2.853v2.853h-2.853V126.428z M117.868,126.428h2.853v2.853h-2.853V126.428z M120.721,126.428h2.853v2.853h-2.853
		V126.428z M137.84,126.428h2.852v2.853h-2.852V126.428z M143.543,126.428h2.854v2.853h-2.854V126.428z M149.25,126.428h2.854v2.853
		h-2.854V126.428z M154.957,126.428h2.854v2.853h-2.854V126.428z M89.338,129.279h2.854v2.854h-2.854V129.279z M97.897,129.279
		h2.853v2.854h-2.853V129.279z M100.75,129.279h2.853v2.854h-2.853V129.279z M106.457,129.279h2.852v2.854h-2.852V129.279z
		 M109.309,129.279h2.853v2.854h-2.853V129.279z M115.015,129.279h2.853v2.854h-2.853V129.279z M117.868,129.279h2.853v2.854h-2.853
		V129.279z M123.574,129.279h2.854v2.854h-2.854V129.279z M132.133,129.279h2.854v2.854h-2.854V129.279z M137.84,129.279h2.852
		v2.854h-2.852V129.279z M140.691,129.279h2.852v2.854h-2.852V129.279z M143.543,129.279h2.854v2.854h-2.854V129.279z
		 M146.396,129.279h2.854v2.854h-2.854V129.279z M149.25,129.279h2.854v2.854h-2.854V129.279z M154.957,129.279h2.854v2.854h-2.854
		V129.279z M157.811,129.279h2.854v2.854h-2.854V129.279z M89.338,132.133h2.854v2.854h-2.854V132.133z M95.044,132.133h2.853v2.854
		h-2.853V132.133z M97.897,132.133h2.853v2.854h-2.853V132.133z M109.309,132.133h2.853v2.854h-2.853V132.133z M112.162,132.133
		h2.853v2.854h-2.853V132.133z M117.868,132.133h2.853v2.854h-2.853V132.133z M120.721,132.133h2.853v2.854h-2.853V132.133z
		 M123.574,132.133h2.854v2.854h-2.854V132.133z M129.279,132.133h2.854v2.854h-2.854V132.133z M140.691,132.133h2.852v2.854h-2.852
		V132.133z M143.543,132.133h2.854v2.854h-2.854V132.133z M146.396,132.133h2.854v2.854h-2.854V132.133z M157.811,132.133h2.854
		v2.854h-2.854V132.133z M89.338,134.984h2.854v2.854h-2.854V134.984z M95.044,134.984h2.853v2.854h-2.853V134.984z M97.897,134.984
		h2.853v2.854h-2.853V134.984z M103.603,134.984h2.854v2.854h-2.854V134.984z M106.457,134.984h2.852v2.854h-2.852V134.984z
		 M109.309,134.984h2.853v2.854h-2.853V134.984z M115.015,134.984h2.853v2.854h-2.853V134.984z M123.574,134.984h2.854v2.854h-2.854
		V134.984z M126.428,134.984h2.852v2.854h-2.852V134.984z M129.279,134.984h2.854v2.854h-2.854V134.984z M132.133,134.984h2.854
		v2.854h-2.854V134.984z M134.984,134.984h2.854v2.854h-2.854V134.984z M137.84,134.984h2.852v2.854h-2.852V134.984z
		 M140.691,134.984h2.852v2.854h-2.852V134.984z M143.543,134.984h2.854v2.854h-2.854V134.984z M146.396,134.984h2.854v2.854h-2.854
		V134.984z M152.104,134.984h2.854v2.854h-2.854V134.984z M112.162,137.84h2.853v2.852h-2.853V137.84z M120.721,137.84h2.853v2.852
		h-2.853V137.84z M132.133,137.84h2.854v2.852h-2.854V137.84z M134.984,137.84h2.854v2.852h-2.854V137.84z M146.396,137.84h2.854
		v2.852h-2.854V137.84z M149.25,137.84h2.854v2.852h-2.854V137.84z M89.338,140.691h2.854v2.852h-2.854V140.691z M92.192,140.691
		h2.853v2.852h-2.853V140.691z M95.044,140.691h2.853v2.852h-2.853V140.691z M97.897,140.691h2.853v2.852h-2.853V140.691z
		 M100.75,140.691h2.853v2.852h-2.853V140.691z M103.603,140.691h2.854v2.852h-2.854V140.691z M106.457,140.691h2.852v2.852h-2.852
		V140.691z M112.162,140.691h2.853v2.852h-2.853V140.691z M115.015,140.691h2.853v2.852h-2.853V140.691z M117.868,140.691h2.853
		v2.852h-2.853V140.691z M126.428,140.691h2.852v2.852h-2.852V140.691z M129.279,140.691h2.854v2.852h-2.854V140.691z
		 M134.984,140.691h2.854v2.852h-2.854V140.691z M140.691,140.691h2.852v2.852h-2.852V140.691z M146.396,140.691h2.854v2.852h-2.854
		V140.691z M152.104,140.691h2.854v2.852h-2.854V140.691z M154.957,140.691h2.854v2.852h-2.854V140.691z M157.811,140.691h2.854
		v2.852h-2.854V140.691z M89.338,143.543h2.854v2.854h-2.854V143.543z M106.457,143.543h2.852v2.854h-2.852V143.543z
		 M115.015,143.543h2.853v2.854h-2.853V143.543z M117.868,143.543h2.853v2.854h-2.853V143.543z M123.574,143.543h2.854v2.854h-2.854
		V143.543z M134.984,143.543h2.854v2.854h-2.854V143.543z M146.396,143.543h2.854v2.854h-2.854V143.543z M149.25,143.543h2.854
		v2.854h-2.854V143.543z M157.811,143.543h2.854v2.854h-2.854V143.543z M89.338,146.396h2.854v2.854h-2.854V146.396z
		 M95.044,146.396h2.853v2.854h-2.853V146.396z M97.897,146.396h2.853v2.854h-2.853V146.396z M100.75,146.396h2.853v2.854h-2.853
		V146.396z M106.457,146.396h2.852v2.854h-2.852V146.396z M112.162,146.396h2.853v2.854h-2.853V146.396z M123.574,146.396h2.854
		v2.854h-2.854V146.396z M126.428,146.396h2.852v2.854h-2.852V146.396z M129.279,146.396h2.854v2.854h-2.854V146.396z
		 M132.133,146.396h2.854v2.854h-2.854V146.396z M134.984,146.396h2.854v2.854h-2.854V146.396z M137.84,146.396h2.852v2.854h-2.852
		V146.396z M140.691,146.396h2.852v2.854h-2.852V146.396z M143.543,146.396h2.854v2.854h-2.854V146.396z M146.396,146.396h2.854
		v2.854h-2.854V146.396z M152.104,146.396h2.854v2.854h-2.854V146.396z M154.957,146.396h2.854v2.854h-2.854V146.396z
		 M89.338,149.25h2.854v2.854h-2.854V149.25z M95.044,149.25h2.853v2.854h-2.853V149.25z M97.897,149.25h2.853v2.854h-2.853V149.25z
		 M100.75,149.25h2.853v2.854h-2.853V149.25z M106.457,149.25h2.852v2.854h-2.852V149.25z M112.162,149.25h2.853v2.854h-2.853
		V149.25z M117.868,149.25h2.853v2.854h-2.853V149.25z M120.721,149.25h2.853v2.854h-2.853V149.25z M137.84,149.25h2.852v2.854
		h-2.852V149.25z M140.691,149.25h2.852v2.854h-2.852V149.25z M146.396,149.25h2.854v2.854h-2.854V149.25z M149.25,149.25h2.854
		v2.854h-2.854V149.25z M152.104,149.25h2.854v2.854h-2.854V149.25z M154.957,149.25h2.854v2.854h-2.854V149.25z M157.811,149.25
		h2.854v2.854h-2.854V149.25z M89.338,152.104h2.854v2.854h-2.854V152.104z M95.044,152.104h2.853v2.854h-2.853V152.104z
		 M97.897,152.104h2.853v2.854h-2.853V152.104z M100.75,152.104h2.853v2.854h-2.853V152.104z M106.457,152.104h2.852v2.854h-2.852
		V152.104z M112.162,152.104h2.853v2.854h-2.853V152.104z M117.868,152.104h2.853v2.854h-2.853V152.104z M123.574,152.104h2.854
		v2.854h-2.854V152.104z M129.279,152.104h2.854v2.854h-2.854V152.104z M149.25,152.104h2.854v2.854h-2.854V152.104z
		 M152.104,152.104h2.854v2.854h-2.854V152.104z M157.811,152.104h2.854v2.854h-2.854V152.104z M89.338,154.957h2.854v2.854h-2.854
		V154.957z M106.457,154.957h2.852v2.854h-2.852V154.957z M112.162,154.957h2.853v2.854h-2.853V154.957z M117.868,154.957h2.853
		v2.854h-2.853V154.957z M129.279,154.957h2.854v2.854h-2.854V154.957z M134.984,154.957h2.854v2.854h-2.854V154.957z
		 M143.543,154.957h2.854v2.854h-2.854V154.957z M146.396,154.957h2.854v2.854h-2.854V154.957z M149.25,154.957h2.854v2.854h-2.854
		V154.957z M157.811,154.957h2.854v2.854h-2.854V154.957z M89.338,157.811h2.854v2.854h-2.854V157.811z M92.192,157.811h2.853v2.854
		h-2.853V157.811z M95.044,157.811h2.853v2.854h-2.853V157.811z M97.897,157.811h2.853v2.854h-2.853V157.811z M100.75,157.811h2.853
		v2.854h-2.853V157.811z M103.603,157.811h2.854v2.854h-2.854V157.811z M106.457,157.811h2.852v2.854h-2.852V157.811z
		 M112.162,157.811h2.853v2.854h-2.853V157.811z M115.015,157.811h2.853v2.854h-2.853V157.811z M117.868,157.811h2.853v2.854h-2.853
		V157.811z M120.721,157.811h2.853v2.854h-2.853V157.811z M123.574,157.811h2.854v2.854h-2.854V157.811z M129.279,157.811h2.854
		v2.854h-2.854V157.811z M140.691,157.811h2.852v2.854h-2.852V157.811z M143.543,157.811h2.854v2.854h-2.854V157.811z
		 M146.396,157.811h2.854v2.854h-2.854V157.811z M149.25,157.811h2.854v2.854h-2.854V157.811z M152.104,157.811h2.854v2.854h-2.854
		V157.811z M154.957,157.811h2.854v2.854h-2.854V157.811z M157.811,157.811h2.854v2.854h-2.854V157.811z"/>
</g>
<rect x="169.853" y="89.338" fill="#FFFFFF" width="71.325" height="71.325"/>
<g id="elements_1_">
	<path d="M241.178,92.192h-2.854v-2.854h2.854V92.192z M238.324,92.192h-2.854v-2.854h2.854V92.192z M235.472,92.192h-2.853v-2.854
		h2.853V92.192z M232.619,92.192h-2.854v-2.854h2.854V92.192z M229.766,92.192h-2.854v-2.854h2.854V92.192z M226.912,92.192h-2.854
		v-2.854h2.854V92.192z M224.059,92.192h-2.852v-2.854h2.852V92.192z M215.5,92.192h-2.853v-2.854h2.853V92.192z M204.088,92.192
		h-2.852v-2.854h2.852V92.192z M195.531,92.192h-2.854v-2.854h2.854V92.192z M189.824,92.192h-2.852v-2.854h2.852V92.192z
		 M186.973,92.192h-2.854v-2.854h2.854V92.192z M184.119,92.192h-2.854v-2.854h2.854V92.192z M181.266,92.192h-2.854v-2.854h2.854
		V92.192z M178.412,92.192h-2.854v-2.854h2.854V92.192z M175.559,92.192h-2.854v-2.854h2.854V92.192z M172.705,92.192h-2.854v-2.854
		h2.854V92.192z M241.178,95.045h-2.854v-2.853h2.854V95.045z M224.059,95.045h-2.852v-2.853h2.852V95.045z M218.354,95.045H215.5
		v-2.853h2.854V95.045z M215.5,95.045h-2.853v-2.853h2.853V95.045z M209.795,95.045h-2.854v-2.853h2.854V95.045z M206.941,95.045
		h-2.854v-2.853h2.854V95.045z M201.236,95.045h-2.854v-2.853h2.854V95.045z M198.383,95.045h-2.854v-2.853h2.854V95.045z
		 M195.531,95.045h-2.854v-2.853h2.854V95.045z M189.824,95.045h-2.852v-2.853h2.852V95.045z M172.705,95.045h-2.854v-2.853h2.854
		V95.045z M241.178,97.897h-2.854v-2.853h2.854V97.897z M235.472,97.897h-2.853v-2.853h2.853V97.897z M232.619,97.897h-2.854v-2.853
		h2.854V97.897z M229.766,97.897h-2.854v-2.853h2.854V97.897z M224.059,97.897h-2.852v-2.853h2.852V97.897z M215.5,97.897h-2.853
		v-2.853h2.853V97.897z M212.647,97.897h-2.853v-2.853h2.853V97.897z M209.795,97.897h-2.854v-2.853h2.854V97.897z M201.236,97.897
		h-2.854v-2.853h2.854V97.897z M195.531,97.897h-2.854v-2.853h2.854V97.897z M189.824,97.897h-2.852v-2.853h2.852V97.897z
		 M184.119,97.897h-2.854v-2.853h2.854V97.897z M181.266,97.897h-2.854v-2.853h2.854V97.897z M178.412,97.897h-2.854v-2.853h2.854
		V97.897z M172.705,97.897h-2.854v-2.853h2.854V97.897z M241.178,100.75h-2.854v-2.853h2.854V100.75z M235.472,100.75h-2.853v-2.853
		h2.853V100.75z M232.619,100.75h-2.854v-2.853h2.854V100.75z M229.766,100.75h-2.854v-2.853h2.854V100.75z M224.059,100.75h-2.852
		v-2.853h2.852V100.75z M218.354,100.75H215.5v-2.853h2.854V100.75z M215.5,100.75h-2.853v-2.853h2.853V100.75z M209.795,100.75
		h-2.854v-2.853h2.854V100.75z M206.941,100.75h-2.854v-2.853h2.854V100.75z M204.088,100.75h-2.852v-2.853h2.852V100.75z
		 M189.824,100.75h-2.852v-2.853h2.852V100.75z M184.119,100.75h-2.854v-2.853h2.854V100.75z M181.266,100.75h-2.854v-2.853h2.854
		V100.75z M178.412,100.75h-2.854v-2.853h2.854V100.75z M172.705,100.75h-2.854v-2.853h2.854V100.75z M241.178,103.603h-2.854
		v-2.853h2.854V103.603z M235.472,103.603h-2.853v-2.853h2.853V103.603z M232.619,103.603h-2.854v-2.853h2.854V103.603z
		 M229.766,103.603h-2.854v-2.853h2.854V103.603z M224.059,103.603h-2.852v-2.853h2.852V103.603z M212.647,103.603h-2.853v-2.853
		h2.853V103.603z M206.941,103.603h-2.854v-2.853h2.854V103.603z M204.088,103.603h-2.852v-2.853h2.852V103.603z M195.531,103.603
		h-2.854v-2.853h2.854V103.603z M189.824,103.603h-2.852v-2.853h2.852V103.603z M184.119,103.603h-2.854v-2.853h2.854V103.603z
		 M181.266,103.603h-2.854v-2.853h2.854V103.603z M178.412,103.603h-2.854v-2.853h2.854V103.603z M172.705,103.603h-2.854v-2.853
		h2.854V103.603z M241.178,106.457h-2.854v-2.854h2.854V106.457z M224.059,106.457h-2.852v-2.854h2.852V106.457z M218.354,106.457
		H215.5v-2.854h2.854V106.457z M212.647,106.457h-2.853v-2.854h2.853V106.457z M204.088,106.457h-2.852v-2.854h2.852V106.457z
		 M201.236,106.457h-2.854v-2.854h2.854V106.457z M198.383,106.457h-2.854v-2.854h2.854V106.457z M195.531,106.457h-2.854v-2.854
		h2.854V106.457z M189.824,106.457h-2.852v-2.854h2.852V106.457z M172.705,106.457h-2.854v-2.854h2.854V106.457z M241.178,109.309
		h-2.854v-2.852h2.854V109.309z M238.324,109.309h-2.854v-2.852h2.854V109.309z M235.472,109.309h-2.853v-2.852h2.853V109.309z
		 M232.619,109.309h-2.854v-2.852h2.854V109.309z M229.766,109.309h-2.854v-2.852h2.854V109.309z M226.912,109.309h-2.854v-2.852
		h2.854V109.309z M224.059,109.309h-2.852v-2.852h2.852V109.309z M218.354,109.309H215.5v-2.852h2.854V109.309z M212.647,109.309
		h-2.853v-2.852h2.853V109.309z M206.941,109.309h-2.854v-2.852h2.854V109.309z M201.236,109.309h-2.854v-2.852h2.854V109.309z
		 M195.531,109.309h-2.854v-2.852h2.854V109.309z M189.824,109.309h-2.852v-2.852h2.852V109.309z M186.973,109.309h-2.854v-2.852
		h2.854V109.309z M184.119,109.309h-2.854v-2.852h2.854V109.309z M181.266,109.309h-2.854v-2.852h2.854V109.309z M178.412,109.309
		h-2.854v-2.852h2.854V109.309z M175.559,109.309h-2.854v-2.852h2.854V109.309z M172.705,109.309h-2.854v-2.852h2.854V109.309z
		 M209.795,112.162h-2.854v-2.853h2.854V112.162z M201.236,112.162h-2.854v-2.853h2.854V112.162z M241.178,115.015h-2.854v-2.853
		h2.854V115.015z M238.324,115.015h-2.854v-2.853h2.854V115.015z M235.472,115.015h-2.853v-2.853h2.853V115.015z M232.619,115.015
		h-2.854v-2.853h2.854V115.015z M229.766,115.015h-2.854v-2.853h2.854V115.015z M224.059,115.015h-2.852v-2.853h2.852V115.015z
		 M221.207,115.015h-2.854v-2.853h2.854V115.015z M218.354,115.015H215.5v-2.853h2.854V115.015z M215.5,115.015h-2.853v-2.853h2.853
		V115.015z M212.647,115.015h-2.853v-2.853h2.853V115.015z M209.795,115.015h-2.854v-2.853h2.854V115.015z M206.941,115.015h-2.854
		v-2.853h2.854V115.015z M201.236,115.015h-2.854v-2.853h2.854V115.015z M198.383,115.015h-2.854v-2.853h2.854V115.015z
		 M192.676,115.015h-2.852v-2.853h2.852V115.015z M186.973,115.015h-2.854v-2.853h2.854V115.015z M181.266,115.015h-2.854v-2.853
		h2.854V115.015z M175.559,115.015h-2.854v-2.853h2.854V115.015z M238.324,117.868h-2.854v-2.853h2.854V117.868z M218.354,117.868
		H215.5v-2.853h2.854V117.868z M215.5,117.868h-2.853v-2.853h2.853V117.868z M209.795,117.868h-2.854v-2.853h2.854V117.868z
		 M206.941,117.868h-2.854v-2.853h2.854V117.868z M204.088,117.868h-2.852v-2.853h2.852V117.868z M195.531,117.868h-2.854v-2.853
		h2.854V117.868z M186.973,117.868h-2.854v-2.853h2.854V117.868z M175.559,117.868h-2.854v-2.853h2.854V117.868z M238.324,120.721
		h-2.854v-2.853h2.854V120.721z M235.472,120.721h-2.853v-2.853h2.853V120.721z M232.619,120.721h-2.854v-2.853h2.854V120.721z
		 M224.059,120.721h-2.852v-2.853h2.852V120.721z M221.207,120.721h-2.854v-2.853h2.854V120.721z M215.5,120.721h-2.853v-2.853
		h2.853V120.721z M201.236,120.721h-2.854v-2.853h2.854V120.721z M198.383,120.721h-2.854v-2.853h2.854V120.721z M186.973,120.721
		h-2.854v-2.853h2.854V120.721z M184.119,120.721h-2.854v-2.853h2.854V120.721z M181.266,120.721h-2.854v-2.853h2.854V120.721z
		 M175.559,120.721h-2.854v-2.853h2.854V120.721z M172.705,120.721h-2.854v-2.853h2.854V120.721z M241.178,123.574h-2.854v-2.853
		h2.854V123.574z M238.324,123.574h-2.854v-2.853h2.854V123.574z M232.619,123.574h-2.854v-2.853h2.854V123.574z M229.766,123.574
		h-2.854v-2.853h2.854V123.574z M226.912,123.574h-2.854v-2.853h2.854V123.574z M221.207,123.574h-2.854v-2.853h2.854V123.574z
		 M218.354,123.574H215.5v-2.853h2.854V123.574z M215.5,123.574h-2.853v-2.853h2.853V123.574z M212.647,123.574h-2.853v-2.853h2.853
		V123.574z M209.795,123.574h-2.854v-2.853h2.854V123.574z M206.941,123.574h-2.854v-2.853h2.854V123.574z M195.531,123.574h-2.854
		v-2.853h2.854V123.574z M192.676,123.574h-2.852v-2.853h2.852V123.574z M189.824,123.574h-2.852v-2.853h2.852V123.574z
		 M186.973,123.574h-2.854v-2.853h2.854V123.574z M172.705,123.574h-2.854v-2.853h2.854V123.574z M238.324,126.428h-2.854v-2.854
		h2.854V126.428z M235.472,126.428h-2.853v-2.854h2.853V126.428z M232.619,126.428h-2.854v-2.854h2.854V126.428z M226.912,126.428
		h-2.854v-2.854h2.854V126.428z M224.059,126.428h-2.852v-2.854h2.852V126.428z M215.5,126.428h-2.853v-2.854h2.853V126.428z
		 M204.088,126.428h-2.852v-2.854h2.852V126.428z M201.236,126.428h-2.854v-2.854h2.854V126.428z M192.676,126.428h-2.852v-2.854
		h2.852V126.428z M189.824,126.428h-2.852v-2.854h2.852V126.428z M184.119,126.428h-2.854v-2.854h2.854V126.428z M178.412,126.428
		h-2.854v-2.854h2.854V126.428z M175.559,126.428h-2.854v-2.854h2.854V126.428z M172.705,126.428h-2.854v-2.854h2.854V126.428z
		 M241.178,129.28h-2.854v-2.853h2.854V129.28z M238.324,129.28h-2.854v-2.853h2.854V129.28z M218.354,129.28H215.5v-2.853h2.854
		V129.28z M215.5,129.28h-2.853v-2.853h2.853V129.28z M212.647,129.28h-2.853v-2.853h2.853V129.28z M209.795,129.28h-2.854v-2.853
		h2.854V129.28z M192.676,129.28h-2.852v-2.853h2.852V129.28z M186.973,129.28h-2.854v-2.853h2.854V129.28z M181.266,129.28h-2.854
		v-2.853h2.854V129.28z M175.559,129.28h-2.854v-2.853h2.854V129.28z M241.178,132.133h-2.854v-2.854h2.854V132.133z
		 M232.619,132.133h-2.854v-2.854h2.854V132.133z M229.766,132.133h-2.854v-2.854h2.854V132.133z M224.059,132.133h-2.852v-2.854
		h2.852V132.133z M221.207,132.133h-2.854v-2.854h2.854V132.133z M215.5,132.133h-2.853v-2.854h2.853V132.133z M212.647,132.133
		h-2.853v-2.854h2.853V132.133z M206.941,132.133h-2.854v-2.854h2.854V132.133z M198.383,132.133h-2.854v-2.854h2.854V132.133z
		 M192.676,132.133h-2.852v-2.854h2.852V132.133z M189.824,132.133h-2.852v-2.854h2.852V132.133z M186.973,132.133h-2.854v-2.854
		h2.854V132.133z M184.119,132.133h-2.854v-2.854h2.854V132.133z M181.266,132.133h-2.854v-2.854h2.854V132.133z M175.559,132.133
		h-2.854v-2.854h2.854V132.133z M172.705,132.133h-2.854v-2.854h2.854V132.133z M241.178,134.986h-2.854v-2.854h2.854V134.986z
		 M235.472,134.986h-2.853v-2.854h2.853V134.986z M232.619,134.986h-2.854v-2.854h2.854V134.986z M221.207,134.986h-2.854v-2.854
		h2.854V134.986z M218.354,134.986H215.5v-2.854h2.854V134.986z M212.647,134.986h-2.853v-2.854h2.853V134.986z M209.795,134.986
		h-2.854v-2.854h2.854V134.986z M206.941,134.986h-2.854v-2.854h2.854V134.986z M201.236,134.986h-2.854v-2.854h2.854V134.986z
		 M189.824,134.986h-2.852v-2.854h2.852V134.986z M186.973,134.986h-2.854v-2.854h2.854V134.986z M184.119,134.986h-2.854v-2.854
		h2.854V134.986z M172.705,134.986h-2.854v-2.854h2.854V134.986z M241.178,137.839h-2.854v-2.854h2.854V137.839z M235.472,137.839
		h-2.853v-2.854h2.853V137.839z M232.619,137.839h-2.854v-2.854h2.854V137.839z M226.912,137.839h-2.854v-2.854h2.854V137.839z
		 M224.059,137.839h-2.852v-2.854h2.852V137.839z M221.207,137.839h-2.854v-2.854h2.854V137.839z M215.5,137.839h-2.853v-2.854
		h2.853V137.839z M206.941,137.839h-2.854v-2.854h2.854V137.839z M204.088,137.839h-2.852v-2.854h2.852V137.839z M201.236,137.839
		h-2.854v-2.854h2.854V137.839z M198.383,137.839h-2.854v-2.854h2.854V137.839z M195.531,137.839h-2.854v-2.854h2.854V137.839z
		 M192.676,137.839h-2.852v-2.854h2.852V137.839z M189.824,137.839h-2.852v-2.854h2.852V137.839z M186.973,137.839h-2.854v-2.854
		h2.854V137.839z M184.119,137.839h-2.854v-2.854h2.854V137.839z M178.412,137.839h-2.854v-2.854h2.854V137.839z M218.354,140.691
		H215.5v-2.852h2.854V140.691z M209.795,140.691h-2.854v-2.852h2.854V140.691z M198.383,140.691h-2.854v-2.852h2.854V140.691z
		 M195.531,140.691h-2.854v-2.852h2.854V140.691z M184.119,140.691h-2.854v-2.852h2.854V140.691z M181.266,140.691h-2.854v-2.852
		h2.854V140.691z M241.178,143.543h-2.854v-2.852h2.854V143.543z M238.324,143.543h-2.854v-2.852h2.854V143.543z M235.472,143.543
		h-2.853v-2.852h2.853V143.543z M232.619,143.543h-2.854v-2.852h2.854V143.543z M229.766,143.543h-2.854v-2.852h2.854V143.543z
		 M226.912,143.543h-2.854v-2.852h2.854V143.543z M224.059,143.543h-2.852v-2.852h2.852V143.543z M218.354,143.543H215.5v-2.852
		h2.854V143.543z M215.5,143.543h-2.853v-2.852h2.853V143.543z M212.647,143.543h-2.853v-2.852h2.853V143.543z M204.088,143.543
		h-2.852v-2.852h2.852V143.543z M201.236,143.543h-2.854v-2.852h2.854V143.543z M195.531,143.543h-2.854v-2.852h2.854V143.543z
		 M189.824,143.543h-2.852v-2.852h2.852V143.543z M184.119,143.543h-2.854v-2.852h2.854V143.543z M178.412,143.543h-2.854v-2.852
		h2.854V143.543z M175.559,143.543h-2.854v-2.852h2.854V143.543z M172.705,143.543h-2.854v-2.852h2.854V143.543z M241.178,146.396
		h-2.854v-2.854h2.854V146.396z M224.059,146.396h-2.852v-2.854h2.852V146.396z M215.5,146.396h-2.853v-2.854h2.853V146.396z
		 M212.647,146.396h-2.853v-2.854h2.853V146.396z M206.941,146.396h-2.854v-2.854h2.854V146.396z M195.531,146.396h-2.854v-2.854
		h2.854V146.396z M184.119,146.396h-2.854v-2.854h2.854V146.396z M181.266,146.396h-2.854v-2.854h2.854V146.396z M172.705,146.396
		h-2.854v-2.854h2.854V146.396z M241.178,149.25h-2.854v-2.854h2.854V149.25z M235.472,149.25h-2.853v-2.854h2.853V149.25z
		 M232.619,149.25h-2.854v-2.854h2.854V149.25z M229.766,149.25h-2.854v-2.854h2.854V149.25z M224.059,149.25h-2.852v-2.854h2.852
		V149.25z M218.354,149.25H215.5v-2.854h2.854V149.25z M206.941,149.25h-2.854v-2.854h2.854V149.25z M204.088,149.25h-2.852v-2.854
		h2.852V149.25z M201.236,149.25h-2.854v-2.854h2.854V149.25z M198.383,149.25h-2.854v-2.854h2.854V149.25z M195.531,149.25h-2.854
		v-2.854h2.854V149.25z M192.676,149.25h-2.852v-2.854h2.852V149.25z M189.824,149.25h-2.852v-2.854h2.852V149.25z M186.973,149.25
		h-2.854v-2.854h2.854V149.25z M184.119,149.25h-2.854v-2.854h2.854V149.25z M178.412,149.25h-2.854v-2.854h2.854V149.25z
		 M175.559,149.25h-2.854v-2.854h2.854V149.25z M241.178,152.104h-2.854v-2.854h2.854V152.104z M235.472,152.104h-2.853v-2.854
		h2.853V152.104z M232.619,152.104h-2.854v-2.854h2.854V152.104z M229.766,152.104h-2.854v-2.854h2.854V152.104z M224.059,152.104
		h-2.852v-2.854h2.852V152.104z M218.354,152.104H215.5v-2.854h2.854V152.104z M212.647,152.104h-2.853v-2.854h2.853V152.104z
		 M209.795,152.104h-2.854v-2.854h2.854V152.104z M192.676,152.104h-2.852v-2.854h2.852V152.104z M189.824,152.104h-2.852v-2.854
		h2.852V152.104z M184.119,152.104h-2.854v-2.854h2.854V152.104z M181.266,152.104h-2.854v-2.854h2.854V152.104z M178.412,152.104
		h-2.854v-2.854h2.854V152.104z M175.559,152.104h-2.854v-2.854h2.854V152.104z M172.705,152.104h-2.854v-2.854h2.854V152.104z
		 M241.178,154.958h-2.854v-2.854h2.854V154.958z M235.472,154.958h-2.853v-2.854h2.853V154.958z M232.619,154.958h-2.854v-2.854
		h2.854V154.958z M229.766,154.958h-2.854v-2.854h2.854V154.958z M224.059,154.958h-2.852v-2.854h2.852V154.958z M218.354,154.958
		H215.5v-2.854h2.854V154.958z M212.647,154.958h-2.853v-2.854h2.853V154.958z M206.941,154.958h-2.854v-2.854h2.854V154.958z
		 M201.236,154.958h-2.854v-2.854h2.854V154.958z M181.266,154.958h-2.854v-2.854h2.854V154.958z M178.412,154.958h-2.854v-2.854
		h2.854V154.958z M172.705,154.958h-2.854v-2.854h2.854V154.958z M241.178,157.811h-2.854v-2.854h2.854V157.811z M224.059,157.811
		h-2.852v-2.854h2.852V157.811z M218.354,157.811H215.5v-2.854h2.854V157.811z M212.647,157.811h-2.853v-2.854h2.853V157.811z
		 M201.236,157.811h-2.854v-2.854h2.854V157.811z M195.531,157.811h-2.854v-2.854h2.854V157.811z M186.973,157.811h-2.854v-2.854
		h2.854V157.811z M184.119,157.811h-2.854v-2.854h2.854V157.811z M181.266,157.811h-2.854v-2.854h2.854V157.811z M172.705,157.811
		h-2.854v-2.854h2.854V157.811z M241.178,160.664h-2.854v-2.854h2.854V160.664z M238.324,160.664h-2.854v-2.854h2.854V160.664z
		 M235.472,160.664h-2.853v-2.854h2.853V160.664z M232.619,160.664h-2.854v-2.854h2.854V160.664z M229.766,160.664h-2.854v-2.854
		h2.854V160.664z M226.912,160.664h-2.854v-2.854h2.854V160.664z M224.059,160.664h-2.852v-2.854h2.852V160.664z M218.354,160.664
		H215.5v-2.854h2.854V160.664z M215.5,160.664h-2.853v-2.854h2.853V160.664z M212.647,160.664h-2.853v-2.854h2.853V160.664z
		 M209.795,160.664h-2.854v-2.854h2.854V160.664z M206.941,160.664h-2.854v-2.854h2.854V160.664z M201.236,160.664h-2.854v-2.854
		h2.854V160.664z M189.824,160.664h-2.852v-2.854h2.852V160.664z M186.973,160.664h-2.854v-2.854h2.854V160.664z M184.119,160.664
		h-2.854v-2.854h2.854V160.664z M181.266,160.664h-2.854v-2.854h2.854V160.664z M178.412,160.664h-2.854v-2.854h2.854V160.664z
		 M175.559,160.664h-2.854v-2.854h2.854V160.664z M172.705,160.664h-2.854v-2.854h2.854V160.664z"/>
</g>
<text transform="matrix(-1 0 0 1 226.5039 83.8335)" font-family="'MyriadPro-Regular'" font-size="12">MIRROR</text>
</svg>
